<?xml version="1.0" standalone="no"?>
<!DOCTYPE svg PUBLIC "-//W3C//DTD SVG 1.1//EN" "http://www.w3.org/Graphics/SVG/1.1/DTD/svg11.dtd" >
<svg>
<metadata>
Created by FontForge 20120731 at Wed Jul  3 14:21:35 2019
 By www-data
Berthold first published Akzidenz-Grotesk in 1896. The design originates from Royal Grotesk light by Ferdinand Theinhardt who also supplied the regular, medium and bold weights. Throughout the years, Berthold has expanded this extremely popular and versatile family. AG Super was developed in 1968 by Guenter Gerhard Lange and is an excellent choice for headlines. In 2001, Guenter Gerhard Lange added more weights for Berthold including Super Italic and Extra Bold italic.
</metadata>
<defs>
<font id="AkzidenzGroteskBE-BoldEx" horiz-adv-x="375" >
  <font-face 
    font-family="Akzidenz Grotesk BE BoldEx"
    font-weight="700"
    font-stretch="expanded"
    units-per-em="1000"
    panose-1="2 0 5 5 6 0 0 2 0 4"
    ascent="750"
    descent="-250"
    x-height="530"
    cap-height="706"
    bbox="-229 -258 1791 932"
    underline-thickness="50"
    underline-position="-50"
    stemh="159"
    stemv="235"
    unicode-range="U+0020-FB02"
  />
<missing-glyph horiz-adv-x="500" 
d="M0 0v706h500v-706h-500zM250 401l170 255h-340zM280 353l170 -258v516zM80 50h340l-170 258zM50 611v-516l170 258z" />
    <glyph glyph-name="fi" unicode="fi" horiz-adv-x="729" 
d="M679 582h-235v124h235v-124zM679 0h-234v530h234v-530zM398 578c-8 1 -33 2 -49 2c-35 0 -52 -15 -52 -51v-21h100v-137h-90v-371h-235v371h-77v137h79v61c0 40 5 76 36 105c35 32 81 32 124 32h164v-128z" />
    <glyph glyph-name="fl" unicode="fl" horiz-adv-x="729" 
d="M681 0h-237v706h237v-706zM398 578c-8 1 -33 2 -49 2c-35 0 -52 -15 -52 -51v-21h100v-137h-90v-371h-235v371h-77v137h79v61c0 40 5 76 36 105c35 32 81 32 124 32h164v-128z" />
    <glyph glyph-name=".notdef" horiz-adv-x="500" 
d="M0 0v706h500v-706h-500zM250 401l170 255h-340zM280 353l170 -258v516zM80 50h340l-170 258zM50 611v-516l170 258z" />
    <glyph glyph-name="space" unicode=" " 
 />
    <glyph glyph-name="exclam" unicode="!" horiz-adv-x="333" 
d="M301 706v-136c0 -61 -6 -121 -11 -181l-10 -127h-188l-9 127c-4 56 -12 120 -12 180v137h230zM280 0h-188v185h188v-185z" />
    <glyph glyph-name="quotedbl" unicode="&#x22;" horiz-adv-x="356" 
d="M350 741l-54 -288h-43l-57 288h154zM160 741l-54 -288h-43l-57 288h154z" />
    <glyph glyph-name="numbersign" unicode="#" horiz-adv-x="692" 
d="M677 406h-137l-8 -96h133v-124h-144l-16 -186h-126l17 186h-128l-17 -186h-123l15 186h-129v124h140l8 96h-135v124h145l15 176h124l-14 -176h128l15 176h125l-15 -176h127v-124zM414 406h-127l-9 -96h128z" />
    <glyph glyph-name="dollar" unicode="$" horiz-adv-x="854" 
d="M790 474l-235 -12c-4 69 -80 78 -91 79v-127c45 -3 91 -8 137 -13c53 -6 106 -17 149 -48c47 -34 63 -74 63 -130c0 -209 -271 -245 -348 -245v-138h-91v137c-36 0 -322 4 -365 227l244 11c7 -63 71 -86 121 -94v160c-138 13 -224 21 -277 56c-23 15 -65 55 -65 129
c0 22 5 76 47 124c77 88 224 96 293 98v116h92v-115c75 -7 287 -21 326 -215zM374 424v119c-2 0 -46 -4 -69 -18c-26 -15 -31 -39 -31 -51c0 -35 30 -39 100 -50zM464 270v-151c25 4 107 18 107 83c0 45 -36 58 -107 68z" />
    <glyph glyph-name="percent" unicode="%" horiz-adv-x="1250" 
d="M916 676l-494 -706l-88 62l495 704zM541 487c0 -169 -110 -234 -274 -234c-122 0 -246 52 -246 230c0 153 89 234 265 234c172 0 255 -95 255 -230zM373 481c0 61 -18 124 -94 124c-53 0 -91 -38 -91 -125c0 -56 18 -120 90 -120c74 0 95 60 95 121zM1229 222
c0 -86 -25 -234 -274 -234c-122 0 -246 52 -246 230c0 92 37 234 265 234c172 0 255 -95 255 -230zM1060 216c0 61 -17 124 -93 124c-57 0 -91 -38 -91 -125c0 -56 16 -120 90 -120s94 60 94 121z" />
    <glyph glyph-name="ampersand" unicode="&#x26;" horiz-adv-x="854" 
d="M667 313l180 -25c-35 -87 -94 -140 -117 -158l122 -130h-251l-32 34c-38 -17 -129 -53 -260 -53c-163 0 -298 79 -298 212c0 20 2 58 31 99c45 62 119 83 189 104c-12 17 -43 51 -43 109c0 56 22 165 270 165c164 0 255 -62 255 -166c0 -40 -15 -79 -44 -106
c-44 -40 -120 -60 -131 -62l87 -89c21 23 29 38 42 66zM450 443c13 3 79 17 79 64c0 21 -14 53 -63 53c-44 0 -59 -27 -59 -46s23 -59 43 -71zM464 145l-136 146c-38 -12 -85 -31 -85 -79c0 -23 19 -85 119 -85c24 0 53 3 102 18z" />
    <glyph glyph-name="quoteright" unicode="&#x2019;" horiz-adv-x="313" 
d="M42 706h229v-159c0 -28 -3 -64 -13 -89c-32 -85 -125 -117 -209 -117h-8v84c66 5 86 34 91 100h-90v181z" />
    <glyph glyph-name="parenleft" unicode="(" 
d="M375 -135l-114 -88c-132 134 -225 301 -225 493c0 134 46 246 123 353c31 43 62 82 99 120l114 -86c-87 -124 -110 -247 -110 -397c0 -147 30 -271 113 -395z" />
    <glyph glyph-name="parenright" unicode=")" 
d="M-1 657l113 87c133 -131 226 -304 226 -493c0 -183 -98 -345 -222 -473l-114 87c86 122 110 245 110 393c0 147 -30 276 -113 399z" />
    <glyph glyph-name="asterisk" unicode="*" horiz-adv-x="411" 
d="M394 534l-99 -34l61 -78l-85 -67l-66 85l-61 -85l-87 64l57 79l-98 29l31 104l101 -30v105h108v-105l103 35z" />
    <glyph glyph-name="plus" unicode="+" horiz-adv-x="772" 
d="M686 222h-196v-194h-205v194h-199v163h199v193h205v-193h196v-163z" />
    <glyph glyph-name="comma" unicode="," horiz-adv-x="313" 
d="M40 184h231v-169c0 -130 -98 -200 -221 -200h-10v82c67 7 84 40 91 103h-91v184z" />
    <glyph glyph-name="hyphen" unicode="-" horiz-adv-x="415" 
d="M386 228h-357v175h357v-175z" />
    <glyph glyph-name="period" unicode="." horiz-adv-x="313" 
d="M271 0h-230v184h230v-184z" />
    <glyph glyph-name="slash" unicode="/" horiz-adv-x="479" 
d="M461 706l-278 -706h-187l277 706h188z" />
    <glyph glyph-name="zero" unicode="0" horiz-adv-x="854" 
d="M827 335c0 -232 -146 -355 -399 -355c-201 0 -402 80 -402 353c0 224 118 360 421 360c257 0 380 -132 380 -358zM583 345c0 67 -16 200 -153 200c-131 0 -159 -119 -159 -201c0 -61 8 -209 155 -209c121 0 157 101 157 210z" />
    <glyph glyph-name="one" unicode="1" horiz-adv-x="854" 
d="M561 0h-234v474c-54 -18 -70 -24 -164 -31v144c40 4 65 8 106 23c60 23 88 47 117 68h175v-678z" />
    <glyph glyph-name="two" unicode="2" horiz-adv-x="854" 
d="M779 0h-707c0 94 14 148 45 197c42 68 138 122 240 168l107 49c39 18 65 39 65 71c0 55 -73 60 -110 60c-99 0 -117 -47 -119 -103c0 0 -190 5 -208 5c0 194 129 242 352 242c225 0 324 -69 324 -196c0 -38 -10 -88 -77 -140c-37 -28 -77 -49 -161 -85
c-47 -20 -93 -40 -139 -63c-38 -19 -54 -30 -61 -48c16 1 129 2 147 2h302v-159z" />
    <glyph glyph-name="three" unicode="3" horiz-adv-x="854" 
d="M278 283v129h136c44 0 116 6 116 68c0 58 -62 68 -109 68c-96 0 -141 -24 -157 -62l-229 11c9 41 17 66 44 98c73 89 231 101 335 101c168 0 372 -15 372 -193c0 -97 -90 -130 -161 -143c55 -7 178 -32 178 -154c0 -40 -10 -118 -101 -168c-84 -46 -205 -54 -299 -54
c-172 0 -270 21 -335 80c-38 34 -64 80 -73 140l225 10c26 -78 139 -78 180 -78c17 0 84 1 117 24c25 17 28 43 28 55c0 47 -37 68 -112 68h-155z" />
    <glyph glyph-name="four" unicode="4" horiz-adv-x="854" 
d="M817 123h-119v-123h-225v123h-444v148l399 406h271v-395h118v-159zM473 282v215l-213 -215h213z" />
    <glyph glyph-name="five" unicode="5" horiz-adv-x="854" 
d="M105 678h674l-14 -155h-475l-9 -102c40 15 111 42 219 42c95 0 206 -21 269 -99c40 -49 42 -95 42 -120c0 -22 -3 -67 -34 -117c-79 -129 -251 -143 -386 -143c-62 0 -336 9 -357 208l240 8c11 -51 101 -66 144 -66c61 0 147 23 147 100c0 76 -97 91 -152 91
c-47 0 -96 -9 -132 -39c0 0 -193 5 -210 5z" />
    <glyph glyph-name="six" unicode="6" horiz-adv-x="854" 
d="M802 514l-254 -10c-21 25 -51 44 -111 44c-19 0 -76 -2 -117 -46c-35 -38 -41 -72 -47 -139c54 54 131 89 249 89c19 0 119 -1 192 -41c34 -19 105 -71 105 -180c0 -165 -159 -243 -370 -243c-251 0 -412 99 -412 348c0 31 4 136 64 222c54 77 150 138 355 138
c108 0 194 -26 235 -47c66 -33 101 -99 111 -135zM580 227c0 65 -66 86 -142 86c-70 0 -143 -22 -143 -86c0 -68 68 -89 149 -89c89 0 136 33 136 89z" />
    <glyph glyph-name="seven" unicode="7" horiz-adv-x="854" 
d="M63 677h747l-7 -78c-5 -61 -14 -89 -54 -137c-31 -38 -61 -61 -98 -95c-60 -54 -124 -108 -173 -171c-49 -64 -64 -118 -83 -196h-268c3 23 9 56 24 105c13 40 35 110 110 180c34 31 85 67 124 92c17 11 36 21 95 63c41 29 47 50 50 76h-467v161z" />
    <glyph glyph-name="eight" unicode="8" horiz-adv-x="854" 
d="M204 356c-49 11 -140 43 -140 133c0 180 255 202 382 202c132 0 348 -33 348 -197c0 -62 -49 -118 -142 -140c25 -5 161 -29 161 -157c0 -82 -46 -209 -393 -209c-296 0 -378 108 -378 209c0 35 5 123 162 159zM551 482c0 52 -52 66 -130 66c-52 0 -116 -14 -116 -68
c0 -52 44 -66 124 -66c86 0 122 25 122 68zM566 213c0 36 -16 79 -137 79c-74 0 -140 -15 -140 -78c0 -46 34 -79 130 -79c109 0 147 29 147 78z" />
    <glyph glyph-name="nine" unicode="9" horiz-adv-x="854" 
d="M567 307c-52 -50 -122 -78 -234 -78c-103 0 -302 30 -302 219c0 106 70 242 393 242c285 0 387 -142 387 -334c0 -220 -121 -371 -416 -371c-159 0 -332 31 -366 186c23 1 263 6 263 6c24 -27 47 -44 100 -44c137 0 175 101 175 168v6zM559 457c0 77 -81 85 -157 85
c-30 0 -132 -7 -132 -83c0 -75 87 -84 141 -84c35 0 148 2 148 82z" />
    <glyph glyph-name="colon" unicode=":" horiz-adv-x="354" 
d="M313 345h-232v183h232v-183zM311 0h-231v184h231v-184z" />
    <glyph glyph-name="semicolon" unicode=";" horiz-adv-x="354" 
d="M310 346h-232v185h232v-185zM78 184h232v-169c0 -152 -123 -200 -232 -200v82c67 7 84 40 91 103h-91v184z" />
    <glyph glyph-name="less" unicode="&#x3c;" horiz-adv-x="772" 
d="M648 12l-541 210v182l541 210v-188l-307 -106l307 -113v-195z" />
    <glyph glyph-name="equal" unicode="=" horiz-adv-x="772" 
d="M678 359h-584v164h584v-164zM678 88h-584v163h584v-163z" />
    <glyph glyph-name="greater" unicode="&#x3e;" horiz-adv-x="772" 
d="M665 221l-541 -210v187l307 106l-307 113v196l541 -210v-182z" />
    <glyph glyph-name="question" unicode="?" horiz-adv-x="771" 
d="M503 260h-216c0 98 21 108 145 168c26 13 70 28 70 77c0 45 -38 77 -107 77c-57 0 -130 -11 -130 -122v-9l-202 12c1 21 4 49 8 70c5 26 27 95 95 138c72 46 172 51 254 51c96 0 225 -6 292 -92c14 -17 38 -56 38 -115c0 -42 -8 -104 -158 -177c-67 -33 -89 -49 -89 -78z
M504 0h-215v184h215v-184z" />
    <glyph glyph-name="at" unicode="@" horiz-adv-x="922" 
d="M814 109l63 -73c-57 -48 -82 -66 -134 -93c-90 -47 -176 -68 -274 -68c-262 0 -434 155 -434 391c0 259 201 446 480 446c216 0 355 -121 355 -310c0 -181 -120 -337 -259 -337c-50 0 -87 26 -98 68c-39 -45 -82 -67 -132 -67c-95 0 -160 71 -160 174
c0 151 109 282 236 282c48 0 82 -16 115 -60l11 40h111l-42 -196c-10 -47 -17 -89 -17 -109c0 -17 7 -26 19 -26c47 0 110 139 110 228c0 147 -99 222 -251 222c-208 0 -366 -153 -366 -356c0 -182 126 -296 326 -296c120 0 233 46 341 140zM349 248c0 -50 25 -81 65 -81
c62 0 122 84 122 171c0 55 -29 83 -69 83c-63 0 -118 -82 -118 -173z" />
    <glyph glyph-name="A" unicode="A" horiz-adv-x="896" 
d="M898 0h-275l-38 115h-270l-38 -115h-278l305 706h288zM532 271l-83 239l-81 -239h164z" />
    <glyph glyph-name="B" unicode="B" horiz-adv-x="938" 
d="M61 706h601c104 0 216 -27 216 -165c0 -77 -37 -133 -135 -159c44 -7 84 -14 119 -44c42 -35 52 -78 52 -130c0 -21 -1 -74 -41 -123c-65 -78 -179 -85 -269 -85h-543v706zM316 437h250c39 0 70 14 70 56c0 38 -26 54 -65 54h-255v-110zM314 284v-123h267
c49 0 82 16 82 65c0 57 -47 58 -64 58h-285z" />
    <glyph glyph-name="C" unicode="C" horiz-adv-x="938" 
d="M924 513l-234 -41c-37 74 -103 103 -177 103c-26 0 -106 -3 -164 -64c-39 -41 -55 -101 -55 -157c0 -75 27 -120 46 -144c56 -72 130 -74 162 -74c104 0 174 56 194 118l241 -25c-8 -26 -27 -84 -80 -138c-91 -92 -238 -115 -361 -115c-133 0 -209 25 -262 50
c-70 33 -205 120 -205 327c0 74 23 383 475 383c192 0 301 -50 360 -115c39 -42 54 -89 60 -108z" />
    <glyph glyph-name="D" unicode="D" horiz-adv-x="917" 
d="M62 706h401c227 0 311 -74 362 -147c60 -86 62 -176 62 -214c0 -43 -2 -212 -154 -295c-66 -36 -123 -50 -223 -50h-448v706zM309 160h133c196 0 198 158 198 191c0 22 -3 102 -65 149c-48 37 -116 38 -141 38h-125v-378z" />
    <glyph glyph-name="E" unicode="E" horiz-adv-x="833" 
d="M814 0h-754v706h745v-158h-492v-116h455v-159h-455v-113h501v-160z" />
    <glyph glyph-name="F" unicode="F" horiz-adv-x="750" 
d="M753 547h-439v-135h403v-158h-403v-254h-253v706h692v-159z" />
    <glyph glyph-name="G" unicode="G" horiz-adv-x="1000" 
d="M950 0h-219v78c-66 -59 -158 -99 -299 -99c-187 0 -403 99 -403 365c0 47 6 156 94 252c66 71 181 142 395 142c26 0 169 -2 271 -52c75 -37 117 -90 138 -142l-250 -27c-24 26 -68 62 -155 62c-22 0 -86 -1 -142 -41c-32 -23 -91 -81 -91 -187c0 -22 3 -88 47 -140
c42 -49 109 -71 172 -71c116 0 196 69 205 123h-184v160h421v-423z" />
    <glyph glyph-name="H" unicode="H" horiz-adv-x="938" 
d="M878 0h-256v271h-309v-271h-254v706h255v-257h308v257h256v-706z" />
    <glyph glyph-name="I" unicode="I" 
d="M314 0h-253v706h253v-706z" />
    <glyph glyph-name="J" unicode="J" horiz-adv-x="458" 
d="M140 706h254v-495c0 -32 -3 -103 -56 -154c-54 -52 -128 -57 -198 -57h-145v167h65c22 0 47 1 63 18c15 15 17 35 17 55v466z" />
    <glyph glyph-name="K" unicode="K" horiz-adv-x="833" 
d="M871 0h-304l-185 267l-88 -84v-183h-234v706h235v-264l237 264h307l-277 -267z" />
    <glyph glyph-name="L" unicode="L" horiz-adv-x="688" 
d="M675 0h-615v706h254v-534h361v-172z" />
    <glyph glyph-name="M" unicode="M" horiz-adv-x="1146" 
d="M1085 0h-249v452l-167 -452h-195l-166 450v-450h-248v706h335l178 -461l178 461h334v-706z" />
    <glyph glyph-name="N" unicode="N" horiz-adv-x="917" 
d="M857 0h-210l-335 378v-378h-250v706h209l337 -372v372h249v-706z" />
    <glyph glyph-name="O" unicode="O" horiz-adv-x="1000" 
d="M969 356c0 -63 -13 -205 -156 -302c-92 -62 -193 -78 -318 -78c-150 0 -240 34 -298 67c-150 87 -167 233 -167 299c0 178 92 270 153 311c60 41 155 79 313 79c250 0 351 -78 409 -162c23 -34 64 -107 64 -214zM709 354c0 77 -36 221 -207 221
c-146 0 -212 -107 -212 -222c0 -95 50 -221 213 -221c177 0 206 144 206 222z" />
    <glyph glyph-name="P" unicode="P" horiz-adv-x="833" 
d="M61 706h484c112 0 216 -4 267 -107c11 -23 25 -59 25 -118c0 -34 -4 -128 -90 -185c-68 -46 -166 -47 -243 -47h-191v-249h-252v706zM313 546v-138h165c29 0 43 0 57 4c31 8 49 32 49 65c0 18 -6 30 -9 36c-17 30 -48 33 -78 33h-184z" />
    <glyph glyph-name="Q" unicode="Q" horiz-adv-x="1000" 
d="M1006 57l-90 -174l-228 116c-48 -13 -89 -23 -188 -23c-160 0 -250 33 -312 73c-55 35 -158 125 -158 302c0 37 4 127 62 213c94 139 255 168 412 168c124 0 248 -18 346 -101c99 -84 119 -189 119 -282c0 -40 -5 -139 -85 -233zM710 348c0 145 -95 227 -205 227
c-157 0 -212 -131 -212 -230c0 -198 168 -213 209 -213c141 0 208 98 208 216z" />
    <glyph glyph-name="R" unicode="R" horiz-adv-x="875" 
d="M872 0h-279l-146 257h-134v-257h-254v706h520c95 0 186 -7 243 -97c13 -21 36 -63 36 -127c0 -44 -11 -168 -162 -200zM313 546v-130h190c48 0 73 6 89 25c13 16 14 32 14 40c0 6 -1 22 -11 36c-17 25 -45 29 -72 29h-210z" />
    <glyph glyph-name="S" unicode="S" horiz-adv-x="812" 
d="M10 211c32 0 249 7 249 7c16 -74 110 -81 156 -81c78 0 123 28 123 71c0 33 -29 51 -73 60l-173 34c-167 33 -247 87 -247 207c0 57 22 93 38 114c56 78 164 113 318 113c102 0 183 -14 222 -28c44 -15 95 -47 125 -100c18 -33 23 -69 24 -78l-247 -14
c-16 62 -82 65 -125 65c-24 0 -111 -2 -111 -56c0 -41 44 -53 146 -74l89 -18c96 -19 260 -47 260 -204c0 -16 -2 -77 -45 -133c-67 -86 -189 -117 -360 -117c-117 0 -346 15 -369 232z" />
    <glyph glyph-name="T" unicode="T" horiz-adv-x="771" 
d="M763 548h-250v-548h-254v548h-251v158h755v-158z" />
    <glyph glyph-name="U" unicode="U" horiz-adv-x="958" 
d="M61 706h252v-401c0 -51 4 -96 45 -133c44 -40 105 -40 122 -40c14 0 77 1 119 37c44 39 46 97 46 140v397h252v-391c0 -90 -3 -180 -75 -248c-62 -58 -166 -92 -346 -92c-95 0 -293 1 -378 128c-37 56 -37 121 -37 147v456z" />
    <glyph glyph-name="V" unicode="V" horiz-adv-x="854" 
d="M865 706l-322 -706h-235l-320 706h265l172 -426l175 426h265z" />
    <glyph glyph-name="W" unicode="W" horiz-adv-x="1083" 
d="M1094 706l-170 -706h-271l-110 440l-112 -440h-273l-171 706h247l78 -455l105 455h258l96 -453l77 453h246z" />
    <glyph glyph-name="X" unicode="X" horiz-adv-x="938" 
d="M943 0h-315l-159 245l-159 -245h-313l313 383l-266 323h316l110 -192l109 192h315l-263 -324z" />
    <glyph glyph-name="Y" unicode="Y" horiz-adv-x="875" 
d="M884 706l-320 -496v-210h-251v210l-324 496h295l154 -281l154 281h292z" />
    <glyph glyph-name="Z" unicode="Z" horiz-adv-x="833" 
d="M811 555l-449 -388h448v-167h-804v149l468 398h-430v159h767v-151z" />
    <glyph glyph-name="bracketleft" unicode="[" horiz-adv-x="360" 
d="M348 -211h-277v971h277v-138h-113v-693h113v-140z" />
    <glyph glyph-name="backslash" unicode="\" horiz-adv-x="479" 
d="M461 0h-188l-277 706h187z" />
    <glyph glyph-name="bracketright" unicode="]" horiz-adv-x="360" 
d="M290 -211h-278v138h114v693h-114v140h278v-971z" />
    <glyph glyph-name="asciicircum" unicode="^" horiz-adv-x="772" 
d="M691 286h-213l-96 199l-94 -199h-207l214 420h183z" />
    <glyph glyph-name="underscore" unicode="_" horiz-adv-x="500" 
d="M510 -246h-520v141h520v-141z" />
    <glyph glyph-name="quoteleft" unicode="&#x2018;" horiz-adv-x="313" 
d="M270 343h-228v198c0 140 110 169 228 171v-81c-73 -7 -91 -45 -92 -101h92v-187z" />
    <glyph glyph-name="a" unicode="a" horiz-adv-x="792" 
d="M769 0h-245c-6 24 -7 26 -9 51c-39 -18 -140 -66 -263 -66c-172 0 -233 86 -233 168c0 146 125 185 486 185h6v6c0 62 -70 69 -114 69c-43 0 -122 -7 -129 -48h-227c11 69 42 114 93 141c54 29 155 42 255 42c275 0 351 -56 351 -191v-280c0 -47 10 -59 29 -77zM514 243
l-137 -7c-76 -4 -119 -16 -119 -58c0 -22 20 -53 82 -53c37 0 111 16 149 59c16 18 20 35 25 59z" />
    <glyph glyph-name="b" unicode="b" horiz-adv-x="792" 
d="M48 706h237v-222c35 24 88 62 204 62c182 0 278 -123 278 -277c0 -163 -108 -278 -296 -278c-97 0 -152 35 -186 56v-47h-237v706zM528 269c0 61 -38 118 -121 118c-99 0 -125 -73 -125 -119c0 -68 49 -122 122 -122c50 0 124 27 124 123z" />
    <glyph glyph-name="c" unicode="c" horiz-adv-x="812" 
d="M570 206l234 -9c-39 -137 -162 -214 -394 -214c-239 0 -386 106 -386 281c0 84 46 290 407 290c89 0 188 -17 263 -69c69 -48 88 -102 97 -128l-233 -21c-17 52 -80 76 -131 76c-86 0 -152 -55 -152 -142c0 -85 57 -148 156 -148c21 0 112 4 139 84z" />
    <glyph glyph-name="d" unicode="d" horiz-adv-x="792" 
d="M743 0h-236v52c-34 -29 -110 -64 -200 -64c-170 0 -281 115 -281 275c0 130 83 284 282 284c108 0 163 -41 199 -70v229h236v-706zM507 268c0 55 -28 119 -121 119c-73 0 -124 -43 -124 -119c0 -69 45 -124 122 -124c73 0 123 52 123 124z" />
    <glyph glyph-name="e" unicode="e" horiz-adv-x="812" 
d="M782 155c-48 -99 -170 -170 -376 -170c-175 0 -380 67 -380 283c0 53 16 146 107 209c65 46 140 68 273 68c113 0 233 -18 315 -103c50 -53 75 -115 75 -210h-526c19 -100 117 -113 147 -113c59 0 104 30 119 48zM278 324h270c-13 36 -46 85 -135 85
c-23 0 -108 -2 -135 -85z" />
    <glyph glyph-name="f" unicode="f" horiz-adv-x="396" 
d="M398 706v-128c-8 1 -33 2 -49 2c-35 0 -52 -15 -52 -51v-21h100v-137h-90v-371h-235v371h-77v137h79v61c0 40 5 76 36 105c35 32 81 32 124 32h164z" />
    <glyph glyph-name="g" unicode="g" horiz-adv-x="792" 
d="M742 530v-497c0 -32 -4 -113 -77 -168c-54 -41 -139 -75 -290 -75c-174 0 -273 62 -313 128c-21 34 -26 70 -28 84h239c1 -19 6 -34 20 -48c23 -24 56 -29 89 -29c73 0 105 24 118 59c5 13 7 24 7 50v55c-45 -29 -109 -54 -208 -54c-15 0 -52 1 -94 13
c-54 16 -185 70 -185 234c0 125 77 191 117 215c28 17 89 43 174 43c90 0 147 -25 195 -58v48h236zM507 289c0 57 -48 98 -123 98c-92 0 -122 -61 -122 -101c0 -13 9 -100 125 -100c61 0 120 35 120 103z" />
    <glyph glyph-name="h" unicode="h" horiz-adv-x="812" 
d="M763 0h-236v258c0 38 -1 55 -8 72c-17 43 -63 60 -105 60c-49 0 -95 -17 -117 -66c-8 -20 -13 -40 -13 -83v-241h-233v706h237v-242c50 50 118 83 218 83c109 0 180 -44 209 -74c48 -48 48 -116 48 -178v-295z" />
    <glyph glyph-name="i" unicode="i" horiz-adv-x="333" 
d="M283 582h-235v124h235v-124zM283 0h-234v530h234v-530z" />
    <glyph glyph-name="j" unicode="j" horiz-adv-x="333" 
d="M287 582h-238v124h238v-124zM49 530h238v-530c0 -29 -2 -117 -80 -160c-38 -21 -82 -24 -153 -24h-66v143h14c34 0 47 16 47 47v524z" />
    <glyph glyph-name="k" unicode="k" horiz-adv-x="750" 
d="M768 0h-261l-130 196l-95 -82v-114h-234v706h233v-346l182 170h297l-224 -195z" />
    <glyph glyph-name="l" unicode="l" horiz-adv-x="333" 
d="M285 0h-237v706h237v-706z" />
    <glyph glyph-name="m" unicode="m" horiz-adv-x="1146" 
d="M51 0v530h221v-88c36 72 132 94 204 94c122 0 167 -58 184 -89c47 53 125 89 214 89c44 0 94 -10 137 -33c79 -42 83 -104 83 -150v-353h-228v287c0 17 0 34 -6 49c-12 31 -40 45 -77 45c-22 0 -59 -6 -80 -40c-16 -26 -16 -53 -16 -87v-254h-229v258c0 27 0 64 -12 86
c-14 26 -45 42 -76 42c-19 0 -44 -5 -62 -20c-22 -19 -29 -42 -29 -108v-258h-228z" />
    <glyph glyph-name="n" unicode="n" horiz-adv-x="812" 
d="M287 530v-67c58 42 121 77 230 77c71 0 119 -11 163 -37c82 -48 87 -119 87 -224v-279h-237v242c0 35 -2 54 -6 68c-17 61 -70 79 -114 79c-29 0 -57 -7 -79 -25c-43 -35 -44 -81 -44 -128v-236h-238v530h238z" />
    <glyph glyph-name="o" unicode="o" horiz-adv-x="833" 
d="M25 264c0 204 196 280 387 280c301 0 397 -146 397 -278c0 -187 -173 -280 -392 -280c-186 0 -392 70 -392 278zM566 268c0 85 -57 137 -151 137c-105 0 -146 -71 -146 -133c0 -109 80 -143 153 -143c48 0 144 24 144 139z" />
    <glyph glyph-name="p" unicode="p" horiz-adv-x="792" 
d="M48 530h234v-53c32 28 88 66 192 66c33 0 140 -5 217 -82c70 -70 75 -171 75 -201c0 -27 -3 -102 -52 -168c-33 -45 -104 -111 -239 -111c-103 0 -157 38 -193 63v-229h-234v715zM527 265c0 54 -33 118 -118 118c-94 0 -127 -67 -127 -112c0 -65 40 -127 124 -127
c80 0 121 56 121 121z" />
    <glyph glyph-name="q" unicode="q" horiz-adv-x="792" 
d="M742 -188h-235v238c-32 -23 -88 -60 -190 -60c-19 0 -85 2 -144 28c-61 27 -148 93 -148 253c0 22 1 81 32 139c52 95 162 136 264 136c95 0 157 -36 188 -68v52h233v-718zM507 267c0 53 -32 117 -116 117c-87 0 -120 -63 -120 -116c0 -70 52 -119 121 -119
c49 0 115 31 115 118z" />
    <glyph glyph-name="r" unicode="r" horiz-adv-x="458" 
d="M32 530h236v-84c24 41 88 94 183 94v-209c-2 1 -39 4 -56 4c-55 0 -128 -8 -128 -95v-240h-235v530z" />
    <glyph glyph-name="s" unicode="s" horiz-adv-x="729" 
d="M14 161l238 11c9 -52 79 -63 122 -63c77 0 93 27 93 50c0 45 -147 37 -290 77c-59 16 -138 37 -138 140c0 88 72 122 97 134c48 22 117 38 234 38c232 0 314 -84 336 -176l-234 -10c-6 33 -47 57 -113 57c-50 0 -88 -13 -88 -45c0 -33 79 -40 149 -47
c81 -8 185 -23 227 -47c55 -31 60 -83 60 -105c0 -26 -5 -64 -48 -106c-53 -51 -134 -86 -289 -86c-66 0 -250 8 -319 83c-25 27 -34 60 -37 95z" />
    <glyph glyph-name="t" unicode="t" horiz-adv-x="396" 
d="M382 0h-170c-61 0 -153 9 -153 102c0 91 5 226 5 269h-75v137h76s2 143 3 179h227v-179h87v-137h-86v-175c0 -33 15 -46 58 -46h28v-150z" />
    <glyph glyph-name="u" unicode="u" horiz-adv-x="812" 
d="M764 0h-230v72c-24 -22 -89 -84 -235 -84c-127 0 -249 59 -249 215v327h237v-278c0 -107 96 -109 117 -109c61 0 124 29 124 132v255h236v-530z" />
    <glyph glyph-name="v" unicode="v" horiz-adv-x="729" 
d="M731 530l-244 -530h-243l-248 530h257l112 -301l111 301h255z" />
    <glyph glyph-name="w" unicode="w" horiz-adv-x="1083" 
d="M1086 530l-191 -530h-233l-117 331l-132 -331h-237l-177 530h258l50 -305l124 305h238l108 -305l61 305h248z" />
    <glyph glyph-name="x" unicode="x" horiz-adv-x="833" 
d="M836 0h-286l-135 162l-132 -162h-287l280 278l-257 252h287l111 -140l113 140h286l-258 -254z" />
    <glyph glyph-name="y" unicode="y" horiz-adv-x="708" 
d="M713 530l-251 -550c-71 -155 -154 -164 -237 -164h-150v150h109c16 0 48 3 48 31c0 12 -6 25 -10 33l-226 500h258l100 -313l100 313h259z" />
    <glyph glyph-name="z" unicode="z" horiz-adv-x="729" 
d="M695 381l-349 -231h346v-150h-670v151l349 231h-322v148h646v-149z" />
    <glyph glyph-name="braceleft" unicode="{" horiz-adv-x="354" 
d="M363 -218h-69c-143 0 -207 36 -207 159v155c0 85 -21 118 -79 143v69c62 26 79 56 79 172v109c0 122 36 176 199 176h77v-68c-93 -27 -108 -53 -108 -152v-90c0 -136 -32 -153 -106 -182c79 -25 106 -55 106 -181v-90c0 -95 14 -124 108 -151v-69z" />
    <glyph glyph-name="bar" unicode="|" horiz-adv-x="288" 
d="M226 760l-1 -972h-164v972h165z" />
    <glyph glyph-name="braceright" unicode="}" horiz-adv-x="354" 
d="M-11 765h79c115 0 197 -29 197 -153v-161c0 -88 21 -118 79 -143v-69c-65 -28 -79 -55 -79 -172v-104c0 -130 -38 -181 -201 -181h-75v68c91 26 108 53 108 152v96c0 127 33 147 106 176c-78 23 -106 55 -106 181v90c0 92 -14 125 -108 151v69z" />
    <glyph glyph-name="asciitilde" unicode="~" horiz-adv-x="772" 
d="M658 423l68 -147c-41 -38 -59 -50 -105 -72c-40 -18 -72 -26 -108 -26c-33 0 -61 7 -120 30l-42 16c-40 15 -69 22 -97 22c-44 0 -76 -12 -126 -58l-12 -11l-69 150c39 35 53 46 85 64c38 22 81 33 123 33c35 0 64 -7 122 -29l48 -18c44 -16 65 -22 87 -22
c25 0 54 9 77 21c21 10 35 20 69 47z" />
    <glyph glyph-name="exclamdown" unicode="&#xa1;" horiz-adv-x="333" 
d="M32 0v136c0 61 6 121 11 181l10 127h188l9 -127c4 -56 12 -120 12 -180v-137h-230zM53 706h188v-185h-188v185z" />
    <glyph glyph-name="cent" unicode="&#xa2;" horiz-adv-x="833" 
d="M577 204l235 -8c-60 -180 -225 -203 -336 -211v-137h-89v136c-82 5 -236 22 -313 138c-38 58 -39 124 -39 139c0 189 168 290 352 290v119h90v-119c14 0 262 -3 323 -196l-232 -20c-23 59 -82 69 -92 71v-279c62 9 85 46 101 77zM387 131v273c-43 -13 -100 -47 -100 -136
c0 -93 53 -124 100 -137z" />
    <glyph glyph-name="sterling" unicode="&#xa3;" horiz-adv-x="812" 
d="M596 200h200c-1 -64 -4 -132 -57 -178c-22 -19 -68 -44 -142 -44c-87 0 -160 28 -237 63c-80 -57 -162 -64 -198 -64c-73 0 -114 27 -133 52c-8 11 -21 35 -21 69c0 52 35 125 139 125c32 0 71 -7 148 -33c-4 46 -16 64 -42 101h-179v73h116c-13 14 -67 73 -67 146
c0 18 4 53 34 90c64 80 186 88 276 88c164 0 237 -25 289 -88c36 -44 45 -99 48 -156l-216 -11c-1 30 1 67 -23 91c-23 23 -62 23 -74 23c-18 0 -88 -2 -88 -69c0 -33 20 -60 55 -115h152v-74h-110c5 -12 15 -31 15 -63c0 -49 -20 -77 -31 -92c37 -13 52 -15 73 -15
c20 0 73 6 73 81zM247 95c-5 3 -53 28 -90 28c-21 0 -39 -7 -39 -29c0 -30 42 -31 48 -31c41 0 71 23 81 32z" />
    <glyph glyph-name="fraction" unicode="&#x2044;" horiz-adv-x="125" 
d="M353 676l-494 -706l-88 62l495 704z" />
    <glyph glyph-name="yen" unicode="&#xa5;" horiz-adv-x="875" 
d="M884 689l-186 -281h118v-114h-193l-49 -73h242v-113h-252v-108h-251v108h-255v113h244l-49 73h-195v114h119l-188 281h295l154 -273l154 273h292z" />
    <glyph glyph-name="florin" unicode="&#x192;" horiz-adv-x="437" 
d="M450 689l-15 -128c-11 1 -23 4 -45 4c-48 0 -59 -28 -61 -51l-2 -27h100l-16 -135h-91l-41 -358c-16 -142 -25 -203 -196 -203h-157l14 128c11 -1 23 -3 46 -3c54 0 58 31 62 69l41 366h-80l15 136h80l9 70c8 59 24 132 188 132h149z" />
    <glyph glyph-name="section" unicode="&#xa7;" horiz-adv-x="729" 
d="M24 29l229 15c8 -62 50 -79 108 -79c31 0 75 8 75 48s-53 48 -83 56c-72 19 -254 59 -301 113c-22 25 -31 59 -31 91c0 72 45 115 104 147c-41 31 -69 72 -69 125c0 36 15 70 38 98c61 75 182 87 272 87c87 0 215 -12 279 -77c29 -30 42 -63 49 -103l-226 -13
c0 45 -50 60 -86 60c-30 0 -81 -12 -81 -51c0 -30 50 -46 74 -52l152 -40c123 -32 180 -78 180 -158c0 -49 -30 -97 -70 -123c-15 -10 -31 -15 -48 -22c52 -25 86 -69 86 -128c0 -35 -15 -68 -35 -96c-60 -83 -184 -100 -279 -100c-141 0 -322 29 -337 202zM464 198
c14 18 28 39 28 63c0 21 -10 35 -26 48c-32 26 -159 51 -202 61c-20 -16 -32 -38 -32 -64c0 -18 6 -31 19 -43c28 -26 171 -56 213 -65z" />
    <glyph glyph-name="currency" unicode="&#xa4;" horiz-adv-x="752" 
d="M734 119l-125 -119l-88 85c-53 -25 -91 -34 -143 -34c-54 0 -94 10 -142 34l-89 -84l-127 118l89 83c-26 45 -36 84 -36 136c0 53 11 95 37 138l-90 83l126 118l90 -82c41 23 88 34 144 34c52 0 91 -9 141 -34l90 83l123 -120l-86 -80c25 -49 36 -90 36 -138
s-11 -88 -37 -137zM499 339c0 71 -52 126 -120 126c-69 0 -122 -55 -122 -125s54 -124 122 -124c67 0 120 54 120 123z" />
    <glyph glyph-name="quotesingle" unicode="'" horiz-adv-x="166" 
d="M160 741l-54 -288h-43l-57 288h154z" />
    <glyph glyph-name="quotedblleft" unicode="&#x201c;" horiz-adv-x="625" 
d="M583 348h-228v175c0 145 100 188 227 192v-81c-64 -11 -85 -39 -89 -102h90v-184zM271 348h-228v179c0 30 2 60 13 88c34 85 133 99 214 101v-82c-65 -11 -86 -37 -92 -102h93v-184z" />
    <glyph glyph-name="guillemotleft" unicode="&#xab;" horiz-adv-x="521" 
d="M487 64l-206 133v226l206 133v-184l-93 -61l93 -64v-183zM247 375l-95 -64l93 -63v-183l-206 133v228l208 131v-182z" />
    <glyph glyph-name="guilsinglleft" unicode="&#x2039;" horiz-adv-x="271" 
d="M242 372l-93 -61l92 -64v-183l-206 133v226l207 133v-184z" />
    <glyph glyph-name="guilsinglright" unicode="&#x203a;" horiz-adv-x="271" 
d="M237 195l-207 -132v182l92 65l-91 63v183l206 -134v-227z" />
    <glyph glyph-name="endash" unicode="&#x2013;" horiz-adv-x="682" 
d="M653 228h-624v175h624v-175z" />
    <glyph glyph-name="dagger" unicode="&#x2020;" horiz-adv-x="729" 
d="M691 353h-207v-478h-241v478h-205v185h206v168h240v-169h207v-184z" />
    <glyph glyph-name="daggerdbl" unicode="&#x2021;" horiz-adv-x="750" 
d="M699 28h-205v-153h-237v152h-207v181h207v184h-208v182h207v132h237v-132h206v-181h-206v-183h206v-182z" />
    <glyph glyph-name="periodcentered" unicode="&#xb7;" horiz-adv-x="313" 
d="M271 225h-230v184h230v-184z" />
    <glyph glyph-name="paragraph" unicode="&#xb6;" horiz-adv-x="623" 
d="M541 610h-36v-776h-101v776h-111v-777h-102v463c-37 14 -48 19 -67 33c-46 33 -73 93 -73 161c0 67 25 125 67 164c40 38 86 52 178 52h245v-96z" />
    <glyph glyph-name="bullet" unicode="&#x2022;" horiz-adv-x="333" 
d="M309 215h-285v263h285v-263z" />
    <glyph glyph-name="quotesinglbase" unicode="&#x201a;" horiz-adv-x="313" 
d="M40 184h231v-169c0 -130 -98 -200 -221 -200h-10v82c67 7 84 40 91 103h-91v184z" />
    <glyph glyph-name="quotedblbase" unicode="&#x201e;" horiz-adv-x="625" 
d="M353 184h229v-186c0 -154 -108 -177 -227 -181v81c65 11 86 37 91 102h-93v184zM42 184h228v-165c0 -152 -92 -197 -228 -201v81c64 10 86 37 89 101h-89v184z" />
    <glyph glyph-name="quotedblright" unicode="&#x201d;" horiz-adv-x="625" 
d="M353 706h229v-182c0 -165 -119 -181 -227 -185v82c65 10 86 37 91 101h-93v184zM270 706v-164c0 -152 -91 -198 -228 -202v81c64 10 86 37 89 101h-89v184h228z" />
    <glyph glyph-name="guillemotright" unicode="&#xbb;" horiz-adv-x="521" 
d="M482 195l-207 -132v182l93 65l-92 63v183l206 -134v-227zM241 197l-207 -133v183l93 63l-92 63v184l206 -133v-227z" />
    <glyph glyph-name="ellipsis" unicode="&#x2026;" horiz-adv-x="1000" 
d="M901 0h-136v145h136v-145zM569 0h-135v145h135v-145zM234 0h-135v145h135v-145z" />
    <glyph glyph-name="perthousand" unicode="&#x2030;" horiz-adv-x="1812" 
d="M916 676l-494 -706l-88 62l495 704zM541 487c0 -169 -110 -234 -274 -234c-122 0 -246 52 -246 230c0 153 89 234 265 234c172 0 255 -95 255 -230zM373 481c0 61 -18 124 -94 124c-53 0 -91 -38 -91 -125c0 -56 18 -120 90 -120c74 0 95 60 95 121zM1229 222
c0 -86 -25 -234 -274 -234c-122 0 -246 52 -246 230c0 92 37 234 265 234c172 0 255 -95 255 -230zM1060 216c0 61 -17 124 -93 124c-57 0 -91 -38 -91 -125c0 -56 16 -120 90 -120s94 60 94 121zM1791 222c0 -86 -25 -234 -274 -234c-122 0 -246 52 -246 230
c0 92 37 234 265 234c172 0 255 -95 255 -230zM1622 216c0 61 -17 124 -93 124c-57 0 -91 -38 -91 -125c0 -56 16 -120 90 -120s94 60 94 121z" />
    <glyph glyph-name="questiondown" unicode="&#xbf;" horiz-adv-x="771" 
d="M267 446h216c0 -98 -21 -108 -145 -168c-26 -13 -70 -28 -70 -77c0 -45 38 -77 107 -77c57 0 130 11 130 122v9l202 -12c-1 -21 -4 -49 -8 -70c-5 -26 -27 -95 -95 -138c-72 -46 -172 -51 -254 -51c-96 0 -225 6 -292 92c-14 17 -38 56 -38 115c0 42 8 104 158 177
c67 33 89 49 89 78zM266 706h215v-184h-215v184z" />
    <glyph glyph-name="grave" unicode="`" 
d="M348 599h-181l-140 139h267z" />
    <glyph glyph-name="acute" unicode="&#xb4;" 
d="M344 738l-136 -139h-177l50 139h263z" />
    <glyph glyph-name="circumflex" unicode="&#x2c6;" 
d="M437 614h-190l-60 83l-61 -83h-188l90 124h321z" />
    <glyph glyph-name="tilde" unicode="&#x2dc;" 
d="M342 770l78 -72c-40 -67 -96 -103 -146 -103c-61 0 -116 51 -162 51c-27 0 -49 -9 -80 -49l-77 66c34 55 86 109 140 109c74 0 118 -49 173 -49c24 0 50 12 74 47z" />
    <glyph glyph-name="macron" unicode="&#xaf;" 
d="M424 604h-473v117h473v-117z" />
    <glyph glyph-name="breve" unicode="&#x2d8;" 
d="M237 737h175c-18 -35 -28 -48 -46 -65c-32 -29 -95 -59 -177 -59c-58 0 -142 18 -192 73c-15 17 -24 33 -34 52h173c2 -13 7 -53 53 -53c43 0 47 43 48 52z" />
    <glyph glyph-name="dotaccent" unicode="&#x2d9;" 
d="M291 614h-207v124h207v-124z" />
    <glyph glyph-name="dieresis" unicode="&#xa8;" 
d="M464 614h-207v124h207v-124zM118 614h-207v124h207v-124z" />
    <glyph glyph-name="ring" unicode="&#x2da;" 
d="M330 681c0 -69 -68 -109 -147 -109c-81 0 -138 51 -138 110c0 65 64 107 139 107c104 0 146 -60 146 -108zM252 682c0 30 -37 43 -67 43c-41 0 -65 -19 -65 -43c0 -28 27 -46 64 -46c35 0 68 14 68 46z" />
    <glyph glyph-name="cedilla" unicode="&#xb8;" 
d="M210 31h71l-47 -79c36 -5 95 -34 95 -96c0 -39 -36 -114 -164 -114c-57 0 -97 16 -119 25l23 55c11 -3 40 -14 74 -14c6 0 64 2 64 36c0 14 -10 28 -38 28c-11 0 -21 -2 -39 -12l-33 36z" />
    <glyph glyph-name="hungarumlaut" unicode="&#x2dd;" 
d="M192 738l-131 -139h-165l50 139h246zM479 738l-131 -139h-165l50 139h246z" />
    <glyph glyph-name="ogonek" unicode="&#x2db;" 
d="M228 19l7 -7c-37 -44 -63 -75 -63 -98c0 -27 29 -27 46 -27c49 0 84 6 104 10v-117c-62 -7 -93 -10 -122 -10c-59 0 -147 7 -147 86c0 52 38 93 88 145z" />
    <glyph glyph-name="caron" unicode="&#x2c7;" 
d="M437 737l-90 -123h-322l-87 123h189l60 -82l61 82h189z" />
    <glyph glyph-name="emdash" unicode="&#x2014;" horiz-adv-x="1015" 
d="M986 228h-957v175h957v-175z" />
    <glyph glyph-name="AE" unicode="&#xc6;" horiz-adv-x="1125" 
d="M1104 0h-574v113h-230l-58 -113h-249l393 706h711v-159h-321v-114h274v-160h-274v-113h328v-160zM530 269v290l-150 -290h150z" />
    <glyph glyph-name="ordfeminine" unicode="&#xaa;" horiz-adv-x="500" 
d="M467 388h-149l-11 29c-32 -16 -72 -37 -140 -37c-93 0 -133 49 -133 104c0 96 131 102 199 102h74c-7 28 -13 45 -58 45c-43 0 -58 -5 -70 -33h-131c2 21 4 42 21 63c40 47 139 48 180 48c113 0 198 -16 198 -103v-158c0 -31 5 -45 20 -60zM309 526h-28
c-61 0 -106 -3 -106 -33c0 -21 26 -31 46 -31c55 0 78 45 88 64z" />
    <glyph glyph-name="Lslash" unicode="&#x141;" horiz-adv-x="688" 
d="M675 0h-615v205l-60 -25v127l60 26v373h254v-265l266 113v-125l-266 -114v-143h361v-172z" />
    <glyph glyph-name="Oslash" unicode="&#xd8;" horiz-adv-x="1000" 
d="M927 755l41 -51l-106 -90c89 -80 106 -194 106 -256c0 -154 -93 -382 -463 -382c-137 0 -250 32 -314 81l-125 -104l-41 48l115 98c-73 70 -111 167 -111 264c0 152 99 370 470 370c145 0 238 -30 307 -77zM308 239l340 285c-22 18 -73 50 -150 50
c-125 0 -218 -67 -218 -214c0 -33 6 -87 28 -121zM688 471l-340 -285c32 -25 76 -53 151 -53c129 0 220 85 220 220c0 29 -8 89 -31 118z" />
    <glyph glyph-name="OE" unicode="&#x152;" horiz-adv-x="1125" 
d="M1105 0h-564v31c-57 -29 -129 -48 -193 -48c-174 0 -319 132 -319 365c0 173 103 377 342 377c31 0 98 -3 174 -47v28h553v-158h-325v-116h286v-159h-288v-113h334v-160zM542 191v324c-7 10 -51 51 -124 51c-99 0 -182 -78 -182 -221c0 -135 79 -207 170 -207
c19 0 91 4 136 53z" />
    <glyph glyph-name="ordmasculine" unicode="&#xba;" horiz-adv-x="521" 
d="M35 547c0 97 77 163 226 163c189 0 225 -105 225 -161c0 -96 -75 -165 -226 -165c-87 0 -225 31 -225 163zM336 548c0 48 -33 68 -74 68c-62 0 -75 -43 -75 -68c0 -49 36 -67 77 -67c40 0 72 24 72 67z" />
    <glyph glyph-name="ae" unicode="&#xe6;" horiz-adv-x="1125" 
d="M891 184l215 -28c-36 -99 -146 -172 -309 -172c-142 0 -217 47 -266 103c-58 -56 -138 -103 -273 -103c-104 0 -241 28 -241 179c0 163 201 168 396 168h48c-3 17 -5 33 -13 47c-24 43 -87 44 -95 44c-69 0 -87 -39 -91 -54c0 0 -185 4 -210 5c14 91 77 173 281 173
c138 0 197 -31 246 -77c62 58 134 81 220 81c50 0 237 -5 289 -185c14 -47 14 -88 14 -136h-425c7 -29 30 -102 115 -102c61 0 89 36 99 57zM684 325h208c-19 77 -70 86 -99 86c-76 0 -102 -68 -109 -86zM466 233h-60c-114 0 -173 -5 -173 -64c0 -8 3 -54 67 -54
c66 0 148 62 166 118z" />
    <glyph glyph-name="dotlessi" unicode="&#x131;" horiz-adv-x="333" 
d="M283 0h-234v530h234v-530z" />
    <glyph glyph-name="lslash" unicode="&#x142;" horiz-adv-x="333" 
d="M333 405l-48 -26v-379h-237v255l-48 -25v107l48 25v344h237v-219l48 25v-107z" />
    <glyph glyph-name="oslash" unicode="&#xf8;" horiz-adv-x="833" 
d="M763 540l31 -44l-64 -45c27 -28 77 -81 77 -182c0 -199 -177 -280 -387 -280c-132 0 -216 21 -275 60l-79 -53l-30 44l63 45c-71 64 -74 153 -74 182c0 162 129 279 388 279c101 0 206 -20 271 -60zM274 204l249 172c-24 19 -64 29 -111 29c-93 0 -155 -44 -155 -134
c0 -34 11 -55 17 -67zM560 333l-252 -172c23 -22 73 -32 110 -32c71 0 158 34 158 138c0 33 -11 54 -16 66z" />
    <glyph glyph-name="oe" unicode="&#x153;" horiz-adv-x="1125" 
d="M1101 234h-427c5 -40 32 -110 111 -110c39 0 82 24 96 63l213 -27c-27 -88 -116 -178 -298 -178c-121 0 -194 43 -229 79c-23 -21 -91 -80 -227 -80c-137 0 -315 71 -315 277c0 174 127 287 317 287c110 0 183 -37 228 -78c40 33 102 80 225 80c118 0 235 -47 282 -165
c23 -59 24 -132 24 -148zM680 327h204c-9 47 -47 85 -98 85c-67 0 -95 -50 -106 -85zM240 267c0 -96 52 -138 110 -138c75 0 111 65 111 145c0 87 -49 131 -113 131c-46 0 -108 -28 -108 -138z" />
    <glyph glyph-name="germandbls" unicode="&#xdf;" horiz-adv-x="771" 
d="M49 0v471c0 182 94 254 319 254c151 0 312 -17 312 -181c0 -11 -2 -53 -24 -84c-19 -27 -60 -48 -93 -51c17 -2 50 -3 83 -17c74 -31 107 -104 107 -179c0 -106 -59 -227 -241 -227c-66 0 -145 17 -161 21v128c23 -6 40 -10 63 -10c79 0 93 59 93 106
c0 86 -45 105 -109 105h-46v108h24c32 0 78 7 78 67c0 36 -19 74 -82 74c-9 0 -34 0 -55 -16c-30 -23 -31 -73 -31 -106v-463h-237z" />
    <glyph glyph-name="Euro" unicode="&#x20ac;" horiz-adv-x="842" 
d="M822 620l-88 -166c-48 56 -109 83 -192 83c-105 0 -171 -41 -199 -122h375l-34 -67h-351c-1 -10 -2 -15 -2 -22v-16h338l-34 -67h-291c35 -80 96 -116 199 -116c96 0 179 31 246 90v-189c-76 -35 -167 -52 -283 -52c-156 0 -251 30 -330 107c-48 47 -74 97 -85 160h-83
l36 67h38v15c0 6 1 13 2 23h-62l34 67h37c40 181 190 273 447 273c123 0 210 -20 282 -68z" />
    <glyph glyph-name="Ydieresis" unicode="&#x178;" horiz-adv-x="875" 
d="M715 773h-207v123h207v-123zM368 773h-207v123h207v-123zM884 706l-320 -496v-210h-251v210l-324 496h295l154 -281l154 281h292z" />
    <glyph glyph-name="trademark" unicode="&#x2122;" horiz-adv-x="752" 
d="M714 374h-99c0 25 3 230 3 230l-61 -230h-84l-57 229s2 -207 2 -229h-101v332h149l49 -213l50 213h149v-332zM289 633h-85v-259h-107v259h-88v73h280v-73z" />
    <glyph glyph-name="zcaron" unicode="&#x17e;" horiz-adv-x="729" 
d="M695 381l-349 -231h346v-150h-670v151l349 231h-322v148h646v-149zM615 737l-90 -123h-322l-87 123h189l60 -82l61 82h189z" />
    <glyph glyph-name="Zcaron" unicode="&#x17d;" horiz-adv-x="833" 
d="M678 896l-91 -123h-321l-86 123h189l60 -83l61 83h188zM811 555l-449 -388h448v-167h-804v149l468 398h-430v159h767v-151z" />
    <glyph glyph-name="scaron" unicode="&#x161;" horiz-adv-x="729" 
d="M14 161l238 11c9 -52 79 -63 122 -63c77 0 93 27 93 50c0 45 -147 37 -290 77c-59 16 -138 37 -138 140c0 88 72 122 97 134c48 22 117 38 234 38c232 0 314 -84 336 -176l-234 -10c-6 33 -47 57 -113 57c-50 0 -88 -13 -88 -45c0 -33 79 -40 149 -47
c81 -8 185 -23 227 -47c55 -31 60 -83 60 -105c0 -26 -5 -64 -48 -106c-53 -51 -134 -86 -289 -86c-66 0 -250 8 -319 83c-25 27 -34 60 -37 95zM616 737l-90 -123h-322l-87 123h189l60 -82l61 82h189z" />
    <glyph glyph-name="Scaron" unicode="&#x160;" horiz-adv-x="812" 
d="M658 896l-91 -123h-321l-86 123h189l60 -83l61 83h188zM10 211c32 0 249 7 249 7c16 -74 110 -81 156 -81c78 0 123 28 123 71c0 33 -29 51 -73 60l-173 34c-167 33 -247 87 -247 207c0 57 22 93 38 114c56 78 164 113 318 113c102 0 183 -14 222 -28
c44 -15 95 -47 125 -100c18 -33 23 -69 24 -78l-247 -14c-16 62 -82 65 -125 65c-24 0 -111 -2 -111 -56c0 -41 44 -53 146 -74l89 -18c96 -19 260 -47 260 -204c0 -16 -2 -77 -45 -133c-67 -86 -189 -117 -360 -117c-117 0 -346 15 -369 232z" />
    <glyph glyph-name="ydieresis" unicode="&#xff;" horiz-adv-x="708" 
d="M713 530l-251 -550c-71 -155 -154 -164 -237 -164h-150v150h109c16 0 48 3 48 31c0 12 -6 25 -10 33l-226 500h258l100 -313l100 313h259zM631 614h-207v124h207v-124zM285 614h-207v124h207v-124z" />
    <glyph glyph-name="thorn" unicode="&#xfe;" horiz-adv-x="792" 
d="M48 706h234v-229c45 34 91 66 192 66c21 0 86 -2 152 -36c107 -55 140 -157 140 -246c0 -177 -130 -280 -294 -280c-68 0 -123 15 -190 63v-229h-234v891zM527 265c0 68 -47 118 -117 118c-126 0 -128 -110 -128 -118c0 -74 56 -120 124 -120c71 0 121 47 121 120z" />
    <glyph glyph-name="yacute" unicode="&#xfd;" horiz-adv-x="708" 
d="M713 530l-251 -550c-71 -155 -154 -164 -237 -164h-150v150h109c16 0 48 3 48 31c0 12 -6 25 -10 33l-226 500h258l100 -313l100 313h259zM574 738l-136 -139h-177l50 139h263z" />
    <glyph glyph-name="udieresis" unicode="&#xfc;" horiz-adv-x="812" 
d="M764 0h-230v72c-24 -22 -89 -84 -235 -84c-127 0 -249 59 -249 215v327h237v-278c0 -107 96 -109 117 -109c61 0 124 29 124 132v255h236v-530zM683 614h-207v124h207v-124zM337 614h-207v124h207v-124z" />
    <glyph glyph-name="ucircumflex" unicode="&#xfb;" horiz-adv-x="812" 
d="M764 0h-230v72c-24 -22 -89 -84 -235 -84c-127 0 -249 59 -249 215v327h237v-278c0 -107 96 -109 117 -109c61 0 124 29 124 132v255h236v-530zM657 614h-190l-60 83l-61 -83h-188l90 124h321z" />
    <glyph glyph-name="uacute" unicode="&#xfa;" horiz-adv-x="812" 
d="M764 0h-230v72c-24 -22 -89 -84 -235 -84c-127 0 -249 59 -249 215v327h237v-278c0 -107 96 -109 117 -109c61 0 124 29 124 132v255h236v-530zM620 738l-136 -139h-177l50 139h263z" />
    <glyph glyph-name="ugrave" unicode="&#xf9;" horiz-adv-x="812" 
d="M764 0h-230v72c-24 -22 -89 -84 -235 -84c-127 0 -249 59 -249 215v327h237v-278c0 -107 96 -109 117 -109c61 0 124 29 124 132v255h236v-530zM519 599h-181l-140 139h267z" />
    <glyph glyph-name="divide" unicode="&#xf7;" horiz-adv-x="772" 
d="M477 430h-184v179h184v-179zM686 222h-600v164h600v-164zM478 -1h-185v179h185v-179z" />
    <glyph glyph-name="odieresis" unicode="&#xf6;" horiz-adv-x="833" 
d="M25 264c0 204 196 280 387 280c301 0 397 -146 397 -278c0 -187 -173 -280 -392 -280c-186 0 -392 70 -392 278zM566 268c0 85 -57 137 -151 137c-105 0 -146 -71 -146 -133c0 -109 80 -143 153 -143c48 0 144 24 144 139zM691 614h-207v124h207v-124zM345 614h-207v124
h207v-124z" />
    <glyph glyph-name="otilde" unicode="&#xf5;" horiz-adv-x="833" 
d="M25 264c0 204 196 280 387 280c301 0 397 -146 397 -278c0 -187 -173 -280 -392 -280c-186 0 -392 70 -392 278zM566 268c0 85 -57 137 -151 137c-105 0 -146 -71 -146 -133c0 -109 80 -143 153 -143c48 0 144 24 144 139zM569 770l78 -72c-40 -67 -96 -103 -146 -103
c-61 0 -116 51 -162 51c-27 0 -49 -9 -80 -49l-77 66c34 55 86 109 140 109c74 0 118 -49 173 -49c24 0 50 12 74 47z" />
    <glyph glyph-name="ocircumflex" unicode="&#xf4;" horiz-adv-x="833" 
d="M25 264c0 204 196 280 387 280c301 0 397 -146 397 -278c0 -187 -173 -280 -392 -280c-186 0 -392 70 -392 278zM566 268c0 85 -57 137 -151 137c-105 0 -146 -71 -146 -133c0 -109 80 -143 153 -143c48 0 144 24 144 139zM667 614h-190l-60 83l-61 -83h-188l90 124h321z
" />
    <glyph glyph-name="oacute" unicode="&#xf3;" horiz-adv-x="833" 
d="M25 264c0 204 196 280 387 280c301 0 397 -146 397 -278c0 -187 -173 -280 -392 -280c-186 0 -392 70 -392 278zM566 268c0 85 -57 137 -151 137c-105 0 -146 -71 -146 -133c0 -109 80 -143 153 -143c48 0 144 24 144 139zM613 738l-136 -139h-177l50 139h263z" />
    <glyph glyph-name="ograve" unicode="&#xf2;" horiz-adv-x="833" 
d="M25 264c0 204 196 280 387 280c301 0 397 -146 397 -278c0 -187 -173 -280 -392 -280c-186 0 -392 70 -392 278zM566 268c0 85 -57 137 -151 137c-105 0 -146 -71 -146 -133c0 -109 80 -143 153 -143c48 0 144 24 144 139zM538 599h-181l-140 139h267z" />
    <glyph glyph-name="ntilde" unicode="&#xf1;" horiz-adv-x="812" 
d="M287 530v-67c58 42 121 77 230 77c71 0 119 -11 163 -37c82 -48 87 -119 87 -224v-279h-237v242c0 35 -2 54 -6 68c-17 61 -70 79 -114 79c-29 0 -57 -7 -79 -25c-43 -35 -44 -81 -44 -128v-236h-238v530h238zM558 770l78 -72c-40 -67 -96 -103 -146 -103
c-61 0 -116 51 -162 51c-27 0 -49 -9 -80 -49l-77 66c34 55 86 109 140 109c74 0 118 -49 173 -49c24 0 50 12 74 47z" />
    <glyph glyph-name="eth" unicode="&#xf0;" horiz-adv-x="833" 
d="M722 699l29 -63l-94 -11c56 -60 153 -172 153 -332c0 -240 -214 -307 -391 -307c-262 0 -394 116 -394 278c0 208 212 281 353 281c74 0 111 -15 147 -32c-29 45 -53 66 -73 87l-205 -25l-24 62l164 20c-22 18 -37 29 -59 48l214 25c21 -17 35 -29 55 -47zM566 266
c0 94 -67 139 -151 139c-145 0 -146 -120 -146 -136c0 -99 69 -140 153 -140c81 0 144 53 144 137z" />
    <glyph glyph-name="idieresis" unicode="&#xef;" horiz-adv-x="333" 
d="M283 0h-234v530h234v-530zM444 614h-207v124h207v-124zM98 614h-207v124h207v-124z" />
    <glyph glyph-name="icircumflex" unicode="&#xee;" horiz-adv-x="333" 
d="M283 0h-234v530h234v-530zM417 614h-190l-60 83l-61 -83h-188l90 124h321z" />
    <glyph glyph-name="iacute" unicode="&#xed;" horiz-adv-x="333" 
d="M283 0h-234v530h234v-530zM363 738l-136 -139h-177l50 139h263z" />
    <glyph glyph-name="igrave" unicode="&#xec;" horiz-adv-x="333" 
d="M283 0h-234v530h234v-530zM288 599h-181l-140 139h267z" />
    <glyph glyph-name="edieresis" unicode="&#xeb;" horiz-adv-x="812" 
d="M796 232h-526c19 -100 117 -113 147 -113c59 0 104 30 119 48l246 -12c-48 -99 -170 -170 -376 -170c-175 0 -380 67 -380 283c0 53 16 146 107 209c65 46 140 68 273 68c113 0 233 -18 315 -103c50 -53 75 -115 75 -210zM278 324h270c-13 36 -46 85 -135 85
c-23 0 -108 -2 -135 -85zM683 614h-207v124h207v-124zM337 614h-207v124h207v-124z" />
    <glyph glyph-name="ecircumflex" unicode="&#xea;" horiz-adv-x="812" 
d="M796 232h-526c19 -100 117 -113 147 -113c59 0 104 30 119 48l246 -12c-48 -99 -170 -170 -376 -170c-175 0 -380 67 -380 283c0 53 16 146 107 209c65 46 140 68 273 68c113 0 233 -18 315 -103c50 -53 75 -115 75 -210zM278 324h270c-13 36 -46 85 -135 85
c-23 0 -108 -2 -135 -85zM657 614h-190l-60 83l-61 -83h-188l90 124h321z" />
    <glyph glyph-name="eacute" unicode="&#xe9;" horiz-adv-x="812" 
d="M796 232h-526c19 -100 117 -113 147 -113c59 0 104 30 119 48l246 -12c-48 -99 -170 -170 -376 -170c-175 0 -380 67 -380 283c0 53 16 146 107 209c65 46 140 68 273 68c113 0 233 -18 315 -103c50 -53 75 -115 75 -210zM278 324h270c-13 36 -46 85 -135 85
c-23 0 -108 -2 -135 -85zM603 738l-136 -139h-177l50 139h263z" />
    <glyph glyph-name="egrave" unicode="&#xe8;" horiz-adv-x="812" 
d="M796 232h-526c19 -100 117 -113 147 -113c59 0 104 30 119 48l246 -12c-48 -99 -170 -170 -376 -170c-175 0 -380 67 -380 283c0 53 16 146 107 209c65 46 140 68 273 68c113 0 233 -18 315 -103c50 -53 75 -115 75 -210zM278 324h270c-13 36 -46 85 -135 85
c-23 0 -108 -2 -135 -85zM528 599h-181l-140 139h267z" />
    <glyph glyph-name="ccedilla" unicode="&#xe7;" horiz-adv-x="812" 
d="M570 206l234 -8c-51 -187 -259 -215 -374 -215l-19 -31c17 -4 96 -21 96 -96c0 -62 -63 -114 -164 -114c-55 0 -98 17 -119 25l22 55c26 -8 48 -14 74 -14c34 0 65 12 65 36c0 28 -32 28 -38 28c-18 0 -32 -8 -39 -12l-33 36l75 90c-89 8 -231 34 -296 157
c-12 22 -30 65 -30 121c0 125 91 290 406 290c110 0 306 -28 361 -197l-233 -21c-11 39 -62 76 -131 76c-87 0 -152 -54 -152 -145c0 -95 72 -145 156 -145c46 0 123 23 139 84z" />
    <glyph glyph-name="aring" unicode="&#xe5;" horiz-adv-x="792" 
d="M769 0h-245c-6 24 -7 26 -9 51c-39 -18 -140 -66 -263 -66c-172 0 -233 86 -233 168c0 146 125 185 486 185h6v6c0 62 -70 69 -114 69c-43 0 -122 -7 -129 -48h-227c11 69 42 114 93 141c54 29 155 42 255 42c275 0 351 -56 351 -191v-280c0 -47 10 -59 29 -77zM514 243
l-137 -7c-76 -4 -119 -16 -119 -58c0 -22 20 -53 82 -53c37 0 111 16 149 59c16 18 20 35 25 59zM533 681c0 -69 -68 -109 -147 -109c-81 0 -138 51 -138 110c0 65 64 107 139 107c104 0 146 -60 146 -108zM455 682c0 30 -37 43 -67 43c-41 0 -65 -19 -65 -43
c0 -28 27 -46 64 -46c35 0 68 14 68 46z" />
    <glyph glyph-name="adieresis" unicode="&#xe4;" horiz-adv-x="792" 
d="M769 0h-245c-6 24 -7 26 -9 51c-39 -18 -140 -66 -263 -66c-172 0 -233 86 -233 168c0 146 125 185 486 185h6v6c0 62 -70 69 -114 69c-43 0 -122 -7 -129 -48h-227c11 69 42 114 93 141c54 29 155 42 255 42c275 0 351 -56 351 -191v-280c0 -47 10 -59 29 -77zM514 243
l-137 -7c-76 -4 -119 -16 -119 -58c0 -22 20 -53 82 -53c37 0 111 16 149 59c16 18 20 35 25 59zM671 614h-207v124h207v-124zM325 614h-207v124h207v-124z" />
    <glyph glyph-name="atilde" unicode="&#xe3;" horiz-adv-x="792" 
d="M769 0h-245c-6 24 -7 26 -9 51c-39 -18 -140 -66 -263 -66c-172 0 -233 86 -233 168c0 146 125 185 486 185h6v6c0 62 -70 69 -114 69c-43 0 -122 -7 -129 -48h-227c11 69 42 114 93 141c54 29 155 42 255 42c275 0 351 -56 351 -191v-280c0 -47 10 -59 29 -77zM514 243
l-137 -7c-76 -4 -119 -16 -119 -58c0 -22 20 -53 82 -53c37 0 111 16 149 59c16 18 20 35 25 59zM548 770l78 -72c-40 -67 -96 -103 -146 -103c-61 0 -116 51 -162 51c-27 0 -49 -9 -80 -49l-77 66c34 55 86 109 140 109c74 0 118 -49 173 -49c24 0 50 12 74 47z" />
    <glyph glyph-name="acircumflex" unicode="&#xe2;" horiz-adv-x="792" 
d="M769 0h-245c-6 24 -7 26 -9 51c-39 -18 -140 -66 -263 -66c-172 0 -233 86 -233 168c0 146 125 185 486 185h6v6c0 62 -70 69 -114 69c-43 0 -122 -7 -129 -48h-227c11 69 42 114 93 141c54 29 155 42 255 42c275 0 351 -56 351 -191v-280c0 -47 10 -59 29 -77zM514 243
l-137 -7c-76 -4 -119 -16 -119 -58c0 -22 20 -53 82 -53c37 0 111 16 149 59c16 18 20 35 25 59zM646 614h-190l-60 83l-61 -83h-188l90 124h321z" />
    <glyph glyph-name="aacute" unicode="&#xe1;" horiz-adv-x="792" 
d="M769 0h-245c-6 24 -7 26 -9 51c-39 -18 -140 -66 -263 -66c-172 0 -233 86 -233 168c0 146 125 185 486 185h6v6c0 62 -70 69 -114 69c-43 0 -122 -7 -129 -48h-227c11 69 42 114 93 141c54 29 155 42 255 42c275 0 351 -56 351 -191v-280c0 -47 10 -59 29 -77zM514 243
l-137 -7c-76 -4 -119 -16 -119 -58c0 -22 20 -53 82 -53c37 0 111 16 149 59c16 18 20 35 25 59zM592 738l-136 -139h-177l50 139h263z" />
    <glyph glyph-name="agrave" unicode="&#xe0;" horiz-adv-x="792" 
d="M769 0h-245c-6 24 -7 26 -9 51c-39 -18 -140 -66 -263 -66c-172 0 -233 86 -233 168c0 146 125 185 486 185h6v6c0 62 -70 69 -114 69c-43 0 -122 -7 -129 -48h-227c11 69 42 114 93 141c54 29 155 42 255 42c275 0 351 -56 351 -191v-280c0 -47 10 -59 29 -77zM514 243
l-137 -7c-76 -4 -119 -16 -119 -58c0 -22 20 -53 82 -53c37 0 111 16 149 59c16 18 20 35 25 59zM518 599h-181l-140 139h267z" />
    <glyph glyph-name="Thorn" unicode="&#xde;" horiz-adv-x="833" 
d="M61 706h252v-109h238c62 0 164 -1 222 -55c52 -47 63 -126 63 -166c0 -81 -25 -131 -61 -166c-57 -56 -139 -70 -271 -70h-191v-140h-252v706zM313 437v-138h168c42 0 103 1 103 69s-63 69 -85 69h-186z" />
    <glyph glyph-name="Yacute" unicode="&#xdd;" horiz-adv-x="875" 
d="M639 896l-136 -138h-177l49 138h264zM884 706l-320 -496v-210h-251v210l-324 496h295l154 -281l154 281h292z" />
    <glyph glyph-name="Udieresis" unicode="&#xdc;" horiz-adv-x="958" 
d="M756 773h-207v123h207v-123zM409 773h-207v123h207v-123zM61 706h252v-401c0 -51 4 -96 45 -133c44 -40 105 -40 122 -40c14 0 77 1 119 37c44 39 46 97 46 140v397h252v-391c0 -90 -3 -180 -75 -248c-62 -58 -166 -92 -346 -92c-95 0 -293 1 -378 128
c-37 56 -37 121 -37 147v456z" />
    <glyph glyph-name="Ucircumflex" unicode="&#xdb;" horiz-adv-x="958" 
d="M729 773h-190l-60 83l-61 -83h-188l91 123h321zM61 706h252v-401c0 -51 4 -96 45 -133c44 -40 105 -40 122 -40c14 0 77 1 119 37c44 39 46 97 46 140v397h252v-391c0 -90 -3 -180 -75 -248c-62 -58 -166 -92 -346 -92c-95 0 -293 1 -378 128c-37 56 -37 121 -37 147v456
z" />
    <glyph glyph-name="Uacute" unicode="&#xda;" horiz-adv-x="958" 
d="M677 896l-136 -138h-177l49 138h264zM61 706h252v-401c0 -51 4 -96 45 -133c44 -40 105 -40 122 -40c14 0 77 1 119 37c44 39 46 97 46 140v397h252v-391c0 -90 -3 -180 -75 -248c-62 -58 -166 -92 -346 -92c-95 0 -293 1 -378 128c-37 56 -37 121 -37 147v456z" />
    <glyph glyph-name="Ugrave" unicode="&#xd9;" horiz-adv-x="958" 
d="M600 758h-181l-139 138h267zM61 706h252v-401c0 -51 4 -96 45 -133c44 -40 105 -40 122 -40c14 0 77 1 119 37c44 39 46 97 46 140v397h252v-391c0 -90 -3 -180 -75 -248c-62 -58 -166 -92 -346 -92c-95 0 -293 1 -378 128c-37 56 -37 121 -37 147v456z" />
    <glyph glyph-name="multiply" unicode="&#xd7;" horiz-adv-x="772" 
d="M679 179l-145 -143l-157 138l-143 -141l-128 113l143 140l-154 136l146 144l154 -136l140 138l128 -113l-141 -138z" />
    <glyph glyph-name="Odieresis" unicode="&#xd6;" horiz-adv-x="1000" 
d="M776 773h-207v123h207v-123zM429 773h-207v123h207v-123zM969 356c0 -63 -13 -205 -156 -302c-92 -62 -193 -78 -318 -78c-150 0 -240 34 -298 67c-150 87 -167 233 -167 299c0 178 92 270 153 311c60 41 155 79 313 79c250 0 351 -78 409 -162c23 -34 64 -107 64 -214z
M709 354c0 77 -36 221 -207 221c-146 0 -212 -107 -212 -222c0 -95 50 -221 213 -221c177 0 206 144 206 222z" />
    <glyph glyph-name="Otilde" unicode="&#xd5;" horiz-adv-x="1000" 
d="M659 932l77 -75c-42 -71 -96 -106 -149 -106c-58 0 -110 52 -167 52c-29 0 -55 -12 -87 -53l-73 74c36 57 86 107 142 107c62 0 118 -50 179 -50c26 0 53 17 78 51zM969 356c0 -63 -13 -205 -156 -302c-92 -62 -193 -78 -318 -78c-150 0 -240 34 -298 67
c-150 87 -167 233 -167 299c0 178 92 270 153 311c60 41 155 79 313 79c250 0 351 -78 409 -162c23 -34 64 -107 64 -214zM709 354c0 77 -36 221 -207 221c-146 0 -212 -107 -212 -222c0 -95 50 -221 213 -221c177 0 206 144 206 222z" />
    <glyph glyph-name="Ocircumflex" unicode="&#xd4;" horiz-adv-x="1000" 
d="M750 773h-190l-60 83l-61 -83h-188l91 123h321zM969 356c0 -63 -13 -205 -156 -302c-92 -62 -193 -78 -318 -78c-150 0 -240 34 -298 67c-150 87 -167 233 -167 299c0 178 92 270 153 311c60 41 155 79 313 79c250 0 351 -78 409 -162c23 -34 64 -107 64 -214zM709 354
c0 77 -36 221 -207 221c-146 0 -212 -107 -212 -222c0 -95 50 -221 213 -221c177 0 206 144 206 222z" />
    <glyph glyph-name="Oacute" unicode="&#xd3;" horiz-adv-x="1000" 
d="M697 896l-136 -138h-177l49 138h264zM969 356c0 -63 -13 -205 -156 -302c-92 -62 -193 -78 -318 -78c-150 0 -240 34 -298 67c-150 87 -167 233 -167 299c0 178 92 270 153 311c60 41 155 79 313 79c250 0 351 -78 409 -162c23 -34 64 -107 64 -214zM709 354
c0 77 -36 221 -207 221c-146 0 -212 -107 -212 -222c0 -95 50 -221 213 -221c177 0 206 144 206 222z" />
    <glyph glyph-name="Ograve" unicode="&#xd2;" horiz-adv-x="1000" 
d="M621 758h-181l-139 138h267zM969 356c0 -63 -13 -205 -156 -302c-92 -62 -193 -78 -318 -78c-150 0 -240 34 -298 67c-150 87 -167 233 -167 299c0 178 92 270 153 311c60 41 155 79 313 79c250 0 351 -78 409 -162c23 -34 64 -107 64 -214zM709 354
c0 77 -36 221 -207 221c-146 0 -212 -107 -212 -222c0 -95 50 -221 213 -221c177 0 206 144 206 222z" />
    <glyph glyph-name="Ntilde" unicode="&#xd1;" horiz-adv-x="917" 
d="M617 932l77 -75c-42 -71 -96 -106 -149 -106c-58 0 -110 52 -167 52c-29 0 -55 -12 -87 -53l-73 74c36 57 86 107 142 107c62 0 118 -50 179 -50c26 0 53 17 78 51zM857 0h-210l-335 378v-378h-250v706h209l337 -372v372h249v-706z" />
    <glyph glyph-name="Eth" unicode="&#xd0;" horiz-adv-x="917" 
d="M62 706h400c111 0 268 -7 365 -149c47 -68 60 -144 60 -211c0 -59 -5 -346 -377 -346h-448v308h-62v98h62v300zM309 538v-132h211v-98h-211v-148h128c103 0 153 31 182 93c9 18 21 52 21 98c0 12 0 62 -27 106c-45 73 -123 81 -183 81h-121z" />
    <glyph glyph-name="Idieresis" unicode="&#xcf;" 
d="M465 773h-207v123h207v-123zM118 773h-207v123h207v-123zM314 0h-253v706h253v-706z" />
    <glyph glyph-name="Icircumflex" unicode="&#xce;" 
d="M437 773h-190l-60 83l-61 -83h-188l91 123h321zM314 0h-253v706h253v-706z" />
    <glyph glyph-name="Iacute" unicode="&#xcd;" 
d="M385 896l-136 -138h-177l49 138h264zM314 0h-253v706h253v-706z" />
    <glyph glyph-name="Igrave" unicode="&#xcc;" 
d="M308 758h-181l-139 138h267zM314 0h-253v706h253v-706z" />
    <glyph glyph-name="Edieresis" unicode="&#xcb;" horiz-adv-x="833" 
d="M695 773h-207v123h207v-123zM348 773h-207v123h207v-123zM814 0h-754v706h745v-158h-492v-116h455v-159h-455v-113h501v-160z" />
    <glyph glyph-name="Ecircumflex" unicode="&#xca;" horiz-adv-x="833" 
d="M678 773h-190l-60 83l-61 -83h-188l91 123h321zM814 0h-754v706h745v-158h-492v-116h455v-159h-455v-113h501v-160z" />
    <glyph glyph-name="Eacute" unicode="&#xc9;" horiz-adv-x="833" 
d="M630 896l-136 -138h-177l49 138h264zM814 0h-754v706h745v-158h-492v-116h455v-159h-455v-113h501v-160z" />
    <glyph glyph-name="Egrave" unicode="&#xc8;" horiz-adv-x="833" 
d="M552 758h-181l-139 138h267zM814 0h-754v706h745v-158h-492v-116h455v-159h-455v-113h501v-160z" />
    <glyph glyph-name="Ccedilla" unicode="&#xc7;" horiz-adv-x="938" 
d="M696 254l241 -25c-6 -21 -23 -83 -86 -144c-68 -65 -187 -109 -355 -109h-7l-15 -24c17 -4 96 -21 96 -96c0 -62 -63 -114 -164 -114c-55 0 -98 17 -119 25l22 55c36 -12 58 -14 73 -14c34 0 65 12 65 36c0 16 -11 28 -38 28c-18 0 -32 -8 -38 -12l-34 36l72 85
c-19 3 -68 6 -123 24c-102 34 -257 126 -257 348c0 74 19 158 79 232c76 95 199 151 395 151c102 0 271 -13 364 -118c37 -42 53 -92 57 -105l-234 -42c-28 78 -121 104 -180 104c-53 0 -91 -16 -112 -27c-82 -44 -104 -128 -104 -195c0 -103 55 -170 107 -196
c41 -20 86 -21 101 -21c97 0 171 50 194 118z" />
    <glyph glyph-name="Aring" unicode="&#xc5;" horiz-adv-x="896" 
d="M310 823c0 70 72 103 139 103c66 0 136 -31 136 -103c0 -57 -52 -101 -140 -101c-76 0 -135 41 -135 101zM383 823c0 -33 49 -38 62 -38c18 0 65 6 65 39c0 27 -34 38 -65 38c-20 0 -62 -6 -62 -39zM898 0h-275l-38 115h-270l-38 -115h-278l305 706h288zM532 271l-83 239
l-81 -239h164z" />
    <glyph glyph-name="Adieresis" unicode="&#xc4;" horiz-adv-x="896" 
d="M725 773h-207v123h207v-123zM378 773h-207v123h207v-123zM898 0h-275l-38 115h-270l-38 -115h-278l305 706h288zM532 271l-83 239l-81 -239h164z" />
    <glyph glyph-name="Atilde" unicode="&#xc3;" horiz-adv-x="896" 
d="M607 932l77 -75c-42 -71 -96 -106 -149 -106c-58 0 -110 52 -167 52c-29 0 -55 -12 -87 -53l-73 74c36 57 86 107 142 107c62 0 118 -50 179 -50c26 0 53 17 78 51zM898 0h-275l-38 115h-270l-38 -115h-278l305 706h288zM532 271l-83 239l-81 -239h164z" />
    <glyph glyph-name="Acircumflex" unicode="&#xc2;" horiz-adv-x="896" 
d="M698 773h-190l-60 83l-61 -83h-188l91 123h321zM898 0h-275l-38 115h-270l-38 -115h-278l305 706h288zM532 271l-83 239l-81 -239h164z" />
    <glyph glyph-name="Aacute" unicode="&#xc1;" horiz-adv-x="896" 
d="M645 896l-136 -138h-177l49 138h264zM898 0h-275l-38 115h-270l-38 -115h-278l305 706h288zM532 271l-83 239l-81 -239h164z" />
    <glyph glyph-name="Agrave" unicode="&#xc0;" horiz-adv-x="896" 
d="M569 758h-181l-139 138h267zM898 0h-275l-38 115h-270l-38 -115h-278l305 706h288zM532 271l-83 239l-81 -239h164z" />
    <glyph glyph-name="mu" unicode="&#xb5;" horiz-adv-x="815" 
d="M793 0h-245c-7 24 -10 41 -13 73c-46 -61 -85 -80 -143 -80c-43 0 -69 9 -105 37v-232h-237v732h237v-270c0 -82 47 -117 116 -117c75 0 125 37 125 134v253h236v-453c0 -41 4 -52 29 -77z" />
    <glyph glyph-name="plusminus" unicode="&#xb1;" horiz-adv-x="772" 
d="M686 394h-197v-181h-205v181h-198v163h199v173h204v-173h197v-163zM686 0h-600v164h600v-164z" />
    <glyph glyph-name="degree" unicode="&#xb0;" horiz-adv-x="354" 
d="M349 573c0 -95 -77 -173 -172 -173s-172 78 -172 173c0 96 76 172 172 172s172 -76 172 -172zM233 575c0 31 -25 55 -56 55s-55 -25 -55 -55s25 -56 55 -56c31 0 56 25 56 56z" />
    <glyph glyph-name="registered" unicode="&#xae;" horiz-adv-x="760" 
d="M747 355c0 -201 -157 -357 -357 -357c-198 0 -355 158 -355 356s157 356 356 356s356 -157 356 -355zM691 353c0 173 -132 309 -301 309c-165 0 -300 -138 -300 -309s133 -307 300 -307s301 137 301 307zM228 561h216c88 0 146 -44 146 -135c0 -70 -30 -111 -97 -133
l89 -147h-127l-81 142h-32v-143h-114v416zM341 472v-94h61c55 0 73 12 73 47s-18 47 -71 47h-63z" />
    <glyph glyph-name="logicalnot" unicode="&#xac;" horiz-adv-x="772" 
d="M677 27h-205v194h-417v163h622v-357z" />
    <glyph glyph-name="copyright" unicode="&#xa9;" horiz-adv-x="760" 
d="M609 421l-113 -16c-18 43 -47 60 -97 60c-70 0 -116 -44 -116 -111s44 -111 113 -111c49 0 84 21 99 58l110 -21c-30 -90 -107 -141 -212 -141c-132 0 -225 89 -225 215c0 125 97 215 231 215c107 0 187 -56 210 -148zM747 355c0 -201 -157 -357 -357 -357
c-198 0 -355 158 -355 356s157 356 356 356s356 -157 356 -355zM691 353c0 173 -132 309 -301 309c-165 0 -300 -138 -300 -309s133 -307 300 -307s301 137 301 307z" />
    <glyph glyph-name="brokenbar" unicode="&#xa6;" horiz-adv-x="287" 
d="M225 351h-164v409h164v-409zM225 -212h-164v410h164v-410z" />
    <glyph glyph-name="minus" unicode="&#x2212;" horiz-adv-x="772" 
d="M698 221h-623v163h623v-163z" />
    <glyph glyph-name="threesuperior" unicode="&#xb3;" horiz-adv-x="562" 
d="M17 411l153 6c8 -19 27 -49 107 -49c18 0 88 1 88 41c0 29 -28 37 -55 37h-112v95h88c20 0 70 1 70 36c0 29 -33 35 -60 35c-75 0 -90 -22 -101 -38l-152 6c4 29 11 73 67 104c59 33 152 34 193 34c93 0 226 -14 226 -124c0 -60 -40 -77 -77 -92c59 -15 88 -48 88 -96
c0 -77 -54 -148 -258 -148c-90 0 -126 10 -144 15c-94 29 -108 85 -121 138z" />
    <glyph glyph-name="twosuperior" unicode="&#xb2;" horiz-adv-x="562" 
d="M508 265h-456c0 102 19 135 46 162c82 82 239 104 239 152c0 17 -20 29 -67 29c-54 0 -66 -35 -67 -65c0 0 -126 2 -140 2c0 107 54 169 219 169c74 0 218 -9 218 -128c0 -91 -86 -119 -173 -159c-57 -26 -82 -32 -88 -48h269v-114z" />
    <glyph glyph-name="onesuperior" unicode="&#xb9;" horiz-adv-x="562" 
d="M385 265h-162v298c-45 -13 -55 -12 -99 -16v103c26 4 77 6 138 56h123v-441z" />
    <glyph glyph-name="threequarters" unicode="&#xbe;" horiz-adv-x="1250" 
d="M1216 80h-68v-80h-154v81h-278v99l256 261h176v-251h68v-110zM956 676l-494 -706l-88 62l495 704zM994 190v120l-117 -120h117zM198 446v95h88c20 0 70 1 70 36c0 29 -33 35 -60 35c-75 0 -90 -22 -101 -38l-152 6c4 29 11 73 67 104c59 33 152 34 193 34
c93 0 226 -14 226 -124c0 -60 -40 -77 -77 -92c59 -15 88 -48 88 -96c0 -77 -54 -148 -258 -148c-90 0 -126 10 -144 15c-94 29 -108 85 -121 138l153 6c8 -19 27 -49 107 -49c18 0 88 1 88 41c0 29 -28 37 -55 37h-112z" />
    <glyph glyph-name="onehalf" unicode="&#xbd;" horiz-adv-x="1250" 
d="M864 676l-494 -706l-87 62l495 704zM390 265h-162v298c-45 -13 -55 -12 -99 -16v103c26 4 77 6 138 56h123v-441zM1156 0h-456c0 102 19 135 46 162c82 82 239 104 239 152c0 17 -20 29 -67 29c-54 0 -66 -35 -67 -65c0 0 -126 2 -140 2c0 107 54 169 219 169
c74 0 218 -9 218 -128c0 -91 -86 -119 -173 -159c-57 -26 -82 -32 -88 -48h269v-114z" />
    <glyph glyph-name="onequarter" unicode="&#xbc;" horiz-adv-x="1250" 
d="M1167 80h-68v-80h-154v81h-278v99l256 261h176v-251h68v-110zM893 676l-494 -706l-88 62l495 704zM945 190v120l-117 -120h117zM400 265h-162v298c-45 -13 -55 -12 -99 -16v103c26 4 77 6 138 56h123v-441z" />
    <glyph glyph-name="nbspace" unicode="&#xa0;" 
 />
    <glyph glyph-name="uni00AD" unicode="&#xad;" horiz-adv-x="415" 
d="M386 228h-357v175h357v-175z" />
    </font>
</defs>
</svg>
