<?xml version="1.0" standalone="no"?>
<!DOCTYPE svg PUBLIC "-//W3C//DTD SVG 1.1//EN" "http://www.w3.org/Graphics/SVG/1.1/DTD/svg11.dtd" >
<svg>
<metadata>
Created by FontForge 20120731 at Wed Jul  3 14:25:42 2019
 By www-data
Berthold first published Akzidenz-Grotesk in 1896. The design originates from Royal Grotesk light by Ferdinand Theinhardt who also supplied the regular, medium and bold weights. Throughout the years, Berthold has expanded this extremely popular and versatile family. AG Super was developed in 1968 by Guenter Gerhard Lange and is an excellent choice for headlines. In 2001, Guenter Gerhard Lange added more weights for Berthold including Super Italic and Extra Bold italic.
</metadata>
<defs>
<font id="AkzidenzGroteskBE-LightEx" horiz-adv-x="708" >
  <font-face 
    font-family="Akzidenz Grotesk BE LightEx"
    font-weight="300"
    font-stretch="expanded"
    units-per-em="1000"
    panose-1="2 0 5 4 4 0 0 2 0 3"
    ascent="750"
    descent="-250"
    x-height="494"
    cap-height="706"
    bbox="-164 -228 1530 913"
    underline-thickness="50"
    underline-position="-50"
    stemh="55"
    stemv="65"
    unicode-range="U+0020-FB02"
  />
<missing-glyph horiz-adv-x="500" 
d="M0 0v706h500v-706h-500zM250 401l170 255h-340zM280 353l170 -258v516zM80 50h340l-170 258zM50 611v-516l170 258z" />
    <glyph glyph-name="fi" unicode="fi" horiz-adv-x="562" 
d="M491 582h-66v96h66v-96zM491 0h-66v494h66v-494zM341 443h-167v-443h-66v443h-98v51h98v97c0 36 3 65 28 94c29 33 69 38 111 38c19 0 50 0 94 -10v-58c-36 8 -53 10 -90 10c-25 0 -77 -2 -77 -85v-86h167v-51z" />
    <glyph glyph-name="fl" unicode="fl" horiz-adv-x="562" 
d="M492 0h-66v706h66v-706zM341 443h-167v-443h-66v443h-98v51h98v97c0 36 3 65 28 94c29 33 69 38 111 38c19 0 50 0 94 -10v-58c-36 8 -53 10 -90 10c-25 0 -77 -2 -77 -85v-86h167v-51z" />
    <glyph glyph-name=".notdef" horiz-adv-x="500" 
d="M0 0v706h500v-706h-500zM250 401l170 255h-340zM280 353l170 -258v516zM80 50h340l-170 258zM50 611v-516l170 258z" />
    <glyph glyph-name="space" unicode=" " horiz-adv-x="313" 
 />
    <glyph glyph-name="exclam" unicode="!" horiz-adv-x="313" 
d="M140 706h71v-304l-13 -202h-46l-12 223v283zM214 0h-77v99h77v-99z" />
    <glyph glyph-name="quotedbl" unicode="&#x22;" horiz-adv-x="348" 
d="M313 744l-26 -291h-36l-27 291h89zM124 744l-26 -291h-36l-27 291h89z" />
    <glyph glyph-name="numbersign" unicode="#" horiz-adv-x="768" 
d="M721 410h-193l-10 -97h191v-54h-196l-25 -259h-62l28 259h-145l-28 -259h-58l26 259h-200v54h206l9 97h-202v57h207l23 239h63l-25 -239h145l22 239h60l-24 -239h188v-57zM469 410h-145l-10 -97h145z" />
    <glyph glyph-name="dollar" unicode="$" horiz-adv-x="812" 
d="M743 585l-65 -34c-68 102 -208 109 -236 111v-257c124 -15 193 -28 243 -59c22 -13 78 -57 78 -136c0 -39 -16 -111 -98 -167c-76 -52 -176 -58 -214 -60h-9v-67h-60v67c-261 11 -315 128 -350 194l74 28c34 -101 129 -156 276 -160v300c-131 12 -296 31 -296 175
c0 51 29 133 142 176c63 24 134 27 154 28v64h60v-64c82 -7 171 -20 254 -91c20 -17 43 -44 47 -48zM382 414v249c-13 0 -138 -4 -197 -72c-8 -9 -27 -33 -27 -66c0 -83 92 -97 224 -111zM442 337v-291c60 4 109 10 163 39c70 37 85 87 85 122c0 15 -2 45 -32 71
c-37 32 -109 44 -216 59z" />
    <glyph glyph-name="percent" unicode="%" horiz-adv-x="1083" 
d="M765 688l-399 -688h-53l399 688h53zM448 469c0 -109 -73 -222 -212 -222c-133 0 -206 116 -206 224c0 143 105 221 209 221c141 0 209 -119 209 -223zM397 467c0 89 -49 181 -158 181c-106 0 -159 -80 -159 -178c0 -108 66 -179 158 -179c86 0 159 63 159 176zM1050 216
c0 -109 -73 -222 -212 -222c-133 0 -206 116 -206 224c0 143 105 221 209 221c141 0 209 -119 209 -223zM999 214c0 89 -49 181 -158 181c-106 0 -159 -80 -159 -178c0 -108 66 -179 158 -179c86 0 159 63 159 176z" />
    <glyph glyph-name="ampersand" unicode="&#x26;" horiz-adv-x="771" 
d="M633 375h65c-5 -33 -23 -153 -95 -243c75 -57 100 -65 152 -72v-60c-80 0 -140 43 -198 86c-67 -67 -162 -102 -258 -102c-33 0 -157 3 -226 99c-11 15 -35 51 -35 103c0 122 127 177 220 207c-37 45 -75 91 -75 152c0 45 22 77 32 89c37 46 90 60 147 60
c93 0 163 -64 163 -152c0 -41 -15 -68 -24 -81c-34 -50 -87 -72 -140 -94c62 -70 126 -136 196 -198c61 85 72 169 76 206zM322 415c96 34 141 75 141 133c0 55 -50 91 -104 91c-57 0 -108 -36 -108 -94c0 -38 22 -72 71 -130zM513 123c-80 73 -150 141 -214 221
c-5 -2 -71 -23 -110 -43c-18 -9 -80 -40 -80 -112c0 -43 34 -146 192 -146c97 0 171 42 212 80z" />
    <glyph glyph-name="quoteright" unicode="&#x2019;" horiz-adv-x="271" 
d="M92 706h85v-126c0 -56 -20 -89 -79 -93v36c30 3 42 27 42 54v25h-48v104z" />
    <glyph glyph-name="parenleft" unicode="(" horiz-adv-x="354" 
d="M337 -189l-25 -29c-153 118 -235 290 -235 482c0 165 59 312 181 425c17 16 36 30 54 45l25 -26c-30 -30 -58 -61 -82 -96c-71 -103 -104 -237 -104 -361c0 -169 66 -322 186 -440z" />
    <glyph glyph-name="parenright" unicode=")" horiz-adv-x="354" 
d="M18 705l25 29c150 -117 235 -289 235 -479c0 -167 -59 -314 -182 -428c-17 -16 -35 -31 -53 -45l-25 26c30 30 58 61 82 96c68 100 103 235 103 355c0 174 -62 325 -185 446z" />
    <glyph glyph-name="asterisk" unicode="*" horiz-adv-x="357" 
d="M324 595l-110 -39l67 -91l-37 -27l-68 90l-61 -90l-38 27l62 92l-106 30l14 43l106 -28v109h48v-111l108 36z" />
    <glyph glyph-name="plus" unicode="+" horiz-adv-x="772" 
d="M678 264h-262v-239h-60v239h-261v59h261v237h60v-237h262v-59z" />
    <glyph glyph-name="comma" unicode="," horiz-adv-x="271" 
d="M97 99h75v-125c0 -47 -23 -85 -73 -90v36c34 5 36 42 36 71v9h-38v99z" />
    <glyph glyph-name="hyphen" unicode="-" horiz-adv-x="364" 
d="M326 264h-288v60h288v-60z" />
    <glyph glyph-name="period" unicode="." horiz-adv-x="271" 
d="M173 0h-77v99h77v-99z" />
    <glyph glyph-name="slash" unicode="/" horiz-adv-x="500" 
d="M475 706l-398 -706h-60l399 706h59z" />
    <glyph glyph-name="zero" unicode="0" horiz-adv-x="729" 
d="M697 344c0 -113 -47 -223 -139 -291c-78 -58 -166 -64 -199 -64c-197 0 -329 161 -329 356c0 72 22 155 62 215c28 41 116 141 274 141c53 0 177 -15 261 -131c25 -34 70 -113 70 -226zM624 348c0 97 -31 177 -91 229c-52 45 -109 62 -170 62c-24 0 -73 -3 -127 -32
c-97 -52 -134 -160 -134 -265c0 -17 0 -65 17 -114c36 -107 129 -177 243 -177c50 0 86 13 104 21c65 28 158 104 158 276z" />
    <glyph glyph-name="one" unicode="1" horiz-adv-x="729" 
d="M417 0h-69v543c-55 -43 -134 -47 -170 -47h-13v57c98 0 174 23 206 140h46v-693z" />
    <glyph glyph-name="two" unicode="2" horiz-adv-x="729" 
d="M670 0h-597v64c285 131 517 233 517 405c0 34 -23 173 -216 173c-84 0 -177 -31 -214 -113c-18 -39 -18 -81 -18 -93l-69 11c16 165 132 255 304 255c106 0 164 -35 199 -63c56 -44 85 -99 85 -170c0 -18 -3 -55 -21 -97c-29 -66 -85 -122 -214 -197
c-87 -51 -153 -78 -246 -116h490v-59z" />
    <glyph glyph-name="three" unicode="3" horiz-adv-x="729" 
d="M298 330v59h121c12 0 44 0 75 11c20 7 87 35 87 110c0 125 -169 130 -207 130c-35 0 -195 -1 -231 -156l-66 22c38 117 124 194 297 194c214 0 275 -117 275 -192c0 -71 -46 -123 -125 -140c51 -5 152 -52 152 -164c0 -35 -11 -108 -87 -160c-36 -25 -109 -56 -218 -56
c-27 0 -124 1 -203 51c-58 37 -94 90 -113 133l71 24c16 -36 36 -68 67 -92c31 -25 88 -58 184 -58c123 0 231 53 231 158c0 37 -16 59 -25 70c-42 52 -112 56 -172 56h-113z" />
    <glyph glyph-name="four" unicode="4" horiz-adv-x="729" 
d="M685 185h-149v-185h-67v185h-435v59l428 451h74v-451h149v-59zM469 244v376l-355 -376h355z" />
    <glyph glyph-name="five" unicode="5" horiz-adv-x="729" 
d="M624 632h-468l-14 -234c20 21 82 86 235 86c146 0 224 -67 258 -118c25 -36 37 -75 37 -125c0 -59 -23 -102 -34 -120c-35 -58 -119 -132 -278 -132c-29 0 -134 3 -217 59c-61 42 -85 93 -97 125l68 19c26 -91 109 -145 239 -145c108 0 252 53 252 195
c0 138 -144 184 -240 184c-31 0 -118 -4 -187 -66c-23 -20 -34 -37 -41 -46h-63l22 374h528v-56z" />
    <glyph glyph-name="six" unicode="6" horiz-adv-x="729" 
d="M675 548l-63 -29c-54 79 -130 118 -231 118c-205 0 -262 -182 -264 -309c36 97 174 130 269 130c30 0 183 -2 264 -107c14 -18 42 -59 42 -120c0 -23 -4 -70 -37 -119c-60 -88 -173 -123 -274 -123c-20 0 -75 2 -132 22c-185 66 -196 247 -196 308c0 211 102 303 168 339
c69 38 139 40 167 40c33 0 137 -4 218 -72c29 -24 48 -49 69 -78zM145 230c0 -78 53 -124 74 -138c26 -18 80 -41 159 -41c24 0 145 0 211 81c31 39 35 78 35 96c0 79 -67 168 -243 168c-120 0 -236 -51 -236 -166z" />
    <glyph glyph-name="seven" unicode="7" horiz-adv-x="729" 
d="M674 688v-50c-32 -23 -96 -74 -176 -191c-40 -59 -160 -242 -160 -447h-75c0 187 121 387 151 433c62 93 135 168 161 195h-503v60h602z" />
    <glyph glyph-name="eight" unicode="8" horiz-adv-x="729" 
d="M497 361c88 -9 182 -69 182 -170c0 -18 -2 -53 -27 -91c-70 -108 -236 -111 -290 -111c-41 0 -135 3 -211 45c-58 32 -102 86 -102 156c0 98 96 160 182 171c-33 6 -151 31 -151 150c0 137 165 189 292 189c137 0 279 -53 280 -188c0 -18 -4 -59 -38 -96
c-32 -34 -74 -48 -117 -55zM585 516c0 117 -164 128 -214 128c-207 0 -220 -97 -220 -129c0 -104 142 -123 219 -123c90 0 156 25 182 48c11 10 33 36 33 76zM610 190c0 124 -184 137 -242 137c-34 0 -125 -2 -186 -37c-15 -8 -64 -38 -64 -99c0 -59 46 -88 61 -98
c71 -45 154 -46 184 -46c20 0 110 0 176 36c16 9 71 40 71 107z" />
    <glyph glyph-name="nine" unicode="9" horiz-adv-x="729" 
d="M73 130l62 30c6 -7 15 -20 31 -35c51 -49 122 -75 193 -75c92 0 174 44 219 125c16 29 39 77 45 197c-45 -108 -184 -142 -284 -142c-30 0 -186 2 -262 114c-11 17 -33 55 -33 110c0 21 4 65 33 112c35 56 122 134 285 134c47 0 189 -5 271 -133c40 -61 53 -132 53 -204
c0 -23 -1 -121 -39 -200c-78 -163 -245 -173 -294 -173c-32 0 -132 5 -213 68c-36 28 -55 55 -67 72zM591 461c0 120 -103 177 -229 177c-113 0 -181 -45 -211 -80c-13 -15 -38 -48 -38 -100c0 -161 195 -166 229 -166c30 0 142 2 209 71c14 14 40 45 40 98z" />
    <glyph glyph-name="colon" unicode=":" horiz-adv-x="313" 
d="M217 391h-79v98h79v-98zM217 0h-79v99h79v-99z" />
    <glyph glyph-name="semicolon" unicode=";" horiz-adv-x="313" 
d="M217 391h-79v98h79v-98zM138 99h75v-125c0 -47 -23 -85 -73 -90v36c31 5 36 37 36 63v17h-38v99z" />
    <glyph glyph-name="less" unicode="&#x3c;" horiz-adv-x="772" 
d="M641 27l-542 234v67l542 242v-64l-478 -208l478 -204v-67z" />
    <glyph glyph-name="equal" unicode="=" horiz-adv-x="772" 
d="M678 350h-584v58h584v-58zM678 173h-584v58h584v-58z" />
    <glyph glyph-name="greater" unicode="&#x3e;" horiz-adv-x="772" 
d="M673 269l-542 -242v64l478 209l-478 203v67l542 -234v-67z" />
    <glyph glyph-name="question" unicode="?" 
d="M375 197h-62v9c0 97 37 109 117 131s161 56 161 159c0 71 -38 107 -60 123c-25 18 -76 44 -154 44c-108 0 -170 -56 -195 -89c-20 -26 -33 -61 -43 -91l-59 22c49 159 158 217 299 217c28 0 157 0 232 -91c18 -22 46 -62 46 -132c0 -20 -2 -84 -49 -137
c-24 -27 -61 -53 -135 -75c-22 -6 -69 -16 -85 -34c-11 -12 -12 -27 -13 -56zM381 0h-75v99h75v-99z" />
    <glyph glyph-name="at" unicode="@" horiz-adv-x="931" 
d="M820 66l29 -32c-88 -73 -128 -99 -200 -126c-57 -21 -116 -32 -178 -32c-239 0 -402 153 -402 379c0 258 202 457 463 457c200 0 326 -116 326 -300c0 -174 -120 -340 -237 -340c-55 0 -80 28 -82 93c-52 -67 -99 -92 -158 -92c-81 0 -131 61 -131 160
c0 149 103 282 218 282c55 0 90 -22 123 -95l17 72h61l-58 -252c-6 -28 -7 -50 -7 -69c0 -30 16 -51 38 -51c17 0 40 11 60 30c67 62 111 166 111 263c0 159 -110 257 -286 257c-232 0 -409 -179 -409 -415c0 -204 135 -334 348 -334c64 0 124 12 185 36
c67 26 99 47 169 109zM569 349c0 69 -37 113 -96 113c-82 0 -156 -108 -156 -227c0 -69 35 -111 91 -111c112 0 161 163 161 225z" />
    <glyph glyph-name="A" unicode="A" horiz-adv-x="792" 
d="M786 0h-73l-91 183h-455l-90 -183h-71l348 706h76zM594 239l-202 404l-198 -404h400z" />
    <glyph glyph-name="B" unicode="B" horiz-adv-x="917" 
d="M82 706h553c63 0 116 -23 154 -75c11 -15 33 -51 33 -102c0 -93 -61 -143 -123 -155c103 -8 159 -90 159 -182c0 -24 -4 -105 -71 -153c-47 -34 -100 -39 -155 -39h-550v706zM151 649v-250h431c52 0 103 4 140 48c11 13 27 37 27 78c0 12 -1 41 -19 70
c-32 50 -84 54 -138 54h-441zM151 339v-280h482c54 0 108 11 137 64c16 29 18 57 18 69s-2 54 -27 87c-42 58 -120 60 -185 60h-425z" />
    <glyph glyph-name="C" unicode="C" horiz-adv-x="827" 
d="M789 534l-60 -33c-83 153 -232 164 -288 164c-39 0 -154 -7 -240 -95c-78 -80 -85 -182 -85 -219c0 -39 7 -136 88 -216c86 -86 199 -91 238 -91c61 0 207 10 304 175l61 -29c-17 -30 -45 -79 -111 -128c-45 -33 -124 -80 -258 -80c-129 0 -203 40 -247 72
c-96 71 -150 181 -150 302c0 44 6 140 82 231c108 130 260 141 316 141c44 0 174 -8 276 -101c32 -29 51 -57 74 -93z" />
    <glyph glyph-name="D" unicode="D" horiz-adv-x="854" 
d="M83 706h353c100 0 176 -13 249 -73c114 -94 120 -238 120 -282c0 -17 -1 -62 -14 -110c-24 -89 -81 -166 -166 -205c-72 -33 -146 -36 -222 -36h-320v706zM153 648v-589h225c95 0 202 2 276 72c38 36 80 100 80 216c0 119 -50 237 -169 281c-46 17 -81 20 -129 20h-283z
" />
    <glyph glyph-name="E" unicode="E" horiz-adv-x="833" 
d="M788 0h-705v706h676v-58h-607v-248h561v-60h-561v-281h636v-59z" />
    <glyph glyph-name="F" unicode="F" horiz-adv-x="750" 
d="M733 648h-581v-251h520v-61h-520v-336h-69v706h650v-58z" />
    <glyph glyph-name="G" unicode="G" horiz-adv-x="896" 
d="M386 309v60h436v-369h-61v144c-21 -37 -42 -59 -55 -71c-37 -34 -128 -93 -264 -93c-186 0 -398 113 -398 371c0 43 6 150 86 243c45 53 143 134 316 134c36 0 172 -5 274 -87c48 -39 73 -80 85 -100l-66 -38c-61 117 -181 161 -299 161c-195 0 -323 -135 -323 -311
c0 -33 4 -124 68 -200c38 -45 119 -110 267 -110c146 0 303 95 309 266h-375z" />
    <glyph glyph-name="H" unicode="H" horiz-adv-x="896" 
d="M812 0h-67v345h-593v-345h-69v706h69v-302h593v302h67v-706z" />
    <glyph glyph-name="I" unicode="I" horiz-adv-x="229" 
d="M149 0h-67v706h67v-706z" />
    <glyph glyph-name="J" unicode="J" horiz-adv-x="625" 
d="M492 706h66v-436c0 -105 -20 -204 -123 -256c-26 -13 -75 -32 -146 -32c-25 0 -107 2 -176 47c-70 45 -97 118 -107 144l70 26c36 -150 184 -154 218 -154c16 0 108 0 155 62c41 53 43 143 43 209v390z" />
    <glyph glyph-name="K" unicode="K" horiz-adv-x="792" 
d="M788 0h-89l-315 391l-234 -190v-201h-67v706h67v-429l528 429h93l-334 -272z" />
    <glyph glyph-name="L" unicode="L" horiz-adv-x="688" 
d="M667 0h-584v706h70v-647h514v-59z" />
    <glyph glyph-name="M" unicode="M" horiz-adv-x="938" 
d="M857 0h-63v626l-288 -626h-70l-290 620v-620h-64v706h90l301 -642l296 642h88v-706z" />
    <glyph glyph-name="N" unicode="N" horiz-adv-x="896" 
d="M814 0h-63l-605 616v-616h-63v706h63l605 -619v619h63v-706z" />
    <glyph glyph-name="O" unicode="O" horiz-adv-x="917" 
d="M42 354c0 247 206 374 416 374c60 0 254 -8 361 -177c51 -81 57 -161 57 -196c0 -40 -8 -141 -81 -229c-114 -137 -284 -145 -339 -145c-57 0 -267 10 -368 191c-43 77 -46 149 -46 182zM799 369c0 158 -122 298 -342 298c-52 0 -142 -8 -219 -65
c-41 -30 -122 -110 -122 -251c0 -19 2 -69 23 -121c71 -179 271 -189 321 -189c246 0 339 168 339 328z" />
    <glyph glyph-name="P" unicode="P" horiz-adv-x="812" 
d="M82 0v706h469c73 0 159 -6 206 -76c13 -18 37 -56 37 -117c0 -28 -5 -100 -72 -151c-54 -42 -123 -46 -187 -46h-383v-316h-70zM152 374h359c58 0 126 0 172 44c16 15 38 44 38 95c0 15 -4 76 -51 109c-33 23 -73 26 -112 26h-406v-274z" />
    <glyph glyph-name="Q" unicode="Q" horiz-adv-x="917" 
d="M889 5l-30 -54l-165 91c-49 -27 -111 -62 -232 -62c-127 0 -201 34 -247 61c-155 91 -175 246 -175 313c0 142 74 225 111 260c111 105 256 111 304 111c101 0 200 -25 280 -87c89 -69 139 -174 139 -287c0 -53 -8 -164 -124 -270zM798 355c0 44 -9 165 -120 245
c-87 62 -202 64 -231 64c-34 0 -172 -4 -262 -115c-25 -31 -70 -93 -70 -196c0 -38 5 -143 90 -223c66 -62 164 -90 254 -90c104 0 214 37 279 125c21 29 60 95 60 190z" />
    <glyph glyph-name="R" unicode="R" horiz-adv-x="875" 
d="M848 0h-95l-279 315h-323v-315h-68v706h520c53 0 132 -8 181 -82c29 -44 31 -93 31 -112c0 -28 -5 -102 -72 -152c-53 -39 -117 -42 -179 -45zM151 375h381c71 0 157 1 193 73c5 10 16 36 16 68c0 17 -5 76 -54 109c-35 23 -74 23 -114 23h-422v-273z" />
    <glyph glyph-name="S" unicode="S" horiz-adv-x="812" 
d="M32 177l74 28c16 -42 58 -161 308 -161c141 0 277 54 277 162c0 98 -109 112 -237 129l-154 21c-42 6 -92 14 -129 33c-24 12 -84 49 -84 131c0 114 112 205 325 205c50 0 224 -5 331 -139l-64 -34c-62 87 -171 112 -272 112c-118 0 -248 -40 -248 -141
c0 -50 41 -69 55 -76c30 -14 64 -19 131 -28c154 -22 252 -32 314 -59c63 -27 105 -80 105 -150c0 -20 -5 -65 -33 -105c-53 -75 -148 -123 -334 -123c-44 0 -214 8 -305 105c-27 28 -42 56 -60 90z" />
    <glyph glyph-name="T" unicode="T" horiz-adv-x="688" 
d="M686 648h-303v-648h-67v648h-317v58h687v-58z" />
    <glyph glyph-name="U" unicode="U" horiz-adv-x="875" 
d="M79 706h65v-405c0 -58 2 -116 38 -166c45 -62 133 -89 239 -89c159 0 237 31 279 104c24 42 30 88 30 183v373h64v-426c0 -29 0 -104 -42 -171c-41 -67 -103 -98 -177 -114c-60 -13 -107 -13 -131 -13c-22 0 -101 0 -174 21c-39 11 -133 42 -173 152
c-17 46 -18 94 -18 143v408z" />
    <glyph glyph-name="V" unicode="V" 
d="M726 706l-327 -706h-66l-333 706h76l292 -632l283 632h75z" />
    <glyph glyph-name="W" unicode="W" horiz-adv-x="1062" 
d="M1059 706l-224 -706h-82l-219 635l-217 -635h-80l-234 706h71l206 -634l218 634h73l223 -634l198 634h67z" />
    <glyph glyph-name="X" unicode="X" horiz-adv-x="729" 
d="M740 0h-87l-293 315l-272 -315h-84l313 362l-321 344h87l277 -296l257 296h84l-299 -344z" />
    <glyph glyph-name="Y" unicode="Y" horiz-adv-x="729" 
d="M723 706l-320 -420v-286h-64v286l-333 420h84l281 -363l272 363h80z" />
    <glyph glyph-name="Z" unicode="Z" horiz-adv-x="750" 
d="M750 644l-653 -585h635v-59h-732v57l659 591h-604v58h695v-62z" />
    <glyph glyph-name="bracketleft" unicode="[" horiz-adv-x="292" 
d="M268 -212h-187v942h187v-62h-122v-818h122v-62z" />
    <glyph glyph-name="backslash" unicode="\" horiz-adv-x="500" 
d="M475 0h-59l-399 706h60z" />
    <glyph glyph-name="bracketright" unicode="]" horiz-adv-x="292" 
d="M211 -212h-187v61h122v818h-122v63h187v-942z" />
    <glyph glyph-name="asciicircum" unicode="^" horiz-adv-x="772" 
d="M627 286h-67l-169 357l-178 -357h-68l213 420h69z" />
    <glyph glyph-name="underscore" unicode="_" horiz-adv-x="500" 
d="M510 -206h-520v59h520v-59z" />
    <glyph glyph-name="quoteleft" unicode="&#x2018;" horiz-adv-x="271" 
d="M180 491h-84v127c0 55 19 90 79 94v-37c-30 -3 -42 -27 -42 -54v-25h47v-105z" />
    <glyph glyph-name="a" unicode="a" horiz-adv-x="667" 
d="M666 0c-17 -2 -39 -4 -66 -4c-71 0 -73 64 -76 76c-16 -12 -36 -26 -54 -36c-35 -19 -105 -49 -208 -49c-69 0 -141 8 -188 65c-31 38 -33 79 -33 96c0 48 23 95 62 122c71 49 221 52 421 54c0 26 -1 52 -17 75c-24 34 -95 49 -187 49c-154 0 -181 -36 -203 -102l-70 4
c7 26 22 87 90 123c63 34 155 35 177 35c121 0 201 -23 238 -64c29 -33 33 -69 33 -109v-217c0 -57 21 -67 64 -67h17v-51zM524 268h-31c-277 0 -381 -27 -381 -122c0 -78 90 -100 158 -100c55 0 191 21 236 98c16 28 18 65 18 98v26z" />
    <glyph glyph-name="b" unicode="b" 
d="M72 706h67v-292c33 44 102 93 230 93c30 0 138 -4 215 -75c70 -65 76 -156 76 -186c0 -179 -155 -257 -296 -257c-82 0 -174 27 -226 88v-77h-66v706zM588 247c0 115 -91 198 -233 198c-59 0 -129 -17 -172 -61c-22 -23 -46 -65 -46 -140c0 -18 2 -95 54 -143
c59 -54 152 -54 171 -54c97 0 157 44 182 72c32 36 44 92 44 128z" />
    <glyph glyph-name="c" unicode="c" horiz-adv-x="667" 
d="M582 193l66 -25c-22 -36 -44 -69 -75 -98c-85 -79 -202 -81 -236 -81c-20 0 -61 0 -111 15c-54 17 -186 76 -186 246c0 31 4 105 65 170c60 64 158 94 243 94c54 0 201 -9 290 -158l-66 -27c-10 21 -49 70 -88 93c-23 14 -70 35 -138 35c-110 0 -175 -53 -203 -101
c-11 -18 -29 -54 -29 -105c0 -143 123 -204 230 -204c64 0 140 23 186 68c31 31 45 64 52 78z" />
    <glyph glyph-name="d" unicode="d" 
d="M635 0h-66v75c-21 -26 -88 -89 -225 -89c-96 0 -202 38 -258 121c-16 23 -42 72 -42 143c0 169 151 259 304 259c27 0 167 -6 221 -94v291h66v-706zM569 249c0 52 -13 111 -55 147c-60 51 -134 57 -167 57c-22 0 -51 -1 -95 -17c-119 -42 -134 -143 -134 -189
c0 -13 3 -54 22 -92c56 -109 183 -112 213 -112c65 0 143 22 183 78c32 45 33 109 33 128z" />
    <glyph glyph-name="e" unicode="e" horiz-adv-x="667" 
d="M575 172l52 -37c-14 -20 -45 -63 -99 -98c-29 -18 -93 -50 -184 -50c-30 0 -108 4 -180 52c-73 48 -117 129 -117 219c0 68 27 137 79 182c29 26 99 70 203 70c37 0 143 -6 222 -87c42 -42 72 -100 76 -183h-511c9 -128 115 -195 235 -195c48 0 154 10 224 127zM118 296
h429c-11 53 -39 92 -84 121c-25 16 -67 37 -139 37c-56 0 -105 -13 -146 -52c-47 -45 -55 -81 -60 -106z" />
    <glyph glyph-name="f" unicode="f" horiz-adv-x="354" 
d="M341 443h-167v-443h-66v443h-98v51h98v97c0 36 3 65 28 94c29 33 69 38 111 38c19 0 50 0 94 -10v-58c-36 8 -53 10 -90 10c-25 0 -77 -2 -77 -78v-93h167v-51z" />
    <glyph glyph-name="g" unicode="g" horiz-adv-x="688" 
d="M553 494h64v-456c0 -22 -1 -65 -13 -102c-33 -105 -144 -123 -172 -128c-18 -3 -51 -8 -96 -8c-18 0 -125 1 -188 40c-44 27 -67 72 -73 124h69c3 -24 7 -58 59 -82c20 -9 69 -23 130 -23c17 0 63 1 111 13c69 17 109 48 109 163v43c-15 -20 -75 -92 -226 -92
c-47 0 -89 6 -132 24c-54 23 -155 85 -155 240c0 32 2 97 58 162c83 95 196 97 238 97c93 0 177 -36 219 -87c0 0 -2 55 -2 72zM555 250c0 88 -28 131 -60 156c-25 20 -77 48 -154 48c-125 0 -229 -73 -229 -205c0 -44 12 -73 19 -89c51 -110 171 -115 204 -115
c58 0 129 18 171 61c23 23 49 68 49 144z" />
    <glyph glyph-name="h" unicode="h" 
d="M634 0h-65v260c0 80 -20 117 -50 142c-31 27 -79 45 -165 45c-29 0 -106 -1 -167 -54c-44 -38 -51 -70 -51 -120v-273h-66v706h66v-292c29 50 115 93 235 93c71 0 196 -16 241 -113c20 -41 22 -80 22 -124v-270z" />
    <glyph glyph-name="i" unicode="i" horiz-adv-x="208" 
d="M137 582h-66v96h66v-96zM137 0h-66v494h66v-494z" />
    <glyph glyph-name="j" unicode="j" horiz-adv-x="208" 
d="M136 580h-64v97h64v-97zM72 494h64v-548c0 -52 -2 -136 -132 -136c-40 0 -81 9 -93 12v60c13 -4 42 -13 78 -13c76 0 83 40 83 76v549z" />
    <glyph glyph-name="k" unicode="k" horiz-adv-x="667" 
d="M671 0h-98l-271 262l-165 -127v-135h-65v706h65v-493l370 281h100l-250 -191z" />
    <glyph glyph-name="l" unicode="l" horiz-adv-x="208" 
d="M138 0h-66v706h66v-706z" />
    <glyph glyph-name="m" unicode="m" horiz-adv-x="1167" 
d="M1093 0h-65v283c0 158 -176 161 -206 161c-16 0 -206 0 -206 -147v-297h-66v282c0 133 -108 162 -201 162c-66 0 -159 -20 -196 -84c-11 -19 -15 -31 -15 -71v-289h-67v494h67v-63c11 9 22 19 34 27c69 49 160 50 183 50c31 0 170 -6 230 -102c13 19 78 100 243 100
c21 0 109 -2 177 -46c26 -16 88 -65 88 -153v-307z" />
    <glyph glyph-name="n" unicode="n" 
d="M638 0h-66v287c0 75 -34 158 -212 158c-150 0 -223 -75 -223 -149v-296h-66v494h67v-69c14 17 75 83 231 83c17 0 56 -1 100 -11c25 -6 112 -26 149 -106c18 -39 20 -77 20 -118v-273z" />
    <glyph glyph-name="o" unicode="o" 
d="M43 247c0 139 99 205 145 228c28 14 91 35 172 35c30 0 133 -2 212 -67c82 -67 92 -163 92 -200c0 -25 -3 -79 -41 -134c-35 -50 -118 -123 -271 -123c-14 0 -42 0 -78 7c-33 6 -128 26 -188 113c-39 57 -43 115 -43 141zM590 247c0 135 -110 209 -235 209
c-24 0 -92 -3 -151 -42c-30 -20 -86 -71 -86 -168c0 -19 4 -77 40 -124c45 -58 124 -80 193 -80c30 0 128 1 193 75c43 50 46 107 46 130z" />
    <glyph glyph-name="p" unicode="p" 
d="M74 494h64v-77c73 87 204 91 239 91c102 0 201 -40 251 -134c11 -20 32 -64 32 -126c0 -33 -6 -111 -72 -175c-34 -33 -107 -85 -226 -85c-72 0 -142 21 -177 47c-27 20 -37 30 -47 41v-263h-64v681zM139 250c0 -33 1 -96 48 -142c25 -24 83 -59 171 -59
c106 0 165 48 191 83c34 45 37 98 37 117c0 17 -2 50 -20 89c-51 109 -174 111 -205 111c-114 0 -222 -54 -222 -199z" />
    <glyph glyph-name="q" unicode="q" 
d="M634 -180h-65v248c-21 -19 -30 -26 -42 -34c-30 -20 -90 -48 -181 -48c-165 0 -301 100 -301 264c0 29 4 109 64 174c77 84 196 88 227 88c107 0 188 -35 233 -86v68h65v-674zM570 249c0 110 -61 204 -229 204c-138 0 -222 -81 -222 -198c0 -83 38 -126 64 -150
c62 -55 146 -58 168 -58c20 0 65 1 114 24c47 22 105 61 105 178z" />
    <glyph glyph-name="r" unicode="r" horiz-adv-x="396" 
d="M71 494h66v-80c51 77 151 96 215 96c10 0 32 -1 32 -1v-69c-17 2 -35 4 -52 4c-79 0 -132 -33 -154 -57c-34 -37 -41 -87 -41 -121v-266h-66v494z" />
    <glyph glyph-name="s" unicode="s" horiz-adv-x="625" 
d="M577 392l-73 -15c-3 5 -9 18 -21 29c-40 35 -132 44 -182 44c-57 0 -181 -10 -181 -91c0 -26 20 -50 46 -57c18 -5 50 -7 96 -10c124 -7 205 -7 256 -33c20 -10 70 -42 70 -111c0 -42 -26 -160 -260 -160c-184 0 -272 55 -298 134l72 16c12 -31 41 -53 71 -66
c25 -10 81 -24 153 -24c104 0 195 31 195 99c0 51 -64 66 -136 71c-123 8 -201 4 -253 23c-22 8 -80 37 -80 112c0 118 117 155 253 155c98 0 229 -15 272 -116z" />
    <glyph glyph-name="t" unicode="t" horiz-adv-x="313" 
d="M309 494v-51h-140v-235c0 -104 5 -161 96 -161c15 0 30 2 44 3v-54c-26 -4 -39 -7 -66 -7c-46 0 -91 11 -117 53c-21 33 -23 75 -23 154v247h-94v51h94v169l66 31v-200h140z" />
    <glyph glyph-name="u" unicode="u" 
d="M637 0h-65v71c-18 -16 -90 -84 -244 -84c-89 0 -198 20 -238 113c-13 29 -19 56 -19 118v276h66v-289c0 -62 14 -157 192 -157c69 0 182 19 225 82c16 24 18 43 18 70v294h65v-494z" />
    <glyph glyph-name="v" unicode="v" horiz-adv-x="562" 
d="M563 494l-250 -494h-61l-250 494h75l206 -421l205 421h75z" />
    <glyph glyph-name="w" unicode="w" horiz-adv-x="854" 
d="M853 494l-200 -494h-63l-163 418l-160 -418h-63l-204 494h71l164 -413l158 413h69l160 -413l163 413h68z" />
    <glyph glyph-name="x" unicode="x" horiz-adv-x="562" 
d="M566 0h-87l-198 211l-198 -211h-87l244 257l-229 237h89l181 -192l181 192h85l-226 -237z" />
    <glyph glyph-name="y" unicode="y" horiz-adv-x="562" 
d="M489 494h71l-233 -532c-27 -62 -42 -96 -75 -122c-37 -29 -96 -34 -139 -34c-50 0 -80 7 -102 12v62c23 -8 52 -18 100 -18c108 0 132 55 154 111l-265 521h79l221 -448z" />
    <glyph glyph-name="z" unicode="z" horiz-adv-x="562" 
d="M546 0h-535v54l440 386h-408v54h503v-46l-443 -393h443v-55z" />
    <glyph glyph-name="braceleft" unicode="{" horiz-adv-x="314" 
d="M290 -217h-14c-47 0 -84 12 -110 34c-37 31 -40 68 -40 137v135c0 110 -12 130 -82 142v55c70 13 82 33 82 142v165c0 92 48 141 154 141h10v-55h-12c-83 0 -87 -51 -87 -109v-155c0 -94 -9 -130 -75 -156c66 -20 75 -75 75 -156v-180c0 -56 30 -85 86 -85h13v-55z" />
    <glyph glyph-name="bar" unicode="|" horiz-adv-x="230" 
d="M148 -212h-66v942h66v-942z" />
    <glyph glyph-name="braceright" unicode="}" horiz-adv-x="314" 
d="M272 286v-54c-70 -13 -82 -33 -82 -143v-160c0 -106 -49 -146 -164 -146v55h9c71 0 91 27 91 121v159c0 84 13 116 74 141c-61 22 -74 62 -74 139v191c0 59 -26 91 -87 91h-13v54h14c42 0 84 -10 111 -33c34 -28 39 -69 39 -137v-136c0 -109 12 -129 82 -142z" />
    <glyph glyph-name="asciitilde" unicode="~" horiz-adv-x="827" 
d="M701 358l46 -40c-64 -71 -122 -100 -191 -100c-44 0 -76 13 -138 38l-42 17c-54 22 -87 30 -121 30c-43 0 -68 -18 -117 -67l-11 -11l-47 40c61 76 112 102 183 102c41 0 57 -4 160 -43l47 -18c54 -21 69 -25 92 -25c41 0 79 15 139 77z" />
    <glyph glyph-name="exclamdown" unicode="&#xa1;" horiz-adv-x="313" 
d="M176 608h-77v98h77v-98zM173 0h-71v304l13 203h46l12 -224v-283z" />
    <glyph glyph-name="cent" unicode="&#xa2;" horiz-adv-x="667" 
d="M587 190l63 -24c-48 -85 -116 -166 -279 -178v-104h-55v104c-22 1 -51 2 -93 16c-68 22 -180 93 -180 244c0 127 83 249 273 259v103h55v-104c30 -1 180 -4 269 -157l-61 -26c-61 121 -188 129 -208 130v-408c105 7 182 60 216 145zM316 44v409
c-114 -8 -201 -89 -201 -206c0 -166 159 -203 201 -203z" />
    <glyph glyph-name="sterling" unicode="&#xa3;" horiz-adv-x="792" 
d="M47 335v56h158c-19 20 -63 67 -63 142c0 76 59 123 77 135c35 24 97 51 196 51c270 0 290 -189 296 -231h-67c-4 64 -36 102 -52 117c-27 26 -84 56 -175 56c-162 0 -207 -78 -207 -133c0 -48 32 -92 88 -137h232v-56h-182c28 -31 68 -79 68 -150c0 -21 -4 -36 -10 -57
c50 -28 121 -74 181 -74c24 0 98 10 98 122c0 12 -1 25 -2 40h62s1 -16 1 -28c0 -47 -6 -197 -165 -197c-79 0 -145 46 -205 90c-31 -43 -97 -90 -185 -90c-48 0 -154 22 -154 117c0 44 35 104 143 104c64 0 112 -22 168 -49c1 11 2 19 2 26c0 68 -83 138 -94 146h-209z
M328 108c-33 19 -76 49 -144 49c-12 0 -82 -2 -82 -54c0 -30 31 -54 88 -54c26 0 87 5 138 59z" />
    <glyph glyph-name="fraction" unicode="&#x2044;" horiz-adv-x="125" 
d="M289 688l-399 -688h-54l400 688h53z" />
    <glyph glyph-name="yen" unicode="&#xa5;" horiz-adv-x="729" 
d="M723 695l-253 -326h176v-55h-218l-25 -33v-34h243v-55h-243v-192h-64v192h-256v55h256v34l-27 33h-229v55h185l-262 326h84l280 -358l273 358h80z" />
    <glyph glyph-name="florin" unicode="&#x192;" horiz-adv-x="354" 
d="M387 696l-6 -58c-23 5 -40 10 -84 10c-65 0 -85 -31 -92 -90l-9 -81h167l-6 -51h-167l-58 -523c-2 -15 -10 -90 -80 -120c-26 -11 -70 -11 -72 -11c-47 0 -74 5 -94 10l6 58c21 -5 41 -10 84 -10c67 0 86 31 92 90l56 506h-98l6 51h98l11 96c7 56 28 133 152 133
c46 0 74 -5 94 -10z" />
    <glyph glyph-name="section" unicode="&#xa7;" horiz-adv-x="688" 
d="M563 664l-38 -52c-61 28 -132 52 -199 52c-57 0 -126 -24 -126 -91c0 -40 24 -58 58 -70c142 -52 392 -50 392 -256c0 -74 -32 -140 -103 -178c21 -31 31 -55 31 -93c0 -127 -121 -181 -221 -181c-101 0 -190 30 -277 67l42 52c76 -31 155 -59 238 -59
c69 0 147 36 147 115c0 71 -76 89 -137 105l-140 36c-136 35 -194 91 -194 186c0 84 46 154 122 191c-18 22 -27 48 -27 77c0 114 113 159 201 159c83 0 156 -28 231 -60zM501 104c48 34 80 78 80 139c0 110 -104 132 -190 153c-63 16 -128 30 -188 56
c-55 -30 -99 -85 -99 -150c0 -67 50 -99 108 -115c96 -26 197 -45 289 -83z" />
    <glyph glyph-name="currency" unicode="&#xa4;" horiz-adv-x="690" 
d="M631 569l-76 -74c38 -48 56 -98 56 -156c0 -59 -17 -105 -57 -157l76 -75l-47 -45l-77 75c-53 -39 -98 -54 -162 -54s-103 13 -161 54l-78 -73l-47 45l78 73c-41 55 -57 98 -57 159c0 60 15 102 57 155l-76 73l47 45l76 -72c54 38 100 54 161 54c63 0 122 -20 163 -54
l77 73zM543 339c0 114 -84 198 -197 198c-114 0 -200 -86 -200 -197c0 -113 87 -198 203 -198c110 0 194 85 194 197z" />
    <glyph glyph-name="quotesingle" unicode="'" horiz-adv-x="159" 
d="M124 744l-26 -291h-36l-27 291h89z" />
    <glyph glyph-name="quotedblleft" unicode="&#x201c;" horiz-adv-x="417" 
d="M321 494h-85v119c0 55 16 101 80 101v-40c-37 0 -39 -39 -39 -68v-8h44v-104zM182 494h-85v119c0 55 15 101 79 101v-40c-38 -1 -38 -40 -38 -67v-9h44v-104z" />
    <glyph glyph-name="guillemotleft" unicode="&#xab;" horiz-adv-x="521" 
d="M467 90l-203 175v55l203 173v-56l-138 -145l138 -145v-57zM255 92l-200 173v55l200 171v-58l-136 -141l136 -142v-58z" />
    <glyph glyph-name="guilsinglleft" unicode="&#x2039;" horiz-adv-x="250" 
d="M225 90l-202 175v55l202 173v-56l-137 -145l137 -145v-57z" />
    <glyph glyph-name="guilsinglright" unicode="&#x203a;" horiz-adv-x="250" 
d="M224 266l-200 -173v58l135 141l-135 142v58l200 -173v-53z" />
    <glyph glyph-name="endash" unicode="&#x2013;" horiz-adv-x="610" 
d="M572 264h-534v60h534v-60z" />
    <glyph glyph-name="dagger" unicode="&#x2020;" horiz-adv-x="542" 
d="M505 444h-204v-444h-60v444h-205v52h205v210h60v-210h204v-52z" />
    <glyph glyph-name="daggerdbl" unicode="&#x2021;" horiz-adv-x="542" 
d="M509 220h-208v-220h-60v220h-205v53h205v192h-208v53h208v188h60v-188h208v-53h-208v-192h208v-53z" />
    <glyph glyph-name="periodcentered" unicode="&#xb7;" horiz-adv-x="271" 
d="M173 244h-77v99h77v-99z" />
    <glyph glyph-name="paragraph" unicode="&#xb6;" horiz-adv-x="640" 
d="M542 652h-33v-818h-58v818h-162v-818h-59v495c-100 17 -156 83 -156 183c0 117 76 194 213 194h255v-54z" />
    <glyph glyph-name="bullet" unicode="&#x2022;" horiz-adv-x="334" 
d="M278 244h-222v218h222v-218z" />
    <glyph glyph-name="quotesinglbase" unicode="&#x201a;" horiz-adv-x="271" 
d="M92 104h85v-126c0 -55 -19 -90 -79 -94v37c30 3 42 27 42 54v25h-48v104z" />
    <glyph glyph-name="quotedblbase" unicode="&#x201e;" horiz-adv-x="417" 
d="M235 104h85v-118c0 -55 -16 -102 -80 -102v40c37 0 38 40 38 67v9h-43v104zM95 104h85v-118c0 -55 -15 -102 -79 -102v40c37 1 38 40 38 67v9h-44v104z" />
    <glyph glyph-name="quotedblright" unicode="&#x201d;" horiz-adv-x="417" 
d="M235 706h85v-118c0 -55 -16 -101 -80 -101v39c38 1 38 41 38 68v8h-43v104zM95 706h85v-118c0 -55 -15 -101 -79 -101v39c38 1 38 40 38 68v8h-44v104z" />
    <glyph glyph-name="guillemotright" unicode="&#xbb;" horiz-adv-x="521" 
d="M465 266l-200 -173v58l135 141l-135 142v58l200 -173v-53zM255 265l-202 -173v56l137 144l-137 145v57l202 -173v-56z" />
    <glyph glyph-name="ellipsis" unicode="&#x2026;" horiz-adv-x="1000" 
d="M872 80v-80h-78v80h78zM538 0h-77v80h77v-80zM205 0h-77v80h77v-80z" />
    <glyph glyph-name="perthousand" unicode="&#x2030;" horiz-adv-x="1563" 
d="M765 688l-399 -688h-53l399 688h53zM448 469c0 -109 -73 -222 -212 -222c-133 0 -206 116 -206 224c0 143 105 221 209 221c141 0 209 -119 209 -223zM397 467c0 89 -49 181 -158 181c-106 0 -159 -80 -159 -178c0 -108 66 -179 158 -179c86 0 159 63 159 176zM1050 216
c0 -109 -73 -222 -212 -222c-133 0 -206 116 -206 224c0 143 105 221 209 221c141 0 209 -119 209 -223zM999 214c0 89 -49 181 -158 181c-106 0 -159 -80 -159 -178c0 -108 66 -179 158 -179c86 0 159 63 159 176zM1530 216c0 -109 -73 -222 -212 -222
c-133 0 -206 116 -206 224c0 143 105 221 209 221c141 0 209 -119 209 -223zM1479 214c0 89 -49 181 -158 181c-106 0 -159 -80 -159 -178c0 -108 66 -179 158 -179c86 0 159 63 159 176z" />
    <glyph glyph-name="questiondown" unicode="&#xbf;" 
d="M333 510h62v-11c0 -97 -37 -108 -117 -130c-86 -24 -161 -57 -161 -159c0 -71 38 -107 60 -123c25 -18 76 -44 154 -44c108 0 170 56 195 89c20 26 33 61 43 91l59 -22c-55 -161 -158 -217 -299 -217c-28 0 -157 0 -232 91c-18 22 -46 62 -46 132c0 49 9 166 184 212
c23 6 70 19 85 35c11 12 12 27 13 56zM326 706h75v-99h-75v99z" />
    <glyph glyph-name="grave" unicode="`" horiz-adv-x="375" 
d="M280 554h-43l-142 145h110z" />
    <glyph glyph-name="acute" unicode="&#xb4;" horiz-adv-x="375" 
d="M281 700l-144 -145h-43l78 145h109z" />
    <glyph glyph-name="circumflex" unicode="&#x2c6;" horiz-adv-x="375" 
d="M323 549h-51l-82 85l-83 -85h-55l108 132h59z" />
    <glyph glyph-name="tilde" unicode="&#x2dc;" horiz-adv-x="375" 
d="M332 670l29 -14c-18 -45 -41 -89 -95 -89c-50 0 -118 50 -166 50c-25 0 -42 -22 -57 -50l-28 15c20 43 49 88 100 88c61 0 118 -49 162 -49c26 0 42 23 55 49z" />
    <glyph glyph-name="macron" unicode="&#xaf;" horiz-adv-x="375" 
d="M355 569h-335v52h335v-52z" />
    <glyph glyph-name="breve" unicode="&#x2d8;" horiz-adv-x="375" 
d="M278 682h49c-10 -89 -75 -124 -140 -124c-37 0 -125 12 -139 124h50c4 -26 21 -78 87 -78c20 0 83 6 93 78z" />
    <glyph glyph-name="dotaccent" unicode="&#x2d9;" horiz-adv-x="375" 
d="M220 586h-65v94h65v-94z" />
    <glyph glyph-name="dieresis" unicode="&#xa8;" horiz-adv-x="375" 
d="M355 564h-70v96h70v-96zM90 564h-70v96h70v-96z" />
    <glyph glyph-name="ring" unicode="&#x2da;" horiz-adv-x="375" 
d="M302 631c0 -66 -76 -87 -117 -87c-44 0 -112 22 -112 86c0 62 63 86 114 86c79 0 115 -40 115 -85zM248 630c0 23 -19 45 -61 45c-40 0 -63 -22 -63 -45s22 -41 62 -41c39 0 62 18 62 41z" />
    <glyph glyph-name="cedilla" unicode="&#xb8;" horiz-adv-x="375" 
d="M145 19h45v-79c40 0 96 -16 96 -70c0 -40 -34 -75 -117 -75c-23 0 -38 1 -80 6v33c22 -2 44 -4 65 -4s69 4 69 35c0 36 -47 38 -73 38h-5v116z" />
    <glyph glyph-name="hungarumlaut" unicode="&#x2dd;" horiz-adv-x="375" 
d="M206 700l-137 -145h-41l81 145h97zM347 700l-137 -145h-41l81 145h97z" />
    <glyph glyph-name="ogonek" unicode="&#x2db;" horiz-adv-x="375" 
d="M237 4v-4c-55 -20 -81 -46 -81 -77c0 -29 22 -55 71 -55c16 0 23 1 53 4v-50c-24 -3 -44 -6 -67 -6c-79 0 -118 34 -118 84c0 30 20 74 91 104h51z" />
    <glyph glyph-name="caron" unicode="&#x2c7;" horiz-adv-x="375" 
d="M323 681l-107 -132h-61l-103 132h53l81 -85l83 85h54z" />
    <glyph glyph-name="emdash" unicode="&#x2014;" horiz-adv-x="911" 
d="M873 264h-835v60h835v-60z" />
    <glyph glyph-name="AE" unicode="&#xc6;" horiz-adv-x="1125" 
d="M1085 0h-568v174h-329l-124 -174h-76l506 706h577v-58h-487v-254h446v-60h-446v-275h501v-59zM518 642l-290 -412h290v412z" />
    <glyph glyph-name="ordfeminine" unicode="&#xaa;" horiz-adv-x="437" 
d="M452 401v-40c-13 -2 -21 -4 -44 -4c-47 0 -55 28 -58 50c-42 -32 -97 -56 -176 -56c-68 0 -111 15 -137 52c-19 26 -19 56 -19 63c0 9 0 59 50 91c44 29 153 32 279 34v6c0 55 -50 72 -133 72c-76 0 -124 -18 -139 -70l-54 2c17 81 77 115 188 115c88 0 187 -12 187 -118
v-156c0 -21 3 -41 43 -41h13zM347 535v10h-61c-100 0 -213 -5 -213 -81c0 -40 40 -65 103 -65c40 0 129 12 159 65c11 19 12 49 12 71z" />
    <glyph glyph-name="Lslash" unicode="&#x141;" horiz-adv-x="688" 
d="M667 0h-584v227l-83 -47v60l83 47v419h70v-380l364 204v-60l-364 -204v-207h514v-59z" />
    <glyph glyph-name="Oslash" unicode="&#xd8;" horiz-adv-x="917" 
d="M877 657l-89 -73c33 -37 87 -118 87 -234c0 -43 -9 -152 -94 -244c-114 -123 -274 -130 -327 -130c-144 0 -235 51 -290 98l-94 -76l-34 42l89 74c-38 47 -84 121 -84 234c0 61 17 210 165 305c46 29 125 68 256 68c127 0 217 -38 287 -97l92 75zM177 155l522 428
c-36 30 -119 79 -245 79c-53 0 -221 -10 -303 -167c-12 -22 -37 -75 -37 -146c0 -62 21 -145 63 -194zM737 543l-522 -427c47 -44 133 -80 247 -80c159 0 248 82 283 132c20 29 54 92 54 184c0 71 -23 146 -62 191z" />
    <glyph glyph-name="OE" unicode="&#x152;" horiz-adv-x="1146" 
d="M1111 0h-515v23c-30 -13 -70 -39 -177 -39c-47 0 -168 6 -267 100c-82 79 -113 185 -113 272c0 33 7 128 64 211c38 55 133 154 309 154c76 0 115 -12 184 -41v26h500v-58h-431v-252h401v-59h-401v-278h446v-59zM596 83v534c-17 8 -75 45 -178 45c-36 0 -122 -4 -199 -70
c-94 -81 -105 -198 -105 -237c0 -69 25 -165 97 -231c37 -34 102 -79 222 -79c65 0 105 13 163 38z" />
    <glyph glyph-name="ordmasculine" unicode="&#xba;" horiz-adv-x="479" 
d="M24 532c0 131 116 185 222 185c143 0 209 -98 209 -186c0 -132 -124 -182 -220 -182c-163 0 -211 113 -211 183zM82 530c0 -59 35 -135 157 -135c119 0 159 80 159 136c0 96 -80 141 -158 141c-61 0 -158 -31 -158 -142z" />
    <glyph glyph-name="ae" unicode="&#xe6;" horiz-adv-x="1146" 
d="M1051 170l52 -34c-66 -144 -232 -150 -272 -150c-125 0 -225 50 -260 125c-11 -36 -74 -125 -283 -125c-124 0 -190 31 -223 81c-9 13 -25 43 -25 85c0 15 4 68 44 101c55 45 152 47 221 47h235c-1 50 -5 74 -19 95c-35 51 -141 58 -194 58c-16 0 -89 -1 -137 -26
c-45 -23 -55 -63 -59 -78l-71 7c11 42 35 153 273 153c147 0 231 -33 258 -100c20 33 89 100 229 100c135 0 280 -74 283 -264h-497c0 -130 90 -201 228 -201c30 0 171 5 217 126zM609 300h419c-21 146 -180 152 -207 152c-95 0 -191 -45 -212 -152zM540 245h-254
c-44 0 -102 -1 -140 -30c-30 -23 -31 -51 -31 -66s2 -52 39 -76c47 -31 127 -31 144 -31c76 0 180 23 220 96c19 34 21 70 22 107z" />
    <glyph glyph-name="dotlessi" unicode="&#x131;" horiz-adv-x="208" 
d="M137 0h-66v494h66v-494z" />
    <glyph glyph-name="lslash" unicode="&#x142;" horiz-adv-x="208" 
d="M208 435l-70 -54v-381h-66v330l-72 -55v64l72 55v312h66v-261l70 54v-64z" />
    <glyph glyph-name="oslash" unicode="&#xf8;" 
d="M619 514l35 -39l-65 -55c25 -29 70 -84 70 -173c0 -94 -51 -154 -75 -177c-34 -32 -112 -83 -233 -83c-40 0 -120 4 -208 62l-76 -64l-35 40l71 60c-22 30 -62 83 -62 163c0 24 3 69 31 121c55 102 169 142 279 142c84 0 152 -23 197 -56zM543 382l-352 -294
c27 -19 85 -44 160 -44c24 0 107 4 169 56c47 39 71 95 71 154c0 70 -31 107 -48 128zM152 125l349 291c-32 23 -83 39 -147 39c-123 0 -245 -74 -245 -208c0 -20 3 -75 43 -122z" />
    <glyph glyph-name="oe" unicode="&#x153;" horiz-adv-x="1188" 
d="M1093 173l53 -38c-38 -62 -135 -147 -282 -147c-49 0 -201 19 -263 140c-40 -66 -124 -139 -266 -139c-38 0 -180 6 -256 123c-36 55 -39 113 -39 136c0 34 7 119 77 183c36 33 106 80 224 80c30 0 146 -4 219 -85c16 -17 24 -29 36 -48c50 92 150 132 252 132
c172 0 245 -103 269 -153c18 -37 23 -74 29 -116h-511c11 -132 119 -195 236 -195c105 0 187 57 222 127zM636 296h430c-4 23 -41 159 -222 159c-36 0 -174 -6 -208 -159zM559 248c0 127 -101 207 -221 207c-121 0 -223 -79 -223 -207c0 -21 5 -96 59 -146
c25 -23 78 -57 163 -57c16 0 51 1 91 16s131 64 131 187z" />
    <glyph glyph-name="germandbls" unicode="&#xdf;" 
d="M135 0h-63v503c0 55 4 96 42 140c34 39 92 81 235 81c20 0 97 -1 161 -28c24 -10 108 -48 108 -141c0 -82 -63 -121 -108 -131c139 -29 154 -154 154 -206c0 -19 -3 -87 -38 -141c-26 -40 -79 -88 -189 -88c-34 0 -187 3 -187 175h64c1 -21 4 -66 39 -94
c23 -18 60 -25 88 -25c102 0 154 71 154 168c0 59 -13 112 -65 145c-46 29 -84 31 -168 31h-64v54c86 0 138 1 176 14c41 14 76 47 76 95c0 108 -175 113 -202 113c-14 0 -100 -1 -153 -33c-19 -12 -60 -38 -60 -133v-499z" />
    <glyph glyph-name="Euro" unicode="&#x20ac;" horiz-adv-x="840" 
d="M797 606l-37 -69c-54 80 -145 124 -258 124c-172 0 -285 -82 -312 -225h521l-26 -53h-504c-1 -15 -1 -28 -1 -35v-24h475l-26 -53h-442c34 -145 148 -227 316 -227c109 0 213 42 272 109v-87c-79 -58 -163 -84 -279 -84c-207 0 -350 104 -384 289h-82l29 53h46v24
c0 5 1 19 1 35h-76l28 53h54c36 178 183 287 388 287c128 0 227 -39 297 -117z" />
    <glyph glyph-name="Ydieresis" unicode="&#x178;" horiz-adv-x="729" 
d="M565 798h-73v96h73v-96zM242 798h-73v96h73v-96zM723 706l-320 -420v-286h-64v286l-333 420h84l281 -363l272 363h80z" />
    <glyph glyph-name="trademark" unicode="&#x2122;" horiz-adv-x="687" 
d="M615 374h-44c0 30 2 285 2 285l-89 -285h-42l-89 284s4 -255 4 -284h-48v332h67l86 -272l85 272h68v-332zM281 665h-106v-291h-48v291h-108v41h262v-41z" />
    <glyph glyph-name="zcaron" unicode="&#x17e;" horiz-adv-x="562" 
d="M546 0h-535v54l440 386h-408v54h503v-46l-443 -393h443v-55zM431 681l-107 -132h-61l-103 132h53l81 -85l83 85h54z" />
    <glyph glyph-name="Zcaron" unicode="&#x17d;" horiz-adv-x="750" 
d="M549 900l-115 -126h-81l-107 126h65l85 -76l88 76h65zM750 644l-653 -585h635v-59h-732v57l659 591h-604v58h695v-62z" />
    <glyph glyph-name="scaron" unicode="&#x161;" horiz-adv-x="625" 
d="M577 392l-73 -15c-3 5 -9 18 -21 29c-40 35 -132 44 -182 44c-57 0 -181 -10 -181 -91c0 -26 20 -50 46 -57c18 -5 50 -7 96 -10c124 -7 205 -7 256 -33c20 -10 70 -42 70 -111c0 -42 -26 -160 -260 -160c-184 0 -272 55 -298 134l72 16c12 -31 41 -53 71 -66
c25 -10 81 -24 153 -24c104 0 195 31 195 99c0 51 -64 66 -136 71c-123 8 -201 4 -253 23c-22 8 -80 37 -80 112c0 118 117 155 253 155c98 0 229 -15 272 -116zM452 681l-107 -132h-61l-103 132h53l81 -85l83 85h54z" />
    <glyph glyph-name="Scaron" unicode="&#x160;" horiz-adv-x="812" 
d="M560 900l-115 -126h-81l-107 126h65l85 -76l88 76h65zM32 177l74 28c16 -42 58 -161 308 -161c141 0 277 54 277 162c0 98 -109 112 -237 129l-154 21c-42 6 -92 14 -129 33c-24 12 -84 49 -84 131c0 114 112 205 325 205c50 0 224 -5 331 -139l-64 -34
c-62 87 -171 112 -272 112c-118 0 -248 -40 -248 -141c0 -50 41 -69 55 -76c30 -14 64 -19 131 -28c154 -22 252 -32 314 -59c63 -27 105 -80 105 -150c0 -20 -5 -65 -33 -105c-53 -75 -148 -123 -334 -123c-44 0 -214 8 -305 105c-27 28 -42 56 -60 90z" />
    <glyph glyph-name="ydieresis" unicode="&#xff;" horiz-adv-x="562" 
d="M489 494h71l-233 -532c-27 -62 -42 -96 -75 -122c-37 -29 -96 -34 -139 -34c-50 0 -80 7 -102 12v62c23 -8 52 -18 100 -18c108 0 132 55 154 111l-265 521h79l221 -448zM450 564h-70v96h70v-96zM185 564h-70v96h70v-96z" />
    <glyph glyph-name="thorn" unicode="&#xfe;" 
d="M74 706h64v-290c63 77 171 92 239 92c225 0 283 -170 283 -260c0 -177 -159 -260 -298 -260c-74 0 -156 14 -224 88v-263h-64v893zM586 249c0 74 -47 200 -221 200c-219 0 -226 -164 -226 -198c0 -50 9 -84 21 -107c42 -76 146 -95 198 -95c116 0 228 64 228 200z" />
    <glyph glyph-name="yacute" unicode="&#xfd;" horiz-adv-x="562" 
d="M489 494h71l-233 -532c-27 -62 -42 -96 -75 -122c-37 -29 -96 -34 -139 -34c-50 0 -80 7 -102 12v62c23 -8 52 -18 100 -18c108 0 132 55 154 111l-265 521h79l221 -448zM431 700l-144 -145h-43l78 145h109z" />
    <glyph glyph-name="udieresis" unicode="&#xfc;" 
d="M521 563h-69v96h69v-96zM256 563h-69v96h69v-96zM637 0h-65v71c-16 -15 -85 -84 -244 -84c-89 0 -198 20 -238 113c-13 29 -19 56 -19 118v276h66v-270c0 -81 10 -176 192 -176c69 0 182 19 225 82c16 24 18 43 18 70v294h65v-494z" />
    <glyph glyph-name="ucircumflex" unicode="&#xfb;" 
d="M488 549h-51l-82 85l-83 -85h-54l108 132h59zM637 0h-65v71c-16 -15 -85 -84 -244 -84c-89 0 -198 20 -238 113c-13 29 -19 56 -19 118v276h66v-270c0 -81 10 -176 192 -176c69 0 182 19 225 82c16 24 18 43 18 70v294h65v-494z" />
    <glyph glyph-name="uacute" unicode="&#xfa;" 
d="M504 700l-144 -145h-43l78 145h109zM637 0h-65v71c-16 -15 -85 -84 -244 -84c-89 0 -198 20 -238 113c-13 29 -19 56 -19 118v276h66v-270c0 -81 10 -176 192 -176c69 0 182 19 225 82c16 24 18 43 18 70v294h65v-494z" />
    <glyph glyph-name="ugrave" unicode="&#xf9;" 
d="M391 554h-43l-142 145h110zM637 0h-65v71c-16 -15 -85 -84 -244 -84c-89 0 -198 20 -238 113c-13 29 -19 56 -19 118v276h66v-270c0 -81 10 -176 192 -176c69 0 182 19 225 82c16 24 18 43 18 70v294h65v-494z" />
    <glyph glyph-name="divide" unicode="&#xf7;" horiz-adv-x="772" 
d="M427 395h-83v82h83v-82zM706 263h-640v60h640v-60zM428 106h-83v82h83v-82z" />
    <glyph glyph-name="odieresis" unicode="&#xf6;" 
d="M43 247c0 139 99 205 145 228c28 14 91 35 172 35c30 0 133 -2 212 -67c82 -67 92 -163 92 -200c0 -25 -3 -79 -41 -134c-35 -50 -118 -123 -271 -123c-14 0 -42 0 -78 7c-33 6 -128 26 -188 113c-39 57 -43 115 -43 141zM590 247c0 135 -110 209 -235 209
c-24 0 -92 -3 -151 -42c-30 -20 -86 -71 -86 -168c0 -19 4 -77 40 -124c45 -58 124 -80 193 -80c30 0 128 1 193 75c43 50 46 107 46 130zM521 564h-70v96h70v-96zM256 564h-70v96h70v-96z" />
    <glyph glyph-name="otilde" unicode="&#xf5;" 
d="M664 243c0 -25 -3 -79 -41 -134c-35 -50 -118 -123 -271 -123c-172 0 -309 98 -309 261c0 162 133 263 317 263c30 0 133 -2 212 -67c82 -67 92 -163 92 -200zM590 247c0 192 -192 209 -235 209c-24 0 -92 -3 -151 -42c-30 -20 -86 -71 -86 -168c0 -19 4 -77 40 -124
c45 -58 124 -80 193 -80c30 0 128 1 193 75c43 50 46 107 46 130zM509 670l30 -15c-20 -45 -43 -88 -101 -88c-54 0 -127 50 -178 50c-27 0 -43 -23 -61 -50l-29 18c21 43 51 85 106 85c65 0 126 -49 174 -49c28 0 45 23 59 49z" />
    <glyph glyph-name="ocircumflex" unicode="&#xf4;" 
d="M43 247c0 139 99 205 145 228c28 14 91 35 172 35c30 0 133 -2 212 -67c82 -67 92 -163 92 -200c0 -25 -3 -79 -41 -134c-35 -50 -118 -123 -271 -123c-14 0 -42 0 -78 7c-33 6 -128 26 -188 113c-39 57 -43 115 -43 141zM590 247c0 135 -110 209 -235 209
c-24 0 -92 -3 -151 -42c-30 -20 -86 -71 -86 -168c0 -19 4 -77 40 -124c45 -58 124 -80 193 -80c30 0 128 1 193 75c43 50 46 107 46 130zM489 549h-51l-82 85l-83 -85h-55l108 132h59z" />
    <glyph glyph-name="oacute" unicode="&#xf3;" 
d="M43 247c0 139 99 205 145 228c28 14 91 35 172 35c30 0 133 -2 212 -67c82 -67 92 -163 92 -200c0 -25 -3 -79 -41 -134c-35 -50 -118 -123 -271 -123c-14 0 -42 0 -78 7c-33 6 -128 26 -188 113c-39 57 -43 115 -43 141zM590 247c0 135 -110 209 -235 209
c-24 0 -92 -3 -151 -42c-30 -20 -86 -71 -86 -168c0 -19 4 -77 40 -124c45 -58 124 -80 193 -80c30 0 128 1 193 75c43 50 46 107 46 130zM504 700l-144 -145h-43l78 145h109z" />
    <glyph glyph-name="ograve" unicode="&#xf2;" 
d="M43 247c0 139 99 205 145 228c28 14 91 35 172 35c30 0 133 -2 212 -67c82 -67 92 -163 92 -200c0 -25 -3 -79 -41 -134c-35 -50 -118 -123 -271 -123c-14 0 -42 0 -78 7c-33 6 -128 26 -188 113c-39 57 -43 115 -43 141zM590 247c0 135 -110 209 -235 209
c-24 0 -92 -3 -151 -42c-30 -20 -86 -71 -86 -168c0 -19 4 -77 40 -124c45 -58 124 -80 193 -80c30 0 128 1 193 75c43 50 46 107 46 130zM391 554h-43l-142 145h110z" />
    <glyph glyph-name="ntilde" unicode="&#xf1;" 
d="M638 0h-66v287c0 75 -34 158 -212 158c-150 0 -223 -75 -223 -149v-296h-66v494h67v-69c14 17 75 83 231 83c17 0 56 -1 100 -11c25 -6 112 -26 149 -106c18 -39 20 -77 20 -118v-273zM500 670l29 -14c-18 -45 -41 -89 -95 -89c-50 0 -118 50 -166 50
c-25 0 -42 -22 -57 -50l-28 15c20 43 49 88 100 88c61 0 118 -49 162 -49c26 0 42 23 55 49z" />
    <glyph glyph-name="eth" unicode="&#xf0;" 
d="M601 686l25 -47l-115 -25c12 -9 36 -36 46 -47c107 -121 113 -251 113 -290c0 -71 -21 -155 -96 -219c-67 -57 -154 -71 -224 -71c-44 0 -108 9 -152 27c-71 30 -154 103 -154 236c0 181 169 260 307 260c104 0 165 -35 209 -79c-18 40 -41 95 -131 165l-223 -47l-24 46
l197 44c-48 35 -61 41 -88 56l84 24c31 -19 59 -42 88 -63zM590 248c0 143 -118 208 -236 208c-161 0 -236 -103 -236 -209c0 -89 52 -205 234 -205c115 0 238 58 238 206z" />
    <glyph glyph-name="idieresis" unicode="&#xef;" horiz-adv-x="208" 
d="M137 0h-66v494h66v-494zM273 564h-70v96h70v-96zM8 564h-70v96h70v-96z" />
    <glyph glyph-name="icircumflex" unicode="&#xee;" horiz-adv-x="208" 
d="M137 0h-66v494h66v-494zM239 549h-51l-82 85l-83 -85h-55l108 132h59z" />
    <glyph glyph-name="iacute" unicode="&#xed;" horiz-adv-x="208" 
d="M137 0h-66v494h66v-494zM254 700l-144 -145h-43l78 145h109z" />
    <glyph glyph-name="igrave" unicode="&#xec;" horiz-adv-x="208" 
d="M137 0h-66v494h66v-494zM141 554h-43l-142 145h110z" />
    <glyph glyph-name="edieresis" unicode="&#xeb;" horiz-adv-x="667" 
d="M575 172l52 -37c-14 -20 -45 -63 -99 -98c-29 -18 -93 -50 -184 -50c-30 0 -108 4 -180 52c-73 48 -117 129 -117 219c0 68 27 137 79 182c29 26 99 70 203 70c37 0 143 -6 222 -87c42 -42 72 -100 76 -183h-511c9 -128 115 -195 235 -195c48 0 154 10 224 127zM118 296
h429c-11 53 -39 92 -84 121c-25 16 -67 37 -139 37c-56 0 -105 -13 -146 -52c-47 -45 -55 -81 -60 -106zM502 564h-70v96h70v-96zM237 564h-70v96h70v-96z" />
    <glyph glyph-name="ecircumflex" unicode="&#xea;" horiz-adv-x="667" 
d="M575 172l52 -37c-14 -20 -45 -63 -99 -98c-29 -18 -93 -50 -184 -50c-30 0 -108 4 -180 52c-73 48 -117 129 -117 219c0 68 27 137 79 182c29 26 99 70 203 70c37 0 143 -6 222 -87c42 -42 72 -100 76 -183h-511c9 -128 115 -195 235 -195c48 0 154 10 224 127zM118 296
h429c-11 53 -39 92 -84 121c-25 16 -67 37 -139 37c-56 0 -105 -13 -146 -52c-47 -45 -55 -81 -60 -106zM468 549h-51l-82 85l-83 -85h-55l108 132h59z" />
    <glyph glyph-name="eacute" unicode="&#xe9;" horiz-adv-x="667" 
d="M575 172l52 -37c-14 -20 -45 -63 -99 -98c-29 -18 -93 -50 -184 -50c-30 0 -108 4 -180 52c-73 48 -117 129 -117 219c0 68 27 137 79 182c29 26 99 70 203 70c37 0 143 -6 222 -87c42 -42 72 -100 76 -183h-511c9 -128 115 -195 235 -195c48 0 154 10 224 127zM118 296
h429c-11 53 -39 92 -84 121c-25 16 -67 37 -139 37c-56 0 -105 -13 -146 -52c-47 -45 -55 -81 -60 -106zM483 700l-144 -145h-43l78 145h109z" />
    <glyph glyph-name="egrave" unicode="&#xe8;" horiz-adv-x="667" 
d="M575 172l52 -37c-14 -20 -45 -63 -99 -98c-29 -18 -93 -50 -184 -50c-30 0 -108 4 -180 52c-73 48 -117 129 -117 219c0 68 27 137 79 182c29 26 99 70 203 70c37 0 143 -6 222 -87c42 -42 72 -100 76 -183h-511c9 -128 115 -195 235 -195c48 0 154 10 224 127zM118 296
h429c-11 53 -39 92 -84 121c-25 16 -67 37 -139 37c-56 0 -105 -13 -146 -52c-47 -45 -55 -81 -60 -106zM370 554h-43l-142 145h110z" />
    <glyph glyph-name="ccedilla" unicode="&#xe7;" horiz-adv-x="667" 
d="M581 193l67 -25c-43 -71 -99 -153 -245 -175c-17 -2 -28 -3 -45 -4v-49c37 -1 97 -11 97 -70c0 -48 -46 -75 -119 -75c-26 0 -52 3 -78 6v33c20 -2 40 -4 61 -4c29 0 72 5 72 35c0 38 -52 38 -70 38h-7v86c-13 1 -54 4 -94 17c-75 25 -180 93 -180 244
c0 185 167 264 309 264c26 0 163 -1 256 -111c18 -21 28 -38 33 -47l-66 -28c-42 68 -103 129 -225 129c-181 0 -233 -129 -233 -208c0 -140 121 -202 230 -202c94 0 197 42 237 146z" />
    <glyph glyph-name="aring" unicode="&#xe5;" horiz-adv-x="667" 
d="M666 0c-17 -2 -39 -4 -66 -4c-71 0 -73 64 -76 76c-16 -12 -36 -26 -54 -36c-35 -19 -105 -49 -208 -49c-69 0 -141 8 -188 65c-31 38 -33 79 -33 96c0 48 23 95 62 122c71 49 221 52 421 54c0 26 -1 52 -17 75c-24 34 -95 49 -187 49c-154 0 -181 -36 -203 -102l-70 4
c7 26 22 87 90 123c63 34 155 35 177 35c121 0 201 -23 238 -64c29 -33 33 -69 33 -109v-217c0 -57 21 -67 64 -67h17v-51zM524 268h-31c-277 0 -381 -27 -381 -122c0 -78 90 -100 158 -100c55 0 191 21 236 98c16 28 18 65 18 98v26zM445 631c0 -66 -76 -87 -117 -87
c-44 0 -112 22 -112 86c0 62 63 86 114 86c79 0 115 -40 115 -85zM391 630c0 23 -19 45 -61 45c-40 0 -63 -22 -63 -45s22 -41 62 -41c39 0 62 18 62 41z" />
    <glyph glyph-name="adieresis" unicode="&#xe4;" horiz-adv-x="667" 
d="M666 0c-17 -2 -39 -4 -66 -4c-71 0 -73 64 -76 76c-16 -12 -36 -26 -54 -36c-35 -19 -105 -49 -208 -49c-69 0 -141 8 -188 65c-31 38 -33 79 -33 96c0 48 23 95 62 122c71 49 221 52 421 54c0 26 -1 52 -17 75c-24 34 -95 49 -187 49c-154 0 -181 -36 -203 -102l-70 4
c7 26 22 87 90 123c63 34 155 35 177 35c121 0 201 -23 238 -64c29 -33 33 -69 33 -109v-217c0 -57 21 -67 64 -67h17v-51zM524 268h-31c-277 0 -381 -27 -381 -122c0 -78 90 -100 158 -100c55 0 191 21 236 98c16 28 18 65 18 98v26zM497 564h-70v96h70v-96zM232 564h-70
v96h70v-96z" />
    <glyph glyph-name="atilde" unicode="&#xe3;" horiz-adv-x="667" 
d="M666 0c-17 -2 -39 -4 -66 -4c-71 0 -73 64 -76 76c-16 -12 -36 -26 -54 -36c-35 -19 -105 -49 -208 -49c-69 0 -141 8 -188 65c-31 38 -33 79 -33 96c0 48 23 95 62 122c71 49 221 52 421 54c0 26 -1 52 -17 75c-24 34 -95 49 -187 49c-154 0 -181 -36 -203 -102l-70 4
c7 26 22 87 90 123c63 34 155 35 177 35c121 0 201 -23 238 -64c29 -33 33 -69 33 -109v-217c0 -57 21 -67 64 -67h17v-51zM524 268h-31c-277 0 -381 -27 -381 -122c0 -78 90 -100 158 -100c55 0 191 21 236 98c16 28 18 65 18 98v26zM479 670l29 -14
c-18 -45 -41 -89 -95 -89c-50 0 -118 50 -166 50c-25 0 -42 -22 -57 -50l-28 15c20 43 49 88 100 88c61 0 118 -49 162 -49c26 0 42 23 55 49z" />
    <glyph glyph-name="acircumflex" unicode="&#xe2;" horiz-adv-x="667" 
d="M666 0c-17 -2 -39 -4 -66 -4c-71 0 -73 64 -76 76c-16 -12 -36 -26 -54 -36c-35 -19 -105 -49 -208 -49c-69 0 -141 8 -188 65c-31 38 -33 79 -33 96c0 48 23 95 62 122c71 49 221 52 421 54c0 26 -1 52 -17 75c-24 34 -95 49 -187 49c-154 0 -181 -36 -203 -102l-70 4
c7 26 22 87 90 123c63 34 155 35 177 35c121 0 201 -23 238 -64c29 -33 33 -69 33 -109v-217c0 -57 21 -67 64 -67h17v-51zM524 268h-31c-277 0 -381 -27 -381 -122c0 -78 90 -100 158 -100c55 0 191 21 236 98c16 28 18 65 18 98v26zM467 549h-51l-82 85l-83 -85h-55
l108 132h59z" />
    <glyph glyph-name="aacute" unicode="&#xe1;" horiz-adv-x="667" 
d="M666 0c-17 -2 -39 -4 -66 -4c-71 0 -73 64 -76 76c-16 -12 -36 -26 -54 -36c-35 -19 -105 -49 -208 -49c-69 0 -141 8 -188 65c-31 38 -33 79 -33 96c0 48 23 95 62 122c71 49 221 52 421 54c0 26 -1 52 -17 75c-24 34 -95 49 -187 49c-154 0 -181 -36 -203 -102l-70 4
c7 26 22 87 90 123c63 34 155 35 177 35c121 0 201 -23 238 -64c29 -33 33 -69 33 -109v-217c0 -57 21 -67 64 -67h17v-51zM524 268h-31c-277 0 -381 -27 -381 -122c0 -78 90 -100 158 -100c55 0 191 21 236 98c16 28 18 65 18 98v26zM468 700l-144 -145h-43l78 145h109z
" />
    <glyph glyph-name="agrave" unicode="&#xe0;" horiz-adv-x="667" 
d="M666 0c-17 -2 -39 -4 -66 -4c-71 0 -73 64 -76 76c-16 -12 -36 -26 -54 -36c-35 -19 -105 -49 -208 -49c-69 0 -141 8 -188 65c-31 38 -33 79 -33 96c0 48 23 95 62 122c71 49 221 52 421 54c0 26 -1 52 -17 75c-24 34 -95 49 -187 49c-154 0 -181 -36 -203 -102l-70 4
c7 26 22 87 90 123c63 34 155 35 177 35c121 0 201 -23 238 -64c29 -33 33 -69 33 -109v-217c0 -57 21 -67 64 -67h17v-51zM524 268h-31c-277 0 -381 -27 -381 -122c0 -78 90 -100 158 -100c55 0 191 21 236 98c16 28 18 65 18 98v26zM376 554h-43l-142 145h110z" />
    <glyph glyph-name="Thorn" unicode="&#xde;" horiz-adv-x="812" 
d="M82 0v706h70v-147h399c64 0 154 -1 210 -82c24 -34 33 -75 33 -109c0 -14 0 -64 -33 -112c-59 -85 -159 -87 -226 -87h-383v-169h-70zM152 227h365c52 0 133 0 179 57c25 32 25 74 25 82c0 31 -10 59 -17 70c-29 51 -68 64 -146 64h-406v-273z" />
    <glyph glyph-name="Yacute" unicode="&#xdd;" horiz-adv-x="729" 
d="M522 900l-150 -126h-45l84 126h111zM723 706l-320 -420v-286h-64v286l-333 420h84l281 -363l272 363h80z" />
    <glyph glyph-name="Udieresis" unicode="&#xdc;" horiz-adv-x="875" 
d="M636 798h-73v96h73v-96zM313 798h-73v96h73v-96zM79 706h65v-405c0 -58 2 -116 38 -166c45 -62 133 -89 239 -89c159 0 237 31 279 104c24 42 30 88 30 183v373h64v-426c0 -29 0 -104 -42 -171c-41 -67 -103 -98 -177 -114c-60 -13 -107 -13 -131 -13
c-22 0 -101 0 -174 21c-39 11 -133 42 -173 152c-17 46 -18 94 -18 143v408z" />
    <glyph glyph-name="Ucircumflex" unicode="&#xdb;" horiz-adv-x="875" 
d="M588 774h-64l-85 77l-89 -77h-63l114 126h79zM79 706h65v-405c0 -58 2 -116 38 -166c45 -62 133 -89 239 -89c159 0 237 31 279 104c24 42 30 88 30 183v373h64v-426c0 -29 0 -104 -42 -171c-41 -67 -103 -98 -177 -114c-60 -13 -107 -13 -131 -13c-22 0 -101 0 -174 21
c-39 11 -133 42 -173 152c-17 46 -18 94 -18 143v408z" />
    <glyph glyph-name="Uacute" unicode="&#xda;" horiz-adv-x="875" 
d="M595 900l-150 -126h-45l84 126h111zM79 706h65v-405c0 -58 2 -116 38 -166c45 -62 133 -89 239 -89c159 0 237 31 279 104c24 42 30 88 30 183v373h64v-426c0 -29 0 -104 -42 -171c-41 -67 -103 -98 -177 -114c-60 -13 -107 -13 -131 -13c-22 0 -101 0 -174 21
c-39 11 -133 42 -173 152c-17 46 -18 94 -18 143v408z" />
    <glyph glyph-name="Ugrave" unicode="&#xd9;" horiz-adv-x="875" 
d="M475 774h-48l-149 126h111zM79 706h65v-405c0 -58 2 -116 38 -166c45 -62 133 -89 239 -89c159 0 237 31 279 104c24 42 30 88 30 183v373h64v-426c0 -29 0 -104 -42 -171c-41 -67 -103 -98 -177 -114c-60 -13 -107 -13 -131 -13c-22 0 -101 0 -174 21
c-39 11 -133 42 -173 152c-17 46 -18 94 -18 143v408z" />
    <glyph glyph-name="multiply" unicode="&#xd7;" horiz-adv-x="772" 
d="M621 471l-191 -177l188 -177l-46 -42l-188 177l-190 -174l-43 41l190 175l-186 176l46 42l186 -176l191 176z" />
    <glyph glyph-name="Odieresis" unicode="&#xd6;" horiz-adv-x="917" 
d="M657 798h-73v96h73v-96zM334 798h-73v96h73v-96zM42 354c0 247 206 374 416 374c60 0 254 -8 361 -177c51 -81 57 -161 57 -196c0 -40 -8 -141 -81 -229c-114 -137 -284 -145 -339 -145c-57 0 -267 10 -368 191c-43 77 -46 149 -46 182zM799 369c0 158 -122 298 -342 298
c-52 0 -142 -8 -219 -65c-41 -30 -122 -110 -122 -251c0 -19 2 -69 23 -121c71 -179 271 -189 321 -189c246 0 339 168 339 328z" />
    <glyph glyph-name="Otilde" unicode="&#xd5;" horiz-adv-x="917" 
d="M609 889l30 -13c-19 -45 -43 -90 -99 -90c-53 0 -124 50 -174 50c-27 0 -42 -23 -59 -50l-29 17c21 43 50 86 104 86c64 0 123 -49 170 -49c27 0 43 23 57 49zM42 354c0 247 206 374 416 374c60 0 254 -8 361 -177c51 -81 57 -161 57 -196c0 -40 -8 -141 -81 -229
c-114 -137 -284 -145 -339 -145c-57 0 -267 10 -368 191c-43 77 -46 149 -46 182zM799 369c0 158 -122 298 -342 298c-52 0 -142 -8 -219 -65c-41 -30 -122 -110 -122 -251c0 -19 2 -69 23 -121c71 -179 271 -189 321 -189c246 0 339 168 339 328z" />
    <glyph glyph-name="Ocircumflex" unicode="&#xd4;" horiz-adv-x="917" 
d="M609 774h-64l-85 77l-89 -77h-63l114 126h79zM42 354c0 247 206 374 416 374c60 0 254 -8 361 -177c51 -81 57 -161 57 -196c0 -40 -8 -141 -81 -229c-114 -137 -284 -145 -339 -145c-57 0 -267 10 -368 191c-43 77 -46 149 -46 182zM799 369c0 158 -122 298 -342 298
c-52 0 -142 -8 -219 -65c-41 -30 -122 -110 -122 -251c0 -19 2 -69 23 -121c71 -179 271 -189 321 -189c246 0 339 168 339 328z" />
    <glyph glyph-name="Oacute" unicode="&#xd3;" horiz-adv-x="917" 
d="M616 900l-150 -126h-45l84 126h111zM42 354c0 247 206 374 416 374c60 0 254 -8 361 -177c51 -81 57 -161 57 -196c0 -40 -8 -141 -81 -229c-114 -137 -284 -145 -339 -145c-57 0 -267 10 -368 191c-43 77 -46 149 -46 182zM799 369c0 158 -122 298 -342 298
c-52 0 -142 -8 -219 -65c-41 -30 -122 -110 -122 -251c0 -19 2 -69 23 -121c71 -179 271 -189 321 -189c246 0 339 168 339 328z" />
    <glyph glyph-name="Ograve" unicode="&#xd2;" horiz-adv-x="917" 
d="M496 774h-48l-149 126h111zM42 354c0 247 206 374 416 374c60 0 254 -8 361 -177c51 -81 57 -161 57 -196c0 -40 -8 -141 -81 -229c-114 -137 -284 -145 -339 -145c-57 0 -267 10 -368 191c-43 77 -46 149 -46 182zM799 369c0 158 -122 298 -342 298
c-52 0 -142 -8 -219 -65c-41 -30 -122 -110 -122 -251c0 -19 2 -69 23 -121c71 -179 271 -189 321 -189c246 0 339 168 339 328z" />
    <glyph glyph-name="Ntilde" unicode="&#xd1;" horiz-adv-x="896" 
d="M599 889l30 -13c-19 -45 -43 -90 -99 -90c-53 0 -124 50 -174 50c-27 0 -42 -23 -59 -50l-29 17c21 43 50 86 104 86c64 0 123 -49 170 -49c27 0 43 23 57 49zM814 0h-63l-605 616v-616h-63v706h63l605 -619v619h63v-706z" />
    <glyph glyph-name="Eth" unicode="&#xd0;" horiz-adv-x="854" 
d="M83 0v356h-83v52h83v298h361c25 0 87 0 141 -18c168 -56 220 -216 220 -337c0 -97 -30 -166 -56 -206c-90 -140 -235 -145 -346 -145h-320zM153 59h225c66 0 142 0 208 28c123 53 148 173 148 262c0 30 -3 224 -178 282c-42 14 -79 17 -120 17h-283v-241h348v-51h-348
v-297z" />
    <glyph glyph-name="Idieresis" unicode="&#xcf;" horiz-adv-x="229" 
d="M315 798h-73v96h73v-96zM-8 798h-73v96h73v-96zM149 0h-67v706h67v-706z" />
    <glyph glyph-name="Icircumflex" unicode="&#xce;" horiz-adv-x="229" 
d="M265 774h-64l-85 77l-89 -77h-63l114 126h79zM149 0h-67v706h67v-706z" />
    <glyph glyph-name="Iacute" unicode="&#xcd;" horiz-adv-x="229" 
d="M272 900l-150 -126h-45l84 126h111zM149 0h-67v706h67v-706z" />
    <glyph glyph-name="Igrave" unicode="&#xcc;" horiz-adv-x="229" 
d="M152 774h-48l-149 126h111zM149 0h-67v706h67v-706z" />
    <glyph glyph-name="Edieresis" unicode="&#xcb;" horiz-adv-x="833" 
d="M617 798h-73v96h73v-96zM294 798h-73v96h73v-96zM788 0h-705v706h676v-58h-607v-248h561v-60h-561v-281h636v-59z" />
    <glyph glyph-name="Ecircumflex" unicode="&#xca;" horiz-adv-x="833" 
d="M567 774h-64l-85 77l-89 -77h-63l114 126h79zM788 0h-705v706h676v-58h-607v-248h561v-60h-561v-281h636v-59z" />
    <glyph glyph-name="Eacute" unicode="&#xc9;" horiz-adv-x="833" 
d="M574 900l-150 -126h-45l84 126h111zM788 0h-705v706h676v-58h-607v-248h561v-60h-561v-281h636v-59z" />
    <glyph glyph-name="Egrave" unicode="&#xc8;" horiz-adv-x="833" 
d="M463 774h-48l-149 126h111zM788 0h-705v706h676v-58h-607v-248h561v-60h-561v-281h636v-59z" />
    <glyph glyph-name="Ccedilla" unicode="&#xc7;" horiz-adv-x="827" 
d="M746 219l61 -28c-94 -164 -239 -209 -367 -209h-9v-42c65 -3 96 -28 96 -72c0 -46 -47 -73 -118 -73c-26 0 -50 3 -79 6v33c22 -2 41 -4 61 -4c15 0 73 0 73 35c0 37 -51 38 -70 38h-8v81c-20 2 -85 8 -151 43c-145 77 -194 217 -194 329c0 222 183 372 397 372
c23 0 171 0 283 -106c35 -33 62 -79 68 -88l-60 -34c-6 10 -21 38 -46 66c-66 76 -165 99 -241 99c-183 0 -326 -124 -326 -312c0 -149 106 -309 323 -309c118 0 239 50 307 175z" />
    <glyph glyph-name="Aring" unicode="&#xc5;" horiz-adv-x="792" 
d="M504 831c0 -64 -62 -89 -112 -89c-95 0 -115 56 -115 85c0 68 76 86 120 86c77 0 107 -45 107 -82zM451 828c0 20 -16 44 -59 44c-47 0 -63 -24 -63 -45s19 -41 61 -41c25 0 61 9 61 42zM786 0h-73l-91 183h-455l-90 -183h-71l348 706h76zM594 239l-202 404l-198 -404
h400z" />
    <glyph glyph-name="Adieresis" unicode="&#xc4;" horiz-adv-x="792" 
d="M590 798h-73v96h73v-96zM267 798h-73v96h73v-96zM786 0h-73l-91 183h-455l-90 -183h-71l348 706h76zM594 239l-202 404l-198 -404h400z" />
    <glyph glyph-name="Atilde" unicode="&#xc3;" horiz-adv-x="792" 
d="M546 889l30 -13c-19 -45 -43 -90 -99 -90c-53 0 -124 50 -174 50c-27 0 -42 -23 -59 -50l-29 17c21 43 50 86 104 86c64 0 123 -49 170 -49c27 0 43 23 57 49zM786 0h-73l-91 183h-455l-90 -183h-71l348 706h76zM594 239l-202 404l-198 -404h400z" />
    <glyph glyph-name="Acircumflex" unicode="&#xc2;" horiz-adv-x="792" 
d="M546 774h-64l-85 77l-89 -77h-63l114 126h79zM786 0h-73l-91 183h-455l-90 -183h-71l348 706h76zM594 239l-202 404l-198 -404h400z" />
    <glyph glyph-name="Aacute" unicode="&#xc1;" horiz-adv-x="792" 
d="M554 900l-150 -126h-45l84 126h111zM786 0h-73l-91 183h-455l-90 -183h-71l348 706h76zM594 239l-202 404l-198 -404h400z" />
    <glyph glyph-name="Agrave" unicode="&#xc0;" horiz-adv-x="792" 
d="M433 774h-48l-149 126h111zM786 0h-73l-91 183h-455l-90 -183h-71l348 706h76zM594 239l-202 404l-198 -404h400z" />
    <glyph glyph-name="mu" unicode="&#xb5;" horiz-adv-x="721" 
d="M572 494h65v-386c0 -37 21 -59 56 -59c7 0 15 0 25 1v-51c-32 -3 -44 -4 -58 -4c-55 0 -77 22 -83 82c-67 -62 -143 -90 -250 -90c-76 0 -148 16 -190 64v-238h-66v681h66v-290c0 -110 63 -156 191 -156c134 0 244 50 244 145v301z" />
    <glyph glyph-name="plusminus" unicode="&#xb1;" horiz-adv-x="772" 
d="M678 377h-262v-240h-60v240h-262v58h262v238h60v-238h262v-58zM678 0h-584v58h584v-58z" />
    <glyph glyph-name="degree" unicode="&#xb0;" horiz-adv-x="354" 
d="M324 601c0 -81 -66 -147 -147 -147s-147 66 -147 147s66 147 147 147s147 -67 147 -147zM263 601c0 48 -38 87 -86 87s-87 -39 -87 -87s39 -87 87 -87s86 39 86 87z" />
    <glyph glyph-name="registered" unicode="&#xae;" horiz-adv-x="833" 
d="M772 351c0 -196 -159 -354 -357 -354s-354 158 -354 358c0 198 156 354 356 354c169 0 355 -126 355 -358zM740 351c0 183 -142 326 -323 326s-325 -144 -325 -325c0 -179 144 -323 324 -323c178 0 324 144 324 322zM264 147v416h177c54 0 75 -5 97 -16
c30 -15 49 -52 49 -94c0 -72 -44 -118 -128 -122l127 -184h-69l-123 183h-73v-183h-57zM321 378h109c72 0 100 19 100 73c0 57 -41 64 -82 64h-127v-137z" />
    <glyph glyph-name="logicalnot" unicode="&#xac;" horiz-adv-x="772" 
d="M683 0h-62v264h-563v59h625v-323z" />
    <glyph glyph-name="copyright" unicode="&#xa9;" horiz-adv-x="833" 
d="M645 280c-45 -95 -116 -150 -224 -150c-132 0 -221 88 -221 219c0 130 94 223 225 223c94 0 173 -49 213 -133l-53 -27c-37 72 -87 105 -158 105c-98 0 -165 -69 -165 -170c0 -94 67 -162 161 -162c78 0 139 42 169 119zM772 351c0 -196 -159 -354 -357 -354
s-354 158 -354 358c0 198 156 354 356 354c169 0 355 -126 355 -358zM740 351c0 183 -142 326 -323 326s-325 -144 -325 -325c0 -179 144 -323 324 -323c178 0 324 144 324 322z" />
    <glyph glyph-name="brokenbar" unicode="&#xa6;" horiz-adv-x="230" 
d="M148 327h-66v403h66v-403zM148 -212h-66v403h66v-403z" />
    <glyph glyph-name="minus" unicode="&#x2212;" horiz-adv-x="772" 
d="M698 264h-624v59h624v-59z" />
    <glyph glyph-name="threesuperior" unicode="&#xb3;" horiz-adv-x="479" 
d="M194 462v40h71c31 0 102 8 102 72c0 66 -82 78 -120 78c-34 0 -93 -6 -120 -45c-14 -20 -19 -38 -23 -53l-44 15c26 97 106 123 187 123c103 0 168 -46 168 -119c0 -20 -8 -61 -66 -85c73 -18 85 -77 85 -99c0 -76 -65 -139 -192 -139c-109 0 -173 55 -196 118l49 16
c3 -8 8 -21 19 -35c35 -46 90 -57 131 -57c91 0 139 42 139 95c0 51 -47 75 -103 75h-87z" />
    <glyph glyph-name="twosuperior" unicode="&#xb2;" horiz-adv-x="479" 
d="M423 258h-370v46c60 27 195 87 253 136c40 33 63 71 63 109c0 48 -36 105 -129 105c-75 0 -142 -36 -142 -127l-47 7c5 30 9 55 25 82c39 64 110 80 161 80c128 0 181 -79 181 -147c-1 -113 -112 -171 -285 -250h290v-41z" />
    <glyph glyph-name="onesuperior" unicode="&#xb9;" horiz-adv-x="479" 
d="M290 258h-47v331c-25 -15 -47 -26 -96 -26h-17v41c88 0 110 28 127 85h33v-431z" />
    <glyph glyph-name="threequarters" unicode="&#xbe;" horiz-adv-x="1083" 
d="M1028 113h-93v-113h-46v113h-269v39l267 280h48v-277h93v-42zM794 688l-398 -688h-54l400 688h52zM889 155v222l-211 -222h211zM194 462v40h71c31 0 102 8 102 72c0 66 -82 78 -120 78c-34 0 -93 -6 -120 -45c-14 -20 -19 -38 -23 -53l-44 15c26 97 106 123 187 123
c103 0 168 -46 168 -119c0 -20 -8 -61 -66 -85c73 -18 85 -77 85 -99c0 -76 -65 -139 -192 -139c-109 0 -173 55 -196 118l49 16c3 -8 8 -21 19 -35c35 -46 90 -57 131 -57c91 0 139 42 139 95c0 51 -47 75 -103 75h-87z" />
    <glyph glyph-name="onehalf" unicode="&#xbd;" horiz-adv-x="1083" 
d="M1027 0h-370v46c60 27 195 87 253 136c40 33 63 71 63 109c0 48 -36 105 -129 105c-75 0 -142 -36 -142 -127l-47 7c5 30 9 55 25 82c39 64 110 80 161 80c128 0 181 -79 181 -147c-1 -113 -112 -171 -285 -250h290v-41zM730 688l-399 -688h-54l400 688h53zM290 258h-47
v331c-25 -15 -47 -26 -96 -26h-17v41c88 0 110 28 127 85h33v-431z" />
    <glyph glyph-name="onequarter" unicode="&#xbc;" horiz-adv-x="1083" 
d="M1028 113h-93v-113h-46v113h-269v39l267 280h48v-277h93v-42zM750 688l-399 -688h-53l400 688h52zM889 155v222l-211 -222h211zM290 258h-47v331c-25 -15 -47 -26 -96 -26h-17v41c88 0 110 28 127 85h33v-431z" />
    <glyph glyph-name="nbspace" unicode="&#xa0;" horiz-adv-x="313" 
 />
    <glyph glyph-name="uni00AD" unicode="&#xad;" horiz-adv-x="364" 
d="M326 264h-288v60h288v-60z" />
    </font>
</defs>
</svg>
