<?xml version="1.0" standalone="no"?>
<!DOCTYPE svg PUBLIC "-//W3C//DTD SVG 1.1//EN" "http://www.w3.org/Graphics/SVG/1.1/DTD/svg11.dtd" >
<svg>
<metadata>
Created by FontForge 20120731 at Wed Jul  3 14:21:21 2019
 By www-data
Berthold first published Akzidenz-Grotesk in 1896. The design originates from Royal Grotesk light by Ferdinand Theinhardt who also supplied the regular, medium and bold weights. Throughout the years, Berthold has expanded this extremely popular and versatile family. AG Super was developed in 1968 by Guenter Gerhard Lange and is an excellent choice for headlines. In 2001, Guenter Gerhard Lange added more weights for Berthold including Super Italic and Extra Bold italic.
</metadata>
<defs>
<font id="AkzidenzGroteskBE-BoldCnIt" horiz-adv-x="396" >
  <font-face 
    font-family="Akzidenz Grotesk BE BoldCn"
    font-weight="700"
    font-style="italic"
    font-stretch="condensed"
    units-per-em="1000"
    panose-1="2 0 5 6 8 0 0 9 0 4"
    ascent="750"
    descent="-250"
    x-height="508"
    cap-height="706"
    bbox="-144 -221 1010 919"
    underline-thickness="92"
    underline-position="-84"
    slope="-13"
    stemh="20"
    stemv="80"
    unicode-range="U+0020-FB02"
  />
<missing-glyph horiz-adv-x="500" 
d="M0 0v706h500v-706h-500zM250 401l170 255h-340zM280 353l170 -258v516zM80 50h340l-170 258zM50 611v-516l170 258z" />
    <glyph glyph-name="fi" unicode="fi" horiz-adv-x="449" 
d="M519 706l-28 -120h-120l28 120h120zM473 508l-117 -508h-120l117 508h120zM349 703l-22 -96c-10 2 -15 3 -22 3c-32 0 -41 -23 -49 -59l-10 -43h53l-18 -80h-54l-98 -428h-118l98 428h-53l19 80h53l22 93c20 85 71 109 136 109c22 0 42 -2 63 -7z" />
    <glyph glyph-name="fl" unicode="fl" horiz-adv-x="449" 
d="M519 706l-163 -706h-120l163 706h120zM349 703l-22 -96c-10 2 -15 3 -22 3c-32 0 -41 -23 -49 -59l-10 -43h53l-18 -80h-54l-98 -428h-118l98 428h-53l19 80h53l22 93c20 85 71 109 136 109c22 0 42 -2 63 -7z" />
    <glyph glyph-name=".notdef" horiz-adv-x="500" 
d="M0 0v706h500v-706h-500zM250 401l170 255h-340zM280 353l170 -258v516zM80 50h340l-170 258zM50 611v-516l170 258z" />
    <glyph glyph-name="space" unicode=" " horiz-adv-x="229" 
 />
    <glyph glyph-name="exclam" unicode="!" horiz-adv-x="229" 
d="M293 706l-72 -313l-66 -203h-78l30 197l73 319h113zM164 132l-31 -132h-119l31 132h119z" />
    <glyph glyph-name="quotedbl" unicode="&#x22;" horiz-adv-x="306" 
d="M407 740l-109 -288h-25l26 288h108zM245 740l-109 -288h-25l27 288h107z" />
    <glyph glyph-name="numbersign" unicode="#" horiz-adv-x="583" 
d="M618 494l-21 -85h-121l-32 -99h117l-21 -85h-122l-72 -225h-92l71 225h-82l-71 -225h-94l72 225h-118l21 85h124l33 99h-121l20 85h127l68 212h92l-67 -212h82l67 212h91l-66 -212h115zM383 409h-82l-31 -99h82z" />
    <glyph glyph-name="dollar" unicode="$" horiz-adv-x="417" 
d="M431 481h-112l16 66c4 15 4 23 4 31c0 24 -15 36 -44 36c-49 0 -73 -55 -73 -95c0 -17 6 -34 17 -49l97 -131c29 -39 43 -77 43 -122c0 -94 -49 -222 -174 -222h-17l-21 -94h-51l21 94c-74 8 -115 49 -115 115c0 16 4 40 10 68l13 57h111l-16 -66c-5 -19 -6 -29 -6 -37
c0 -26 20 -42 51 -42c22 0 39 8 51 22s28 69 28 94s-8 46 -28 72l-74 98c-48 64 -54 86 -54 130c0 68 42 197 180 197h13l18 81h51l-18 -81c68 -9 100 -44 100 -109c0 -16 -3 -36 -7 -53z" />
    <glyph glyph-name="percent" unicode="%" horiz-adv-x="708" 
d="M709 312l-46 -199c-21 -93 -61 -118 -131 -118c-74 0 -112 30 -112 85c0 15 2 29 7 52l47 202c15 63 37 115 130 115c70 0 112 -29 112 -79c0 -16 -2 -38 -7 -58zM626 693l-423 -738l-59 22l424 739zM342 534l-46 -199c-21 -93 -61 -118 -131 -118c-73 0 -112 30 -112 85
c0 15 3 31 8 52l47 205c16 71 48 112 129 112c70 0 112 -29 112 -79c0 -16 -2 -38 -7 -58zM581 108l51 223c3 11 4 20 4 27c0 19 -13 29 -36 29c-27 0 -37 -11 -46 -50l-50 -224c-2 -11 -4 -19 -4 -26c0 -19 12 -30 36 -30c26 0 36 12 45 51zM215 330l50 224c2 10 4 19 4 26
c0 19 -12 29 -36 29c-26 0 -36 -11 -45 -50l-51 -224c-2 -10 -4 -19 -4 -26c0 -19 13 -29 36 -29c27 0 37 11 46 50z" />
    <glyph glyph-name="ampersand" unicode="&#x26;" horiz-adv-x="521" 
d="M413 320h103c-20 -84 -57 -158 -109 -212c13 -17 29 -23 62 -23h7l-20 -85c-27 -5 -37 -6 -54 -6c-40 0 -54 4 -86 34c-48 -26 -96 -39 -144 -39c-98 0 -163 67 -163 169c0 95 59 156 162 234l17 13c-13 54 -17 84 -17 122c0 120 61 191 164 191c80 0 130 -44 130 -117
c0 -28 -9 -54 -28 -85c-25 -41 -37 -48 -121 -126c23 -93 39 -146 52 -183c19 32 27 45 45 113zM292 496c48 45 68 75 68 101c0 18 -12 30 -30 30c-27 0 -45 -29 -45 -77c0 -16 2 -28 7 -54zM277 117c-16 44 -43 132 -58 188c-65 -60 -88 -90 -88 -138c0 -46 27 -73 75 -73
c26 0 46 6 71 23z" />
    <glyph glyph-name="quoteright" unicode="&#x2019;" horiz-adv-x="193" 
d="M269 706l-30 -130l-111 -136h-50l100 136h-59l30 130h120z" />
    <glyph glyph-name="parenleft" unicode="(" horiz-adv-x="292" 
d="M403 775l-21 -93l-14 -6c-75 -32 -102 -67 -129 -181l-89 -385c-6 -26 -7 -45 -7 -66c0 -28 2 -58 60 -137l-20 -88c-120 83 -159 153 -159 225c0 24 4 54 13 93l91 390c36 153 105 201 275 248z" />
    <glyph glyph-name="parenright" unicode=")" horiz-adv-x="292" 
d="M127 687l21 88c109 -78 158 -148 158 -225c0 -25 -4 -55 -13 -93l-90 -391c-43 -187 -175 -220 -275 -247l21 93c82 29 116 72 142 186l89 385c6 24 8 42 8 60c0 47 -23 98 -61 144z" />
    <glyph glyph-name="asterisk" unicode="*" horiz-adv-x="378" 
d="M434 520l-103 -10l38 -91l-78 -35l-42 96l-77 -67l-55 67l74 64l-86 51l43 74l89 -51l25 100l84 -21l-25 -101l105 9z" />
    <glyph glyph-name="plus" unicode="+" horiz-adv-x="558" 
d="M508 348l-24 -101h-138l-36 -157h-115l36 157h-141l23 101h141l36 157h115l-36 -157h139z" />
    <glyph glyph-name="comma" unicode="," horiz-adv-x="187" 
d="M133 129l-30 -129l-114 -135h-44l99 135h-58l30 129h117z" />
    <glyph glyph-name="hyphen" unicode="-" horiz-adv-x="314" 
d="M309 341l-23 -99h-249l23 99h249z" />
    <glyph glyph-name="period" unicode="." horiz-adv-x="187" 
d="M133 129l-30 -129h-117l30 129h117z" />
    <glyph glyph-name="slash" unicode="/" horiz-adv-x="250" 
d="M353 706l-292 -706h-99l293 706h98z" />
    <glyph glyph-name="zero" unicode="0" 
d="M430 482l-70 -302c-33 -144 -83 -190 -195 -190c-96 0 -153 43 -153 115c0 20 3 39 9 67l80 345c24 105 86 156 188 156c95 0 150 -44 150 -122c0 -22 -1 -36 -9 -69zM238 148l82 354c4 17 7 31 7 39c0 28 -17 44 -49 44c-35 0 -48 -16 -61 -71l-82 -352
c-6 -25 -7 -36 -7 -46c0 -23 18 -38 46 -38c38 0 53 20 64 70z" />
    <glyph glyph-name="one" unicode="1" 
d="M377 665l-154 -665h-117l117 507l-10 -6c-21 -12 -55 -25 -99 -32l23 92c66 17 99 35 162 104h78z" />
    <glyph glyph-name="two" unicode="2" 
d="M345 100l-23 -100h-350c29 126 63 194 153 270c118 101 162 110 179 181l14 59c3 11 5 26 5 33c0 25 -18 41 -47 41c-33 0 -51 -18 -61 -63l-18 -79h-109l19 81c25 107 77 152 176 152c97 0 156 -45 156 -118c0 -15 -1 -29 -5 -44l-17 -71c-11 -46 -26 -78 -63 -112
c-18 -17 -48 -43 -140 -117c-59 -47 -73 -65 -90 -113h221z" />
    <glyph glyph-name="three" unicode="3" 
d="M87 466l15 64c15 62 30 144 182 144c97 0 149 -38 149 -110c0 -15 -2 -29 -6 -45l-10 -44c-17 -77 -39 -108 -122 -116c48 -11 72 -38 72 -84c0 -18 -3 -44 -8 -65l-15 -68c-23 -107 -67 -151 -188 -151c-104 0 -156 36 -156 110c0 13 3 31 8 52l13 56h115l-12 -53
c-3 -15 -5 -27 -5 -35c0 -27 16 -41 47 -41c39 0 51 15 64 70l14 57c6 23 8 43 8 56c0 38 -20 53 -70 53h-24l18 78h20c51 0 89 10 105 80l11 47c2 9 3 18 3 25c0 26 -14 39 -44 39c-32 0 -49 -15 -62 -68l-12 -51h-110z" />
    <glyph glyph-name="four" unicode="4" 
d="M434 668l-103 -449h43l-21 -93h-44l-29 -126h-107l29 126h-199l21 93l272 449h138zM312 561l-190 -342h102z" />
    <glyph glyph-name="five" unicode="5" 
d="M456 665l-23 -100h-216l-34 -136c29 24 62 36 101 36c67 0 108 -37 108 -96c0 -18 -2 -36 -11 -73l-38 -160c-23 -99 -64 -145 -184 -145c-105 0 -158 35 -158 105c0 15 2 30 5 45l15 66h115l-12 -50c-3 -13 -5 -25 -5 -36c0 -23 10 -39 46 -39c41 0 54 18 70 90l26 119
c6 28 8 35 8 44c0 26 -17 41 -45 41c-34 0 -59 -21 -75 -67h-92l89 356h310z" />
    <glyph glyph-name="six" unicode="6" 
d="M428 490h-110l9 36c2 7 2 15 2 21c0 24 -17 39 -46 39c-46 0 -55 -27 -68 -82l-26 -114c29 28 62 42 102 42c63 0 102 -37 102 -97c0 -18 -4 -38 -13 -77l-23 -103c-29 -131 -89 -162 -184 -162c-100 0 -158 43 -158 119c0 14 2 28 5 42l86 371c12 50 32 150 181 150
c102 0 154 -37 154 -110c0 -14 -2 -29 -5 -41zM242 151l25 113c4 16 5 23 5 31c0 25 -17 40 -46 40c-36 0 -55 -18 -66 -66l-25 -109c-3 -15 -5 -26 -5 -36c0 -27 17 -41 48 -41c36 0 53 18 64 68z" />
    <glyph glyph-name="seven" unicode="7" 
d="M486 665l-23 -99c-49 -57 -121 -166 -171 -258c-30 -55 -56 -114 -79 -173c-18 -46 -25 -71 -41 -135h-125c42 159 145 355 265 509l45 58h-155l-18 -78h-97l40 176h359z" />
    <glyph glyph-name="eight" unicode="8" 
d="M429 520l-12 -56c-14 -67 -39 -97 -95 -115c39 -18 55 -40 55 -77c0 -14 -3 -31 -8 -53l-15 -66c-27 -117 -77 -162 -191 -162c-99 0 -152 39 -152 112c0 16 3 33 8 56l18 83c17 79 44 102 103 116c-32 17 -47 40 -47 74c0 13 1 26 4 39l17 72c21 89 76 131 174 131
c94 0 146 -39 146 -110c0 -12 -2 -29 -5 -44zM307 458l14 66c2 8 3 16 3 21c0 25 -16 39 -43 39c-35 0 -49 -14 -58 -53l-16 -69c-4 -16 -4 -21 -4 -27c0 -26 15 -40 45 -40c31 0 48 9 59 63zM240 145l22 102c2 11 4 18 4 24c0 27 -16 41 -49 41c-34 0 -53 -17 -62 -59
l-23 -103c-2 -10 -4 -22 -4 -28c0 -24 18 -38 47 -38c36 0 56 18 65 61z" />
    <glyph glyph-name="nine" unicode="9" 
d="M29 182h110l-8 -39c-2 -8 -3 -17 -3 -22c0 -24 17 -39 46 -39c30 0 53 8 69 82l25 118c-27 -29 -57 -42 -95 -42c-69 0 -107 35 -107 98c0 21 4 46 11 76l24 98c16 65 25 87 47 113c30 34 74 51 136 51c101 0 158 -44 158 -120c0 -13 -2 -28 -5 -41l-92 -396
c-20 -88 -82 -126 -176 -126c-101 0 -153 37 -153 110c0 13 2 27 5 41zM297 403l25 105c3 14 5 27 5 36c0 27 -16 41 -48 41c-35 0 -51 -17 -63 -67l-26 -110c-3 -12 -5 -21 -5 -31c0 -25 17 -40 46 -40c31 0 53 11 66 66z" />
    <glyph glyph-name="colon" unicode=":" horiz-adv-x="229" 
d="M264 512l-30 -129h-116l29 129h117zM176 129l-30 -129h-117l30 129h117z" />
    <glyph glyph-name="semicolon" unicode=";" horiz-adv-x="229" 
d="M264 512l-30 -129h-116l29 129h117zM176 129l-30 -129l-114 -135h-44l99 135h-58l30 129h117z" />
    <glyph glyph-name="less" unicode="&#x3c;" horiz-adv-x="559" 
d="M522 572l-29 -125l-277 -129l222 -129l-27 -112l-316 193l25 107z" />
    <glyph glyph-name="equal" unicode="=" horiz-adv-x="559" 
d="M531 453l-22 -98h-390l23 98h389zM487 261l-22 -98h-390l22 98h390z" />
    <glyph glyph-name="greater" unicode="&#x3e;" horiz-adv-x="559" 
d="M517 377l-25 -107l-402 -194l29 124l277 129l-222 129l27 113z" />
    <glyph glyph-name="question" unicode="?" horiz-adv-x="417" 
d="M242 190h-113l7 32c14 63 23 86 67 132l78 81c26 27 37 43 46 64c9 22 23 86 23 103c0 22 -14 35 -40 35c-40 0 -50 -32 -62 -82l-21 -89h-111l17 74c22 94 48 178 192 178c92 0 144 -39 144 -110c0 -31 -10 -79 -24 -115c-14 -37 -16 -41 -60 -89l-83 -91
c-42 -46 -41 -55 -54 -101zM232 130l-30 -130h-116l30 130h116z" />
    <glyph glyph-name="at" unicode="@" horiz-adv-x="829" 
d="M555 504h90l-41 -159c-27 -105 -37 -149 -37 -168c0 -16 7 -25 19 -25c15 0 36 16 58 43c51 62 83 157 83 241c0 128 -80 203 -214 203c-201 0 -379 -195 -379 -415c0 -176 120 -268 282 -268c115 0 230 51 331 146l42 -62c-57 -50 -81 -68 -125 -94
c-80 -46 -163 -69 -254 -69c-204 0 -362 124 -362 338c0 276 210 499 471 499c174 0 291 -109 291 -271c0 -190 -125 -375 -254 -375c-48 0 -81 25 -87 68c-39 -45 -81 -68 -128 -68c-80 0 -129 58 -129 155c0 156 111 301 230 301c41 0 71 -11 101 -60zM505 350
c0 41 -14 85 -63 85c-66 0 -128 -112 -128 -200c0 -49 22 -77 59 -77c61 0 132 101 132 192z" />
    <glyph glyph-name="A" unicode="A" horiz-adv-x="437" 
d="M249 706h149c-5 -146 -19 -706 -19 -706h-128l8 115h-120l-44 -115h-134zM178 224h90l22 303z" />
    <glyph glyph-name="B" unicode="B" horiz-adv-x="478" 
d="M163 706h200c76 0 148 -10 148 -105c0 -16 -2 -33 -6 -50l-10 -45c-19 -87 -43 -113 -111 -126c44 -10 66 -33 66 -69c0 -16 -4 -48 -10 -75l-20 -90c-14 -62 -41 -146 -181 -146h-239zM270 605l-41 -178h35c68 0 88 12 99 65l9 42c2 9 5 23 5 32c0 28 -16 39 -55 39h-52
zM205 325l-52 -223h46c66 0 84 3 99 71l19 83c2 10 4 25 4 31c0 28 -16 38 -60 38h-56z" />
    <glyph glyph-name="C" unicode="C" horiz-adv-x="458" 
d="M490 449h-128l16 72c6 25 9 40 9 51c0 31 -15 49 -54 49c-42 0 -63 -22 -76 -77l-86 -370c-4 -19 -6 -34 -6 -43c0 -29 19 -45 54 -45c45 0 64 20 79 87l21 92h128l-19 -85c-34 -155 -91 -195 -223 -195c-128 0 -173 48 -173 127c0 22 5 47 11 74l81 348
c32 136 94 187 229 187c109 0 167 -39 167 -113c0 -19 -3 -42 -10 -72z" />
    <glyph glyph-name="D" unicode="D" horiz-adv-x="479" 
d="M163 706h197c105 0 156 -40 156 -124c0 -19 -4 -44 -15 -91l-75 -324c-26 -111 -76 -167 -205 -167h-221zM269 603l-115 -500h46c68 0 85 12 102 86l76 330c4 18 6 30 6 39c0 33 -18 45 -72 45h-43z" />
    <glyph glyph-name="E" unicode="E" horiz-adv-x="417" 
d="M505 706l-25 -107h-212l-38 -166h200l-25 -107h-200l-50 -217h222l-25 -109h-352l163 706h342z" />
    <glyph glyph-name="F" unicode="F" 
d="M509 706l-25 -109h-215l-41 -177h202l-24 -105h-202l-73 -315h-131l163 706h346z" />
    <glyph glyph-name="G" unicode="G" horiz-adv-x="488" 
d="M492 478h-129l15 68c2 10 4 19 4 27c0 30 -19 46 -56 46c-45 0 -63 -21 -79 -91l-81 -352c-5 -23 -7 -33 -7 -43c0 -29 21 -47 54 -47c42 0 65 23 78 81l25 110h-80l25 106h210l-89 -383h-111l10 42c-35 -39 -76 -57 -131 -57c-80 0 -126 42 -126 115c0 22 3 48 10 78
l82 353c33 140 92 190 227 190c115 0 176 -38 176 -110c0 -14 -3 -32 -9 -56z" />
    <glyph glyph-name="H" unicode="H" horiz-adv-x="479" 
d="M542 706l-163 -706h-130l74 323h-119l-74 -323h-130l163 706h130l-64 -277h119l64 277h130z" />
    <glyph glyph-name="I" unicode="I" horiz-adv-x="228" 
d="M292 706l-163 -706h-129l163 706h129z" />
    <glyph glyph-name="J" unicode="J" 
d="M464 706l-126 -546c-31 -134 -84 -176 -199 -176c-100 0 -153 41 -153 117c0 18 2 37 9 66l13 57h121l-14 -60c-6 -27 -7 -34 -7 -43c0 -20 14 -33 39 -33c33 0 47 18 60 73l126 545h131z" />
    <glyph glyph-name="K" unicode="K" horiz-adv-x="458" 
d="M566 706l-233 -315l78 -391h-137l-62 345l-80 -345h-132l163 706h132l-64 -275l197 275h138z" />
    <glyph glyph-name="L" unicode="L" horiz-adv-x="375" 
d="M346 107l-25 -107h-321l163 706h130l-138 -599h191z" />
    <glyph glyph-name="M" unicode="M" horiz-adv-x="688" 
d="M751 706l-163 -706h-130l153 612l-255 -612h-121l24 612l-131 -612h-128l163 706h212l-31 -494l198 494h209z" />
    <glyph glyph-name="N" unicode="N" horiz-adv-x="500" 
d="M563 706l-163 -706h-164c0 88 -3 529 -3 529l-111 -529h-122l163 706h167c1 -89 7 -518 7 -518l107 518h119z" />
    <glyph glyph-name="O" unicode="O" horiz-adv-x="479" 
d="M503 516l-79 -344c-24 -104 -65 -187 -216 -187c-119 0 -179 47 -179 138c0 23 3 45 12 84l75 322c32 138 84 193 216 193c116 0 181 -49 181 -137c0 -19 -4 -42 -10 -69zM295 180l80 344c7 29 7 36 7 49c0 32 -21 50 -56 50c-43 0 -61 -14 -79 -93l-78 -338
c-8 -35 -10 -45 -10 -56c0 -32 21 -49 59 -49c55 0 64 37 77 93z" />
    <glyph glyph-name="P" unicode="P" horiz-adv-x="457" 
d="M163 706h227c70 0 122 -34 122 -107c0 -19 -4 -45 -8 -64l-23 -101c-23 -100 -60 -140 -172 -140h-110l-68 -294h-131zM270 602l-48 -207h63c50 0 62 10 74 63l16 72c3 14 5 25 5 33c0 28 -14 39 -53 39h-57z" />
    <glyph glyph-name="Q" unicode="Q" horiz-adv-x="479" 
d="M456 -22l-86 -72l-75 92c-34 -11 -47 -13 -86 -13c-119 0 -180 47 -180 138c0 23 3 45 12 84l82 350c29 123 100 165 209 165c115 0 181 -50 181 -137c0 -19 -4 -43 -10 -69l-74 -323c-15 -67 -26 -97 -44 -128zM292 168l83 356c7 29 7 36 7 49c0 32 -21 50 -56 50
c-40 0 -61 -14 -79 -93l-78 -338c-8 -35 -10 -45 -10 -56c0 -32 21 -49 59 -49c43 0 60 19 74 81z" />
    <glyph glyph-name="R" unicode="R" horiz-adv-x="479" 
d="M163 706h223c98 0 133 -45 133 -112c0 -14 -1 -28 -5 -44l-16 -69c-18 -78 -47 -108 -119 -120c51 -14 71 -37 71 -83c0 -16 -2 -35 -8 -61l-28 -123c-3 -20 -7 -37 -7 -51c0 -22 3 -31 15 -43h-143c-5 16 -7 23 -7 37c0 12 2 26 6 43l31 131c9 36 10 46 10 56
c0 31 -18 44 -63 44h-54l-72 -311h-130zM225 412h52c66 0 78 10 95 83l12 52c2 7 3 14 3 20c0 27 -16 38 -57 38h-60z" />
    <glyph glyph-name="S" unicode="S" horiz-adv-x="448" 
d="M472 499h-130l11 49c3 12 4 22 4 32c0 26 -16 42 -50 42c-62 0 -74 -82 -74 -106c0 -26 7 -43 24 -57l82 -69c66 -56 77 -85 77 -141c0 -33 -12 -89 -29 -138c-30 -86 -92 -126 -197 -126c-116 0 -181 47 -181 129c0 18 1 32 11 73l15 62h129l-14 -57
c-7 -29 -10 -52 -10 -63c0 -27 23 -44 58 -44c23 0 44 9 53 25c21 36 31 97 31 118c0 27 -13 52 -41 74l-70 56c-43 35 -69 70 -69 128s18 118 50 163c34 49 88 72 165 72c114 0 174 -40 174 -116c0 -14 -2 -29 -6 -46z" />
    <glyph glyph-name="T" unicode="T" 
d="M506 706l-23 -102h-131l-140 -604h-131l140 604h-130l23 102h392z" />
    <glyph glyph-name="U" unicode="U" horiz-adv-x="476" 
d="M540 706l-126 -547c-28 -121 -94 -174 -216 -174c-110 0 -169 47 -169 135c0 22 3 37 13 81l116 505h130l-118 -512c-6 -28 -9 -42 -9 -51c0 -30 20 -47 55 -47c39 0 57 21 72 86l121 524h131z" />
    <glyph glyph-name="V" unicode="V" horiz-adv-x="417" 
d="M518 706l-296 -706h-131l23 706h134l-39 -467l172 467h137z" />
    <glyph glyph-name="W" unicode="W" horiz-adv-x="708" 
d="M808 706l-299 -706h-137l43 484l-187 -484h-139l34 706h131l-51 -532l198 532h123l-49 -532l197 532h136z" />
    <glyph glyph-name="X" unicode="X" horiz-adv-x="479" 
d="M563 706l-216 -334l74 -372h-137l-33 239l-134 -239h-149l240 380l-67 326h138l29 -193l107 193h148z" />
    <glyph glyph-name="Y" unicode="Y" horiz-adv-x="417" 
d="M528 706l-255 -497l-49 -209h-133l51 218l-29 488h133c-3 -131 -6 -356 -6 -356l148 356h140z" />
    <glyph glyph-name="Z" unicode="Z" horiz-adv-x="417" 
d="M496 706l-16 -70l-333 -526h217l-25 -110h-369l19 82l323 515h-185l26 109h343z" />
    <glyph glyph-name="bracketleft" unicode="[" horiz-adv-x="333" 
d="M447 761l-20 -89h-122l-174 -752h123l-21 -90h-241l215 931h240z" />
    <glyph glyph-name="backslash" unicode="\" horiz-adv-x="312" 
d="M262 0h-91l-59 706h91z" />
    <glyph glyph-name="bracketright" unicode="]" horiz-adv-x="333" 
d="M378 762l-215 -930h-240l21 89h122l173 751h-123l21 90h241z" />
    <glyph glyph-name="asciicircum" unicode="^" horiz-adv-x="559" 
d="M532 358h-116l-42 242l-152 -241h-128l244 348h109z" />
    <glyph glyph-name="underscore" unicode="_" horiz-adv-x="500" 
d="M409 -221h-520l21 92h520z" />
    <glyph glyph-name="quoteleft" unicode="&#x2018;" horiz-adv-x="195" 
d="M281 706l-104 -136h59l-30 -130h-118l30 130l115 136h48z" />
    <glyph glyph-name="a" unicode="a" 
d="M321 0h-125c-5 7 -6 12 -6 22c0 6 0 11 2 23c-28 -38 -62 -56 -102 -56c-56 0 -87 33 -87 94c0 67 21 132 53 164c24 24 71 46 89 53l114 44l6 24c5 21 6 30 6 37c0 21 -13 32 -38 32c-34 0 -43 -25 -51 -67l-3 -15h-109l7 33c20 94 68 133 165 133c94 0 149 -35 149 -96
c0 -19 -4 -43 -14 -85l-50 -215c-10 -45 -16 -68 -16 -91c0 -17 2 -23 10 -34zM204 108l32 139c-61 -25 -76 -34 -91 -54c-13 -18 -23 -53 -23 -78c0 -22 10 -33 28 -33c14 0 28 7 54 26z" />
    <glyph glyph-name="b" unicode="b" horiz-adv-x="417" 
d="M157 706h119l-55 -237c30 35 64 51 108 51c60 0 94 -35 94 -96c0 -16 -2 -25 -10 -60l-46 -204c-15 -68 -24 -94 -41 -119c-24 -34 -61 -52 -105 -52c-47 0 -76 18 -95 58l-12 -47h-119zM195 359l-46 -204c-3 -11 -4 -21 -4 -28c0 -26 15 -40 41 -40c31 0 49 21 61 76
l43 193c3 15 5 24 5 32c0 23 -14 37 -39 37c-33 0 -50 -19 -61 -66z" />
    <glyph glyph-name="c" unicode="c" 
d="M390 317h-117l11 45c5 22 6 30 6 39c0 22 -15 35 -40 35c-22 0 -44 -6 -59 -69l-49 -209c-6 -26 -8 -37 -8 -46c0 -21 17 -34 43 -34c30 0 43 15 55 65l14 59h117l-9 -40c-17 -77 -30 -106 -53 -130c-28 -29 -72 -44 -126 -44c-103 0 -156 40 -156 116c0 18 3 39 9 67
l44 194c30 134 109 156 181 156c99 0 155 -38 155 -106c0 -16 -4 -37 -9 -59z" />
    <glyph glyph-name="d" unicode="d" horiz-adv-x="417" 
d="M484 706l-163 -706h-120l12 47c-28 -39 -61 -57 -104 -57c-61 0 -96 34 -96 92c0 19 3 40 13 83l53 230c16 71 64 124 137 124c46 0 76 -17 93 -55l56 242h119zM239 163l46 198c3 13 4 20 4 27c0 26 -16 41 -44 41c-29 0 -45 -18 -56 -66l-45 -198c-5 -22 -6 -29 -6 -39
c0 -22 14 -35 38 -35c31 0 50 17 63 72z" />
    <glyph glyph-name="e" unicode="e" 
d="M363 230h-203l-22 -101c-1 -5 -2 -11 -2 -16c0 -20 11 -34 38 -34s41 16 50 55l8 34h115l-4 -19c-22 -106 -64 -160 -175 -160c-97 0 -148 40 -148 117c0 21 4 47 16 100l37 167c19 87 64 146 182 146c93 0 143 -39 143 -114c0 -18 -3 -38 -11 -71zM264 311l13 61
c3 13 4 20 4 26c0 21 -12 33 -36 33c-28 0 -41 -14 -50 -51l-16 -69h85z" />
    <glyph glyph-name="f" unicode="f" horiz-adv-x="241" 
d="M349 703l-22 -96c-10 2 -15 3 -22 3c-32 0 -41 -23 -49 -59l-10 -43h53l-18 -80h-54l-98 -428h-118l98 428h-53l19 80h53l22 93c20 85 71 109 136 109c22 0 42 -2 63 -7z" />
    <glyph glyph-name="g" unicode="g" horiz-adv-x="417" 
d="M320 508h120l-116 -506c-27 -118 -57 -185 -197 -185c-98 0 -150 35 -150 103c0 11 1 20 5 38h118c-3 -11 -4 -15 -4 -20c0 -20 17 -33 42 -33c35 0 48 16 61 76l12 55c-23 -29 -51 -42 -95 -42c-65 0 -104 34 -104 89c0 15 3 32 11 69l51 222c19 84 57 144 146 144
c45 0 73 -16 91 -51zM237 151l47 206c3 11 4 21 4 29c0 27 -15 42 -42 42c-30 0 -46 -17 -56 -62l-46 -200c-5 -23 -7 -33 -7 -40c0 -24 15 -38 41 -38c30 0 49 20 59 63z" />
    <glyph glyph-name="h" unicode="h" horiz-adv-x="417" 
d="M157 706h121l-55 -235c29 32 62 47 104 47c57 0 92 -31 92 -82c0 -16 -5 -45 -14 -84l-81 -352h-118l84 364c3 14 5 24 5 32c0 24 -13 37 -36 37c-32 0 -50 -20 -61 -68l-84 -365h-119z" />
    <glyph glyph-name="i" unicode="i" horiz-adv-x="208" 
d="M278 706l-28 -120h-120l28 120h120zM232 508l-117 -508h-120l117 508h120z" />
    <glyph glyph-name="j" unicode="j" horiz-adv-x="208" 
d="M276 706l-28 -119h-119l28 119h119zM230 508l-128 -556c-21 -91 -63 -129 -154 -129c-19 0 -29 1 -47 3l23 99c54 0 58 22 65 52l122 531h119z" />
    <glyph glyph-name="k" unicode="k" 
d="M454 508l-175 -212l83 -296h-129l-60 261l-60 -261h-118l163 706h118l-85 -369l131 171h132z" />
    <glyph glyph-name="l" unicode="l" horiz-adv-x="208" 
d="M278 706l-163 -706h-120l163 706h120z" />
    <glyph glyph-name="m" unicode="m" horiz-adv-x="623" 
d="M112 508h121l-10 -37c29 32 62 47 103 47c44 0 72 -17 86 -52c40 37 75 52 120 52c58 0 93 -31 93 -82c0 -16 -5 -45 -14 -84l-81 -352h-118l84 364c3 14 4 25 4 32c0 24 -12 37 -34 37c-43 0 -54 -44 -60 -69l-84 -364h-118l84 364c3 14 5 25 5 32c0 24 -13 37 -35 37
c-31 0 -49 -20 -60 -68l-84 -365h-119z" />
    <glyph glyph-name="n" unicode="n" horiz-adv-x="417" 
d="M112 508h121l-10 -37c29 32 62 47 104 47c57 0 92 -31 92 -82c0 -16 -5 -45 -14 -84l-81 -352h-118l84 364c3 14 5 24 5 32c0 24 -13 37 -36 37c-32 0 -50 -20 -61 -68l-84 -365h-119z" />
    <glyph glyph-name="o" unicode="o" 
d="M391 362l-51 -222c-24 -106 -76 -152 -173 -152c-98 0 -151 41 -151 115c0 15 2 29 8 55l50 215c24 101 81 148 178 148c91 0 145 -41 145 -109c0 -14 -2 -31 -6 -50zM220 130l54 237c5 20 7 32 7 41c0 21 -13 33 -35 33c-34 0 -41 -17 -54 -74l-54 -233
c-4 -16 -5 -23 -5 -31c0 -20 14 -32 36 -32c28 0 41 14 51 59z" />
    <glyph glyph-name="p" unicode="p" horiz-adv-x="417" 
d="M111 508h120l-12 -47c28 39 61 57 104 57c61 0 96 -33 96 -92c0 -19 -3 -40 -13 -83l-50 -218c-21 -92 -71 -136 -140 -136c-46 0 -76 17 -93 55l-51 -220h-119zM243 145l45 199c5 21 6 28 6 38c0 22 -14 35 -38 35c-31 0 -50 -17 -63 -72l-46 -198c-3 -13 -4 -20 -4 -27
c0 -26 16 -41 43 -41c30 0 46 18 57 66z" />
    <glyph glyph-name="q" unicode="q" horiz-adv-x="417" 
d="M439 508l-156 -684h-119l49 215c-30 -35 -64 -51 -107 -51c-60 0 -94 35 -94 96c0 16 1 25 9 60l47 210c19 85 45 165 145 165c47 0 77 -18 96 -58l12 47h118zM240 149l46 204c2 11 4 21 4 28c0 25 -15 40 -41 40c-32 0 -49 -22 -61 -76l-43 -193c-3 -15 -5 -24 -5 -32
c0 -23 14 -37 39 -37c29 0 49 12 61 66z" />
    <glyph glyph-name="r" unicode="r" horiz-adv-x="292" 
d="M113 508h119l-16 -65c26 49 68 74 124 74h10l-28 -118c-11 5 -22 8 -38 8c-62 0 -86 -41 -101 -105l-70 -302h-118z" />
    <glyph glyph-name="s" unicode="s" horiz-adv-x="375" 
d="M370 347h-103l8 36c2 9 3 16 3 23c0 22 -13 33 -38 33c-31 0 -50 -24 -50 -63c0 -16 6 -27 22 -40l58 -48c43 -36 61 -70 61 -119c0 -115 -66 -179 -184 -179c-91 0 -139 34 -139 100c0 21 1 27 11 71l4 18h110l-6 -24c-5 -19 -7 -35 -7 -45c0 -21 15 -35 39 -35
c35 0 59 33 59 80c0 23 -8 35 -46 67l-45 38c-36 30 -53 65 -53 106c0 95 68 154 176 154c84 0 134 -35 134 -96c0 -11 -2 -24 -5 -37z" />
    <glyph glyph-name="t" unicode="t" horiz-adv-x="255" 
d="M305 508l-18 -79h-59l-63 -271c-4 -16 -7 -33 -7 -42c0 -19 11 -31 43 -31c9 0 12 1 22 2l-20 -86c-21 -4 -35 -6 -53 -6c-78 0 -114 28 -114 88c0 16 2 34 7 55l68 291h-53l18 79h52l44 190h118l-44 -190h59z" />
    <glyph glyph-name="u" unicode="u" horiz-adv-x="417" 
d="M437 508l-117 -508h-121l9 37c-28 -32 -62 -47 -103 -47c-57 0 -92 31 -92 82c0 16 4 45 13 84l82 352h118l-84 -364c-3 -14 -5 -24 -5 -32c0 -24 13 -37 36 -37c31 0 50 20 61 68l84 365h119z" />
    <glyph glyph-name="v" unicode="v" horiz-adv-x="354" 
d="M421 508l-242 -508h-116c1 62 6 508 6 508h117l-29 -352l143 352h121z" />
    <glyph glyph-name="w" unicode="w" horiz-adv-x="562" 
d="M629 508l-235 -508h-112l23 307l-133 -307h-113c2 79 14 508 14 508h116l-26 -336l141 336h94l-24 -336l139 336h116z" />
    <glyph glyph-name="x" unicode="x" horiz-adv-x="372" 
d="M410 508l-144 -233l51 -275h-125l-17 205l-99 -205h-126l170 275l-40 233h120l11 -170l79 170h120z" />
    <glyph glyph-name="y" unicode="y" horiz-adv-x="354" 
d="M418 508l-257 -575c-33 -75 -67 -110 -153 -110c-30 0 -54 3 -83 9l39 93c19 -5 30 -7 42 -7c35 0 59 26 75 81c0 0 -12 453 -14 509h116c-3 -64 -8 -327 -8 -327l124 327h119z" />
    <glyph glyph-name="z" unicode="z" horiz-adv-x="354" 
d="M383 508l-22 -95l-242 -314h183l-23 -99h-309l23 99l244 314h-158l23 95h281z" />
    <glyph glyph-name="braceleft" unicode="{" horiz-adv-x="314" 
d="M424 764l-20 -90h-37c-44 0 -58 -27 -73 -92l-35 -151c-24 -106 -55 -122 -135 -131c52 -12 80 -45 80 -87c0 -17 -3 -38 -9 -64l-28 -121c-10 -45 -12 -55 -12 -70c0 -25 16 -40 43 -40h33l-20 -89h-73c-65 0 -101 37 -101 104c0 20 2 38 13 84l32 136c4 17 7 36 7 47
c0 40 -14 56 -73 60l20 88h5c70 0 87 8 109 105l39 170c21 91 54 141 145 141h90z" />
    <glyph glyph-name="bar" unicode="|" horiz-adv-x="205" 
d="M289 762l-216 -931h-118l215 931h119z" />
    <glyph glyph-name="braceright" unicode="}" horiz-adv-x="314" 
d="M-77 -171l20 90h37c44 0 58 28 73 93l35 152c25 106 61 120 136 129c-52 11 -80 45 -80 87c0 17 2 39 8 65l28 121c9 38 12 52 12 64c0 28 -11 45 -43 45h-33l21 90h72c69 0 102 -41 102 -110c0 -18 -4 -36 -14 -78l-31 -136c-4 -17 -8 -36 -8 -47c0 -40 12 -57 73 -61
l-20 -87h-5c-68 0 -87 -8 -109 -105l-38 -170c-20 -91 -55 -142 -146 -142h-90z" />
    <glyph glyph-name="asciitilde" unicode="~" horiz-adv-x="559" 
d="M497 382l31 -100c-53 -50 -108 -66 -148 -66c-24 0 -40 4 -75 25l-26 16c-23 14 -40 20 -60 20c-28 0 -55 -12 -104 -56l-32 97c52 49 99 70 148 70c21 0 45 -8 67 -21l38 -23c21 -13 38 -17 53 -17c29 0 62 13 108 55z" />
    <glyph glyph-name="exclamdown" unicode="&#xa1;" horiz-adv-x="229" 
d="M277 706l-30 -132h-119l30 132h119zM214 516l-29 -197l-74 -319h-113l73 313l65 203h78z" />
    <glyph glyph-name="cent" unicode="&#xa2;" horiz-adv-x="406" 
d="M396 317h-117l11 45c5 22 6 30 6 39c0 22 -15 35 -40 35c-31 0 -46 -16 -59 -69l-49 -209c-6 -26 -7 -37 -7 -46c0 -21 16 -34 42 -34c30 0 43 15 55 65l14 59h118l-10 -40c-19 -77 -30 -106 -53 -130c-28 -29 -68 -43 -125 -44l-22 -94h-51l23 98
c-74 13 -107 48 -107 112c0 18 3 39 9 67l44 194c24 107 73 156 172 156h4l18 77h51l-18 -80c74 -13 109 -46 109 -103c0 -16 -4 -37 -9 -59z" />
    <glyph glyph-name="sterling" unicode="&#xa3;" horiz-adv-x="479" 
d="M55 278l14 61h84l-7 35c-4 22 -8 55 -8 81c0 43 13 99 31 139c32 70 89 109 183 109c103 0 153 -45 153 -125c0 -15 -4 -35 -10 -61l-8 -36h-115l10 41c4 16 5 26 5 36c0 32 -17 50 -47 50c-51 0 -83 -59 -83 -153c0 -24 3 -48 7 -71l9 -45h106l-15 -61h-84
c1 -11 1 -17 1 -23c0 -55 -15 -91 -61 -148c26 -19 40 -24 57 -24c29 0 45 21 59 75l10 39h101l-13 -54c-13 -55 -21 -77 -40 -101c-27 -35 -65 -54 -106 -54c-40 0 -77 15 -126 52l-11 -10c-25 -22 -57 -41 -91 -41c-49 0 -84 30 -84 77c0 54 45 94 106 94
c26 0 46 -6 79 -22c14 20 20 37 20 59c0 21 -4 43 -15 81h-111zM110 74c-15 14 -27 20 -42 20c-17 0 -29 -11 -29 -27c0 -13 9 -23 22 -23s25 6 44 25z" />
    <glyph glyph-name="fraction" unicode="&#x2044;" horiz-adv-x="125" 
d="M337 693l-422 -738l-59 22l424 739z" />
    <glyph glyph-name="yen" unicode="&#xa5;" horiz-adv-x="417" 
d="M510 665l-162 -314h79l-17 -73h-99l-31 -57h117l-17 -71h-120l-34 -150h-131l34 150h-120l17 71h118l-3 57h-102l17 73h81l-19 314h133c-2 -58 -9 -316 -9 -316l133 316h135z" />
    <glyph glyph-name="florin" unicode="&#x192;" horiz-adv-x="327" 
d="M387 672l-23 -97c-12 1 -18 2 -25 2c-30 0 -35 -19 -42 -46l-6 -23h52l-18 -79h-53l-115 -485c-19 -79 -58 -106 -151 -106c-10 0 -38 1 -50 2l24 97c9 -1 16 -1 21 -1c28 0 39 12 46 43l106 450h-52l17 79h54l16 66c17 71 55 100 152 100c15 0 29 0 47 -2z" />
    <glyph glyph-name="section" unicode="&#xa7;" horiz-adv-x="437" 
d="M461 504h-116l10 47c3 12 5 25 5 37c0 26 -17 41 -48 41c-38 0 -61 -27 -61 -71c0 -23 11 -44 37 -73l94 -104c37 -40 52 -73 52 -111c0 -63 -29 -112 -113 -170c19 -27 26 -51 26 -82c0 -102 -49 -186 -192 -186c-108 0 -167 42 -167 120c0 17 3 37 8 60l12 52h117
l-11 -54c-3 -14 -7 -29 -7 -43c0 -27 19 -42 52 -42c39 0 60 29 60 85c0 29 -7 44 -49 91l-90 101c-35 39 -48 69 -48 108c0 56 27 100 116 162c-16 26 -21 43 -21 71c0 105 66 175 193 175c98 0 158 -42 158 -110c0 -16 -3 -38 -7 -58zM274 167l4 4c41 41 44 47 44 70
c0 16 -7 33 -21 49l-107 120c-32 -27 -47 -52 -47 -76c0 -19 7 -32 31 -59z" />
    <glyph glyph-name="currency" unicode="&#xa4;" horiz-adv-x="700" 
d="M713 553l-86 -77c18 -39 26 -68 26 -104c0 -69 -22 -142 -68 -194l69 -84l-92 -82l-69 84c-46 -25 -87 -38 -141 -38c-60 0 -94 11 -151 50l-88 -76l-79 95l88 77c-17 37 -25 71 -25 112c0 68 21 128 66 185l-68 83l94 81l67 -82c40 24 89 38 143 38c56 0 96 -13 149 -50
l88 77zM531 358c0 88 -59 150 -143 150c-95 0 -169 -81 -169 -187c0 -86 59 -150 140 -150c95 0 172 83 172 187z" />
    <glyph glyph-name="quotesingle" unicode="'" horiz-adv-x="144" 
d="M245 740l-109 -288h-25l27 288h107z" />
    <glyph glyph-name="quotedblleft" unicode="&#x201c;" horiz-adv-x="375" 
d="M461 706l-99 -136h58l-30 -130h-120l30 130l112 136h49zM281 706l-104 -136h59l-30 -130h-118l30 130l115 136h48z" />
    <glyph glyph-name="guillemotleft" unicode="&#xab;" horiz-adv-x="313" 
d="M327 430l-24 -103l-54 -44l35 -41l-22 -94l-81 93l22 92zM182 430l-24 -103l-54 -44l35 -41l-22 -94l-81 93l22 92z" />
    <glyph glyph-name="guilsinglleft" unicode="&#x2039;" horiz-adv-x="168" 
d="M182 430l-24 -103l-54 -44l35 -41l-22 -94l-81 93l22 92z" />
    <glyph glyph-name="guilsinglright" unicode="&#x203a;" horiz-adv-x="168" 
d="M167 335l-21 -92l-125 -97l24 103l54 44l-34 41l21 94z" />
    <glyph glyph-name="endash" unicode="&#x2013;" horiz-adv-x="421" 
d="M416 341l-23 -98h-356l23 98h356z" />
    <glyph glyph-name="dagger" unicode="&#x2020;" horiz-adv-x="437" 
d="M437 384h-115l-115 -497h-119l115 497h-116l29 124h116l45 198h119l-45 -198h115z" />
    <glyph glyph-name="daggerdbl" unicode="&#x2021;" horiz-adv-x="437" 
d="M367 92h-115l-48 -205h-119l48 205h-116l28 124h116l44 188h-116l28 124h116l41 178h119l-41 -178h115l-28 -124h-115l-44 -188h115z" />
    <glyph glyph-name="periodcentered" unicode="&#xb7;" horiz-adv-x="187" 
d="M188 356l-29 -129h-117l29 129h117z" />
    <glyph glyph-name="paragraph" unicode="&#xb6;" horiz-adv-x="580" 
d="M624 706l-20 -83h-35l-182 -790h-88l182 790h-91l-183 -790h-89l109 468c-75 36 -113 94 -113 177c0 76 35 145 95 185c47 31 99 43 198 43h217z" />
    <glyph glyph-name="bullet" unicode="&#x2022;" horiz-adv-x="333" 
d="M357 478l-59 -258h-257l59 258h257z" />
    <glyph glyph-name="quotesinglbase" unicode="&#x201a;" horiz-adv-x="193" 
d="M136 130l-30 -130l-111 -136h-50l100 136h-59l30 130h120z" />
    <glyph glyph-name="quotedblbase" unicode="&#x201e;" horiz-adv-x="375" 
d="M318 130l-30 -130l-114 -136h-49l105 136h-60l30 130h118zM136 130l-30 -130l-111 -136h-50l100 136h-59l30 130h120z" />
    <glyph glyph-name="quotedblright" unicode="&#x201d;" horiz-adv-x="375" 
d="M451 706l-30 -130l-114 -136h-49l105 136h-60l30 130h118zM269 706l-30 -130l-111 -136h-50l100 136h-59l30 130h120z" />
    <glyph glyph-name="guillemotright" unicode="&#xbb;" horiz-adv-x="313" 
d="M312 335l-21 -92l-125 -97l24 103l54 44l-35 41l22 94zM167 335l-21 -92l-125 -97l24 103l54 44l-34 41l21 94z" />
    <glyph glyph-name="ellipsis" unicode="&#x2026;" horiz-adv-x="1000" 
d="M859 100l-22 -100h-97l22 100h97zM526 100l-22 -100h-97l23 100h96zM193 100l-23 -100h-96l22 100h97z" />
    <glyph glyph-name="perthousand" unicode="&#x2030;" horiz-adv-x="1002" 
d="M709 312l-46 -199c-21 -93 -65 -118 -131 -118c-74 0 -112 30 -112 85c0 15 2 29 7 52l47 202c15 63 37 115 130 115c70 0 112 -29 112 -79c0 -16 -2 -38 -7 -58zM626 693l-423 -738l-59 22l424 739zM342 534l-46 -199c-21 -93 -59 -118 -131 -118c-73 0 -112 30 -112 85
c0 15 3 31 8 52l47 205c16 71 48 112 129 112c70 0 112 -29 112 -79c0 -16 -2 -38 -7 -58zM581 108l51 223c3 11 4 20 4 27c0 19 -13 29 -36 29c-27 0 -37 -11 -46 -50l-50 -224c-2 -11 -4 -19 -4 -26c0 -19 12 -30 36 -30c26 0 36 12 45 51zM215 330l50 224c2 10 4 19 4 26
c0 19 -12 29 -36 29c-26 0 -36 -11 -45 -50l-51 -224c-2 -10 -4 -19 -4 -26c0 -19 13 -29 36 -29c27 0 37 11 46 50zM1003 312l-46 -199c-21 -93 -64 -118 -132 -118c-74 0 -111 30 -111 85c0 15 2 29 7 52l46 202c14 63 38 115 130 115c70 0 113 -29 113 -79
c0 -16 -2 -38 -7 -58zM875 108l51 223c3 11 4 20 4 27c0 19 -13 29 -36 29c-27 0 -37 -11 -46 -50l-50 -224c-2 -11 -4 -19 -4 -26c0 -19 12 -30 36 -30c26 0 36 12 45 51z" />
    <glyph glyph-name="questiondown" unicode="&#xbf;" horiz-adv-x="417" 
d="M238 517h113l-7 -32c-14 -63 -23 -86 -67 -132l-78 -81c-26 -27 -37 -43 -46 -64c-9 -22 -23 -86 -23 -103c0 -22 14 -35 40 -35c40 0 50 32 62 82l21 89h111l-17 -74c-21 -94 -45 -178 -192 -178c-92 0 -144 39 -144 110c0 31 10 79 24 115c14 37 16 41 60 89l83 91
c42 46 44 54 55 101zM249 576l30 130h116l-30 -130h-116z" />
    <glyph glyph-name="grave" unicode="`" horiz-adv-x="208" 
d="M214 574h-86l-134 132h153z" />
    <glyph glyph-name="acute" unicode="&#xb4;" horiz-adv-x="208" 
d="M222 706l-146 -132h-90l90 132h146z" />
    <glyph glyph-name="circumflex" unicode="&#x2c6;" horiz-adv-x="208" 
d="M255 574h-100l-27 73l-65 -73h-110l117 132h129z" />
    <glyph glyph-name="tilde" unicode="&#x2dc;" horiz-adv-x="208" 
d="M207 698h60c-18 -86 -49 -126 -98 -126c-43 0 -84 44 -123 44c-20 0 -32 -11 -45 -42h-60c17 78 58 125 111 125c48 0 92 -43 118 -43c17 0 27 11 37 42z" />
    <glyph glyph-name="macron" unicode="&#xaf;" horiz-adv-x="208" 
d="M255 675l-19 -81h-284l18 81h285z" />
    <glyph glyph-name="breve" unicode="&#x2d8;" horiz-adv-x="208" 
d="M207 737l56 -29c-42 -88 -101 -133 -175 -133c-81 0 -132 53 -143 148l66 16c8 -45 41 -71 91 -71c49 0 81 21 105 69z" />
    <glyph glyph-name="dotaccent" unicode="&#x2d9;" horiz-adv-x="208" 
d="M177 715l-28 -120h-118l28 120h118z" />
    <glyph glyph-name="dieresis" unicode="&#xa8;" horiz-adv-x="208" 
d="M275 715l-28 -120h-116l28 120h116zM78 715l-28 -120h-117l28 120h117z" />
    <glyph glyph-name="ring" unicode="&#x2da;" horiz-adv-x="208" 
d="M194 663c0 -49 -41 -90 -90 -90s-90 39 -90 88c0 51 39 91 90 91s90 -38 90 -89zM145 662c0 24 -18 43 -40 43c-24 0 -43 -19 -43 -43c0 -23 18 -42 41 -42s42 18 42 42z" />
    <glyph glyph-name="cedilla" unicode="&#xb8;" horiz-adv-x="208" 
d="M96 9h45l-14 -60c57 -3 87 -24 87 -62c0 -49 -41 -76 -115 -76c-38 0 -72 5 -105 17l9 29c24 -4 33 -5 47 -5c29 0 46 10 46 29c0 14 -7 22 -26 28z" />
    <glyph glyph-name="hungarumlaut" unicode="&#x2dd;" horiz-adv-x="208" 
d="M291 706l-145 -132h-73l97 132h121zM134 706l-145 -132h-72l97 132h120z" />
    <glyph glyph-name="ogonek" unicode="&#x2db;" horiz-adv-x="208" 
d="M127 12h56c-51 -43 -77 -77 -77 -106c0 -22 14 -35 36 -35c17 0 34 6 59 19l-19 -65c-28 -11 -49 -15 -75 -15c-59 0 -100 31 -100 78c0 53 37 82 120 124z" />
    <glyph glyph-name="caron" unicode="&#x2c7;" horiz-adv-x="208" 
d="M255 707l-116 -132h-129l-57 132h101l27 -73l65 73h109z" />
    <glyph glyph-name="emdash" unicode="&#x2014;" horiz-adv-x="625" 
d="M620 341l-22 -99h-561l23 99h560z" />
    <glyph glyph-name="AE" unicode="&#xc6;" horiz-adv-x="712" 
d="M786 706l-25 -109h-207l-38 -163h205l-25 -106h-204l-51 -219h240l-25 -109h-370l34 146h-131l-83 -146h-151l429 706h402zM417 560l-169 -307h96z" />
    <glyph glyph-name="ordfeminine" unicode="&#xaa;" horiz-adv-x="282" 
d="M296 361h-87c-3 6 -4 9 -4 15c0 5 0 8 2 17c-19 -26 -42 -39 -68 -39c-42 0 -64 26 -64 72c0 74 35 119 88 140l90 35l4 17c2 8 3 18 3 24c0 13 -10 21 -26 21s-26 -9 -30 -30l-5 -24h-77l6 26c15 65 43 89 113 89c66 0 103 -24 103 -66c0 -14 -2 -32 -9 -60l-35 -150
c-8 -34 -10 -50 -10 -63c0 -12 1 -16 6 -24zM215 442l21 88c-41 -17 -52 -23 -62 -38c-8 -11 -14 -32 -14 -46s7 -22 19 -22c9 0 19 5 36 18z" />
    <glyph glyph-name="Lslash" unicode="&#x141;" horiz-adv-x="375" 
d="M363 587l-31 -135l-126 -122l-51 -223h191l-25 -107h-321l47 203l-67 -65l30 135l67 63l86 370h130l-56 -240z" />
    <glyph glyph-name="Oslash" unicode="&#xd8;" horiz-adv-x="479" 
d="M562 664l-50 -60c1 -8 1 -11 1 -17c0 -18 -4 -45 -10 -71l-74 -323c-15 -64 -24 -93 -39 -119c-33 -58 -96 -89 -180 -89c-85 0 -133 25 -156 54l-28 -35l-51 43l54 65v11c0 22 3 46 12 84l75 323c35 152 99 192 218 192c67 0 117 -18 150 -52l28 33zM198 319l180 221
c4 16 4 22 4 32c0 33 -21 51 -56 51c-41 0 -62 -21 -75 -76zM344 392l-179 -215c-4 -17 -6 -32 -6 -44c0 -29 22 -46 59 -46c53 0 63 31 78 96z" />
    <glyph glyph-name="OE" unicode="&#x152;" horiz-adv-x="688" 
d="M753 706l-26 -109h-206l-38 -165h203l-24 -104h-203l-50 -217h231l-26 -111h-305l7 34c-38 -34 -80 -49 -138 -49c-94 0 -153 48 -153 125c0 23 4 42 18 102l72 312c33 142 90 197 205 197c68 0 105 -16 142 -59l10 44h281zM292 171l78 341c7 32 11 50 11 62
c0 29 -21 47 -56 47c-43 0 -60 -13 -81 -106l-77 -335c-6 -26 -7 -32 -7 -42c0 -31 20 -48 58 -48c42 0 61 22 74 81z" />
    <glyph glyph-name="ordmasculine" unicode="&#xba;" horiz-adv-x="282" 
d="M349 614l-37 -154c-18 -74 -55 -105 -124 -105c-70 0 -109 28 -109 79c0 10 2 20 6 38l36 150c17 70 57 103 128 103c65 0 104 -29 104 -76c0 -10 -1 -22 -4 -35zM224 449l39 163c3 13 5 23 5 29c0 15 -9 23 -26 23c-21 0 -29 -17 -34 -35l-41 -167c-3 -11 -3 -16 -3 -22
c0 -13 10 -22 26 -22c18 0 29 11 34 31z" />
    <glyph glyph-name="ae" unicode="&#xe6;" horiz-adv-x="583" 
d="M550 231h-203l-17 -73c-7 -29 -7 -32 -7 -42c0 -21 14 -33 37 -33c27 0 41 16 51 55l8 31h115l-4 -19c-22 -106 -64 -160 -174 -160c-67 0 -107 17 -132 58c-38 -39 -79 -58 -126 -58c-65 0 -95 30 -95 95c0 123 53 181 142 215l114 44l6 24c5 21 6 30 6 37
c0 21 -13 32 -38 32c-39 0 -45 -35 -52 -72l-2 -10h-109l7 32c20 92 64 134 165 134c41 0 77 -8 103 -21c37 16 58 20 95 20c95 0 145 -39 145 -115c0 -17 -3 -37 -11 -70zM451 312l12 55c3 13 4 20 4 26c0 22 -13 33 -37 33c-27 0 -42 -14 -50 -51l-14 -63h85zM211 114
l26 134c-62 -26 -77 -35 -92 -55c-13 -18 -23 -53 -23 -78c0 -21 10 -32 27 -32c16 0 36 10 62 31z" />
    <glyph glyph-name="dotlessi" unicode="&#x131;" horiz-adv-x="208" 
d="M232 508l-117 -508h-120l117 508h120z" />
    <glyph glyph-name="lslash" unicode="&#x142;" horiz-adv-x="208" 
d="M288 549l-26 -112l-60 -60l-87 -377h-120l61 263l-61 -63l26 112l61 62l76 332h120l-50 -216z" />
    <glyph glyph-name="oslash" unicode="&#xf8;" 
d="M407 507l35 -34l-45 -46v-12c0 -16 -2 -34 -6 -53l-51 -222c-24 -106 -76 -152 -173 -152c-60 0 -103 16 -130 48l-35 -35l-35 31l50 55v16c0 17 2 31 7 55l50 215c24 101 82 148 178 148c57 0 94 -14 124 -47zM162 243l113 122l2 8c4 18 5 27 5 35c0 21 -13 33 -36 33
c-28 0 -42 -19 -48 -46zM254 274l-113 -126l-4 -15c-4 -15 -5 -23 -5 -31c0 -20 14 -32 37 -32c27 0 41 14 52 62z" />
    <glyph glyph-name="oe" unicode="&#x153;" horiz-adv-x="593" 
d="M560 228h-203l-18 -77c-6 -27 -7 -32 -7 -42c0 -21 14 -33 37 -33c27 0 41 15 51 55l9 35h115l-4 -19c-22 -105 -64 -160 -176 -160c-50 0 -75 8 -101 26c-32 -18 -60 -25 -98 -25c-95 0 -149 42 -149 115c0 15 2 29 8 55l50 215c24 102 81 148 178 148
c38 0 75 -11 99 -29c31 18 63 26 103 26c92 0 141 -41 141 -115c0 -18 -3 -37 -11 -71zM461 310l13 59c3 14 4 20 4 26c0 21 -13 33 -37 33c-27 0 -42 -15 -50 -51l-15 -67h85zM220 129l55 236c5 20 7 33 7 42c0 21 -13 33 -36 33c-33 0 -42 -24 -51 -61l-57 -246
c-4 -16 -5 -24 -5 -32c0 -19 15 -31 37 -31c28 0 40 14 50 59z" />
    <glyph glyph-name="germandbls" unicode="&#xdf;" horiz-adv-x="417" 
d="M114 0h-119l135 582c22 95 65 139 171 139c93 0 147 -38 147 -105c0 -14 -2 -31 -6 -47l-9 -41c-15 -69 -34 -88 -93 -95c52 -10 72 -29 72 -67c0 -12 -3 -35 -8 -55l-41 -179c-11 -48 -31 -141 -155 -141c-19 0 -37 2 -67 9l17 69c11 -2 15 -2 23 -2c34 0 52 14 63 62
l42 181c3 13 4 25 4 34c0 23 -16 34 -48 34h-18l19 81h14c43 0 57 11 67 55l13 55c3 13 4 23 4 31c0 22 -16 35 -43 35c-19 0 -39 -4 -48 -44z" />
    <glyph glyph-name="Euro" unicode="&#x20ac;" horiz-adv-x="481" 
d="M554 657l-49 -105c-33 37 -64 50 -108 50c-55 0 -79 -16 -103 -119l-11 -47h167l-30 -67h-152l-12 -49h139l-29 -67h-125l-11 -48c-5 -22 -7 -37 -7 -51c0 -44 24 -66 73 -66c44 0 83 14 141 56l-29 -126c-45 -19 -99 -33 -159 -33c-102 0 -162 50 -162 135
c0 26 4 50 16 102l7 31h-59l29 67h45l11 48h-61l31 68h46l12 49c25 101 44 145 86 178c34 26 78 39 135 39c65 0 117 -14 169 -45z" />
    <glyph glyph-name="Ydieresis" unicode="&#x178;" horiz-adv-x="417" 
d="M513 883l-28 -121h-116l28 121h116zM313 883l-28 -121h-117l28 121h117zM528 706l-255 -497l-49 -209h-133l51 218l-29 488h133c-3 -131 -6 -356 -6 -356l148 356h140z" />
    <glyph glyph-name="trademark" unicode="&#x2122;" horiz-adv-x="631" 
d="M669 706l-77 -331h-64l63 262l-116 -262h-51c2 53 8 266 8 266l-60 -266h-65l78 331h96s-2 -157 -3 -212l95 212h96zM354 706l-14 -61h-73l-62 -270h-68l62 270h-75l15 61h215z" />
    <glyph glyph-name="zcaron" unicode="&#x17e;" horiz-adv-x="354" 
d="M383 508l-22 -95l-242 -314h183l-23 -99h-309l23 99l244 314h-158l23 95h281zM422 707l-116 -132h-129l-57 132h101l27 -73l65 73h109z" />
    <glyph glyph-name="Zcaron" unicode="&#x17d;" horiz-adv-x="417" 
d="M493 894l-110 -133h-129l-62 133h99l34 -73l58 73h110zM496 706l-16 -70l-333 -526h217l-25 -110h-369l19 82l323 515h-185l26 109h343z" />
    <glyph glyph-name="scaron" unicode="&#x161;" horiz-adv-x="375" 
d="M370 347h-103l8 36c2 9 3 16 3 23c0 22 -13 33 -38 33c-31 0 -50 -24 -50 -63c0 -16 6 -27 22 -40l58 -48c43 -36 61 -70 61 -119c0 -115 -66 -179 -184 -179c-91 0 -139 34 -139 100c0 21 1 27 11 71l4 18h110l-6 -24c-5 -19 -7 -35 -7 -45c0 -21 15 -35 39 -35
c35 0 59 33 59 80c0 23 -8 35 -46 67l-45 38c-36 30 -53 65 -53 106c0 95 68 154 176 154c84 0 134 -35 134 -96c0 -11 -2 -24 -5 -37zM429 707l-116 -132h-129l-57 132h101l27 -73l65 73h109z" />
    <glyph glyph-name="Scaron" unicode="&#x160;" horiz-adv-x="448" 
d="M495 894l-110 -133h-129l-62 133h99l34 -73l58 73h110zM472 499h-130l11 49c3 12 4 22 4 32c0 26 -16 42 -50 42c-62 0 -74 -82 -74 -106c0 -26 7 -43 24 -57l82 -69c66 -56 77 -85 77 -141c0 -33 -12 -89 -29 -138c-30 -86 -92 -126 -197 -126c-116 0 -181 47 -181 129
c0 18 1 32 11 73l15 62h129l-14 -57c-7 -29 -10 -52 -10 -63c0 -27 23 -44 58 -44c23 0 44 9 53 25c21 36 31 97 31 118c0 27 -13 52 -41 74l-70 56c-43 35 -69 70 -69 128s18 118 50 163c34 49 88 72 165 72c114 0 174 -40 174 -116c0 -14 -2 -29 -6 -46z" />
    <glyph glyph-name="ydieresis" unicode="&#xff;" horiz-adv-x="354" 
d="M418 508l-257 -575c-33 -75 -67 -110 -153 -110c-30 0 -54 3 -83 9l39 93c19 -5 30 -7 42 -7c35 0 59 26 75 81c0 0 -12 453 -14 509h116c-3 -64 -8 -327 -8 -327l124 327h119zM437 715l-28 -120h-116l28 120h116zM240 715l-28 -120h-117l28 120h117z" />
    <glyph glyph-name="thorn" unicode="&#xfe;" horiz-adv-x="417" 
d="M157 706h120l-58 -245c28 39 61 57 104 57c61 0 96 -33 96 -92c0 -19 -3 -40 -13 -83l-47 -205c-27 -117 -76 -149 -143 -149c-46 0 -76 17 -93 55l-51 -220h-119zM243 145l45 199c5 21 6 28 6 38c0 22 -14 35 -38 35c-31 0 -50 -17 -63 -72l-46 -198
c-3 -13 -4 -20 -4 -27c0 -26 16 -41 43 -41c30 0 46 18 57 66z" />
    <glyph glyph-name="yacute" unicode="&#xfd;" horiz-adv-x="354" 
d="M418 508l-257 -575c-33 -75 -67 -110 -153 -110c-30 0 -54 3 -83 9l39 93c19 -5 30 -7 42 -7c35 0 59 26 75 81c0 0 -12 453 -14 509h116c-3 -64 -8 -327 -8 -327l124 327h119zM422 706l-146 -132h-90l90 132h146z" />
    <glyph glyph-name="udieresis" unicode="&#xfc;" horiz-adv-x="417" 
d="M437 508l-117 -508h-121l9 37c-28 -32 -62 -47 -103 -47c-57 0 -92 31 -92 82c0 16 4 45 13 84l82 352h118l-84 -364c-3 -14 -5 -24 -5 -32c0 -24 13 -37 36 -37c31 0 50 20 61 68l84 365h119zM470 715l-28 -120h-116l28 120h116zM273 715l-28 -120h-117l28 120h117z" />
    <glyph glyph-name="ucircumflex" unicode="&#xfb;" horiz-adv-x="417" 
d="M437 508l-117 -508h-121l9 37c-28 -32 -62 -47 -103 -47c-57 0 -92 31 -92 82c0 16 4 45 13 84l82 352h118l-84 -364c-3 -14 -5 -24 -5 -32c0 -24 13 -37 36 -37c31 0 50 20 61 68l84 365h119zM430 574h-100l-27 73l-65 -73h-110l117 132h129z" />
    <glyph glyph-name="uacute" unicode="&#xfa;" horiz-adv-x="417" 
d="M437 508l-117 -508h-121l9 37c-28 -32 -62 -47 -103 -47c-57 0 -92 31 -92 82c0 16 4 45 13 84l82 352h118l-84 -364c-3 -14 -5 -24 -5 -32c0 -24 13 -37 36 -37c31 0 50 20 61 68l84 365h119zM441 706l-146 -132h-90l90 132h146z" />
    <glyph glyph-name="ugrave" unicode="&#xf9;" horiz-adv-x="417" 
d="M437 508l-117 -508h-121l9 37c-28 -32 -62 -47 -103 -47c-57 0 -92 31 -92 82c0 16 4 45 13 84l82 352h118l-84 -364c-3 -14 -5 -24 -5 -32c0 -24 13 -37 36 -37c31 0 50 20 61 68l84 365h119zM351 574h-86l-134 132h153z" />
    <glyph glyph-name="divide" unicode="&#xf7;" horiz-adv-x="559" 
d="M410 533l-29 -128h-112l29 128h112zM517 349l-23 -101h-410l23 101h410zM333 192l-29 -128h-112l29 128h112z" />
    <glyph glyph-name="odieresis" unicode="&#xf6;" 
d="M391 362l-51 -222c-24 -106 -76 -152 -173 -152c-98 0 -151 41 -151 115c0 15 2 29 8 55l50 215c24 101 81 148 178 148c91 0 145 -41 145 -109c0 -14 -2 -31 -6 -50zM220 130l54 237c5 20 7 32 7 41c0 21 -13 33 -35 33c-34 0 -41 -17 -54 -74l-54 -233
c-4 -16 -5 -23 -5 -31c0 -20 14 -32 36 -32c28 0 41 14 51 59zM454 715l-28 -120h-116l28 120h116zM257 715l-28 -120h-117l28 120h117z" />
    <glyph glyph-name="otilde" unicode="&#xf5;" 
d="M391 362l-51 -222c-24 -106 -76 -152 -173 -152c-98 0 -151 41 -151 115c0 15 2 29 8 55l50 215c24 101 81 148 178 148c91 0 145 -41 145 -109c0 -14 -2 -31 -6 -50zM220 130l54 237c5 20 7 32 7 41c0 21 -13 33 -35 33c-34 0 -41 -17 -54 -74l-54 -233
c-4 -16 -5 -23 -5 -31c0 -20 14 -32 36 -32c28 0 41 14 51 59zM375 698h60c-18 -86 -49 -126 -98 -126c-43 0 -84 44 -123 44c-20 0 -32 -11 -45 -42h-60c17 78 58 125 111 125c48 0 92 -43 118 -43c17 0 27 11 37 42z" />
    <glyph glyph-name="ocircumflex" unicode="&#xf4;" 
d="M391 362l-51 -222c-24 -106 -76 -152 -173 -152c-98 0 -151 41 -151 115c0 15 2 29 8 55l50 215c24 101 81 148 178 148c91 0 145 -41 145 -109c0 -14 -2 -31 -6 -50zM220 130l54 237c5 20 7 32 7 41c0 21 -13 33 -35 33c-34 0 -41 -17 -54 -74l-54 -233
c-4 -16 -5 -23 -5 -31c0 -20 14 -32 36 -32c28 0 41 14 51 59zM413 574h-100l-27 73l-65 -73h-110l117 132h129z" />
    <glyph glyph-name="oacute" unicode="&#xf3;" 
d="M391 362l-51 -222c-24 -106 -76 -152 -173 -152c-98 0 -151 41 -151 115c0 15 2 29 8 55l50 215c24 101 81 148 178 148c91 0 145 -41 145 -109c0 -14 -2 -31 -6 -50zM220 130l54 237c5 20 7 32 7 41c0 21 -13 33 -35 33c-34 0 -41 -17 -54 -74l-54 -233
c-4 -16 -5 -23 -5 -31c0 -20 14 -32 36 -32c28 0 41 14 51 59zM435 706l-146 -132h-90l90 132h146z" />
    <glyph glyph-name="ograve" unicode="&#xf2;" 
d="M391 362l-51 -222c-24 -106 -76 -152 -173 -152c-98 0 -151 41 -151 115c0 15 2 29 8 55l50 215c24 101 81 148 178 148c91 0 145 -41 145 -109c0 -14 -2 -31 -6 -50zM220 130l54 237c5 20 7 32 7 41c0 21 -13 33 -35 33c-34 0 -41 -17 -54 -74l-54 -233
c-4 -16 -5 -23 -5 -31c0 -20 14 -32 36 -32c28 0 41 14 51 59zM330 574h-86l-134 132h153z" />
    <glyph glyph-name="ntilde" unicode="&#xf1;" horiz-adv-x="417" 
d="M112 508h121l-10 -37c29 32 62 47 104 47c57 0 92 -31 92 -82c0 -16 -5 -45 -14 -84l-81 -352h-118l84 364c3 14 5 24 5 32c0 24 -13 37 -36 37c-32 0 -50 -20 -61 -68l-84 -365h-119zM391 698h60c-18 -86 -49 -126 -98 -126c-43 0 -84 44 -123 44c-20 0 -32 -11 -45 -42
h-60c17 78 58 125 111 125c48 0 92 -43 118 -43c17 0 27 11 37 42z" />
    <glyph glyph-name="eth" unicode="&#xf0;" 
d="M402 660l-53 -33c33 -52 51 -111 51 -173c0 -32 -5 -73 -13 -109l-47 -205c-24 -106 -76 -152 -173 -152c-98 0 -151 41 -151 115c0 15 2 29 8 55l46 198c24 103 86 147 156 147c28 0 47 -6 66 -23c-6 42 -12 63 -27 95l-76 -46l-27 44l78 48l-4 5c-24 30 -33 45 -53 65
l71 45c26 -19 48 -41 66 -66l57 35zM220 130l50 220c5 20 7 33 7 42c0 21 -13 32 -35 32c-26 0 -41 -15 -49 -51l-55 -239c-4 -16 -5 -23 -5 -31c0 -20 14 -32 36 -32c28 0 41 14 51 59z" />
    <glyph glyph-name="idieresis" unicode="&#xef;" horiz-adv-x="208" 
d="M232 508l-117 -508h-120l117 508h120zM365 715l-28 -120h-116l28 120h116zM168 715l-28 -120h-117l28 120h117z" />
    <glyph glyph-name="icircumflex" unicode="&#xee;" horiz-adv-x="208" 
d="M232 508l-117 -508h-120l117 508h120zM330 574h-100l-27 73l-65 -73h-110l117 132h129z" />
    <glyph glyph-name="iacute" unicode="&#xed;" horiz-adv-x="208" 
d="M232 508l-117 -508h-120l117 508h120zM345 706l-146 -132h-90l90 132h146z" />
    <glyph glyph-name="igrave" unicode="&#xec;" horiz-adv-x="208" 
d="M232 508l-117 -508h-120l117 508h120zM252 574h-86l-134 132h153z" />
    <glyph glyph-name="edieresis" unicode="&#xeb;" 
d="M363 230h-203l-22 -101c-1 -5 -2 -11 -2 -16c0 -20 11 -34 38 -34s41 16 50 55l8 34h115l-4 -19c-22 -106 -64 -160 -175 -160c-97 0 -148 40 -148 117c0 21 4 47 16 100l37 167c19 87 64 146 182 146c93 0 143 -39 143 -114c0 -18 -3 -38 -11 -71zM264 311l13 61
c3 13 4 20 4 26c0 21 -12 33 -36 33c-28 0 -41 -14 -50 -51l-16 -69h85zM450 715l-28 -120h-116l28 120h116zM253 715l-28 -120h-117l28 120h117z" />
    <glyph glyph-name="ecircumflex" unicode="&#xea;" 
d="M363 230h-203l-22 -101c-1 -5 -2 -11 -2 -16c0 -20 11 -34 38 -34s41 16 50 55l8 34h115l-4 -19c-22 -106 -64 -160 -175 -160c-97 0 -148 40 -148 117c0 21 4 47 16 100l37 167c19 87 64 146 182 146c93 0 143 -39 143 -114c0 -18 -3 -38 -11 -71zM264 311l13 61
c3 13 4 20 4 26c0 21 -12 33 -36 33c-28 0 -41 -14 -50 -51l-16 -69h85zM414 574h-100l-27 73l-65 -73h-110l117 132h129z" />
    <glyph glyph-name="eacute" unicode="&#xe9;" 
d="M363 230h-203l-22 -101c-1 -5 -2 -11 -2 -16c0 -20 11 -34 38 -34s41 16 50 55l8 34h115l-4 -19c-22 -106 -64 -160 -175 -160c-97 0 -148 40 -148 117c0 21 4 47 16 100l37 167c19 87 64 146 182 146c93 0 143 -39 143 -114c0 -18 -3 -38 -11 -71zM264 311l13 61
c3 13 4 20 4 26c0 21 -12 33 -36 33c-28 0 -41 -14 -50 -51l-16 -69h85zM432 706l-146 -132h-90l90 132h146z" />
    <glyph glyph-name="egrave" unicode="&#xe8;" 
d="M363 230h-203l-22 -101c-1 -5 -2 -11 -2 -16c0 -20 11 -34 38 -34s41 16 50 55l8 34h115l-4 -19c-22 -106 -64 -160 -175 -160c-97 0 -148 40 -148 117c0 21 4 47 16 100l37 167c19 87 64 146 182 146c93 0 143 -39 143 -114c0 -18 -3 -38 -11 -71zM264 311l13 61
c3 13 4 20 4 26c0 21 -12 33 -36 33c-28 0 -41 -14 -50 -51l-16 -69h85zM322 574h-86l-134 132h153z" />
    <glyph glyph-name="ccedilla" unicode="&#xe7;" 
d="M390 317h-117l11 45c5 22 6 30 6 39c0 22 -15 35 -40 35c-22 0 -44 -5 -59 -69l-49 -209c-6 -26 -8 -37 -8 -46c0 -21 17 -34 43 -34c30 0 43 15 55 65l14 59h117l-9 -40c-17 -77 -30 -106 -53 -130c-28 -29 -69 -43 -124 -44l-8 -39c57 -3 86 -24 86 -62
c0 -49 -41 -76 -115 -76c-42 0 -82 7 -104 17l9 29c24 -4 33 -5 47 -5c29 0 45 10 45 29c0 14 -7 22 -25 28l21 82c-78 11 -114 47 -114 113c0 18 3 39 9 67l44 194c30 131 103 156 181 156c99 0 155 -38 155 -106c0 -16 -4 -37 -9 -59z" />
    <glyph glyph-name="aring" unicode="&#xe5;" 
d="M321 0h-125c-5 7 -6 12 -6 22c0 6 0 11 2 23c-28 -38 -62 -56 -102 -56c-56 0 -87 33 -87 94c0 67 21 132 53 164c24 24 71 46 89 53l114 44l6 24c5 21 6 30 6 37c0 21 -13 32 -38 32c-34 0 -43 -25 -51 -67l-3 -15h-109l7 33c20 94 68 133 165 133c94 0 149 -35 149 -96
c0 -19 -4 -43 -14 -85l-50 -215c-10 -45 -16 -68 -16 -91c0 -17 2 -23 10 -34zM204 108l32 139c-61 -25 -76 -34 -91 -54c-13 -18 -23 -53 -23 -78c0 -22 10 -33 28 -33c14 0 28 7 54 26zM353 663c0 -49 -41 -90 -90 -90s-90 39 -90 88c0 51 39 91 90 91s90 -38 90 -89z
M304 662c0 24 -18 43 -40 43c-24 0 -43 -19 -43 -43c0 -23 18 -42 41 -42s42 18 42 42z" />
    <glyph glyph-name="adieresis" unicode="&#xe4;" 
d="M321 0h-125c-5 7 -6 12 -6 22c0 6 0 11 2 23c-28 -38 -62 -56 -102 -56c-56 0 -87 33 -87 94c0 67 21 132 53 164c24 24 71 46 89 53l114 44l6 24c5 21 6 30 6 37c0 21 -13 32 -38 32c-34 0 -43 -25 -51 -67l-3 -15h-109l7 33c20 94 68 133 165 133c94 0 149 -35 149 -96
c0 -19 -4 -43 -14 -85l-50 -215c-10 -45 -16 -68 -16 -91c0 -17 2 -23 10 -34zM204 108l32 139c-61 -25 -76 -34 -91 -54c-13 -18 -23 -53 -23 -78c0 -22 10 -33 28 -33c14 0 28 7 54 26zM448 715l-28 -120h-116l28 120h116zM251 715l-28 -120h-117l28 120h117z" />
    <glyph glyph-name="atilde" unicode="&#xe3;" 
d="M321 0h-125c-5 7 -6 12 -6 22c0 6 0 11 2 23c-28 -38 -62 -56 -102 -56c-56 0 -87 33 -87 94c0 67 21 132 53 164c24 24 71 46 89 53l114 44l6 24c5 21 6 30 6 37c0 21 -13 32 -38 32c-34 0 -43 -25 -51 -67l-3 -15h-109l7 33c20 94 68 133 165 133c94 0 149 -35 149 -96
c0 -19 -4 -43 -14 -85l-50 -215c-10 -45 -16 -68 -16 -91c0 -17 2 -23 10 -34zM204 108l32 139c-61 -25 -76 -34 -91 -54c-13 -18 -23 -53 -23 -78c0 -22 10 -33 28 -33c14 0 28 7 54 26zM375 698h60c-18 -86 -49 -126 -98 -126c-43 0 -84 44 -123 44c-20 0 -32 -11 -45 -42
h-60c17 78 58 125 111 125c48 0 92 -43 118 -43c17 0 27 11 37 42z" />
    <glyph glyph-name="acircumflex" unicode="&#xe2;" 
d="M321 0h-125c-5 7 -6 12 -6 22c0 6 0 11 2 23c-28 -38 -62 -56 -102 -56c-56 0 -87 33 -87 94c0 67 21 132 53 164c24 24 71 46 89 53l114 44l6 24c5 21 6 30 6 37c0 21 -13 32 -38 32c-34 0 -43 -25 -51 -67l-3 -15h-109l7 33c20 94 68 133 165 133c94 0 149 -35 149 -96
c0 -19 -4 -43 -14 -85l-50 -215c-10 -45 -16 -68 -16 -91c0 -17 2 -23 10 -34zM204 108l32 139c-61 -25 -76 -34 -91 -54c-13 -18 -23 -53 -23 -78c0 -22 10 -33 28 -33c14 0 28 7 54 26zM409 574h-100l-27 73l-65 -73h-110l117 132h129z" />
    <glyph glyph-name="aacute" unicode="&#xe1;" 
d="M321 0h-125c-5 7 -6 12 -6 22c0 6 0 11 2 23c-28 -38 -62 -56 -102 -56c-56 0 -87 33 -87 94c0 67 21 132 53 164c24 24 71 46 89 53l114 44l6 24c5 21 6 30 6 37c0 21 -13 32 -38 32c-34 0 -43 -25 -51 -67l-3 -15h-109l7 33c20 94 68 133 165 133c94 0 149 -35 149 -96
c0 -19 -4 -43 -14 -85l-50 -215c-10 -45 -16 -68 -16 -91c0 -17 2 -23 10 -34zM204 108l32 139c-61 -25 -76 -34 -91 -54c-13 -18 -23 -53 -23 -78c0 -22 10 -33 28 -33c14 0 28 7 54 26zM431 706l-146 -132h-90l90 132h146z" />
    <glyph glyph-name="agrave" unicode="&#xe0;" 
d="M321 0h-125c-5 7 -6 12 -6 22c0 6 0 11 2 23c-28 -38 -62 -56 -102 -56c-56 0 -87 33 -87 94c0 67 21 132 53 164c24 24 71 46 89 53l114 44l6 24c5 21 6 30 6 37c0 21 -13 32 -38 32c-34 0 -43 -25 -51 -67l-3 -15h-109l7 33c20 94 68 133 165 133c94 0 149 -35 149 -96
c0 -19 -4 -43 -14 -85l-50 -215c-10 -45 -16 -68 -16 -91c0 -17 2 -23 10 -34zM204 108l32 139c-61 -25 -76 -34 -91 -54c-13 -18 -23 -53 -23 -78c0 -22 10 -33 28 -33c14 0 28 7 54 26zM323 574h-86l-134 132h153z" />
    <glyph glyph-name="Thorn" unicode="&#xde;" horiz-adv-x="457" 
d="M163 706h131l-33 -141h84c63 0 135 -17 135 -108c0 -19 -3 -44 -8 -63l-30 -128c-18 -79 -74 -113 -157 -113h-118l-36 -153h-131zM238 461l-48 -207h63c52 0 61 10 73 63l17 72c3 14 5 25 5 33c0 28 -15 39 -54 39h-56z" />
    <glyph glyph-name="Yacute" unicode="&#xdd;" horiz-adv-x="417" 
d="M491 897l-144 -134h-92l81 134h155zM528 706l-255 -497l-49 -209h-133l51 218l-29 488h133c-3 -131 -6 -356 -6 -356l148 356h140z" />
    <glyph glyph-name="Udieresis" unicode="&#xdc;" horiz-adv-x="476" 
d="M543 883l-28 -121h-116l28 121h116zM343 883l-28 -121h-117l28 121h117zM540 706l-126 -547c-28 -121 -94 -174 -216 -174c-110 0 -169 47 -169 135c0 22 3 37 13 81l116 505h130l-118 -512c-6 -28 -9 -42 -9 -51c0 -30 20 -47 55 -47c39 0 57 21 72 86l121 524h131z" />
    <glyph glyph-name="Ucircumflex" unicode="&#xdb;" horiz-adv-x="476" 
d="M505 762h-99l-34 73l-58 -73h-110l110 133h129zM540 706l-126 -547c-28 -121 -94 -174 -216 -174c-110 0 -169 47 -169 135c0 22 3 37 13 81l116 505h130l-118 -512c-6 -28 -9 -42 -9 -51c0 -30 20 -47 55 -47c39 0 57 21 72 86l121 524h131z" />
    <glyph glyph-name="Uacute" unicode="&#xda;" horiz-adv-x="476" 
d="M516 897l-144 -134h-92l81 134h155zM540 706l-126 -547c-28 -121 -94 -174 -216 -174c-110 0 -169 47 -169 135c0 22 3 37 13 81l116 505h130l-118 -512c-6 -28 -9 -42 -9 -51c0 -30 20 -47 55 -47c39 0 57 21 72 86l121 524h131z" />
    <glyph glyph-name="Ugrave" unicode="&#xd9;" horiz-adv-x="476" 
d="M424 762h-87l-114 133h147zM540 706l-126 -547c-28 -121 -94 -174 -216 -174c-110 0 -169 47 -169 135c0 22 3 37 13 81l116 505h130l-118 -512c-6 -28 -9 -42 -9 -51c0 -30 20 -47 55 -47c39 0 57 21 72 86l121 524h131z" />
    <glyph glyph-name="multiply" unicode="&#xd7;" horiz-adv-x="558" 
d="M464 401l-112 -111l80 -129l-92 -67l-70 116l-102 -101l-63 79l111 110l-79 130l91 66l70 -116l102 102z" />
    <glyph glyph-name="Odieresis" unicode="&#xd6;" horiz-adv-x="479" 
d="M537 883l-28 -121h-116l28 121h116zM337 883l-28 -121h-117l28 121h117zM503 516l-79 -344c-24 -104 -65 -187 -216 -187c-119 0 -179 47 -179 138c0 23 3 45 12 84l75 322c32 138 84 193 216 193c116 0 181 -49 181 -137c0 -19 -4 -42 -10 -69zM295 180l80 344
c7 29 7 36 7 49c0 32 -21 50 -56 50c-43 0 -61 -14 -79 -93l-78 -338c-8 -35 -10 -45 -10 -56c0 -32 21 -49 59 -49c55 0 64 37 77 93z" />
    <glyph glyph-name="Otilde" unicode="&#xd5;" horiz-adv-x="479" 
d="M472 886h61c-21 -89 -50 -127 -102 -127c-19 0 -38 7 -62 19l-30 15c-19 10 -25 12 -37 12c-21 0 -36 -14 -45 -42h-67c21 83 54 124 112 124c23 0 39 -7 57 -15l43 -20c12 -6 21 -9 30 -9c18 0 27 9 40 43zM503 516l-79 -344c-24 -104 -65 -187 -216 -187
c-119 0 -179 47 -179 138c0 23 3 45 12 84l75 322c32 138 84 193 216 193c116 0 181 -49 181 -137c0 -19 -4 -42 -10 -69zM295 180l80 344c7 29 7 36 7 49c0 32 -21 50 -56 50c-43 0 -61 -14 -79 -93l-78 -338c-8 -35 -10 -45 -10 -56c0 -32 21 -49 59 -49c55 0 64 37 77 93
z" />
    <glyph glyph-name="Ocircumflex" unicode="&#xd4;" horiz-adv-x="479" 
d="M499 762h-99l-34 73l-58 -73h-110l110 133h129zM503 516l-79 -344c-24 -104 -65 -187 -216 -187c-119 0 -179 47 -179 138c0 23 3 45 12 84l75 322c32 138 84 193 216 193c116 0 181 -49 181 -137c0 -19 -4 -42 -10 -69zM295 180l80 344c7 29 7 36 7 49
c0 32 -21 50 -56 50c-43 0 -61 -14 -79 -93l-78 -338c-8 -35 -10 -45 -10 -56c0 -32 21 -49 59 -49c55 0 64 37 77 93z" />
    <glyph glyph-name="Oacute" unicode="&#xd3;" horiz-adv-x="479" 
d="M515 897l-144 -134h-92l81 134h155zM503 516l-79 -344c-24 -104 -65 -187 -216 -187c-119 0 -179 47 -179 138c0 23 3 45 12 84l75 322c32 138 84 193 216 193c116 0 181 -49 181 -137c0 -19 -4 -42 -10 -69zM295 180l80 344c7 29 7 36 7 49c0 32 -21 50 -56 50
c-43 0 -61 -14 -79 -93l-78 -338c-8 -35 -10 -45 -10 -56c0 -32 21 -49 59 -49c55 0 64 37 77 93z" />
    <glyph glyph-name="Ograve" unicode="&#xd2;" horiz-adv-x="479" 
d="M406 762h-87l-114 133h147zM503 516l-79 -344c-24 -104 -65 -187 -216 -187c-119 0 -179 47 -179 138c0 23 3 45 12 84l75 322c32 138 84 193 216 193c116 0 181 -49 181 -137c0 -19 -4 -42 -10 -69zM295 180l80 344c7 29 7 36 7 49c0 32 -21 50 -56 50
c-43 0 -61 -14 -79 -93l-78 -338c-8 -35 -10 -45 -10 -56c0 -32 21 -49 59 -49c55 0 64 37 77 93z" />
    <glyph glyph-name="Ntilde" unicode="&#xd1;" horiz-adv-x="500" 
d="M500 886h61c-21 -89 -50 -127 -102 -127c-19 0 -38 7 -62 19l-30 15c-19 10 -25 12 -37 12c-21 0 -36 -14 -45 -42h-67c21 83 54 124 112 124c23 0 39 -7 57 -15l43 -20c12 -6 21 -9 30 -9c18 0 27 9 40 43zM563 706l-163 -706h-164c0 88 -3 529 -3 529l-111 -529h-122
l163 706h167c1 -89 7 -518 7 -518l107 518h119z" />
    <glyph glyph-name="Eth" unicode="&#xd0;" horiz-adv-x="479" 
d="M163 706h197c105 0 156 -40 156 -124c0 -19 -4 -44 -15 -91l-77 -332c-31 -133 -106 -159 -213 -159h-211l92 392h-58l18 75h57zM269 603l-30 -136h76l-17 -75h-76l-68 -289h46c65 0 85 12 102 86l76 330c4 18 6 30 6 39c0 33 -18 45 -72 45h-43z" />
    <glyph glyph-name="Idieresis" unicode="&#xcf;" horiz-adv-x="228" 
d="M425 883l-28 -121h-116l28 121h116zM225 883l-28 -121h-117l28 121h117zM292 706l-163 -706h-129l163 706h129z" />
    <glyph glyph-name="Icircumflex" unicode="&#xce;" horiz-adv-x="228" 
d="M386 762h-99l-34 73l-58 -73h-110l110 133h129zM292 706l-163 -706h-129l163 706h129z" />
    <glyph glyph-name="Iacute" unicode="&#xcd;" horiz-adv-x="228" 
d="M398 897l-144 -134h-92l81 134h155zM292 706l-163 -706h-129l163 706h129z" />
    <glyph glyph-name="Igrave" unicode="&#xcc;" horiz-adv-x="228" 
d="M305 762h-87l-114 133h147zM292 706l-163 -706h-129l163 706h129z" />
    <glyph glyph-name="Edieresis" unicode="&#xcb;" horiz-adv-x="417" 
d="M530 883l-28 -121h-116l28 121h116zM330 883l-28 -121h-117l28 121h117zM505 706l-25 -107h-212l-38 -166h200l-25 -107h-200l-50 -217h222l-25 -109h-352l163 706h342z" />
    <glyph glyph-name="Ecircumflex" unicode="&#xca;" horiz-adv-x="417" 
d="M487 762h-99l-34 73l-58 -73h-110l110 133h129zM505 706l-25 -107h-212l-38 -166h200l-25 -107h-200l-50 -217h222l-25 -109h-352l163 706h342z" />
    <glyph glyph-name="Eacute" unicode="&#xc9;" horiz-adv-x="417" 
d="M504 897l-144 -134h-92l81 134h155zM505 706l-25 -107h-212l-38 -166h200l-25 -107h-200l-50 -217h222l-25 -109h-352l163 706h342z" />
    <glyph glyph-name="Egrave" unicode="&#xc8;" horiz-adv-x="417" 
d="M408 762h-87l-114 133h147zM505 706l-25 -107h-212l-38 -166h200l-25 -107h-200l-50 -217h222l-25 -109h-352l163 706h342z" />
    <glyph glyph-name="Ccedilla" unicode="&#xc7;" horiz-adv-x="458" 
d="M447 265l-19 -85c-34 -153 -95 -192 -219 -196l-8 -35c57 -3 86 -24 86 -62c0 -49 -40 -76 -114 -76c-39 0 -79 6 -104 17l9 29c23 -4 33 -5 46 -5c30 0 46 10 46 29c0 14 -8 22 -26 28l20 78c-98 7 -132 56 -132 125c0 23 5 48 11 74l81 348c32 136 94 187 229 187
c109 0 167 -39 167 -113c0 -19 -3 -42 -10 -72l-20 -87h-128l16 72c4 18 8 37 8 53c0 27 -11 47 -53 47s-63 -22 -76 -77l-86 -370c-4 -19 -6 -34 -6 -43c0 -29 19 -45 54 -45c45 0 64 20 79 87l21 92h128z" />
    <glyph glyph-name="Aring" unicode="&#xc5;" horiz-adv-x="437" 
d="M424 829c0 -49 -40 -89 -89 -89s-89 40 -89 90c0 48 40 89 88 89c50 0 90 -40 90 -90zM376 829c0 24 -18 44 -41 44c-24 0 -42 -19 -42 -43s19 -43 42 -43c22 0 41 19 41 42zM249 706h149c-5 -146 -19 -706 -19 -706h-128l8 115h-120l-44 -115h-134zM178 224h90l22 303z
" />
    <glyph glyph-name="Adieresis" unicode="&#xc4;" horiz-adv-x="437" 
d="M516 883l-28 -121h-116l28 121h116zM316 883l-28 -121h-117l28 121h117zM249 706h149c-5 -146 -19 -706 -19 -706h-128l8 115h-120l-44 -115h-134zM178 224h90l22 303z" />
    <glyph glyph-name="Atilde" unicode="&#xc3;" horiz-adv-x="437" 
d="M447 886h61c-21 -89 -50 -127 -102 -127c-19 0 -38 7 -62 19l-30 15c-19 10 -25 12 -37 12c-21 0 -36 -14 -45 -42h-67c21 83 54 124 112 124c23 0 39 -7 57 -15l43 -20c12 -6 21 -9 30 -9c18 0 27 9 40 43zM249 706h149c-5 -146 -19 -706 -19 -706h-128l8 115h-120
l-44 -115h-134zM178 224h90l22 303z" />
    <glyph glyph-name="Acircumflex" unicode="&#xc2;" horiz-adv-x="437" 
d="M473 762h-99l-34 73l-58 -73h-110l110 133h129zM249 706h149c-5 -146 -19 -706 -19 -706h-128l8 115h-120l-44 -115h-134zM178 224h90l22 303z" />
    <glyph glyph-name="Aacute" unicode="&#xc1;" horiz-adv-x="437" 
d="M495 897l-144 -134h-92l81 134h155zM249 706h149c-5 -146 -19 -706 -19 -706h-128l8 115h-120l-44 -115h-134zM178 224h90l22 303z" />
    <glyph glyph-name="Agrave" unicode="&#xc0;" horiz-adv-x="437" 
d="M391 762h-87l-114 133h147zM249 706h149c-5 -146 -19 -706 -19 -706h-128l8 115h-120l-44 -115h-134zM178 224h90l22 303z" />
    <glyph glyph-name="mu" unicode="&#xb5;" horiz-adv-x="445" 
d="M455 508l-88 -383c-14 -62 -16 -66 -16 -91c0 -17 1 -23 10 -34h-125c-5 7 -6 12 -6 22c0 6 0 10 2 20c-14 -33 -28 -45 -55 -45c-22 0 -33 7 -44 28l-46 -201h-119l158 684h118l-81 -355c-3 -15 -5 -25 -5 -32c0 -24 13 -38 36 -38c31 0 49 21 60 69l82 356h119z" />
    <glyph glyph-name="plusminus" unicode="&#xb1;" horiz-adv-x="559" 
d="M525 415l-24 -100h-138l-36 -158h-115l36 158h-141l23 100h141l36 157h115l-36 -157h139zM453 101l-23 -101h-395l23 101h395z" />
    <glyph glyph-name="degree" unicode="&#xb0;" horiz-adv-x="354" 
d="M423 591c0 -89 -72 -162 -160 -162c-89 0 -162 73 -162 162s72 161 160 161c91 0 162 -70 162 -161zM341 593c0 43 -35 79 -78 79c-44 0 -80 -35 -80 -79c0 -43 36 -79 79 -79c44 0 79 35 79 79z" />
    <glyph glyph-name="registered" unicode="&#xae;" horiz-adv-x="819" 
d="M348 585h152c45 0 73 -25 73 -72c0 -9 -1 -18 -3 -27l-10 -45c-11 -50 -28 -69 -71 -77c30 -9 42 -24 42 -53c0 -10 -1 -22 -5 -39l-17 -79c-2 -12 -3 -24 -3 -33c0 -14 1 -19 8 -27h-91c-3 10 -4 14 -4 23c0 8 1 17 4 28l17 80c5 23 6 29 6 35c0 21 -11 29 -38 29h-32
l-43 -195h-83zM777 360c0 -207 -153 -363 -357 -363c-197 0 -355 158 -355 356s158 356 356 356c195 0 356 -157 356 -349zM731 347c0 183 -134 322 -310 322c-171 0 -310 -142 -310 -317c0 -176 136 -315 309 -315c169 0 311 141 311 310zM392 401h31c41 0 46 7 57 53l5 20
c2 8 3 15 3 17c0 18 -10 24 -35 24h-37z" />
    <glyph glyph-name="logicalnot" unicode="&#xac;" horiz-adv-x="559" 
d="M511 348l-65 -285h-115l42 186h-304l23 99h419z" />
    <glyph glyph-name="copyright" unicode="&#xa9;" horiz-adv-x="819" 
d="M567 412h-91l7 31c3 12 5 28 5 35c0 19 -13 29 -37 29c-27 0 -39 -13 -47 -49l-42 -195c-2 -10 -6 -25 -6 -32c0 -18 19 -26 38 -26c31 0 38 16 48 56l10 40h92l-12 -54c-22 -98 -53 -126 -141 -126c-83 0 -131 36 -131 98c0 13 2 23 12 70l38 178c19 90 62 123 158 123
c73 0 114 -31 114 -86c0 -14 -3 -40 -5 -50zM777 360c0 -207 -153 -363 -357 -363c-197 0 -355 158 -355 356s158 356 356 356c195 0 356 -157 356 -349zM731 347c0 183 -134 322 -310 322c-171 0 -310 -142 -310 -317c0 -176 136 -315 309 -315c169 0 311 141 311 310z" />
    <glyph glyph-name="brokenbar" unicode="&#xa6;" horiz-adv-x="205" 
d="M289 763l-92 -402h-115l93 402h114zM167 233l-93 -402h-114l92 402h115z" />
    <glyph glyph-name="minus" unicode="&#x2212;" horiz-adv-x="558" 
d="M522 350l-23 -103h-426l23 103h426z" />
    <glyph glyph-name="threesuperior" unicode="&#xb3;" horiz-adv-x="319" 
d="M77 363h76l-5 -27c-2 -10 -3 -20 -3 -26c0 -20 11 -30 33 -30c24 0 36 14 43 47l11 52c1 6 2 11 2 16c0 27 -16 39 -49 39h-17l13 52h16c40 0 59 8 71 55l7 27c1 5 2 10 2 15c0 19 -11 28 -32 28c-24 0 -34 -10 -43 -45l-8 -32h-76l7 31c17 76 50 108 128 108
c68 0 104 -27 104 -77c0 -8 -2 -17 -4 -27l-6 -29c-12 -59 -39 -73 -83 -77c34 -8 50 -28 50 -62c0 -11 -2 -24 -5 -37l-10 -46c-14 -67 -49 -100 -126 -100c-69 0 -108 28 -108 79c0 12 2 30 6 44z" />
    <glyph glyph-name="twosuperior" unicode="&#xb2;" horiz-adv-x="319" 
d="M271 224h-239c23 98 36 139 132 209c59 43 75 54 84 99l6 30c1 5 3 16 3 21c0 17 -10 26 -31 26c-23 0 -34 -9 -40 -39l-11 -52h-78l12 53c16 69 52 100 119 100c70 0 110 -32 110 -80c0 -8 -1 -18 -3 -28l-6 -33c-9 -51 -29 -78 -65 -108l-70 -58
c-26 -21 -49 -48 -56 -72h147z" />
    <glyph glyph-name="onesuperior" unicode="&#xb9;" horiz-adv-x="319" 
d="M314 665l-101 -441h-81l76 334c-19 -13 -46 -22 -72 -24l15 63c39 11 65 25 102 68h61z" />
    <glyph glyph-name="threequarters" unicode="&#xbe;" horiz-adv-x="708" 
d="M636 693l-423 -738l-59 22l424 739zM73 363h76l-5 -27c-2 -10 -3 -20 -3 -26c0 -20 11 -30 33 -30c24 0 36 14 43 47l11 52c1 6 2 11 2 16c0 27 -16 39 -49 39h-17l13 52h16c40 0 59 8 71 55l7 27c1 5 2 10 2 15c0 19 -11 28 -32 28c-24 0 -34 -10 -43 -45l-8 -32h-76
l7 31c17 76 50 108 128 108c68 0 104 -27 104 -77c0 -8 -2 -17 -4 -27l-6 -29c-12 -59 -39 -73 -83 -77c34 -8 50 -28 50 -62c0 -11 -2 -24 -5 -37l-10 -46c-14 -67 -49 -100 -126 -100c-69 0 -108 28 -108 79c0 12 2 30 6 44zM688 441l-65 -285h34l-17 -69h-33l-20 -87h-76
l20 87h-142l16 65l186 289h97zM601 370l-126 -214h72z" />
    <glyph glyph-name="onehalf" unicode="&#xbd;" horiz-adv-x="708" 
d="M605 692l-422 -738l-59 22l424 739zM301 665l-101 -441h-81l76 334c-19 -13 -46 -22 -72 -24l15 63c39 11 65 25 102 68h61zM622 0h-239c23 98 36 134 132 204c59 43 75 54 84 99l6 30c1 5 3 16 3 21c0 17 -10 26 -31 26c-23 0 -34 -9 -40 -39l-11 -52h-78l12 53
c16 69 52 100 119 100c70 0 110 -32 110 -80c0 -8 -1 -18 -3 -28l-6 -33c-9 -51 -28 -79 -65 -108l-70 -54c-29 -22 -49 -47 -56 -71h147z" />
    <glyph glyph-name="onequarter" unicode="&#xbc;" horiz-adv-x="708" 
d="M614 692l-423 -738l-59 22l424 739zM300 665l-101 -441h-81l76 334c-19 -13 -46 -22 -72 -24l15 63c39 11 65 25 102 68h61zM681 441l-65 -285h34l-17 -69h-33l-20 -87h-76l20 87h-142l16 65l186 289h97zM594 370l-126 -214h72z" />
    <glyph glyph-name="nbspace" unicode="&#xa0;" horiz-adv-x="229" 
 />
    <glyph glyph-name="uni00AD" unicode="&#xad;" horiz-adv-x="314" 
d="M309 341l-23 -99h-249l23 99h249z" />
    </font>
</defs>
</svg>
