<?xml version="1.0" standalone="no"?>
<!DOCTYPE svg PUBLIC "-//W3C//DTD SVG 1.1//EN" "http://www.w3.org/Graphics/SVG/1.1/DTD/svg11.dtd" >
<svg>
<metadata>
Created by FontForge 20120731 at Wed Jul  3 14:21:53 2019
 By www-data
Berthold first published Akzidenz-Grotesk in 1896. The design originates from Royal Grotesk light by Ferdinand Theinhardt who also supplied the regular, medium and bold weights. Throughout the years, Berthold has expanded this extremely popular and versatile family. AG Super was developed in 1968 by Guenter Gerhard Lange and is an excellent choice for headlines. In 2001, Guenter Gerhard Lange added more weights for Berthold including Super Italic and Extra Bold italic.
</metadata>
<defs>
<font id="AkzidenzGroteskBE-BoldExIt" horiz-adv-x="854" >
  <font-face 
    font-family="Akzidenz Grotesk BE BoldEx"
    font-weight="700"
    font-style="italic"
    font-stretch="expanded"
    units-per-em="1000"
    panose-1="2 0 5 5 2 0 0 9 0 4"
    ascent="750"
    descent="-250"
    x-height="530"
    cap-height="706"
    bbox="-255 -246 1762 956"
    underline-thickness="50"
    underline-position="-50"
    slope="-13"
    stemh="157"
    stemv="127"
    unicode-range="U+0020-FB02"
  />
<missing-glyph horiz-adv-x="500" 
d="M0 0v706h500v-706h-500zM250 401l170 255h-340zM280 353l170 -258v516zM80 50h340l-170 258zM50 611v-516l170 258z" />
    <glyph glyph-name="fi" unicode="fi" horiz-adv-x="791" 
d="M820 706l-28 -123h-231l28 123h231zM779 530l-122 -530h-231l123 530h230zM509 706l-29 -127c-15 1 -29 3 -45 3c-51 0 -60 -26 -66 -51l-6 -26h100l-32 -136h-91l-85 -369h-231l85 369h-80l31 135h80l17 71c16 67 47 92 71 106c42 24 87 25 133 25h148z" />
    <glyph glyph-name="fl" unicode="fl" horiz-adv-x="791" 
d="M820 706l-163 -706h-232l163 706h232zM509 706l-29 -127c-15 1 -29 3 -45 3c-51 0 -60 -26 -66 -51l-6 -26h100l-32 -136h-91l-85 -369h-231l85 369h-80l31 135h80l17 71c16 67 47 92 71 106c42 24 87 25 133 25h148z" />
    <glyph glyph-name=".notdef" horiz-adv-x="500" 
d="M0 0v706h500v-706h-500zM250 401l170 255h-340zM280 353l170 -258v516zM80 50h340l-170 258zM50 611v-516l170 258z" />
    <glyph glyph-name="space" unicode=" " horiz-adv-x="390" 
 />
    <glyph glyph-name="exclam" unicode="!" horiz-adv-x="375" 
d="M274 183l-42 -183h-190l42 183h190zM186 706h229l-48 -198l-74 -246h-191l41 258z" />
    <glyph glyph-name="quotedbl" unicode="&#x22;" horiz-adv-x="356" 
d="M450 741l-117 -288h-43s6 232 7 288h153zM261 741l-117 -288h-44s8 250 8 288h153z" />
    <glyph glyph-name="numbersign" unicode="#" horiz-adv-x="692" 
d="M732 530l-28 -124h-137l-30 -96h133l-28 -124h-144l-59 -186h-126l60 186h-129l-59 -186h-123l57 186h-129l28 124h141l30 96h-135l28 124h146l56 176h124l-55 -176h128l55 176h125l-55 -176h126zM441 406h-127l-31 -96h128z" />
    <glyph glyph-name="dollar" unicode="$" horiz-adv-x="833" 
d="M838 485l-238 -13c-22 50 -49 61 -93 75l-29 -125l103 -21c87 -18 208 -53 208 -181c0 -81 -63 -234 -376 -234h-37l-32 -138h-65l32 141c-51 6 -192 21 -273 122c-22 28 -36 64 -48 99l247 12c10 -43 23 -70 108 -90l35 154c-125 20 -298 43 -298 191c0 41 18 81 46 113
c83 97 236 102 348 106l18 73h65l-18 -76c123 -10 263 -49 297 -208zM415 432l27 120c-42 -1 -121 -10 -121 -65c0 -40 52 -48 94 -55zM444 275l-34 -147c104 0 138 43 138 76c0 34 -27 48 -37 53c-15 7 -33 10 -67 18z" />
    <glyph glyph-name="percent" unicode="%" horiz-adv-x="1250" 
d="M569 490c0 -126 -86 -261 -280 -261c-142 0 -227 69 -227 199c0 160 127 263 274 263c128 0 233 -62 233 -201zM419 497c0 41 -15 95 -86 95c-89 0 -122 -115 -122 -178c0 -39 19 -91 82 -91c104 0 126 127 126 174zM1200 252c0 -126 -86 -261 -280 -261
c-142 0 -227 69 -227 199c0 160 127 263 274 263c128 0 233 -62 233 -201zM1050 259c0 41 -15 95 -86 95c-89 0 -122 -115 -122 -178c0 -39 19 -91 82 -91c104 0 126 127 126 174zM913 681l-464 -711l-87 53l468 714z" />
    <glyph glyph-name="ampersand" unicode="&#x26;" 
d="M649 313l175 -26c-38 -70 -85 -123 -151 -167l82 -120h-220l-28 34c-64 -26 -119 -50 -257 -50c-188 0 -255 116 -255 197c0 124 136 191 263 217c-8 15 -35 55 -35 107c0 78 60 169 262 169c211 0 253 -84 253 -145c0 -114 -126 -162 -212 -191l62 -92
c32 25 39 33 61 67zM455 441c61 23 95 39 95 74c0 15 -12 43 -52 43c-38 0 -64 -23 -64 -61c0 -28 16 -48 21 -56zM426 151l-94 135c-5 -2 -43 -10 -67 -25c-33 -21 -42 -50 -42 -65c0 -28 30 -70 96 -70c28 0 53 6 107 25z" />
    <glyph glyph-name="quoteright" unicode="&#x2019;" horiz-adv-x="333" 
d="M141 706h230l-45 -187c-26 -107 -82 -180 -236 -180h-34l19 83c69 5 101 29 117 101h-94z" />
    <glyph glyph-name="parenleft" unicode="(" horiz-adv-x="375" 
d="M350 750l106 -85c-37 -42 -71 -85 -99 -133c-76 -132 -116 -303 -116 -456c0 -77 13 -148 36 -221l-126 -71c-61 130 -112 253 -112 400c0 169 67 314 178 439c41 46 86 87 133 127z" />
    <glyph glyph-name="parenright" unicode=")" horiz-adv-x="375" 
d="M78 679l126 71c61 -130 112 -253 112 -400c0 -246 -135 -414 -311 -566l-106 85c36 41 70 84 98 132c77 130 117 306 117 457c0 77 -13 148 -36 221z" />
    <glyph glyph-name="asterisk" unicode="*" horiz-adv-x="411" 
d="M443 496l-104 -11l41 -89l-96 -47l-46 97l-79 -69l-71 81l74 65l-89 50l52 94l93 -51l23 103l105 -24l-23 -103l109 11z" />
    <glyph glyph-name="plus" unicode="+" horiz-adv-x="772" 
d="M707 384l-37 -163h-196l-46 -194h-205l45 194h-198l38 163h198l45 193h205l-44 -193h195z" />
    <glyph glyph-name="comma" unicode="," horiz-adv-x="333" 
d="M20 183h230l-44 -187c-20 -87 -56 -142 -146 -168c-30 -9 -60 -12 -90 -12h-34l18 83c70 5 102 29 118 101h-94z" />
    <glyph glyph-name="hyphen" unicode="-" horiz-adv-x="415" 
d="M408 403l-41 -175h-356l41 175h356z" />
    <glyph glyph-name="period" unicode="." horiz-adv-x="333" 
d="M252 184l-42 -184h-230l42 184h230z" />
    <glyph glyph-name="slash" unicode="/" horiz-adv-x="354" 
d="M432 706l-296 -706h-198l297 706h197z" />
    <glyph glyph-name="zero" unicode="0" 
d="M824 388c0 -109 -43 -219 -121 -292c-46 -43 -149 -111 -312 -111s-255 69 -296 124c-32 44 -52 105 -52 181c0 138 69 271 185 342c39 24 126 64 250 64c51 0 150 -6 233 -68c80 -59 113 -141 113 -240zM593 401c0 14 0 58 -26 96c-24 35 -57 48 -100 48
c-29 0 -82 -7 -127 -63c-43 -54 -66 -138 -66 -207c0 -42 8 -82 39 -112c13 -13 42 -32 91 -32c133 0 189 159 189 270z" />
    <glyph glyph-name="one" unicode="1" 
d="M660 681l-157 -681h-233l109 472c-77 -23 -92 -26 -169 -30l34 148c114 18 148 35 244 91h172z" />
    <glyph glyph-name="two" unicode="2" 
d="M718 0h-693c15 80 36 130 63 163c45 55 85 103 396 238c53 23 98 46 98 87c0 35 -44 58 -99 58c-53 0 -143 -12 -147 -124c0 0 -191 3 -211 3c13 187 146 273 382 273c125 0 304 -34 304 -184c0 -145 -153 -221 -319 -279c-118 -41 -145 -55 -155 -78h417z" />
    <glyph glyph-name="three" unicode="3" 
d="M14 195l213 15c16 -57 82 -75 145 -75c73 0 150 29 150 83c0 61 -71 63 -104 63c-47 0 -93 -3 -135 -6l31 134c115 5 175 -1 222 40c15 13 21 31 21 42c0 21 -16 58 -91 58c-57 0 -154 -17 -162 -79h-212c5 31 13 89 74 140c81 69 221 87 333 87c230 0 287 -97 287 -168
c0 -92 -78 -134 -188 -160c78 -19 159 -75 159 -165c0 -141 -189 -219 -398 -219c-241 0 -342 85 -345 210z" />
    <glyph glyph-name="four" unicode="4" 
d="M813 282l-36 -158h-139l-29 -124h-230l29 124h-399l36 160l438 397h284l-92 -399h138zM499 511l-249 -229h194z" />
    <glyph glyph-name="five" unicode="5" 
d="M185 681h657l-46 -156h-439l-31 -109c43 15 82 33 174 33c116 0 303 -38 303 -203c0 -50 -22 -262 -406 -262c-117 0 -360 18 -371 209l240 8c8 -41 49 -68 137 -68c13 0 49 0 84 14c54 22 68 61 68 85c0 47 -43 88 -129 88c-41 0 -104 -5 -130 -42l-215 9z" />
    <glyph glyph-name="six" unicode="6" 
d="M834 512l-244 -8c-16 29 -40 43 -93 43c-134 0 -208 -92 -221 -197c40 54 136 99 256 99c193 0 271 -100 271 -205c0 -85 -67 -259 -392 -259c-203 0 -369 82 -369 301c0 111 54 221 134 295c103 95 230 116 363 116c36 0 195 -3 261 -93c26 -35 32 -78 34 -92zM560 228
c0 53 -48 81 -122 81c-54 0 -163 -15 -163 -92c0 -60 69 -85 139 -85c83 0 146 35 146 96z" />
    <glyph glyph-name="seven" unicode="7" 
d="M155 680h707c-21 -214 -154 -295 -290 -405c-74 -60 -152 -134 -188 -224c-7 -17 -12 -34 -17 -51h-266c15 50 23 73 34 96c53 115 160 196 260 267c31 22 121 80 144 113c8 11 11 18 20 42h-442z" />
    <glyph glyph-name="eight" unicode="8" 
d="M659 350c79 -18 130 -57 130 -135c0 -136 -164 -231 -403 -231c-67 0 -366 13 -366 200c0 102 94 150 188 169c-46 18 -98 53 -98 126c0 139 165 218 381 218c184 0 335 -60 335 -188c0 -91 -68 -142 -167 -159zM348 481c0 -57 76 -65 131 -65c74 0 114 34 114 70
c0 47 -51 64 -117 64c-97 0 -128 -32 -128 -69zM544 221c0 56 -63 72 -132 72c-51 0 -144 -18 -144 -82c0 -54 61 -76 131 -76c108 0 145 42 145 86z" />
    <glyph glyph-name="nine" unicode="9" 
d="M11 180c29 1 257 7 257 7c10 -40 69 -54 111 -54c106 0 200 63 210 180c-30 -25 -91 -73 -236 -73c-115 0 -289 44 -289 207c0 75 37 133 93 174c85 62 196 75 284 75c115 0 198 -15 270 -66c76 -54 113 -129 113 -241c0 -184 -125 -404 -452 -404
c-209 0 -339 86 -361 195zM597 464c0 71 -87 83 -138 83c-137 0 -152 -57 -152 -85c0 -30 21 -81 142 -81c132 0 148 60 148 83z" />
    <glyph glyph-name="colon" unicode=":" horiz-adv-x="375" 
d="M373 530l-42 -183h-230l42 183h230zM293 183l-43 -183h-229l42 183h230z" />
    <glyph glyph-name="semicolon" unicode=";" horiz-adv-x="375" 
d="M372 531l-42 -184h-231l43 184h230zM62 183h230l-44 -187c-20 -87 -57 -142 -146 -168c-29 -8 -58 -12 -88 -12h-37l19 83c69 6 101 29 117 101h-93z" />
    <glyph glyph-name="less" unicode="&#x3c;" horiz-adv-x="772" 
d="M709 613l-45 -195l-331 -105l282 -114l-45 -189l-493 220l44 181z" />
    <glyph glyph-name="equal" unicode="=" horiz-adv-x="772" 
d="M732 522l-38 -164h-584l38 164h584zM670 251l-38 -164h-585l38 164h585z" />
    <glyph glyph-name="greater" unicode="&#x3e;" horiz-adv-x="772" 
d="M704 392l-43 -181l-588 -202l45 195l330 105l-281 114l45 189z" />
    <glyph glyph-name="question" unicode="?" horiz-adv-x="708" 
d="M427 263h-215c10 38 20 63 52 87c39 30 90 49 133 69c26 12 87 43 87 92c0 34 -28 73 -101 73c-105 0 -131 -64 -151 -130l-194 11c8 33 12 93 77 162c57 61 147 97 319 97c207 0 297 -83 297 -188c0 -77 -51 -138 -126 -172l-129 -59c-34 -15 -40 -24 -49 -42zM410 184
l-41 -184h-217l42 184h216z" />
    <glyph glyph-name="at" unicode="@" horiz-adv-x="923" 
d="M814 109l59 -73c-60 -48 -86 -65 -140 -93c-91 -46 -179 -68 -274 -68c-251 0 -414 143 -414 366c0 271 214 471 502 471c209 0 340 -111 340 -289c0 -188 -133 -358 -279 -358c-50 0 -87 27 -94 68c-43 -46 -86 -67 -136 -67c-91 0 -151 65 -151 161
c0 153 120 295 251 295c50 0 81 -16 112 -60l12 40h112l-53 -196c-13 -49 -22 -95 -22 -112c0 -15 6 -23 18 -23s31 15 50 40c44 56 72 134 72 205c0 131 -87 205 -240 205c-216 0 -385 -165 -385 -376c0 -185 136 -276 312 -276c118 0 234 47 348 140zM548 344
c0 47 -26 77 -66 77c-79 0 -127 -117 -127 -180c0 -46 23 -74 62 -74c65 0 131 95 131 177z" />
    <glyph glyph-name="A" unicode="A" horiz-adv-x="896" 
d="M822 0h-257l-13 113h-284l-65 -113h-277l476 706h297zM534 270l-30 251l-145 -251h175z" />
    <glyph glyph-name="B" unicode="B" horiz-adv-x="896" 
d="M162 706h474c79 0 242 -4 242 -149c0 -90 -75 -148 -162 -177c80 -14 126 -59 126 -146c0 -22 -4 -77 -41 -130c-63 -90 -158 -104 -258 -104h-545zM358 544l-25 -109h204c32 0 85 10 85 62c0 31 -22 47 -50 47h-214zM297 282l-28 -124h219c41 0 101 20 101 71
c0 41 -36 53 -58 53h-234z" />
    <glyph glyph-name="C" unicode="C" horiz-adv-x="917" 
d="M915 492l-225 -23c-7 48 -45 108 -150 108c-20 0 -73 -2 -123 -27c-85 -43 -130 -136 -130 -230c0 -112 69 -178 182 -178c105 0 173 55 195 117l223 -25c-7 -21 -18 -52 -52 -93c-53 -65 -175 -162 -386 -162c-41 0 -201 3 -303 96c-89 82 -97 201 -97 241
c0 54 12 166 110 269c103 108 237 146 383 146c233 0 359 -116 373 -239z" />
    <glyph glyph-name="D" unicode="D" horiz-adv-x="938" 
d="M161 706h394c80 0 166 -1 269 -75c95 -69 107 -177 107 -232c0 -149 -84 -287 -216 -349c-99 -46 -231 -50 -256 -50h-461zM378 550l-92 -394h136c74 0 141 16 181 47c46 36 82 116 82 192c0 71 -32 107 -57 124c-39 27 -95 31 -140 31h-110z" />
    <glyph glyph-name="E" unicode="E" 
d="M891 706l-36 -155h-478l-27 -118h456l-36 -156h-456l-28 -117h513l-37 -160h-762l163 706h728z" />
    <glyph glyph-name="F" unicode="F" horiz-adv-x="750" 
d="M838 706l-37 -158h-427l-32 -137h403l-37 -158h-403l-59 -253h-248l164 706h676z" />
    <glyph glyph-name="G" unicode="G" horiz-adv-x="958" 
d="M497 392h417l-90 -392h-179l10 46c-37 -25 -117 -68 -241 -68c-177 0 -273 85 -314 147c-20 30 -52 92 -52 187c0 111 45 188 68 222c92 138 260 195 432 195c163 0 346 -68 369 -249c-69 -1 -234 -5 -234 -5c-3 15 -8 37 -37 60c-32 25 -73 32 -112 32
c-216 0 -245 -196 -245 -257c0 -112 65 -172 189 -172c56 0 151 13 183 113h-197z" />
    <glyph glyph-name="H" unicode="H" horiz-adv-x="958" 
d="M981 706l-165 -706h-253l62 272h-310l-63 -272h-253l164 706h253l-60 -259h310l60 259h255z" />
    <glyph glyph-name="I" unicode="I" horiz-adv-x="396" 
d="M416 706l-163 -706h-253l163 706h253z" />
    <glyph glyph-name="J" unicode="J" horiz-adv-x="479" 
d="M258 706h251l-110 -478c-12 -53 -28 -104 -65 -147c-61 -71 -153 -81 -238 -81h-155l36 161h78c64 0 82 26 92 70z" />
    <glyph glyph-name="K" unicode="K" horiz-adv-x="896" 
d="M936 706l-352 -286l251 -420h-274l-154 276l-126 -103l-41 -173h-242l164 706h239l-60 -262l287 262h308z" />
    <glyph glyph-name="L" unicode="L" horiz-adv-x="708" 
d="M652 162l-37 -162h-617l163 706h253l-126 -544h364z" />
    <glyph glyph-name="M" unicode="M" horiz-adv-x="1083" 
d="M1105 706l-164 -706h-229l132 550l-277 -550h-189l-25 553l-120 -553h-234l163 706h346c2 -73 15 -480 15 -480l231 480h351z" />
    <glyph glyph-name="N" unicode="N" horiz-adv-x="938" 
d="M960 706l-164 -706h-227l-236 443l-100 -443h-235l164 706h228l239 -447l103 447h228z" />
    <glyph glyph-name="O" unicode="O" horiz-adv-x="979" 
d="M953 416c0 -116 -52 -236 -137 -313c-54 -50 -167 -123 -365 -123c-41 0 -180 2 -281 76c-80 58 -123 151 -123 250c0 70 21 140 57 201c121 208 353 223 443 223c263 0 406 -126 406 -314zM705 404c0 110 -62 169 -162 169c-142 0 -245 -117 -245 -261
c0 -104 65 -178 171 -178c138 0 236 117 236 270z" />
    <glyph glyph-name="P" unicode="P" horiz-adv-x="875" 
d="M162 706h472c159 0 257 -73 257 -198c0 -70 -30 -142 -81 -187c-77 -67 -190 -69 -229 -69h-273l-59 -252h-250zM377 548l-32 -139h189c54 0 107 20 107 82c0 6 0 26 -16 40c-17 16 -41 17 -63 17h-185z" />
    <glyph glyph-name="Q" unicode="Q" horiz-adv-x="979" 
d="M956 11l-135 -138l-205 125c-18 -3 -106 -21 -181 -21c-44 0 -243 9 -339 152c-20 29 -49 84 -49 174c0 123 58 240 149 316c104 86 227 112 359 112c94 0 181 -15 261 -70c45 -31 138 -108 138 -257c0 -111 -54 -197 -74 -224c-16 -23 -32 -42 -69 -82zM706 399
c0 81 -39 173 -166 173c-166 0 -244 -149 -244 -257c0 -167 141 -182 176 -182c180 0 234 193 234 266z" />
    <glyph glyph-name="R" unicode="R" horiz-adv-x="875" 
d="M162 706h446c86 0 265 -14 265 -200c0 -76 -40 -149 -104 -190c-26 -16 -52 -26 -81 -37l116 -279h-254l-93 247h-155l-57 -247h-247zM373 550l-32 -140h174c44 0 107 17 107 82c0 54 -55 58 -72 58h-177z" />
    <glyph glyph-name="S" unicode="S" horiz-adv-x="812" 
d="M799 522l-227 -18v8c0 44 -55 62 -124 62c-57 0 -110 -18 -110 -55c0 -35 42 -50 77 -60l174 -49c129 -36 171 -99 171 -180c0 -73 -47 -253 -391 -253c-132 0 -259 30 -316 102c-35 45 -38 84 -39 137l229 10v-5c0 -73 82 -88 142 -88c30 0 128 3 128 74
c0 40 -49 53 -98 67l-154 45c-71 21 -164 66 -164 179c0 41 15 123 106 177c56 33 133 55 277 55c138 0 319 -33 319 -196v-12z" />
    <glyph glyph-name="T" unicode="T" horiz-adv-x="771" 
d="M861 706l-37 -159h-255l-127 -547h-252l127 547h-262l36 159h770z" />
    <glyph glyph-name="U" unicode="U" horiz-adv-x="958" 
d="M734 706h254l-104 -449c-3 -11 -22 -75 -50 -119c-88 -140 -261 -160 -409 -160c-168 0 -284 36 -337 95c-18 20 -41 57 -41 124c0 39 8 80 11 92l96 417h252l-95 -416c-2 -7 -5 -30 -5 -47c0 -12 1 -49 27 -75s72 -35 114 -35c61 0 108 16 146 63c26 33 39 67 57 145z
" />
    <glyph glyph-name="V" unicode="V" horiz-adv-x="875" 
d="M968 706l-493 -706h-235l-153 706h261l61 -451l276 451h283z" />
    <glyph glyph-name="W" unicode="W" horiz-adv-x="1083" 
d="M1173 706l-307 -706h-285c1 52 5 517 5 517l-224 -517h-286l23 706h219l-36 -524l222 524h242s-8 -406 -10 -526l202 526h235z" />
    <glyph glyph-name="X" unicode="X" horiz-adv-x="875" 
d="M956 706l-368 -350l222 -356h-264l-120 200l-194 -200h-309l393 374l-212 332h279l99 -175l168 175h306z" />
    <glyph glyph-name="Y" unicode="Y" 
d="M954 706l-438 -498l-47 -208h-254l50 213l-174 493h263l79 -295l221 295h300z" />
    <glyph glyph-name="Z" unicode="Z" horiz-adv-x="833" 
d="M886 706l-37 -157l-532 -386h459l-37 -163h-781l37 162l523 385h-429l38 159h759z" />
    <glyph glyph-name="bracketleft" unicode="[" horiz-adv-x="360" 
d="M458 760l-32 -138h-113l-161 -693h111l-32 -140h-278l228 971h277z" />
    <glyph glyph-name="backslash" unicode="\" horiz-adv-x="354" 
d="M102 0l-32 706h198l32 -706h-198z" />
    <glyph glyph-name="bracketright" unicode="]" horiz-adv-x="360" 
d="M-111 -211l31 138h114l161 693h-111l32 140h278l-228 -971h-277z" />
    <glyph glyph-name="asciicircum" unicode="^" horiz-adv-x="772" 
d="M687 286l-204 1l-50 198l-139 -199h-217l311 420h183z" />
    <glyph glyph-name="underscore" unicode="_" horiz-adv-x="500" 
d="M412 -105l-33 -141h-519l32 141h520z" />
    <glyph glyph-name="quoteleft" unicode="&#x2018;" horiz-adv-x="333" 
d="M287 341h-230l45 188c26 108 85 179 238 179h32l-19 -83c-69 -5 -101 -29 -117 -101h94z" />
    <glyph glyph-name="a" unicode="a" horiz-adv-x="833" 
d="M724 0h-247s-2 17 -2 25s1 18 3 34c-20 -11 -40 -23 -61 -33c-34 -16 -103 -42 -199 -42c-113 0 -214 52 -214 157c0 56 19 107 92 145c57 31 193 39 273 42l166 6s1 10 1 17c0 39 -29 62 -109 62c-25 0 -77 -2 -101 -19c-13 -9 -18 -22 -21 -27h-228c11 31 22 60 41 84
c73 91 241 95 343 95c69 0 190 -1 256 -43c43 -27 60 -71 60 -121c0 -24 -2 -46 -13 -93l-46 -200c-3 -11 -5 -26 -5 -38c0 -20 10 -47 11 -51zM512 235c-6 0 -21 1 -40 1c-105 0 -223 -11 -223 -66c0 -23 24 -47 67 -47c137 0 185 68 196 112z" />
    <glyph glyph-name="b" unicode="b" horiz-adv-x="833" 
d="M152 706h233l-53 -225c52 37 105 64 212 64c156 0 243 -102 243 -232c0 -171 -118 -328 -339 -328c-111 0 -183 43 -213 77l-14 -62h-232zM543 281c0 75 -50 108 -119 108c-99 0 -143 -71 -143 -139c0 -61 37 -108 120 -108c80 0 142 57 142 139z" />
    <glyph glyph-name="c" unicode="c" horiz-adv-x="812" 
d="M787 347l-230 -15c-2 13 -2 31 -26 49c-32 24 -73 24 -86 24c-114 0 -177 -76 -177 -153c0 -64 44 -122 142 -122c90 0 129 52 141 82l234 -11c-11 -22 -37 -95 -127 -150c-54 -33 -136 -66 -274 -66c-343 0 -359 229 -359 269c0 51 18 145 123 217c53 36 139 75 287 75
c50 0 335 -4 352 -199z" />
    <glyph glyph-name="d" unicode="d" horiz-adv-x="833" 
d="M864 706l-165 -706h-232l10 44c-22 -18 -84 -59 -187 -59c-150 0 -265 92 -265 251c0 37 9 119 72 194c38 46 124 115 274 115c99 0 165 -31 206 -66l54 227h233zM533 286c0 99 -87 105 -115 105c-68 0 -153 -35 -153 -142c0 -72 42 -112 122 -112c97 0 146 76 146 149z
" />
    <glyph glyph-name="e" unicode="e" horiz-adv-x="833" 
d="M513 165l243 -15c-19 -35 -45 -82 -127 -120c-48 -22 -122 -44 -246 -44c-256 0 -357 127 -357 264c0 92 49 171 123 223c80 57 174 72 270 72c99 0 196 -13 274 -78c14 -11 49 -43 70 -89c21 -47 24 -99 27 -159h-520c9 -38 36 -97 135 -97c51 0 83 20 108 43zM286 323
h272c-15 60 -76 81 -133 81c-86 0 -126 -47 -139 -81z" />
    <glyph glyph-name="f" unicode="f" horiz-adv-x="437" 
d="M509 706l-29 -127c-15 1 -29 3 -45 3c-49 0 -60 -26 -66 -51l-6 -26h100l-32 -136h-91l-85 -369h-231l85 369h-80l31 135h80l17 71c16 67 47 92 71 106c42 24 87 25 133 25h148z" />
    <glyph glyph-name="g" unicode="g" horiz-adv-x="812" 
d="M802 530l-108 -465c-45 -192 -162 -257 -385 -257c-145 0 -242 41 -286 92c-18 21 -28 43 -42 100h230c14 -46 56 -59 106 -59c85 0 122 33 141 112l9 37c-50 -30 -105 -51 -196 -51c-154 0 -245 82 -245 216c0 115 89 290 319 290c116 0 171 -41 212 -71l13 56h232z
M514 306c0 68 -46 90 -116 90s-132 -43 -132 -118c0 -88 94 -90 110 -90c69 0 138 43 138 118z" />
    <glyph glyph-name="h" unicode="h" horiz-adv-x="792" 
d="M152 706h229l-55 -243c35 30 95 82 209 82c49 0 100 -11 138 -41c59 -45 60 -109 60 -135c0 -34 -6 -72 -14 -105l-61 -264h-231l57 248c4 19 10 43 10 61c0 50 -34 77 -83 77c-17 0 -62 -6 -94 -45c-24 -30 -37 -75 -45 -110l-54 -231h-230z" />
    <glyph glyph-name="i" unicode="i" horiz-adv-x="354" 
d="M383 706l-28 -123h-231l28 123h231zM342 530l-122 -530h-231l123 530h230z" />
    <glyph glyph-name="j" unicode="j" horiz-adv-x="354" 
d="M383 706l-28 -122h-232l29 122h231zM342 530l-132 -569c-28 -123 -116 -143 -202 -143h-142l34 141h26c48 0 57 26 67 66l118 505h231z" />
    <glyph glyph-name="k" unicode="k" horiz-adv-x="771" 
d="M820 530l-274 -200l157 -330h-247l-90 199l-121 -85l-26 -114h-231l163 706h231l-78 -338l217 162h299z" />
    <glyph glyph-name="l" unicode="l" horiz-adv-x="354" 
d="M383 706l-163 -706h-232l163 706h232z" />
    <glyph glyph-name="m" unicode="m" horiz-adv-x="1146" 
d="M113 530h227l-15 -71c59 57 136 86 209 86c91 0 138 -39 166 -91c45 43 110 90 212 90c99 0 181 -48 181 -156c0 -34 -9 -76 -17 -109l-64 -279h-227l63 276c4 17 9 34 9 50c0 60 -53 61 -71 61c-70 0 -91 -53 -100 -90l-69 -297h-230l65 282c5 23 8 34 8 45
c0 32 -18 60 -69 60c-66 0 -92 -44 -110 -121l-62 -266h-229z" />
    <glyph glyph-name="n" unicode="n" horiz-adv-x="792" 
d="M112 530h228l-16 -74c51 55 136 88 219 88c114 0 192 -56 192 -170c0 -29 -4 -52 -10 -80l-67 -294h-232l62 270c2 9 5 23 5 35c0 27 -13 81 -86 81c-66 0 -111 -48 -130 -130l-59 -256h-229z" />
    <glyph glyph-name="o" unicode="o" 
d="M808 291c0 -46 -13 -143 -108 -217c-114 -88 -256 -88 -305 -88c-166 0 -261 47 -312 106c-20 24 -57 74 -57 162c0 59 17 161 146 233c84 47 174 59 268 59c92 0 189 -11 268 -64c74 -50 100 -119 100 -191zM563 283c0 56 -31 120 -134 120c-15 0 -62 -2 -100 -27
c-41 -27 -66 -79 -66 -127c0 -63 42 -119 136 -119c16 0 68 1 107 32c36 28 57 76 57 121z" />
    <glyph glyph-name="p" unicode="p" horiz-adv-x="833" 
d="M112 530h231l-10 -46c28 21 89 61 192 61c197 0 262 -146 262 -244c0 -130 -99 -316 -340 -316c-30 0 -138 3 -212 76l-57 -244h-231zM546 283c0 70 -48 103 -112 103c-126 0 -155 -95 -155 -139c0 -18 2 -103 121 -103c115 0 146 94 146 139z" />
    <glyph glyph-name="q" unicode="q" horiz-adv-x="833" 
d="M821 530l-164 -712h-231l49 215c-38 -18 -84 -48 -178 -48c-156 0 -269 98 -269 250c0 133 90 311 341 311c124 0 178 -43 208 -75l14 59h230zM267 252c0 -36 16 -111 121 -111c89 0 145 61 145 141c0 77 -60 106 -121 106c-95 0 -145 -67 -145 -136z" />
    <glyph glyph-name="r" unicode="r" horiz-adv-x="479" 
d="M99 530h230l-19 -83c40 52 102 97 173 97c12 0 24 -1 36 -3l-48 -208c-7 2 -45 11 -78 11c-40 0 -108 -5 -130 -103l-55 -241h-231z" />
    <glyph glyph-name="s" unicode="s" horiz-adv-x="708" 
d="M691 368l-221 -9c-5 42 -33 59 -116 59c-29 0 -75 -6 -75 -41c0 -26 27 -31 45 -34l110 -18c32 -5 95 -16 128 -28c69 -26 90 -82 90 -127c0 -88 -74 -186 -354 -186c-54 0 -226 8 -291 91c-21 27 -26 55 -32 90l239 9c5 -22 13 -59 126 -59c38 0 69 13 69 42
c0 24 -17 31 -46 37l-123 24c-75 15 -190 41 -190 150c0 61 43 108 94 135c74 40 182 42 258 42c67 0 144 -6 209 -45c59 -35 71 -71 80 -132z" />
    <glyph glyph-name="t" unicode="t" horiz-adv-x="437" 
d="M447 506l-31 -136h-90l-37 -159c-1 -6 -3 -13 -3 -21c0 -38 29 -45 61 -45h31l-34 -144c-32 -1 -76 -2 -109 -2c-69 0 -122 5 -153 25c-40 25 -41 69 -41 84c0 21 5 45 6 49l48 213h-75l32 136h75l36 148h228l-34 -148h90z" />
    <glyph glyph-name="u" unicode="u" horiz-adv-x="792" 
d="M780 530l-123 -530h-224l16 72c-53 -38 -94 -86 -214 -86c-172 0 -199 117 -199 179c0 29 4 53 6 61l69 304h226l-61 -268c-3 -15 -5 -29 -5 -42c0 -52 28 -76 80 -76c14 0 48 2 78 24c45 33 63 82 75 134l53 228h223z" />
    <glyph glyph-name="v" unicode="v" horiz-adv-x="750" 
d="M801 530l-374 -530h-256l-121 530h236l51 -335l207 335h257z" />
    <glyph glyph-name="w" unicode="w" horiz-adv-x="1062" 
d="M1107 530l-292 -530h-257l-24 341l-178 -341h-269l-30 530h232c-1 -37 -5 -314 -5 -314l161 314h254l23 -312l133 312h252z" />
    <glyph glyph-name="x" unicode="x" horiz-adv-x="771" 
d="M815 530l-315 -264l192 -266h-242l-96 141l-158 -141h-277l332 281l-187 249h257l78 -121l136 121h280z" />
    <glyph glyph-name="y" unicode="y" horiz-adv-x="688" 
d="M735 530l-304 -479c-55 -86 -88 -138 -128 -172c-60 -51 -132 -63 -209 -63c-49 0 -97 5 -146 9l38 161c30 -3 53 -5 89 -5c41 0 51 6 51 28c0 4 -1 14 -3 26l-66 495h231c1 -47 10 -385 10 -385l193 385h244z" />
    <glyph glyph-name="z" unicode="z" horiz-adv-x="750" 
d="M762 530l-33 -144l-395 -239h340l-34 -147h-674l32 139l384 244h-300l34 147h646z" />
    <glyph glyph-name="braceleft" unicode="{" horiz-adv-x="354" 
d="M483 766l-15 -68c-100 -25 -117 -41 -136 -122l-28 -120c-34 -147 -65 -162 -148 -182c55 -25 74 -52 74 -106c0 -21 -3 -46 -10 -75l-21 -90c-6 -25 -10 -49 -10 -73c0 -34 16 -57 83 -78l-16 -69h-59c-144 0 -183 54 -183 118c0 17 5 46 10 70l29 126c5 21 7 41 7 59
c0 36 -8 63 -53 84l16 69c72 22 92 51 119 172l25 112c33 148 84 173 261 173h55z" />
    <glyph glyph-name="bar" unicode="|" horiz-adv-x="287" 
d="M334 759l-225 -972h-168l226 972h167z" />
    <glyph glyph-name="braceright" unicode="}" horiz-adv-x="354" 
d="M-142 -217l15 68c100 25 117 41 136 122l28 120c35 149 67 165 148 182c-55 25 -74 52 -74 106c0 21 3 46 10 75l21 90c6 25 10 49 10 73c0 34 -16 57 -83 78l16 69h59c144 0 183 -54 183 -118c0 -17 -4 -46 -10 -70l-29 -126c-5 -21 -7 -41 -7 -59c0 -39 8 -63 53 -84
l-16 -69c-72 -22 -90 -44 -119 -172l-25 -112c-33 -148 -84 -173 -261 -173h-55z" />
    <glyph glyph-name="asciitilde" unicode="~" horiz-adv-x="772" 
d="M670 422l51 -148c-64 -57 -147 -97 -219 -97c-34 0 -60 6 -118 29l-41 16c-39 15 -68 22 -96 22c-43 0 -75 -12 -130 -58l-12 -10l-53 149c81 67 139 97 215 97c38 0 63 -6 120 -28l47 -18c42 -16 63 -22 85 -22c49 0 81 15 151 68z" />
    <glyph glyph-name="exclamdown" unicode="&#xa1;" horiz-adv-x="375" 
d="M354 706l-43 -181h-189l42 181h190zM103 447h191l-42 -267l-43 -180h-229l42 181z" />
    <glyph glyph-name="cent" unicode="&#xa2;" horiz-adv-x="812" 
d="M787 347l-230 -15c-5 39 -22 56 -82 70l-64 -272c85 0 121 43 140 82l234 -11c-33 -65 -55 -103 -127 -148c-86 -54 -179 -68 -265 -68c-6 0 -10 0 -16 1l-23 -99h-65l24 104c-3 0 -131 16 -201 76c-62 53 -87 132 -87 187c0 101 64 196 176 247c79 36 178 45 233 45h9
l20 85h65l-21 -89c163 -16 268 -80 280 -195zM409 402c-6 -1 -41 -7 -68 -23c-50 -30 -73 -84 -73 -127c0 -69 49 -103 80 -112z" />
    <glyph glyph-name="sterling" unicode="&#xa3;" horiz-adv-x="812" 
d="M801 457l-225 -13c1 2 7 27 7 44c0 30 -12 69 -82 69c-43 0 -99 -21 -99 -84c0 -27 11 -55 36 -103h143l-16 -72h-108v-29c0 -64 -35 -115 -48 -130c24 -8 42 -13 68 -13c12 0 35 0 55 20c18 18 26 39 33 61h207c-16 -62 -37 -137 -88 -181c-20 -17 -62 -42 -130 -42
c-105 0 -228 45 -262 62c-62 -34 -119 -63 -193 -63c-69 0 -143 37 -143 120c0 67 58 123 151 123c41 0 75 -7 149 -30c0 58 -6 74 -18 102h-178l16 72h128c-23 40 -43 75 -43 123c0 83 59 140 101 161c76 39 161 44 240 44c96 0 218 -17 270 -106c25 -43 27 -87 29 -135z
M194 100c-13 9 -53 34 -86 34c-30 0 -42 -21 -42 -34c0 -19 18 -30 44 -30c24 0 44 7 84 30z" />
    <glyph glyph-name="fraction" unicode="&#x2044;" horiz-adv-x="125" 
d="M397 676l-564 -706l-88 62l565 704z" />
    <glyph glyph-name="yen" unicode="&#xa5;" 
d="M954 695l-260 -291h135l-26 -113h-210l-67 -76h262l-26 -112h-270l-23 -103h-254l25 103h-241l26 112h237l-27 76h-195l27 113h128l-104 291h263l79 -291l221 291h300z" />
    <glyph glyph-name="florin" unicode="&#x192;" horiz-adv-x="437" 
d="M501 695l-29 -128c-16 2 -25 3 -40 3c-51 0 -65 -20 -72 -51l-6 -26h100l-31 -135h-91l-87 -377c-21 -93 -38 -173 -215 -173h-157l29 128c8 -1 21 -4 40 -4c61 0 68 33 74 61l84 364h-80l31 136h81l17 70c22 91 68 132 203 132h149z" />
    <glyph glyph-name="section" unicode="&#xa7;" horiz-adv-x="729" 
d="M751 554l-221 -13c-10 30 -31 51 -87 51c-37 0 -81 -11 -81 -57c0 -32 47 -51 74 -59l101 -31c70 -21 158 -48 158 -151c0 -81 -70 -135 -140 -158c28 -34 47 -61 47 -107v-5c0 -152 -186 -198 -312 -198c-135 0 -306 31 -331 205l225 12c6 -18 11 -37 24 -51
c20 -22 49 -33 78 -33s74 16 74 51c0 32 -25 44 -51 53l-127 44c-73 25 -164 70 -164 169c0 22 7 43 18 62c32 55 79 74 137 92c-32 33 -54 63 -54 112c0 158 205 184 323 184c91 0 213 -13 274 -87c22 -27 28 -53 35 -85zM436 189c21 20 43 42 43 72c0 29 -20 42 -44 52
c-49 20 -105 34 -156 49c-27 -14 -44 -35 -44 -66c0 -19 8 -31 22 -43c25 -20 144 -53 179 -64z" />
    <glyph glyph-name="currency" unicode="&#xa4;" horiz-adv-x="765" 
d="M769 546l-97 -79c16 -38 22 -63 22 -94c0 -68 -21 -131 -60 -184l76 -87l-138 -110l-75 87c-47 -21 -83 -28 -131 -28c-62 0 -106 12 -156 44l-97 -80l-104 119l97 79c-16 40 -22 68 -22 102c0 60 19 116 58 172l-73 85l136 110l73 -84c48 21 92 31 138 31
c55 0 99 -13 151 -45l98 81zM506 353c0 65 -43 108 -107 108c-72 0 -129 -59 -129 -135c0 -61 41 -108 108 -108c72 0 128 58 128 135z" />
    <glyph glyph-name="quotesingle" unicode="'" horiz-adv-x="167" 
d="M261 741l-117 -288h-44s8 252 8 288h153z" />
    <glyph glyph-name="quotedblleft" unicode="&#x201c;" horiz-adv-x="646" 
d="M599 341h-230l44 187c26 108 83 180 239 180h31l-18 -83c-70 -5 -102 -29 -118 -101h94zM288 341h-230l44 187c26 108 83 180 239 180h31l-19 -83c-69 -5 -101 -29 -117 -101h94z" />
    <glyph glyph-name="guillemotleft" unicode="&#xab;" horiz-adv-x="542" 
d="M549 550l-44 -192l-115 -59l85 -69l-40 -172l-173 139l53 232zM305 547l-43 -190l-111 -58l82 -66l-41 -174l-172 139l52 228z" />
    <glyph glyph-name="guilsinglleft" unicode="&#x2039;" horiz-adv-x="292" 
d="M303 550l-45 -192l-114 -59l85 -69l-41 -172l-172 139l52 232z" />
    <glyph glyph-name="guilsinglright" unicode="&#x203a;" horiz-adv-x="292" 
d="M275 412l-53 -230l-234 -123l44 193l115 60l-85 69l40 171z" />
    <glyph glyph-name="endash" unicode="&#x2013;" horiz-adv-x="681" 
d="M674 403l-40 -175h-623l40 175h623z" />
    <glyph glyph-name="dagger" unicode="&#x2020;" horiz-adv-x="667" 
d="M696 529l-35 -154h-190l-112 -485h-245l111 485h-191l36 154h191l41 177h246l-42 -177h190z" />
    <glyph glyph-name="daggerdbl" unicode="&#x2021;" horiz-adv-x="667" 
d="M696 529l-35 -154h-190l-33 -141h190l-35 -153h-190l-44 -191h-245l43 191h-191l36 154h191l32 140h-191l36 154h191l41 177h246l-42 -177h190z" />
    <glyph glyph-name="periodcentered" unicode="&#xb7;" horiz-adv-x="333" 
d="M302 407l-43 -184h-230l43 184h230z" />
    <glyph glyph-name="paragraph" unicode="&#xb6;" horiz-adv-x="623" 
d="M651 706l-22 -96h-36l-179 -777h-102l180 777h-111l-179 -777h-103l106 459c-77 44 -111 98 -111 179c0 79 37 151 100 192c47 31 101 43 202 43h255z" />
    <glyph glyph-name="bullet" unicode="&#x2022;" horiz-adv-x="333" 
d="M354 478l-62 -263h-285l62 263h285z" />
    <glyph glyph-name="quotesinglbase" unicode="&#x201a;" horiz-adv-x="333" 
d="M20 183h230l-44 -187c-25 -107 -82 -180 -236 -180h-34l18 83c70 5 102 29 118 101h-94z" />
    <glyph glyph-name="quotedblbase" unicode="&#x201e;" horiz-adv-x="646" 
d="M331 183h230l-44 -187c-25 -108 -83 -180 -236 -180h-34l18 83c70 5 102 29 118 101h-94zM20 183h230l-44 -187c-25 -107 -82 -180 -236 -180h-34l18 83c70 5 102 29 118 101h-94z" />
    <glyph glyph-name="quotedblright" unicode="&#x201d;" horiz-adv-x="646" 
d="M454 706h230l-44 -187c-25 -108 -83 -180 -236 -180h-34l19 83c69 5 101 29 117 101h-94zM143 706h230l-44 -187c-25 -106 -82 -180 -236 -180h-34l18 83c70 5 102 29 118 101h-94z" />
    <glyph glyph-name="guillemotright" unicode="&#xbb;" horiz-adv-x="542" 
d="M522 411l-53 -226l-234 -122l44 190l110 58l-81 65l40 176zM279 412l-53 -230l-235 -123l45 193l114 60l-85 69l40 171z" />
    <glyph glyph-name="ellipsis" unicode="&#x2026;" horiz-adv-x="1000" 
d="M871 145l-34 -145h-135l34 145h135zM539 145l-34 -145h-135l34 145h135zM204 145l-33 -145h-135l33 145h135z" />
    <glyph glyph-name="perthousand" unicode="&#x2030;" horiz-adv-x="1812" 
d="M569 490c0 -126 -86 -261 -280 -261c-142 0 -227 69 -227 199c0 160 127 263 274 263c128 0 233 -62 233 -201zM419 497c0 41 -15 95 -86 95c-89 0 -122 -115 -122 -178c0 -39 19 -91 82 -91c104 0 126 127 126 174zM1200 252c0 -126 -86 -261 -280 -261
c-142 0 -227 69 -227 199c0 160 127 263 274 263c128 0 233 -62 233 -201zM1050 259c0 41 -15 95 -86 95c-89 0 -122 -115 -122 -178c0 -39 19 -91 82 -91c104 0 126 127 126 174zM1762 252c0 -126 -86 -261 -280 -261c-142 0 -227 69 -227 199c0 160 127 263 274 263
c128 0 233 -62 233 -201zM1612 259c0 41 -15 95 -86 95c-89 0 -122 -115 -122 -178c0 -39 19 -91 82 -91c104 0 126 127 126 174zM913 681l-464 -711l-87 53l468 714z" />
    <glyph glyph-name="questiondown" unicode="&#xbf;" horiz-adv-x="708" 
d="M299 446h215c-10 -38 -20 -64 -52 -88c-39 -30 -90 -49 -133 -69c-26 -12 -87 -43 -87 -92c0 -34 28 -73 101 -73c105 0 131 64 151 130l194 -11c-8 -33 -12 -93 -77 -162c-57 -61 -147 -97 -319 -97c-207 0 -297 83 -297 188c0 77 51 138 126 172l129 59
c34 15 40 25 49 43zM316 522l41 184h217l-42 -184h-216z" />
    <glyph glyph-name="grave" unicode="`" horiz-adv-x="375" 
d="M368 611h-181l-180 121h276z" />
    <glyph glyph-name="acute" unicode="&#xb4;" horiz-adv-x="375" 
d="M367 732l-178 -122h-181l85 122h274z" />
    <glyph glyph-name="circumflex" unicode="&#x2c6;" horiz-adv-x="375" 
d="M426 611h-186l-35 70l-68 -70h-188l118 121h305z" />
    <glyph glyph-name="tilde" unicode="&#x2dc;" horiz-adv-x="375" 
d="M338 774l72 -71c-42 -66 -99 -100 -148 -100c-57 0 -89 49 -138 49c-27 0 -61 -13 -91 -53l-68 72c44 61 90 99 142 99c65 0 92 -46 149 -46c24 0 59 17 82 50z" />
    <glyph glyph-name="macron" unicode="&#xaf;" horiz-adv-x="375" 
d="M411 605h-473l26 114h473z" />
    <glyph glyph-name="breve" unicode="&#x2d8;" horiz-adv-x="375" 
d="M237 733h187c-52 -62 -127 -122 -259 -122c-54 0 -148 9 -195 80c-12 18 -16 37 -19 42h185c4 -15 15 -34 45 -35c9 0 38 0 56 35z" />
    <glyph glyph-name="dotaccent" unicode="&#x2d9;" horiz-adv-x="375" 
d="M305 731l-28 -121h-207l28 121h207z" />
    <glyph glyph-name="dieresis" unicode="&#xa8;" horiz-adv-x="375" 
d="M476 732l-27 -122h-207l28 122h206zM133 731l-26 -121h-208l28 121h206z" />
    <glyph glyph-name="ring" unicode="&#x2da;" horiz-adv-x="375" 
d="M329 689c0 -64 -50 -113 -155 -113c-86 0 -129 36 -129 92c0 32 14 112 155 112c83 0 129 -37 129 -91zM132 674c0 -25 33 -31 55 -31c24 0 55 9 55 36c0 22 -28 30 -52 30c-29 0 -58 -10 -58 -35z" />
    <glyph glyph-name="cedilla" unicode="&#xb8;" horiz-adv-x="375" 
d="M240 45l52 -4l-59 -87c86 -6 96 -59 96 -82c0 -26 -25 -117 -164 -117c-35 0 -58 3 -119 23l25 53c26 -7 44 -11 67 -11c42 0 61 21 61 39c0 13 -11 25 -32 25c-15 0 -25 -7 -37 -14l-31 38c47 46 94 90 141 137z" />
    <glyph glyph-name="hungarumlaut" unicode="&#x2dd;" horiz-adv-x="375" 
d="M209 732l-163 -122h-171l85 122h249zM499 732l-163 -122h-171l85 122h249z" />
    <glyph glyph-name="ogonek" unicode="&#x2db;" horiz-adv-x="375" 
d="M172 0h78c-17 -7 -77 -44 -77 -102c0 -49 47 -56 61 -56c28 0 45 13 57 22l21 -44c-26 -20 -62 -41 -121 -41c-53 0 -129 23 -129 101c0 85 89 110 110 120z" />
    <glyph glyph-name="caron" unicode="&#x2c7;" horiz-adv-x="375" 
d="M426 732l-119 -121h-305l-53 121h187l34 -69l68 69h188z" />
    <glyph glyph-name="emdash" unicode="&#x2014;" horiz-adv-x="1017" 
d="M1010 403l-41 -175h-958l41 175h958z" />
    <glyph glyph-name="AE" unicode="&#xc6;" horiz-adv-x="1042" 
d="M1044 706l-36 -159h-218l-27 -116h220l-37 -159h-220l-26 -114h284l-37 -158h-509l28 123h-205l-80 -123h-255l488 706h630zM567 560h-21l-184 -284h140z" />
    <glyph glyph-name="ordfeminine" unicode="&#xaa;" horiz-adv-x="542" 
d="M529 361h-160s-1 13 -1 19s1 13 2 20c-34 -21 -90 -49 -169 -49c-91 0 -140 46 -140 101c0 15 6 70 66 98c48 22 153 25 280 28c0 0 1 7 1 10c0 42 -49 42 -72 42c-39 0 -67 -3 -79 -30h-148c27 95 111 116 256 116c92 0 199 -3 199 -108c0 -19 -5 -42 -9 -59l-29 -130
c-2 -8 -4 -17 -4 -25c0 -11 4 -22 7 -33zM391 514h-15c-64 0 -155 -4 -155 -43c0 -24 25 -30 46 -30c68 0 109 26 124 73z" />
    <glyph glyph-name="Lslash" unicode="&#x141;" horiz-adv-x="708" 
d="M657 521l-26 -109l-310 -108l-33 -142h364l-37 -162h-617l48 210l-71 -25l25 110l72 24l89 387h253l-68 -292z" />
    <glyph glyph-name="Oslash" unicode="&#xd8;" horiz-adv-x="979" 
d="M311 242l341 288c-23 21 -49 42 -114 42c-152 0 -245 -123 -245 -249c0 -42 9 -64 18 -81zM689 476l-343 -289c20 -20 54 -51 124 -51c40 0 131 14 190 107c27 43 46 102 46 153c0 32 -3 50 -17 80zM925 759l41 -50l-99 -84c13 -16 26 -32 38 -49c21 -30 47 -77 47 -164
c0 -56 -11 -174 -113 -284c-105 -113 -239 -151 -389 -151c-147 0 -210 36 -270 70l-109 -91l-41 49l98 84c-13 16 -28 32 -39 50c-31 49 -44 107 -44 166c0 33 6 107 47 185c54 102 184 239 463 239c28 0 117 -1 197 -32c27 -10 58 -28 63 -31z" />
    <glyph glyph-name="OE" unicode="&#x152;" horiz-adv-x="1125" 
d="M1126 706l-36 -157h-218l-27 -120h223l-35 -155h-225l-27 -117h285l-36 -157h-520l3 14c-27 -11 -63 -26 -129 -26c-35 0 -126 4 -209 65c-114 84 -121 220 -121 267c0 58 12 186 128 291c95 87 208 116 333 116c85 0 119 -15 155 -33l3 12h453zM549 167l86 373
c-23 11 -50 24 -105 24c-14 0 -46 0 -82 -10c-65 -17 -107 -54 -139 -114c-29 -56 -32 -99 -32 -125c0 -46 13 -95 44 -126c20 -20 59 -43 131 -43c52 0 75 11 97 21z" />
    <glyph glyph-name="ordmasculine" unicode="&#xba;" horiz-adv-x="521" 
d="M566 549c0 -104 -96 -197 -274 -197c-163 0 -234 70 -234 174c0 106 88 190 275 190c163 0 233 -69 233 -167zM212 522c0 -54 43 -77 89 -77c84 0 106 64 106 101c0 31 -20 77 -87 77c-68 0 -108 -45 -108 -101z" />
    <glyph glyph-name="ae" unicode="&#xe6;" horiz-adv-x="1104" 
d="M1048 222h-423c4 -51 31 -101 123 -101c69 0 96 26 117 47l185 -18c-12 -27 -25 -58 -75 -96c-40 -30 -109 -68 -227 -68c-154 0 -220 59 -242 83c-23 -21 -88 -83 -251 -83c-198 0 -253 99 -253 174c0 17 4 63 38 99c65 69 207 72 290 72h115c1 4 5 17 5 31
c0 40 -41 52 -84 52c-34 0 -72 -3 -92 -38h-215c12 28 23 171 306 171c84 0 159 -18 202 -63c26 21 90 61 212 61s276 -39 276 -239c0 -32 -1 -52 -7 -84zM646 327h237c0 22 -13 91 -109 91c-104 0 -126 -82 -128 -91zM423 222h-73c-54 0 -141 0 -141 -56
c0 -31 33 -51 71 -51c99 0 128 50 143 107z" />
    <glyph glyph-name="dotlessi" unicode="&#x131;" horiz-adv-x="354" 
d="M342 530l-122 -530h-231l122 530h231z" />
    <glyph glyph-name="lslash" unicode="&#x142;" horiz-adv-x="354" 
d="M384 483l-23 -103l-58 -22l-83 -358h-232l60 262l-57 -21l24 101l57 22l79 342h232l-57 -245z" />
    <glyph glyph-name="oslash" unicode="&#xf8;" 
d="M800 546l30 -45l-78 -52c51 -59 55 -130 55 -157c0 -132 -88 -307 -426 -307c-137 0 -191 30 -250 62l-89 -58l-29 45l75 49c-8 10 -16 20 -23 31c-15 22 -39 62 -39 130c0 24 2 76 32 131c50 93 165 170 388 170c148 0 208 -26 263 -58zM268 200l265 173
c-21 17 -45 35 -103 35c-136 0 -174 -97 -174 -150c0 -23 4 -37 12 -58zM564 328l-263 -171c22 -14 49 -32 105 -32c8 0 40 1 67 10c32 10 99 46 99 140c0 23 -6 44 -8 53z" />
    <glyph glyph-name="oe" unicode="&#x153;" horiz-adv-x="1125" 
d="M1068 223h-418c3 -42 9 -55 25 -71c31 -29 80 -30 90 -30c60 0 87 20 107 38l191 -13c-16 -28 -27 -45 -50 -66c-43 -41 -136 -95 -277 -95c-117 0 -183 40 -212 79c-20 -15 -80 -80 -221 -80c-148 0 -278 79 -278 248c0 135 99 313 357 313c68 0 157 -14 201 -69
c55 39 114 69 217 69c148 0 277 -67 277 -240c0 -25 -2 -39 -9 -83zM906 328c-1 32 -19 91 -108 91c-59 0 -108 -29 -127 -91h235zM455 318c0 36 -11 98 -84 98c-89 0 -133 -94 -133 -175c0 -87 48 -111 90 -111c79 0 127 89 127 188z" />
    <glyph glyph-name="germandbls" unicode="&#xdf;" horiz-adv-x="792" 
d="M-12 0l119 509c18 78 40 137 116 177c43 23 103 42 213 42c228 0 310 -61 310 -161c0 -75 -50 -130 -129 -154c38 -11 68 -20 96 -52c17 -19 37 -51 37 -109c0 -43 -11 -88 -31 -125c-30 -55 -105 -137 -260 -137c-41 0 -75 4 -153 19l30 130c5 -1 37 -12 62 -12
c58 0 111 49 111 135c0 48 -22 72 -74 72h-53l26 111h14c29 0 55 4 75 27c16 19 17 40 17 49c0 46 -29 69 -75 69c-85 0 -101 -72 -106 -95l-113 -495h-232z" />
    <glyph glyph-name="Euro" unicode="&#x20ac;" horiz-adv-x="869" 
d="M889 621l-94 -153c-46 54 -116 83 -198 83c-108 0 -182 -39 -218 -115h397l-45 -77h-380c-3 -16 -4 -22 -5 -38h363l-44 -77h-316c17 -72 81 -110 186 -110c104 0 185 28 259 91l-48 -206c-59 -25 -145 -39 -248 -39c-138 0 -235 28 -299 86c-51 46 -83 111 -87 178h-92
l46 77h44c0 16 1 22 4 38h-69l47 77h42c68 175 220 260 465 260c127 0 219 -24 290 -75z" />
    <glyph glyph-name="Ydieresis" unicode="&#x178;" 
d="M837 898l-28 -121h-206l28 121h206zM495 898l-29 -121h-206l28 121h207zM954 706l-438 -498l-47 -208h-254l50 213l-174 493h263l79 -295l221 295h300z" />
    <glyph glyph-name="trademark" unicode="&#x2122;" horiz-adv-x="752" 
d="M797 706l-76 -332h-100l56 230l-113 -230h-83c-1 30 -5 229 -5 229l-50 -229h-102l76 332h147c0 -29 1 -213 1 -213l98 213h151zM368 706l-17 -73h-85l-59 -259h-107l59 259h-88l17 73h280z" />
    <glyph glyph-name="zcaron" unicode="&#x17e;" horiz-adv-x="750" 
d="M762 530l-33 -144l-395 -239h340l-34 -147h-674l32 139l384 244h-300l34 147h646zM703 732l-119 -121h-305l-53 121h187l34 -69l68 69h188z" />
    <glyph glyph-name="Zcaron" unicode="&#x17d;" horiz-adv-x="833" 
d="M777 897l-118 -120h-305l-52 120h186l34 -70l68 70h187zM886 706l-37 -157l-532 -386h459l-37 -163h-781l37 162l523 385h-429l38 159h759z" />
    <glyph glyph-name="scaron" unicode="&#x161;" horiz-adv-x="708" 
d="M691 368l-221 -9c-5 42 -33 59 -116 59c-29 0 -75 -6 -75 -41c0 -26 27 -31 45 -34l110 -18c32 -5 95 -16 128 -28c69 -26 90 -82 90 -127c0 -88 -74 -186 -354 -186c-54 0 -226 8 -291 91c-21 27 -26 55 -32 90l239 9c5 -22 13 -59 126 -59c38 0 69 13 69 42
c0 24 -17 31 -46 37l-123 24c-75 15 -190 41 -190 150c0 61 43 108 94 135c74 40 182 42 258 42c67 0 144 -6 209 -45c59 -35 71 -71 80 -132zM682 732l-119 -121h-305l-53 121h187l34 -69l68 69h188z" />
    <glyph glyph-name="Scaron" unicode="&#x160;" horiz-adv-x="812" 
d="M777 897l-118 -120h-305l-52 120h186l34 -70l68 70h187zM799 522l-227 -18v8c0 44 -55 62 -124 62c-57 0 -110 -18 -110 -55c0 -35 42 -50 77 -60l174 -49c129 -36 171 -99 171 -180c0 -73 -47 -253 -391 -253c-132 0 -259 30 -316 102c-35 45 -38 84 -39 137l229 10v-5
c0 -73 82 -88 142 -88c30 0 128 3 128 74c0 40 -49 53 -98 67l-154 45c-71 21 -164 66 -164 179c0 41 15 123 106 177c56 33 133 55 277 55c138 0 319 -33 319 -196v-12z" />
    <glyph glyph-name="ydieresis" unicode="&#xff;" horiz-adv-x="688" 
d="M735 530l-304 -479c-55 -86 -88 -138 -128 -172c-60 -51 -132 -63 -209 -63c-49 0 -97 5 -146 9l38 161c30 -3 53 -5 89 -5c41 0 51 6 51 28c0 4 -1 14 -3 26l-66 495h231c1 -47 10 -385 10 -385l193 385h244zM708 732l-27 -122h-207l28 122h206zM365 731l-26 -121h-208
l28 121h206z" />
    <glyph glyph-name="thorn" unicode="&#xfe;" horiz-adv-x="833" 
d="M153 706h231l-52 -222c43 29 99 61 191 61c141 0 264 -84 264 -241c0 -146 -111 -319 -333 -319c-108 0 -180 36 -219 76l-57 -244h-231zM546 283c-1 43 -24 103 -112 103c-150 0 -155 -123 -155 -139c0 -47 28 -103 120 -103c105 0 147 77 147 139z" />
    <glyph glyph-name="yacute" unicode="&#xfd;" horiz-adv-x="688" 
d="M735 530l-304 -479c-55 -86 -88 -138 -128 -172c-60 -51 -132 -63 -209 -63c-49 0 -97 5 -146 9l38 161c30 -3 53 -5 89 -5c41 0 51 6 51 28c0 4 -1 14 -3 26l-66 495h231c1 -47 10 -385 10 -385l193 385h244zM633 732l-178 -122h-181l85 122h274z" />
    <glyph glyph-name="udieresis" unicode="&#xfc;" horiz-adv-x="792" 
d="M780 530l-123 -530h-224l16 72c-53 -38 -94 -86 -214 -86c-172 0 -199 117 -199 179c0 29 4 53 6 61l69 304h226l-61 -268c-3 -15 -5 -29 -5 -42c0 -52 28 -76 80 -76c14 0 48 2 78 24c45 33 63 82 75 134l53 228h223zM760 732l-27 -122h-207l28 122h206zM417 731
l-26 -121h-208l28 121h206z" />
    <glyph glyph-name="ucircumflex" unicode="&#xfb;" horiz-adv-x="792" 
d="M780 530l-123 -530h-224l16 72c-53 -38 -94 -86 -214 -86c-172 0 -199 117 -199 179c0 29 4 53 6 61l69 304h226l-61 -268c-3 -15 -5 -29 -5 -42c0 -52 28 -76 80 -76c14 0 48 2 78 24c45 33 63 82 75 134l53 228h223zM698 611h-186l-35 70l-68 -70h-188l118 121h305z
" />
    <glyph glyph-name="uacute" unicode="&#xfa;" horiz-adv-x="792" 
d="M780 530l-123 -530h-224l16 72c-53 -38 -94 -86 -214 -86c-172 0 -199 117 -199 179c0 29 4 53 6 61l69 304h226l-61 -268c-3 -15 -5 -29 -5 -42c0 -52 28 -76 80 -76c14 0 48 2 78 24c45 33 63 82 75 134l53 228h223zM686 732l-178 -122h-181l85 122h274z" />
    <glyph glyph-name="ugrave" unicode="&#xf9;" horiz-adv-x="792" 
d="M780 530l-123 -530h-224l16 72c-53 -38 -94 -86 -214 -86c-172 0 -199 117 -199 179c0 29 4 53 6 61l69 304h226l-61 -268c-3 -15 -5 -29 -5 -42c0 -52 28 -76 80 -76c14 0 48 2 78 24c45 33 63 82 75 134l53 228h223zM601 611h-181l-180 121h276z" />
    <glyph glyph-name="divide" unicode="&#xf7;" horiz-adv-x="772" 
d="M550 609l-41 -179h-184l41 179h184zM708 386l-38 -164h-600l38 164h600zM452 178l-41 -179h-184l41 179h184z" />
    <glyph glyph-name="odieresis" unicode="&#xf6;" 
d="M808 291c0 -46 -13 -143 -108 -217c-114 -88 -256 -88 -305 -88c-166 0 -261 47 -312 106c-20 24 -57 74 -57 162c0 59 17 161 146 233c84 47 174 59 268 59c92 0 189 -11 268 -64c74 -50 100 -119 100 -191zM563 283c0 56 -31 120 -134 120c-15 0 -62 -2 -100 -27
c-41 -27 -66 -79 -66 -127c0 -63 42 -119 136 -119c16 0 68 1 107 32c36 28 57 76 57 121zM805 732l-27 -122h-207l28 122h206zM462 731l-26 -121h-208l28 121h206z" />
    <glyph glyph-name="otilde" unicode="&#xf5;" 
d="M808 291c0 -46 -13 -143 -108 -217c-114 -88 -256 -88 -305 -88c-166 0 -261 47 -312 106c-20 24 -57 74 -57 162c0 59 17 161 146 233c84 47 174 59 268 59c92 0 189 -11 268 -64c74 -50 100 -119 100 -191zM563 283c0 56 -31 120 -134 120c-15 0 -62 -2 -100 -27
c-41 -27 -66 -79 -66 -127c0 -63 42 -119 136 -119c16 0 68 1 107 32c36 28 57 76 57 121zM618 774l72 -71c-42 -66 -99 -100 -148 -100c-57 0 -89 49 -138 49c-27 0 -61 -13 -91 -53l-68 72c44 61 90 99 142 99c65 0 92 -46 149 -46c24 0 59 17 82 50z" />
    <glyph glyph-name="ocircumflex" unicode="&#xf4;" 
d="M808 291c0 -46 -13 -143 -108 -217c-114 -88 -256 -88 -305 -88c-166 0 -261 47 -312 106c-20 24 -57 74 -57 162c0 59 17 161 146 233c84 47 174 59 268 59c92 0 189 -11 268 -64c74 -50 100 -119 100 -191zM563 283c0 56 -31 120 -134 120c-15 0 -62 -2 -100 -27
c-41 -27 -66 -79 -66 -127c0 -63 42 -119 136 -119c16 0 68 1 107 32c36 28 57 76 57 121zM710 611h-186l-35 70l-68 -70h-188l118 121h305z" />
    <glyph glyph-name="oacute" unicode="&#xf3;" 
d="M808 291c0 -46 -13 -143 -108 -217c-114 -88 -256 -88 -305 -88c-166 0 -261 47 -312 106c-20 24 -57 74 -57 162c0 59 17 161 146 233c84 47 174 59 268 59c92 0 189 -11 268 -64c74 -50 100 -119 100 -191zM563 283c0 56 -31 120 -134 120c-15 0 -62 -2 -100 -27
c-41 -27 -66 -79 -66 -127c0 -63 42 -119 136 -119c16 0 68 1 107 32c36 28 57 76 57 121zM717 732l-178 -122h-181l85 122h274z" />
    <glyph glyph-name="ograve" unicode="&#xf2;" 
d="M808 291c0 -46 -13 -143 -108 -217c-114 -88 -256 -88 -305 -88c-166 0 -261 47 -312 106c-20 24 -57 74 -57 162c0 59 17 161 146 233c84 47 174 59 268 59c92 0 189 -11 268 -64c74 -50 100 -119 100 -191zM563 283c0 56 -31 120 -134 120c-15 0 -62 -2 -100 -27
c-41 -27 -66 -79 -66 -127c0 -63 42 -119 136 -119c16 0 68 1 107 32c36 28 57 76 57 121zM579 611h-181l-180 121h276z" />
    <glyph glyph-name="ntilde" unicode="&#xf1;" horiz-adv-x="792" 
d="M112 530h228l-16 -74c51 55 136 88 219 88c114 0 192 -56 192 -170c0 -29 -4 -52 -10 -80l-67 -294h-232l62 270c2 9 5 23 5 35c0 27 -13 81 -86 81c-66 0 -111 -48 -130 -130l-59 -256h-229zM608 774l72 -71c-42 -66 -99 -100 -148 -100c-57 0 -89 49 -138 49
c-27 0 -61 -13 -91 -53l-68 72c44 61 90 99 142 99c65 0 92 -46 149 -46c24 0 59 17 82 50z" />
    <glyph glyph-name="eth" unicode="&#xf0;" 
d="M747 703l31 -63l-88 -14c47 -55 121 -148 121 -288c0 -236 -194 -352 -427 -352c-227 0 -358 116 -358 277c0 151 146 283 361 283c76 0 121 -17 163 -55c-23 45 -33 65 -72 109l-222 -33l-26 64l187 26c-24 26 -28 30 -44 44l207 29c20 -13 45 -40 48 -43zM563 281
c0 45 -24 122 -130 122c-129 0 -170 -93 -170 -153c0 -85 65 -120 136 -120c132 0 163 102 164 151z" />
    <glyph glyph-name="idieresis" unicode="&#xef;" horiz-adv-x="354" 
d="M342 530l-122 -530h-231l122 530h231zM541 732l-27 -122h-207l28 122h206zM198 731l-26 -121h-208l28 121h206z" />
    <glyph glyph-name="icircumflex" unicode="&#xee;" horiz-adv-x="354" 
d="M342 530l-122 -530h-231l122 530h231zM480 611h-186l-35 70l-68 -70h-188l118 121h305z" />
    <glyph glyph-name="iacute" unicode="&#xed;" horiz-adv-x="354" 
d="M342 530l-122 -530h-231l122 530h231zM466 732l-178 -122h-181l85 122h274z" />
    <glyph glyph-name="igrave" unicode="&#xec;" horiz-adv-x="354" 
d="M342 530l-122 -530h-231l122 530h231zM369 611h-181l-180 121h276z" />
    <glyph glyph-name="edieresis" unicode="&#xeb;" horiz-adv-x="833" 
d="M513 165l243 -15c-19 -35 -45 -82 -127 -120c-48 -22 -122 -44 -246 -44c-256 0 -357 127 -357 264c0 92 49 171 123 223c80 57 174 72 270 72c99 0 196 -13 274 -78c14 -11 49 -43 70 -89c21 -47 24 -99 27 -159h-520c9 -38 36 -97 135 -97c51 0 83 20 108 43zM286 323
h272c-15 60 -76 81 -133 81c-86 0 -126 -47 -139 -81zM781 732l-27 -122h-207l28 122h206zM438 731l-26 -121h-208l28 121h206z" />
    <glyph glyph-name="ecircumflex" unicode="&#xea;" horiz-adv-x="833" 
d="M513 165l243 -15c-19 -35 -45 -82 -127 -120c-48 -22 -122 -44 -246 -44c-256 0 -357 127 -357 264c0 92 49 171 123 223c80 57 174 72 270 72c99 0 196 -13 274 -78c14 -11 49 -43 70 -89c21 -47 24 -99 27 -159h-520c9 -38 36 -97 135 -97c51 0 83 20 108 43zM286 323
h272c-15 60 -76 81 -133 81c-86 0 -126 -47 -139 -81zM709 611h-186l-35 70l-68 -70h-188l118 121h305z" />
    <glyph glyph-name="eacute" unicode="&#xe9;" horiz-adv-x="833" 
d="M513 165l243 -15c-19 -35 -45 -82 -127 -120c-48 -22 -122 -44 -246 -44c-256 0 -357 127 -357 264c0 92 49 171 123 223c80 57 174 72 270 72c99 0 196 -13 274 -78c14 -11 49 -43 70 -89c21 -47 24 -99 27 -159h-520c9 -38 36 -97 135 -97c51 0 83 20 108 43zM286 323
h272c-15 60 -76 81 -133 81c-86 0 -126 -47 -139 -81zM706 732l-178 -122h-181l85 122h274z" />
    <glyph glyph-name="egrave" unicode="&#xe8;" horiz-adv-x="833" 
d="M513 165l243 -15c-19 -35 -45 -82 -127 -120c-48 -22 -122 -44 -246 -44c-256 0 -357 127 -357 264c0 92 49 171 123 223c80 57 174 72 270 72c99 0 196 -13 274 -78c14 -11 49 -43 70 -89c21 -47 24 -99 27 -159h-520c9 -38 36 -97 135 -97c51 0 83 20 108 43zM286 323
h272c-15 60 -76 81 -133 81c-86 0 -126 -47 -139 -81zM591 611h-181l-180 121h276z" />
    <glyph glyph-name="ccedilla" unicode="&#xe7;" horiz-adv-x="812" 
d="M787 347l-230 -15c0 30 -28 73 -112 73c-135 0 -177 -99 -177 -155c0 -86 75 -120 142 -120c74 0 119 32 141 82l234 -11c-1 -3 -26 -55 -52 -87c-102 -123 -291 -128 -297 -128l-22 -32c71 -6 96 -41 96 -82c0 -62 -67 -117 -164 -117c-45 0 -75 9 -119 23l25 53
c29 -8 38 -10 71 -10c25 0 57 12 57 37c0 11 -11 26 -33 26c-16 0 -30 -11 -36 -14l-31 38c29 29 50 49 80 78c-151 6 -239 54 -290 128c-42 60 -45 120 -45 139c0 189 189 294 413 294c93 0 336 -28 349 -200z" />
    <glyph glyph-name="aring" unicode="&#xe5;" horiz-adv-x="833" 
d="M724 0h-247s-2 17 -2 25s1 18 3 34c-20 -11 -40 -23 -61 -33c-34 -16 -103 -42 -199 -42c-113 0 -214 52 -214 157c0 56 19 107 92 145c57 31 193 39 273 42l166 6s1 10 1 17c0 39 -29 62 -109 62c-25 0 -77 -2 -101 -19c-13 -9 -18 -22 -21 -27h-228c11 31 22 60 41 84
c73 91 241 95 343 95c69 0 190 -1 256 -43c43 -27 60 -71 60 -121c0 -24 -2 -46 -13 -93l-46 -200c-3 -11 -5 -26 -5 -38c0 -20 10 -47 11 -51zM512 235c-6 0 -21 1 -40 1c-105 0 -223 -11 -223 -66c0 -23 24 -47 67 -47c137 0 185 68 196 112zM625 689
c0 -64 -50 -113 -155 -113c-86 0 -129 36 -129 92c0 32 14 112 155 112c83 0 129 -37 129 -91zM428 674c0 -25 33 -31 55 -31c24 0 55 9 55 36c0 22 -28 30 -52 30c-29 0 -58 -10 -58 -35z" />
    <glyph glyph-name="adieresis" unicode="&#xe4;" horiz-adv-x="833" 
d="M724 0h-247s-2 17 -2 25s1 18 3 34c-20 -11 -40 -23 -61 -33c-34 -16 -103 -42 -199 -42c-113 0 -214 52 -214 157c0 56 19 107 92 145c57 31 193 39 273 42l166 6s1 10 1 17c0 39 -29 62 -109 62c-25 0 -77 -2 -101 -19c-13 -9 -18 -22 -21 -27h-228c11 31 22 60 41 84
c73 91 241 95 343 95c69 0 190 -1 256 -43c43 -27 60 -71 60 -121c0 -24 -2 -46 -13 -93l-46 -200c-3 -11 -5 -26 -5 -38c0 -20 10 -47 11 -51zM512 235c-6 0 -21 1 -40 1c-105 0 -223 -11 -223 -66c0 -23 24 -47 67 -47c137 0 185 68 196 112zM782 732l-27 -122h-207
l28 122h206zM439 731l-26 -121h-208l28 121h206z" />
    <glyph glyph-name="atilde" unicode="&#xe3;" horiz-adv-x="833" 
d="M724 0h-247s-2 17 -2 25s1 18 3 34c-20 -11 -40 -23 -61 -33c-34 -16 -103 -42 -199 -42c-113 0 -214 52 -214 157c0 56 19 107 92 145c57 31 193 39 273 42l166 6s1 10 1 17c0 39 -29 62 -109 62c-25 0 -77 -2 -101 -19c-13 -9 -18 -22 -21 -27h-228c11 31 22 60 41 84
c73 91 241 95 343 95c69 0 190 -1 256 -43c43 -27 60 -71 60 -121c0 -24 -2 -46 -13 -93l-46 -200c-3 -11 -5 -26 -5 -38c0 -20 10 -47 11 -51zM512 235c-6 0 -21 1 -40 1c-105 0 -223 -11 -223 -66c0 -23 24 -47 67 -47c137 0 185 68 196 112zM628 774l72 -71
c-42 -66 -99 -100 -148 -100c-57 0 -89 49 -138 49c-27 0 -61 -13 -91 -53l-68 72c44 61 90 99 142 99c65 0 92 -46 149 -46c24 0 59 17 82 50z" />
    <glyph glyph-name="acircumflex" unicode="&#xe2;" horiz-adv-x="833" 
d="M724 0h-247s-2 17 -2 25s1 18 3 34c-20 -11 -40 -23 -61 -33c-34 -16 -103 -42 -199 -42c-113 0 -214 52 -214 157c0 56 19 107 92 145c57 31 193 39 273 42l166 6s1 10 1 17c0 39 -29 62 -109 62c-25 0 -77 -2 -101 -19c-13 -9 -18 -22 -21 -27h-228c11 31 22 60 41 84
c73 91 241 95 343 95c69 0 190 -1 256 -43c43 -27 60 -71 60 -121c0 -24 -2 -46 -13 -93l-46 -200c-3 -11 -5 -26 -5 -38c0 -20 10 -47 11 -51zM512 235c-6 0 -21 1 -40 1c-105 0 -223 -11 -223 -66c0 -23 24 -47 67 -47c137 0 185 68 196 112zM710 611h-186l-35 70l-68 -70
h-188l118 121h305z" />
    <glyph glyph-name="aacute" unicode="&#xe1;" horiz-adv-x="833" 
d="M724 0h-247s-2 17 -2 25s1 18 3 34c-20 -11 -40 -23 -61 -33c-34 -16 -103 -42 -199 -42c-113 0 -214 52 -214 157c0 56 19 107 92 145c57 31 193 39 273 42l166 6s1 10 1 17c0 39 -29 62 -109 62c-25 0 -77 -2 -101 -19c-13 -9 -18 -22 -21 -27h-228c11 31 22 60 41 84
c73 91 241 95 343 95c69 0 190 -1 256 -43c43 -27 60 -71 60 -121c0 -24 -2 -46 -13 -93l-46 -200c-3 -11 -5 -26 -5 -38c0 -20 10 -47 11 -51zM512 235c-6 0 -21 1 -40 1c-105 0 -223 -11 -223 -66c0 -23 24 -47 67 -47c137 0 185 68 196 112zM706 732l-178 -122h-181
l85 122h274z" />
    <glyph glyph-name="agrave" unicode="&#xe0;" horiz-adv-x="833" 
d="M724 0h-247s-2 17 -2 25s1 18 3 34c-20 -11 -40 -23 -61 -33c-34 -16 -103 -42 -199 -42c-113 0 -214 52 -214 157c0 56 19 107 92 145c57 31 193 39 273 42l166 6s1 10 1 17c0 39 -29 62 -109 62c-25 0 -77 -2 -101 -19c-13 -9 -18 -22 -21 -27h-228c11 31 22 60 41 84
c73 91 241 95 343 95c69 0 190 -1 256 -43c43 -27 60 -71 60 -121c0 -24 -2 -46 -13 -93l-46 -200c-3 -11 -5 -26 -5 -38c0 -20 10 -47 11 -51zM512 235c-6 0 -21 1 -40 1c-105 0 -223 -11 -223 -66c0 -23 24 -47 67 -47c137 0 185 68 196 112zM601 611h-181l-180 121h276z
" />
    <glyph glyph-name="Thorn" unicode="&#xde;" horiz-adv-x="875" 
d="M162 706h251l-25 -109h209c116 0 186 -24 232 -83c30 -38 37 -82 37 -121c0 -70 -33 -134 -74 -175c-54 -53 -142 -75 -240 -75h-269l-34 -143h-250zM352 439l-32 -138h198c40 0 98 15 98 84c0 42 -38 54 -74 54h-190z" />
    <glyph glyph-name="Yacute" unicode="&#xdd;" 
d="M760 897l-179 -121h-179l85 121h273zM954 706l-438 -498l-47 -208h-254l50 213l-174 493h263l79 -295l221 295h300z" />
    <glyph glyph-name="Udieresis" unicode="&#xdc;" horiz-adv-x="958" 
d="M888 898l-28 -121h-206l28 121h206zM546 898l-29 -121h-206l28 121h207zM734 706h254l-104 -449c-3 -11 -22 -75 -50 -119c-88 -140 -261 -160 -409 -160c-168 0 -284 36 -337 95c-18 20 -41 57 -41 124c0 39 8 80 11 92l96 417h252l-95 -416c-2 -7 -5 -30 -5 -47
c0 -12 1 -49 27 -75s72 -35 114 -35c61 0 108 16 146 63c26 33 39 67 57 145z" />
    <glyph glyph-name="Ucircumflex" unicode="&#xdb;" horiz-adv-x="958" 
d="M825 776h-186l-35 70l-68 -70h-188l119 121h305zM734 706h254l-104 -449c-3 -11 -22 -75 -50 -119c-88 -140 -261 -160 -409 -160c-168 0 -284 36 -337 95c-18 20 -41 57 -41 124c0 39 8 80 11 92l96 417h252l-95 -416c-2 -7 -5 -30 -5 -47c0 -12 1 -49 27 -75
s72 -35 114 -35c61 0 108 16 146 63c26 33 39 67 57 145z" />
    <glyph glyph-name="Uacute" unicode="&#xda;" horiz-adv-x="958" 
d="M812 897l-179 -121h-179l85 121h273zM734 706h254l-104 -449c-3 -11 -22 -75 -50 -119c-88 -140 -261 -160 -409 -160c-168 0 -284 36 -337 95c-18 20 -41 57 -41 124c0 39 8 80 11 92l96 417h252l-95 -416c-2 -7 -5 -30 -5 -47c0 -12 1 -49 27 -75s72 -35 114 -35
c61 0 108 16 146 63c26 33 39 67 57 145z" />
    <glyph glyph-name="Ugrave" unicode="&#xd9;" horiz-adv-x="958" 
d="M717 775h-180l-179 122h276zM734 706h254l-104 -449c-3 -11 -22 -75 -50 -119c-88 -140 -261 -160 -409 -160c-168 0 -284 36 -337 95c-18 20 -41 57 -41 124c0 39 8 80 11 92l96 417h252l-95 -416c-2 -7 -5 -30 -5 -47c0 -12 1 -49 27 -75s72 -35 114 -35
c61 0 108 16 146 63c26 33 39 67 57 145z" />
    <glyph glyph-name="multiply" unicode="&#xd7;" horiz-adv-x="772" 
d="M676 414l-157 -112l126 -126l-153 -120l-134 131l-163 -117l-106 123l152 108l-125 125l153 121l134 -130l168 120z" />
    <glyph glyph-name="Odieresis" unicode="&#xd6;" horiz-adv-x="979" 
d="M899 898l-28 -121h-206l28 121h206zM557 898l-29 -121h-206l28 121h207zM953 416c0 -116 -52 -236 -137 -313c-54 -50 -167 -123 -365 -123c-41 0 -180 2 -281 76c-80 58 -123 151 -123 250c0 70 21 140 57 201c121 208 353 223 443 223c263 0 406 -126 406 -314z
M705 404c0 110 -62 169 -162 169c-142 0 -245 -117 -245 -261c0 -104 65 -178 171 -178c138 0 236 117 236 270z" />
    <glyph glyph-name="Otilde" unicode="&#xd5;" horiz-adv-x="979" 
d="M737 930l77 -73c-45 -68 -106 -103 -159 -103c-61 0 -95 51 -147 51c-29 0 -65 -14 -97 -55l-73 74c47 63 96 102 152 102c69 0 98 -47 159 -47c26 0 63 17 88 51zM953 416c0 -116 -52 -236 -137 -313c-54 -50 -167 -123 -365 -123c-41 0 -180 2 -281 76
c-80 58 -123 151 -123 250c0 70 21 140 57 201c121 208 353 223 443 223c263 0 406 -126 406 -314zM705 404c0 110 -62 169 -162 169c-142 0 -245 -117 -245 -261c0 -104 65 -178 171 -178c138 0 236 117 236 270z" />
    <glyph glyph-name="Ocircumflex" unicode="&#xd4;" horiz-adv-x="979" 
d="M811 776h-186l-35 70l-68 -70h-188l119 121h305zM953 416c0 -116 -52 -236 -137 -313c-54 -50 -167 -123 -365 -123c-41 0 -180 2 -281 76c-80 58 -123 151 -123 250c0 70 21 140 57 201c121 208 353 223 443 223c263 0 406 -126 406 -314zM705 404
c0 110 -62 169 -162 169c-142 0 -245 -117 -245 -261c0 -104 65 -178 171 -178c138 0 236 117 236 270z" />
    <glyph glyph-name="Oacute" unicode="&#xd3;" horiz-adv-x="979" 
d="M823 897l-179 -121h-179l85 121h273zM953 416c0 -116 -52 -236 -137 -313c-54 -50 -167 -123 -365 -123c-41 0 -180 2 -281 76c-80 58 -123 151 -123 250c0 70 21 140 57 201c121 208 353 223 443 223c263 0 406 -126 406 -314zM705 404c0 110 -62 169 -162 169
c-142 0 -245 -117 -245 -261c0 -104 65 -178 171 -178c138 0 236 117 236 270z" />
    <glyph glyph-name="Ograve" unicode="&#xd2;" horiz-adv-x="979" 
d="M727 775h-180l-179 122h276zM953 416c0 -116 -52 -236 -137 -313c-54 -50 -167 -123 -365 -123c-41 0 -180 2 -281 76c-80 58 -123 151 -123 250c0 70 21 140 57 201c121 208 353 223 443 223c263 0 406 -126 406 -314zM705 404c0 110 -62 169 -162 169
c-142 0 -245 -117 -245 -261c0 -104 65 -178 171 -178c138 0 236 117 236 270z" />
    <glyph glyph-name="Ntilde" unicode="&#xd1;" horiz-adv-x="938" 
d="M751 930l77 -73c-45 -68 -106 -103 -159 -103c-61 0 -95 51 -147 51c-29 0 -65 -14 -97 -55l-73 74c47 63 96 102 152 102c69 0 98 -47 159 -47c26 0 63 17 88 51zM960 706l-164 -706h-227l-236 443l-100 -443h-235l164 706h228l239 -447l103 447h228z" />
    <glyph glyph-name="Eth" unicode="&#xd0;" horiz-adv-x="938" 
d="M161 706h378c100 0 235 -2 331 -120c49 -61 61 -132 61 -192c-1 -74 -22 -158 -78 -231c-115 -152 -289 -163 -418 -163h-437l75 328h-72l25 89h68zM378 550l-32 -133h201l-23 -89h-198l-40 -172h148c128 0 182 33 222 118c11 23 28 66 28 121c0 131 -101 155 -196 155
h-110z" />
    <glyph glyph-name="Idieresis" unicode="&#xcf;" horiz-adv-x="396" 
d="M608 898l-28 -121h-206l28 121h206zM266 898l-29 -121h-206l28 121h207zM416 706l-163 -706h-253l163 706h253z" />
    <glyph glyph-name="Icircumflex" unicode="&#xce;" horiz-adv-x="396" 
d="M544 776h-186l-35 70l-68 -70h-188l119 121h305zM416 706l-163 -706h-253l163 706h253z" />
    <glyph glyph-name="Iacute" unicode="&#xcd;" horiz-adv-x="396" 
d="M531 897l-179 -121h-179l85 121h273zM416 706l-163 -706h-253l163 706h253z" />
    <glyph glyph-name="Igrave" unicode="&#xcc;" horiz-adv-x="396" 
d="M436 775h-180l-179 122h276zM416 706l-163 -706h-253l163 706h253z" />
    <glyph glyph-name="Edieresis" unicode="&#xcb;" 
d="M837 898l-28 -121h-206l28 121h206zM495 898l-29 -121h-206l28 121h207zM891 706l-36 -155h-478l-27 -118h456l-36 -156h-456l-28 -117h513l-37 -160h-762l163 706h728z" />
    <glyph glyph-name="Ecircumflex" unicode="&#xca;" 
d="M773 776h-186l-35 70l-68 -70h-188l119 121h305zM891 706l-36 -155h-478l-27 -118h456l-36 -156h-456l-28 -117h513l-37 -160h-762l163 706h728z" />
    <glyph glyph-name="Eacute" unicode="&#xc9;" 
d="M760 897l-179 -121h-179l85 121h273zM891 706l-36 -155h-478l-27 -118h456l-36 -156h-456l-28 -117h513l-37 -160h-762l163 706h728z" />
    <glyph glyph-name="Egrave" unicode="&#xc8;" 
d="M665 775h-180l-179 122h276zM891 706l-36 -155h-478l-27 -118h456l-36 -156h-456l-28 -117h513l-37 -160h-762l163 706h728z" />
    <glyph glyph-name="Ccedilla" unicode="&#xc7;" horiz-adv-x="917" 
d="M915 492l-225 -23c-20 105 -118 108 -146 108c-81 0 -172 -27 -227 -128c-13 -23 -30 -68 -30 -127c0 -117 73 -180 185 -180c113 0 170 63 192 117l223 -25c-10 -27 -30 -85 -111 -150c-122 -96 -263 -103 -292 -105l-18 -25c74 -6 96 -43 96 -85c0 -27 -17 -51 -26 -61
c-39 -45 -97 -53 -137 -53c-46 0 -76 9 -120 23l25 53c29 -8 38 -10 71 -10c25 0 57 11 57 37c0 10 -10 26 -32 26c-16 0 -31 -11 -36 -14l-32 38c27 27 47 46 75 73c-250 25 -358 148 -358 333c0 97 36 209 141 300c73 63 187 117 353 117c141 0 236 -42 295 -96
c67 -61 74 -121 77 -143z" />
    <glyph glyph-name="Aring" unicode="&#xc5;" horiz-adv-x="896" 
d="M706 865c0 -64 -50 -112 -155 -112c-86 0 -129 35 -129 91c0 32 14 112 155 112c83 0 129 -37 129 -91zM509 850c0 -25 33 -31 55 -31c24 0 55 9 55 36c0 22 -28 30 -52 30c-29 0 -58 -10 -58 -35zM822 0h-257l-13 113h-284l-65 -113h-277l476 706h297zM534 270l-30 251
l-145 -251h175z" />
    <glyph glyph-name="Adieresis" unicode="&#xc4;" horiz-adv-x="896" 
d="M857 898l-28 -121h-206l28 121h206zM515 898l-29 -121h-206l28 121h207zM822 0h-257l-13 113h-284l-65 -113h-277l476 706h297zM534 270l-30 251l-145 -251h175z" />
    <glyph glyph-name="Atilde" unicode="&#xc3;" horiz-adv-x="896" 
d="M730 930l77 -73c-45 -68 -106 -103 -159 -103c-61 0 -95 51 -147 51c-29 0 -65 -14 -97 -55l-73 74c47 63 96 102 152 102c69 0 98 -47 159 -47c26 0 63 17 88 51zM822 0h-257l-13 113h-284l-65 -113h-277l476 706h297zM534 270l-30 251l-145 -251h175z" />
    <glyph glyph-name="Acircumflex" unicode="&#xc2;" horiz-adv-x="896" 
d="M794 776h-186l-35 70l-68 -70h-188l119 121h305zM822 0h-257l-13 113h-284l-65 -113h-277l476 706h297zM534 270l-30 251l-145 -251h175z" />
    <glyph glyph-name="Aacute" unicode="&#xc1;" horiz-adv-x="896" 
d="M781 897l-179 -121h-179l85 121h273zM822 0h-257l-13 113h-284l-65 -113h-277l476 706h297zM534 270l-30 251l-145 -251h175z" />
    <glyph glyph-name="Agrave" unicode="&#xc0;" horiz-adv-x="896" 
d="M686 775h-180l-179 122h276zM822 0h-257l-13 113h-284l-65 -113h-277l476 706h297zM534 270l-30 251l-145 -251h175z" />
    <glyph glyph-name="mu" unicode="&#xb5;" horiz-adv-x="823" 
d="M570 530h232l-102 -440c-3 -14 -5 -28 -5 -40c0 -15 3 -29 11 -50h-227c-6 15 -8 30 -8 51c0 6 0 11 1 21c-38 -58 -74 -81 -130 -81c-39 0 -67 6 -98 37l-48 -211h-226l163 713h230l-61 -268c-4 -17 -6 -29 -6 -45c0 -46 28 -73 75 -73c70 0 122 57 146 159z" />
    <glyph glyph-name="plusminus" unicode="&#xb1;" horiz-adv-x="772" 
d="M746 557l-37 -163h-196l-43 -181h-205l42 181h-198l38 163h198l40 173h205l-39 -173h195zM657 164l-38 -164h-600l38 164h600z" />
    <glyph glyph-name="degree" unicode="&#xb0;" horiz-adv-x="354" 
d="M396 573c0 -95 -77 -173 -172 -173s-172 78 -172 173c0 96 76 172 172 172s172 -76 172 -172zM281 575c0 31 -26 55 -56 55c-31 0 -56 -24 -56 -55c0 -30 26 -56 56 -56s56 26 56 56z" />
    <glyph glyph-name="registered" unicode="&#xae;" horiz-adv-x="760" 
d="M371 481l-21 -94h75c37 0 60 15 60 53c0 30 -15 41 -60 41h-54zM277 570h159c65 0 104 -8 129 -25c27 -19 42 -51 42 -92c0 -39 -14 -84 -34 -108c-21 -25 -52 -40 -95 -46l83 -146h-127l-74 143h-31l-32 -143h-114zM747 352c0 -199 -160 -355 -357 -355
c-199 0 -355 158 -355 358c0 198 156 354 356 354c198 0 356 -155 356 -357zM692 352c0 173 -132 309 -301 309c-166 0 -300 -138 -300 -308c0 -172 133 -308 300 -308s301 137 301 307z" />
    <glyph glyph-name="logicalnot" unicode="&#xac;" horiz-adv-x="772" 
d="M707 384l-83 -357h-204l44 194h-417l38 163h622z" />
    <glyph glyph-name="copyright" unicode="&#xa9;" horiz-adv-x="760" 
d="M625 423l-125 -15c-15 41 -47 62 -96 62c-74 0 -125 -51 -125 -125c0 -62 41 -101 105 -101c43 0 76 18 97 53l120 -23c-44 -92 -118 -136 -226 -136c-129 0 -217 81 -217 200c0 134 107 235 250 235c110 0 198 -57 217 -150zM747 352c0 -199 -160 -355 -357 -355
c-199 0 -355 158 -355 358c0 198 156 354 356 354c198 0 356 -155 356 -357zM692 352c0 173 -132 309 -301 309c-166 0 -300 -138 -300 -308c0 -172 133 -308 300 -308s301 137 301 307z" />
    <glyph glyph-name="brokenbar" unicode="&#xa6;" horiz-adv-x="287" 
d="M334 760l-94 -409h-168l95 409h167zM203 197l-94 -409h-168l95 409h167z" />
    <glyph glyph-name="minus" unicode="&#x2212;" horiz-adv-x="772" 
d="M715 384l-38 -163h-623l38 163h623z" />
    <glyph glyph-name="threesuperior" unicode="&#xb3;" horiz-adv-x="562" 
d="M232 446l20 88l58 2c85 3 100 31 100 51c0 25 -24 38 -60 38c-26 0 -98 -7 -104 -52h-138c1 10 4 47 37 81c56 59 170 67 228 67c138 0 186 -55 186 -111c0 -67 -67 -88 -122 -102c70 -20 103 -56 103 -109c0 -55 -66 -141 -258 -141c-49 0 -158 8 -203 67
c-17 23 -20 48 -22 69l139 10c14 -43 60 -48 89 -48c55 0 102 17 102 54s-44 41 -73 41c-32 0 -56 -2 -82 -5z" />
    <glyph glyph-name="twosuperior" unicode="&#xb2;" horiz-adv-x="562" 
d="M499 238h-450c7 40 15 78 35 108c24 35 52 62 263 152c18 8 64 28 64 57c0 27 -37 38 -64 38c-78 0 -90 -40 -96 -81c0 0 -123 2 -137 2c4 31 7 56 23 84c49 86 161 93 222 93c120 0 201 -37 201 -120s-103 -133 -121 -141c-110 -48 -173 -61 -194 -90h278z" />
    <glyph glyph-name="onesuperior" unicode="&#xb9;" horiz-adv-x="562" 
d="M470 706l-103 -441h-151l71 307c-46 -15 -64 -18 -111 -20l22 96c79 11 123 35 159 58h113z" />
    <glyph glyph-name="threequarters" unicode="&#xbe;" horiz-adv-x="1250" 
d="M1190 183l-24 -102h-90l-18 -81h-150l19 81h-260l24 104l285 257h185l-60 -259h89zM986 332l-162 -149h126zM215 446l20 88l58 2c85 3 100 31 100 51c0 25 -24 38 -60 38c-26 0 -98 -7 -104 -52h-138c1 10 4 47 37 81c56 59 170 67 228 67c138 0 186 -55 186 -111
c0 -67 -67 -88 -122 -102c70 -20 103 -56 103 -109c0 -55 -66 -141 -258 -141c-49 0 -158 8 -203 67c-17 23 -20 48 -22 69l139 10c14 -43 60 -48 89 -48c55 0 102 17 102 54s-44 41 -73 41c-32 0 -56 -2 -82 -5zM983 676l-564 -706l-88 62l565 704z" />
    <glyph glyph-name="onehalf" unicode="&#xbd;" horiz-adv-x="1250" 
d="M1098 0h-450c7 40 15 78 35 108c24 35 52 62 263 152c18 8 64 28 64 57c0 27 -37 38 -64 38c-78 0 -90 -40 -96 -81c0 0 -113 2 -127 2c4 31 7 56 23 84c49 86 151 93 212 93c120 0 201 -37 201 -120s-103 -133 -121 -141c-110 -48 -173 -61 -194 -90h278zM433 706
l-103 -441h-151l71 307c-46 -15 -64 -18 -111 -20l22 96c79 11 123 35 159 58h113zM894 676l-564 -706l-88 62l565 704z" />
    <glyph glyph-name="onequarter" unicode="&#xbc;" horiz-adv-x="1250" 
d="M1148 183l-24 -102h-90l-18 -81h-150l19 81h-260l24 104l285 257h185l-60 -259h89zM944 332l-162 -149h126zM430 706l-103 -441h-151l71 307c-46 -15 -64 -18 -111 -20l22 96c79 11 123 35 159 58h113zM894 676l-564 -706l-88 62l565 704z" />
    <glyph glyph-name="nbspace" unicode="&#xa0;" horiz-adv-x="390" 
 />
    <glyph glyph-name="uni00AD" unicode="&#xad;" horiz-adv-x="415" 
d="M408 403l-41 -175h-356l41 175h356z" />
    </font>
</defs>
</svg>
