<?xml version="1.0" standalone="no"?>
<!DOCTYPE svg PUBLIC "-//W3C//DTD SVG 1.1//EN" "http://www.w3.org/Graphics/SVG/1.1/DTD/svg11.dtd" >
<svg>
<metadata>
Created by FontForge 20120731 at Wed Jul  3 14:29:35 2019
 By www-data
Berthold first published Akzidenz-Grotesk in 1896. The design originates from Royal Grotesk light by Ferdinand Theinhardt who also supplied the regular, medium and bold weights. Throughout the years, Berthold has expanded this extremely popular and versatile family. AG Super was developed in 1968 by Guenter Gerhard Lange and is an excellent choice for headlines. In 2001, Guenter Gerhard Lange added more weights for Berthold including Super Italic and Extra Bold italic.
</metadata>
<defs>
<font id="AkzidenzGroteskBE-XBdCn" horiz-adv-x="500" >
  <font-face 
    font-family="Akzidenz Grotesk BE XBdCn"
    font-weight="800"
    font-stretch="condensed"
    units-per-em="1000"
    panose-1="2 0 5 6 6 0 0 2 0 4"
    ascent="750"
    descent="-250"
    x-height="531"
    cap-height="706"
    bbox="-95 -243 1098 927"
    underline-thickness="50"
    underline-position="-50"
    stemh="102"
    stemv="158"
    unicode-range="U+0020-FB02"
  />
<missing-glyph 
d="M0 0v706h500v-706h-500zM250 401l170 255h-340zM280 353l170 -258v516zM80 50h340l-170 258zM50 611v-516l170 258z" />
    <glyph glyph-name="fi" unicode="fi" horiz-adv-x="563" 
d="M517 584h-159v122h159v-122zM517 0h-159v531h159v-531zM304 432h-71v-432h-158v432h-70v99h70v60c0 86 31 115 125 115h104v-100h-30c-30 0 -41 -10 -41 -41v-34h71v-99z" />
    <glyph glyph-name="fl" unicode="fl" horiz-adv-x="563" 
d="M517 0h-160v706h160v-706zM304 432h-71v-432h-158v432h-70v99h70v60c0 86 31 115 125 115h104v-100h-30c-30 0 -41 -10 -41 -41v-34h71v-99z" />
    <glyph glyph-name=".notdef" 
d="M0 0v706h500v-706h-500zM250 401l170 255h-340zM280 353l170 -258v516zM80 50h340l-170 258zM50 611v-516l170 258z" />
    <glyph glyph-name="space" unicode=" " horiz-adv-x="271" 
 />
    <glyph glyph-name="exclam" unicode="!" horiz-adv-x="292" 
d="M92 706h148v-85c0 -58 -4 -116 -10 -174c-7 -70 -13 -145 -20 -218h-92c-4 66 -11 145 -16 213c-4 60 -10 120 -10 179v85zM239 0h-148v154h148v-154z" />
    <glyph glyph-name="quotedbl" unicode="&#x22;" horiz-adv-x="313" 
d="M299 741l-43 -288h-36l-43 288h122zM136 741l-43 -288h-36l-43 288h122z" />
    <glyph glyph-name="numbersign" unicode="#" horiz-adv-x="561" 
d="M551 408h-112l-8 -100h109v-107h-119l-17 -201h-109l18 201h-91l-18 -201h-107l17 201h-105v107h114l8 100h-108v107h117l17 191h108l-16 -191h90l16 191h109l-16 -191h103v-107zM330 408h-90l-9 -100h91z" />
    <glyph glyph-name="dollar" unicode="$" 
d="M25 227h170v-50c0 -31 3 -64 54 -64c53 0 57 26 57 64c0 52 -26 62 -84 102l-88 61c-63 44 -99 72 -99 180c0 104 24 191 174 197v117h83v-117c145 -3 168 -79 168 -186v-42h-162v57c0 40 -12 53 -52 53c-45 0 -45 -38 -45 -71c0 -58 30 -61 92 -103l104 -70
c57 -38 80 -70 80 -163c0 -56 -5 -112 -49 -152c-39 -36 -85 -43 -136 -49v-128h-83v128c-120 13 -184 39 -184 197v39z" />
    <glyph glyph-name="percent" unicode="%" horiz-adv-x="792" 
d="M545 706l-233 -706h-71l233 706h71zM27 383v202c0 75 17 131 144 131c121 0 138 -55 138 -115v-211c0 -89 -39 -129 -134 -129c-134 0 -148 65 -148 122zM205 375v229c0 26 -8 34 -38 34c-34 0 -34 -22 -34 -34v-229c0 -20 4 -32 35 -32c32 0 37 14 37 32zM482 118v202
c0 75 17 132 144 132c121 0 138 -56 138 -116v-211c0 -89 -39 -129 -134 -129c-134 0 -148 65 -148 122zM661 110v229c0 26 -8 35 -38 35c-34 0 -34 -23 -34 -35v-229c0 -20 4 -32 35 -32c32 0 37 14 37 32z" />
    <glyph glyph-name="ampersand" unicode="&#x26;" horiz-adv-x="604" 
d="M592 0h-113c-55 0 -66 9 -90 30c-30 -19 -67 -42 -145 -42c-27 0 -223 3 -223 191c0 103 61 134 157 208l-27 42c-35 54 -39 82 -39 115c0 91 79 152 181 152c122 0 184 -66 184 -151c0 -15 -1 -39 -17 -70c-24 -47 -67 -78 -109 -108l73 -122c10 49 11 58 11 108h119
c-4 -139 -31 -191 -57 -234c6 -11 15 -30 69 -30h26v-89zM295 464c29 19 70 47 70 86c0 31 -29 53 -60 53c-32 0 -48 -26 -48 -51c0 -29 21 -62 38 -88zM330 126l-91 156c-28 -17 -73 -44 -73 -90c0 -31 33 -97 87 -97c32 0 58 18 77 31z" />
    <glyph glyph-name="quoteright" unicode="&#x2019;" horiz-adv-x="250" 
d="M198 554l-80 -152h-67l46 152h-46v152h147v-152z" />
    <glyph glyph-name="parenleft" unicode="(" horiz-adv-x="354" 
d="M331 709v-62c-80 -8 -101 -28 -101 -109v-574c0 -74 29 -97 101 -100v-60h-9c-125 0 -238 58 -238 228v450c0 70 10 123 66 170c54 45 113 53 181 57z" />
    <glyph glyph-name="parenright" unicode=")" horiz-adv-x="354" 
d="M23 650v59h9c132 0 238 -61 238 -231v-447c0 -70 -10 -123 -66 -170c-52 -44 -115 -52 -181 -56v61c80 8 101 28 101 109v574c0 58 -16 97 -101 101z" />
    <glyph glyph-name="asterisk" unicode="*" horiz-adv-x="411" 
d="M394 534l-99 -34l61 -78l-85 -67l-66 85l-61 -85l-87 64l57 79l-98 29l31 104l101 -30v105h108v-105l103 35z" />
    <glyph glyph-name="plus" unicode="+" horiz-adv-x="558" 
d="M477 237h-119v-146h-156v146h-121v126h121v146h156v-146h119v-126z" />
    <glyph glyph-name="comma" unicode="," horiz-adv-x="250" 
d="M199 0l-84 -152h-70l54 152h-47v153h147v-153z" />
    <glyph glyph-name="hyphen" unicode="-" horiz-adv-x="329" 
d="M301 235h-273v122h273v-122z" />
    <glyph glyph-name="period" unicode="." horiz-adv-x="250" 
d="M199 0h-148v152h148v-152z" />
    <glyph glyph-name="slash" unicode="/" horiz-adv-x="313" 
d="M305 706l-174 -706h-122l172 706h124z" />
    <glyph glyph-name="zero" unicode="0" 
d="M466 520v-334c0 -135 -58 -198 -216 -198c-122 0 -217 34 -217 191v339c0 164 98 201 215 201c121 0 218 -39 218 -199zM303 171v349c0 39 -10 69 -54 69c-41 0 -54 -25 -54 -67v-349c0 -36 5 -65 54 -65c53 0 54 37 54 63z" />
    <glyph glyph-name="one" unicode="1" 
d="M343 0h-151v519c-41 -24 -59 -34 -107 -50v143c82 9 113 60 128 94h130v-706z" />
    <glyph glyph-name="two" unicode="2" 
d="M458 134v-134h-420v61c0 78 20 133 73 191c37 41 81 77 122 115c59 54 70 69 70 117v52c0 14 0 63 -54 63c-48 0 -57 -32 -57 -64v-99h-148v100c0 125 70 183 209 183c110 0 207 -47 207 -167v-61c0 -46 -3 -95 -49 -138l-108 -101c-61 -57 -72 -71 -86 -118h241z" />
    <glyph glyph-name="three" unicode="3" 
d="M181 429h65c45 0 61 16 61 64v31c0 42 -2 79 -57 79c-34 0 -54 -14 -54 -56v-59h-149v75c0 52 13 156 199 156c145 0 208 -55 208 -162v-38c0 -87 -10 -99 -80 -146c44 -18 85 -40 85 -125v-74c0 -138 -52 -187 -214 -187c-121 0 -204 27 -204 156v101h155v-74
c0 -51 18 -67 55 -67c48 0 55 36 55 84v50c0 43 -1 71 -55 71h-70v121z" />
    <glyph glyph-name="four" unicode="4" 
d="M479 155h-74v-155h-143v155h-228v129l202 422h169v-427h74v-124zM262 279v274l-120 -274h120z" />
    <glyph glyph-name="five" unicode="5" 
d="M45 323v383h396v-125h-250v-150c20 29 55 52 111 52c111 0 156 -69 156 -176v-132c0 -78 -12 -186 -210 -186c-140 0 -212 46 -212 165v76h155v-55c0 -47 13 -66 55 -66c53 0 54 39 54 69v136c0 40 -20 60 -56 60c-40 0 -53 -22 -53 -51h-146z" />
    <glyph glyph-name="six" unicode="6" 
d="M454 494h-147v37c0 20 -1 61 -51 61c-55 0 -59 -42 -59 -67v-131c20 20 45 46 108 46c86 0 129 -43 143 -77c7 -18 10 -30 10 -65v-143c0 -124 -98 -167 -206 -167c-165 0 -208 89 -208 192v357c0 57 11 181 202 181c118 0 208 -38 208 -169v-55zM308 207v45
c0 64 -9 91 -56 91c-49 0 -56 -27 -56 -88v-57c0 -58 4 -86 56 -86c56 0 56 39 56 95z" />
    <glyph glyph-name="seven" unicode="7" 
d="M27 490v216h436v-128c-116 -189 -165 -384 -181 -578h-169c15 209 116 421 206 584h-152v-94h-140z" />
    <glyph glyph-name="eight" unicode="8" 
d="M39 160v88c0 62 10 106 89 131c-62 11 -81 61 -81 125v52c0 120 95 163 205 163c112 0 201 -45 201 -166v-50c0 -68 -24 -106 -81 -124c73 -29 86 -57 86 -139v-95c0 -131 -114 -155 -213 -155c-153 0 -206 73 -206 170zM304 481v50c0 36 -4 67 -53 67
c-57 0 -57 -35 -57 -88v-19c0 -45 6 -70 50 -70c37 0 60 9 60 60zM302 187v56c0 53 -7 77 -53 77c-50 0 -56 -26 -56 -71v-69c0 -44 2 -77 53 -77c48 0 56 23 56 84z" />
    <glyph glyph-name="nine" unicode="9" 
d="M186 214v-50c0 -19 1 -58 55 -58c39 0 58 12 58 61v148c-14 -14 -43 -43 -104 -43c-120 0 -158 88 -158 179v65c0 130 58 204 211 204c154 0 203 -82 203 -202v-344c0 -92 -43 -184 -210 -184c-149 0 -207 72 -207 164v60h152zM187 513v-62c0 -42 3 -84 56 -84
c51 0 58 38 58 84v33c0 73 0 118 -58 118c-56 0 -56 -47 -56 -89z" />
    <glyph glyph-name="colon" unicode=":" horiz-adv-x="292" 
d="M238 386h-147v152h147v-152zM238 0h-147v152h147v-152z" />
    <glyph glyph-name="semicolon" unicode=";" horiz-adv-x="292" 
d="M235 386h-147v153h147v-153zM235 0l-84 -152h-69l51 152h-45v153h147v-153z" />
    <glyph glyph-name="less" unicode="&#x3c;" horiz-adv-x="559" 
d="M444 76l-358 193v133l358 195v-141l-222 -116l222 -109v-155z" />
    <glyph glyph-name="equal" unicode="=" horiz-adv-x="559" 
d="M474 357h-389v122h389v-122zM474 145h-389v122h389v-122z" />
    <glyph glyph-name="greater" unicode="&#x3e;" horiz-adv-x="559" 
d="M473 271l-358 -195v141l222 116l-222 109v155l358 -193v-133z" />
    <glyph glyph-name="question" unicode="?" 
d="M82 502v73c0 115 63 145 180 145c137 0 197 -37 197 -161c0 -38 -2 -70 -27 -94l-83 -80c-50 -48 -59 -56 -59 -99v-56h-146v50c0 65 16 92 56 131l75 73c25 24 35 36 35 71c0 16 -3 55 -42 55s-43 -31 -43 -49v-59h-143zM290 1h-148v151h148v-151z" />
    <glyph glyph-name="at" unicode="@" horiz-adv-x="834" 
d="M531 504h93l-35 -159c-24 -108 -30 -124 -30 -160c0 -17 7 -27 20 -27c58 0 125 160 125 264c0 133 -81 212 -218 212c-194 0 -358 -182 -358 -396c0 -178 122 -277 288 -277c113 0 228 50 324 141l48 -66c-53 -48 -76 -66 -127 -93c-83 -44 -164 -65 -254 -65
c-215 0 -373 133 -373 356c0 269 200 480 457 480c181 0 305 -115 305 -282c0 -189 -118 -364 -245 -364c-48 0 -81 25 -89 68c-38 -46 -79 -68 -126 -68c-83 0 -135 63 -135 164c0 155 104 292 220 292c43 0 72 -13 99 -60zM485 347c0 49 -24 81 -62 81
c-58 0 -114 -90 -114 -185c0 -49 22 -78 58 -78c59 0 118 95 118 182z" />
    <glyph glyph-name="A" unicode="A" horiz-adv-x="521" 
d="M518 0h-167l-24 161h-131l-25 -161h-167l143 706h228zM310 280l-47 314l-48 -314h95z" />
    <glyph glyph-name="B" unicode="B" horiz-adv-x="521" 
d="M51 706h252c114 0 176 -51 176 -138v-48c0 -95 -29 -124 -95 -146c84 -21 104 -66 104 -149v-32c0 -174 -79 -193 -175 -193h-262v706zM211 581v-151h70c42 0 47 24 47 77c0 56 -10 74 -52 74h-65zM211 306v-179h66c49 0 54 24 54 86c0 65 -2 93 -54 93h-66z" />
    <glyph glyph-name="C" unicode="C" horiz-adv-x="521" 
d="M494 269v-63c0 -158 -52 -215 -236 -215c-173 0 -218 68 -218 174v370c0 109 60 184 224 184c171 0 226 -71 226 -189v-85h-168v93c0 43 -16 58 -59 58c-44 0 -53 -25 -53 -64v-351c0 -45 6 -70 57 -70c46 0 55 22 55 70v88h172z" />
    <glyph glyph-name="D" unicode="D" horiz-adv-x="542" 
d="M50 706h275c116 0 179 -49 179 -172v-364c0 -141 -70 -170 -189 -170h-265v706zM216 584v-462h53c46 0 63 12 63 60v338c0 47 -17 64 -64 64h-52z" />
    <glyph glyph-name="E" unicode="E" horiz-adv-x="437" 
d="M416 0h-365v706h365v-124h-194v-163h183v-124h-183v-170h194v-125z" />
    <glyph glyph-name="F" unicode="F" horiz-adv-x="396" 
d="M396 585h-175v-158h161v-124h-161v-303h-172v706h347v-121z" />
    <glyph glyph-name="G" unicode="G" horiz-adv-x="521" 
d="M483 0h-165v65c-35 -51 -75 -67 -130 -67c-123 0 -148 96 -148 205v290c0 163 49 226 219 226c104 0 224 -16 224 -172v-82h-165v67c0 38 -9 64 -54 64c-48 0 -53 -29 -53 -67v-358c0 -35 12 -62 54 -62c46 0 53 32 53 67v80h-65v118h230v-374z" />
    <glyph glyph-name="H" unicode="H" horiz-adv-x="562" 
d="M511 0h-171v296h-119v-296h-170v706h170v-285h119v285h171v-706z" />
    <glyph glyph-name="I" unicode="I" horiz-adv-x="271" 
d="M220 0h-171v706h171v-706z" />
    <glyph glyph-name="J" unicode="J" horiz-adv-x="333" 
d="M121 706h171v-543c0 -100 -28 -163 -164 -163h-112v122h59c39 0 46 18 46 55v529z" />
    <glyph glyph-name="K" unicode="K" horiz-adv-x="521" 
d="M541 0h-179l-143 345v-345h-169v706h169v-320l130 320h174l-143 -334z" />
    <glyph glyph-name="L" unicode="L" horiz-adv-x="417" 
d="M398 0h-348v706h172v-581h176v-125z" />
    <glyph glyph-name="M" unicode="M" horiz-adv-x="771" 
d="M721 0h-152v508l-109 -508h-150l-109 508v-508h-149v706h228l105 -518l105 518h231v-706z" />
    <glyph glyph-name="N" unicode="N" horiz-adv-x="562" 
d="M512 0h-172l-147 460v-460h-144v706h169l148 -458v458h146v-706z" />
    <glyph glyph-name="O" unicode="O" horiz-adv-x="542" 
d="M499 500v-279c0 -101 -10 -230 -225 -230c-151 0 -234 53 -234 215v305c0 151 82 209 230 209c163 0 229 -68 229 -220zM211 537v-362c0 -32 0 -60 59 -60c46 0 59 19 59 60v361c0 46 -16 58 -62 58c-42 0 -56 -15 -56 -57z" />
    <glyph glyph-name="P" unicode="P" horiz-adv-x="521" 
d="M50 706h304c123 0 146 -66 146 -142v-168c0 -109 -63 -138 -145 -138h-135v-258h-170v706zM220 586v-204h64c55 0 56 29 56 67v90c0 40 -22 47 -57 47h-63z" />
    <glyph glyph-name="Q" unicode="Q" horiz-adv-x="542" 
d="M453 -78v-107h-139c-88 0 -117 34 -117 113v68c-123 26 -157 99 -157 210v312c0 146 90 202 230 202c150 0 229 -59 229 -215v-297c0 -154 -69 -195 -162 -213v-37c0 -22 4 -36 43 -36h73zM211 537v-362c0 -31 0 -59 59 -59c47 0 59 18 59 59v361c0 46 -16 58 -62 58
c-42 0 -56 -15 -56 -57z" />
    <glyph glyph-name="R" unicode="R" horiz-adv-x="521" 
d="M499 0h-157c-20 31 -21 63 -21 105v114c0 69 -6 82 -80 82h-31v-301h-160v706h241c47 0 96 -1 135 -33c45 -37 48 -96 48 -148c0 -98 -27 -122 -89 -156c7 -2 48 -9 70 -37c18 -23 20 -50 20 -105v-150c0 -45 8 -59 24 -77zM210 584v-162h53c55 0 58 23 58 89
s-13 73 -59 73h-52z" />
    <glyph glyph-name="S" unicode="S" horiz-adv-x="479" 
d="M446 489h-161v50c0 36 -4 59 -48 59c-34 0 -42 -23 -42 -52v-26c0 -26 10 -42 32 -57l145 -101c71 -49 91 -74 91 -174c0 -89 -14 -198 -223 -198c-106 0 -174 29 -202 79c-18 34 -19 85 -19 115v42h169v-56c0 -16 0 -56 50 -56c48 0 54 27 54 49c0 57 -3 61 -64 105
l-102 74c-54 39 -99 56 -99 173c0 149 52 204 220 204c188 0 199 -81 199 -193v-37z" />
    <glyph glyph-name="T" unicode="T" horiz-adv-x="479" 
d="M467 583h-141v-583h-173v583h-140v123h454v-123z" />
    <glyph glyph-name="U" unicode="U" horiz-adv-x="542" 
d="M48 706h170v-532c0 -38 14 -63 54 -63s50 25 50 63v532h171v-508c0 -122 -28 -209 -218 -209c-180 0 -227 74 -227 188v529z" />
    <glyph glyph-name="V" unicode="V" 
d="M498 706l-126 -706h-243l-132 706h173l79 -569l77 569h172z" />
    <glyph glyph-name="W" unicode="W" horiz-adv-x="812" 
d="M808 706l-85 -706h-221l-96 552l-92 -552h-222l-90 706h162l55 -562l86 562h197l101 -560l41 560h164z" />
    <glyph glyph-name="X" unicode="X" horiz-adv-x="479" 
d="M479 0h-174l-64 270l-65 -270h-172l122 374l-127 332h172l70 -227l68 227h170l-125 -332z" />
    <glyph glyph-name="Y" unicode="Y" horiz-adv-x="521" 
d="M515 706l-176 -458v-248h-167v248l-168 458h168l86 -312l86 312h171z" />
    <glyph glyph-name="Z" unicode="Z" horiz-adv-x="437" 
d="M427 0h-428v138l245 444h-214v124h391v-139l-245 -442h251v-125z" />
    <glyph glyph-name="bracketleft" unicode="[" horiz-adv-x="354" 
d="M341 -206h-254v912h254v-64h-107v-781h107v-67z" />
    <glyph glyph-name="backslash" unicode="\" horiz-adv-x="313" 
d="M305 0h-124l-172 706h122z" />
    <glyph glyph-name="bracketright" unicode="]" horiz-adv-x="354" 
d="M268 -208h-254v67h106v781h-106v66h254v-914z" />
    <glyph glyph-name="asciicircum" unicode="^" horiz-adv-x="559" 
d="M518 359h-152l-84 215l-88 -215h-154l172 347h137z" />
    <glyph glyph-name="underscore" unicode="_" 
d="M510 -230h-520v109h520v-109z" />
    <glyph glyph-name="quoteleft" unicode="&#x2018;" horiz-adv-x="250" 
d="M202 401h-147v153l80 152h67l-46 -152h46v-153z" />
    <glyph glyph-name="a" unicode="a" 
d="M473 0h-182v45c-32 -24 -62 -60 -133 -60c-97 0 -127 58 -127 139c0 89 23 135 96 164c56 22 111 41 164 67v32c0 32 -9 51 -48 51c-40 0 -44 -31 -44 -56v-27h-153v26c0 109 51 165 196 165c114 0 208 -30 208 -157v-306c0 -50 5 -60 23 -83zM291 147v120l-49 -26
c-45 -24 -47 -41 -47 -82v-14c0 -33 2 -58 40 -58c35 0 56 16 56 60z" />
    <glyph glyph-name="b" unicode="b" 
d="M45 706h159v-217c29 28 60 57 123 57c106 0 133 -68 133 -159v-252c0 -69 -31 -149 -129 -149c-65 0 -112 44 -127 59v-45h-159v706zM302 160v217c0 20 0 58 -46 58c-52 0 -52 -37 -52 -58v-218c0 -23 0 -66 47 -66c51 0 51 41 51 67z" />
    <glyph glyph-name="c" unicode="c" horiz-adv-x="465" 
d="M439 187v-60c0 -38 -12 -142 -193 -142c-111 0 -210 29 -210 158v225c0 54 5 99 49 136c43 35 99 41 151 41c132 0 203 -55 203 -145v-72h-158v60c0 33 -12 50 -41 50c-31 0 -45 -15 -45 -50v-251c0 -16 1 -49 46 -49c38 0 40 29 40 44v55h158z" />
    <glyph glyph-name="d" unicode="d" 
d="M454 0h-159v57c-28 -49 -74 -72 -128 -72c-115 0 -130 91 -130 179v225c0 46 8 157 125 157c75 0 109 -37 133 -72v232h159v-706zM295 166v214c0 34 -14 56 -52 56c-48 0 -48 -39 -48 -57v-217c0 -24 0 -60 52 -60c48 0 48 39 48 64z" />
    <glyph glyph-name="e" unicode="e" horiz-adv-x="479" 
d="M446 176v-36c0 -132 -116 -155 -203 -155c-173 0 -206 86 -206 195v159c0 142 42 207 204 207c108 0 199 -28 199 -165v-151h-242v-87c0 -16 0 -51 45 -51c35 0 50 15 50 53v31h153zM198 331h92v55c0 20 0 58 -44 58c-48 0 -48 -40 -48 -58v-55z" />
    <glyph glyph-name="f" unicode="f" horiz-adv-x="313" 
d="M304 432h-71v-432h-158v432h-70v99h70v60c0 86 31 115 125 115h104v-100h-30c-30 0 -41 -10 -41 -41v-34h71v-99z" />
    <glyph glyph-name="g" unicode="g" 
d="M454 531v-587c0 -136 -60 -187 -210 -187c-125 0 -208 35 -208 149v38h160v-32c0 -38 13 -55 46 -55c42 0 51 27 51 60v127c-23 -44 -67 -58 -117 -58c-91 0 -139 47 -139 155v244c0 94 26 161 136 161c70 0 95 -24 120 -65v50h161zM293 154v224c0 16 0 57 -47 57
c-50 0 -50 -45 -50 -61v-231c0 -10 0 -51 47 -51c50 0 50 49 50 62z" />
    <glyph glyph-name="h" unicode="h" 
d="M454 0h-159v368c0 27 -6 63 -46 63c-41 0 -47 -35 -47 -60v-371h-158v706h158v-223c18 25 44 64 116 64c95 0 136 -59 136 -148v-399z" />
    <glyph glyph-name="i" unicode="i" horiz-adv-x="250" 
d="M204 584h-159v122h159v-122zM204 0h-159v531h159v-531z" />
    <glyph glyph-name="j" unicode="j" horiz-adv-x="250" 
d="M200 585h-159v121h159v-121zM200 531v-596c0 -93 -40 -125 -139 -125h-91v106c59 0 71 5 71 51v564h159z" />
    <glyph glyph-name="k" unicode="k" 
d="M503 0h-178l-122 271v-271h-158v706h158v-376l111 201h178l-143 -228z" />
    <glyph glyph-name="l" unicode="l" horiz-adv-x="250" 
d="M205 0h-160v706h160v-706z" />
    <glyph glyph-name="m" unicode="m" horiz-adv-x="750" 
d="M701 0h-159v383c0 21 -3 53 -44 53c-28 0 -45 -16 -45 -51v-385h-160v391c0 30 -18 46 -44 46c-15 0 -44 -8 -44 -45v-392h-159v531h159v-56c35 69 96 71 119 71c66 0 105 -36 125 -71c30 52 69 71 122 71c92 0 130 -55 130 -149v-397z" />
    <glyph glyph-name="n" unicode="n" 
d="M457 0h-158v381c0 31 -11 55 -47 55c-26 0 -48 -13 -48 -50v-386h-159v531h159v-50c13 16 52 65 119 65c78 0 134 -52 134 -149v-397z" />
    <glyph glyph-name="o" unicode="o" horiz-adv-x="479" 
d="M442 380v-217c0 -121 -59 -179 -199 -179c-147 0 -207 64 -207 169v209c0 117 45 183 203 183c115 0 203 -39 203 -165zM285 157v219c0 22 0 60 -46 60s-46 -44 -46 -63v-224c0 -19 0 -52 46 -52s46 42 46 60z" />
    <glyph glyph-name="p" unicode="p" 
d="M46 531h159v-56c29 40 55 71 131 71c104 0 129 -78 129 -141v-241c0 -121 -37 -178 -133 -178c-89 0 -116 51 -127 63v-236h-159v718zM205 369v-204c0 -21 0 -66 51 -66s51 48 51 66v202c0 18 0 61 -50 61c-52 0 -52 -40 -52 -59z" />
    <glyph glyph-name="q" unicode="q" 
d="M454 -188h-159v235c-25 -31 -50 -61 -119 -61c-114 0 -139 85 -139 169v215c0 96 27 175 137 175c65 0 100 -29 121 -66v52h159v-719zM295 167v204c0 25 -3 62 -51 62c-49 0 -49 -43 -49 -64v-204c0 -19 0 -64 50 -64s50 41 50 66z" />
    <glyph glyph-name="r" unicode="r" horiz-adv-x="354" 
d="M46 531h160v-78c29 72 93 90 146 90v-138h-50c-86 0 -96 -43 -96 -100v-305h-160v531z" />
    <glyph glyph-name="s" unicode="s" horiz-adv-x="437" 
d="M21 164h152v-14c0 -44 14 -56 45 -56c36 0 43 26 43 39c0 29 -23 42 -45 54l-106 57c-71 38 -84 76 -84 146c0 76 27 103 58 123c40 26 90 33 137 33c124 0 195 -49 195 -152v-20h-152v16c0 19 -4 49 -42 49c-14 0 -43 -6 -43 -45c0 -29 23 -40 67 -62l92 -46
c72 -36 84 -69 84 -126c0 -58 -8 -96 -44 -127c-38 -32 -89 -47 -161 -47c-70 0 -146 14 -179 77c-12 24 -17 48 -17 101z" />
    <glyph glyph-name="t" unicode="t" horiz-adv-x="313" 
d="M300 0h-90c-108 0 -139 40 -139 131v301h-71v99h71v175h158v-175h71v-99h-71v-276c0 -43 12 -50 71 -50v-106z" />
    <glyph glyph-name="u" unicode="u" 
d="M454 0h-158v58c-14 -23 -44 -72 -121 -72c-110 0 -133 79 -133 166v379h158v-371c0 -24 4 -52 47 -52c49 0 49 38 49 54v369h158v-531z" />
    <glyph glyph-name="v" unicode="v" horiz-adv-x="437" 
d="M434 531l-108 -531h-212l-110 531h155l64 -421l53 421h158z" />
    <glyph glyph-name="w" unicode="w" horiz-adv-x="708" 
d="M712 531l-112 -531h-164l-80 368l-81 -368h-164l-111 531h162l40 -386l66 386h179l63 -386l42 386h160z" />
    <glyph glyph-name="x" unicode="x" horiz-adv-x="437" 
d="M437 0h-166l-50 163l-58 -163h-164l125 276l-118 255h166l49 -156l44 156h162l-114 -255z" />
    <glyph glyph-name="y" unicode="y" horiz-adv-x="437" 
d="M436 531l-127 -546c-24 -104 -41 -175 -225 -175h-77v103h70c54 0 56 25 59 52l-138 566h156l64 -417l59 417h159z" />
    <glyph glyph-name="z" unicode="z" horiz-adv-x="396" 
d="M385 430l-197 -328h181v-102h-359v102l196 328h-160v101h339v-101z" />
    <glyph glyph-name="braceleft" unicode="{" horiz-adv-x="354" 
d="M331 709v-70c-79 0 -86 -33 -86 -102v-114c0 -83 -17 -150 -111 -164v-6c95 -12 111 -84 111 -167v-98c0 -71 0 -114 86 -114v-70h-34c-135 0 -185 47 -185 173v95c0 62 -1 140 -81 147v75c81 8 81 88 81 150v101c0 125 66 164 190 164h29z" />
    <glyph glyph-name="bar" unicode="|" horiz-adv-x="229" 
d="M178 -199h-127v906h127v-906z" />
    <glyph glyph-name="braceright" unicode="}" horiz-adv-x="354" 
d="M31 710h34c135 0 185 -47 185 -173v-95c0 -62 1 -140 81 -147v-75c-81 -8 -81 -88 -81 -150v-101c0 -125 -66 -164 -190 -164h-29v70c79 0 86 33 86 102v114c0 83 17 150 111 164v6c-95 12 -111 84 -111 167v98c0 71 0 114 -86 114v70z" />
    <glyph glyph-name="asciitilde" unicode="~" horiz-adv-x="561" 
d="M443 406l65 -112c-45 -55 -85 -80 -132 -80c-21 0 -45 5 -86 21l-25 10c-28 11 -46 17 -63 17c-31 0 -50 -13 -85 -56l-64 115c45 57 79 80 132 80c21 0 40 -5 75 -18l48 -18c29 -11 43 -13 55 -13c28 0 48 14 80 54z" />
    <glyph glyph-name="exclamdown" unicode="&#xa1;" horiz-adv-x="292" 
d="M197 554h-148v152h148v-152zM197 0h-148v87c0 46 26 341 30 392h93c3 -50 25 -346 25 -392v-87z" />
    <glyph glyph-name="cent" unicode="&#xa2;" horiz-adv-x="458" 
d="M439 187v-48c0 -122 -86 -144 -158 -152v-129h-83v130c-123 14 -162 65 -162 160v220c0 67 13 163 162 176v107h83v-108c78 -12 158 -38 158 -151v-64h-158v61c0 26 -6 49 -43 49c-30 0 -43 -20 -43 -50v-251c0 -24 8 -49 44 -49c37 0 42 19 42 46v53h158z" />
    <glyph glyph-name="sterling" unicode="&#xa3;" horiz-adv-x="583" 
d="M565 236v-57c0 -119 -20 -188 -128 -188c-44 0 -84 15 -165 52c-20 -19 -58 -55 -130 -55c-67 0 -114 36 -114 102c0 12 1 97 105 97c28 0 55 -7 81 -15c-1 47 -6 69 -45 144h-138v81h99c-22 54 -34 86 -34 151c0 159 134 172 225 172c147 0 194 -56 194 -189v-44h-139
v47c0 47 -19 76 -61 76c-46 0 -65 -23 -65 -68c0 -62 33 -132 38 -145h162v-81h-131c13 -37 25 -72 25 -111c0 -19 -2 -38 -15 -74c4 -2 35 -17 60 -17c36 0 39 30 39 53v69h137zM196 95c-21 16 -32 21 -44 21c-23 0 -26 -17 -26 -24c0 -23 24 -26 29 -26c24 0 39 23 41 29z
" />
    <glyph glyph-name="fraction" unicode="&#x2044;" horiz-adv-x="125" 
d="M145 706h73l-240 -706h-73z" />
    <glyph glyph-name="yen" unicode="&#xa5;" horiz-adv-x="521" 
d="M515 706l-125 -324h88v-87h-121l-17 -43v-12h138v-86h-139v-154h-167v154h-138v86h137v12l-16 43h-121v87h90l-120 324h168l87 -310l85 310h171z" />
    <glyph glyph-name="florin" unicode="&#x192;" horiz-adv-x="354" 
d="M370 706l-12 -100h-30c-30 0 -40 -9 -45 -41l-5 -34h71l-12 -99h-71l-59 -484c-7 -60 -18 -117 -139 -117h-104l12 100h30c19 0 41 0 46 41l56 460h-70l12 99h70l7 60c7 62 22 115 140 115h103z" />
    <glyph glyph-name="section" unicode="&#xa7;" horiz-adv-x="437" 
d="M419 667l-58 -107c-34 16 -102 53 -136 53c-19 0 -35 -12 -35 -32c0 -65 225 -78 225 -221c0 -53 -28 -89 -64 -124c33 -23 56 -52 56 -95c0 -103 -105 -152 -198 -152c-83 0 -134 24 -205 64l63 108c36 -21 101 -63 143 -63c21 0 41 12 41 35c0 20 -10 27 -38 43l-84 48
c-53 30 -98 59 -98 128c0 56 31 90 76 119c-40 27 -67 56 -67 108c0 100 84 141 176 141c78 0 134 -21 203 -53zM172 432c-13 -9 -31 -22 -31 -48s17 -36 32 -45c35 -21 74 -42 112 -63c14 11 30 24 30 48c0 20 -12 30 -23 37c-9 7 -36 22 -120 71z" />
    <glyph glyph-name="currency" unicode="&#xa4;" horiz-adv-x="679" 
d="M658 570l-78 -80c28 -51 41 -96 41 -150c0 -56 -13 -102 -42 -153l78 -82l-93 -95l-79 82c-52 -31 -91 -42 -145 -42c-57 0 -99 12 -148 44l-79 -82l-93 95l80 82c-29 44 -42 90 -42 148s12 102 41 153l-78 80l93 95l78 -80c43 29 91 43 148 43c55 0 95 -12 146 -43
l79 81zM476 338c0 86 -60 153 -136 153c-77 0 -137 -67 -137 -153c0 -84 60 -150 137 -150c76 0 136 67 136 150z" />
    <glyph glyph-name="quotesingle" unicode="'" horiz-adv-x="150" 
d="M136 741l-43 -288h-36l-43 288h122z" />
    <glyph glyph-name="quotedblleft" unicode="&#x201c;" horiz-adv-x="437" 
d="M402 706l-55 -154h44v-151h-145v151l87 154h69zM206 706l-56 -154h43v-151h-145v151l89 154h69z" />
    <glyph glyph-name="guillemotleft" unicode="&#xab;" horiz-adv-x="396" 
d="M353 128l-141 116v120l141 117v-128l-58 -48l58 -52v-125zM173 127l-142 116v121l142 116v-126l-58 -48l58 -51v-128z" />
    <glyph glyph-name="guilsinglleft" unicode="&#x2039;" horiz-adv-x="208" 
d="M170 127l-143 116v121l143 116v-126l-59 -48l59 -51v-128z" />
    <glyph glyph-name="guilsinglright" unicode="&#x203a;" horiz-adv-x="208" 
d="M180 245l-142 -116v128l57 47l-57 52v126l142 -117v-120z" />
    <glyph glyph-name="endash" unicode="&#x2013;" horiz-adv-x="493" 
d="M465 235h-437v122h437v-122z" />
    <glyph glyph-name="dagger" unicode="&#x2020;" horiz-adv-x="542" 
d="M504 379h-153v-492h-157v492h-153v133h153v194h157v-194h153v-133z" />
    <glyph glyph-name="daggerdbl" unicode="&#x2021;" horiz-adv-x="542" 
d="M504 79h-153v-192h-157v192h-153v133h153v187h-153v133h153v174h157v-174h153v-133h-153v-187h153v-133z" />
    <glyph glyph-name="periodcentered" unicode="&#xb7;" horiz-adv-x="250" 
d="M199 219h-148v152h148v-152z" />
    <glyph glyph-name="paragraph" unicode="&#xb6;" horiz-adv-x="575" 
d="M516 618h-36v-786h-94v786h-83v-785h-97v468c-105 27 -159 94 -159 196c0 56 18 105 53 141c47 49 104 68 209 68h207v-88z" />
    <glyph glyph-name="bullet" unicode="&#x2022;" horiz-adv-x="333" 
d="M283 225h-234v246h234v-246z" />
    <glyph glyph-name="quotesinglbase" unicode="&#x201a;" horiz-adv-x="250" 
d="M197 0l-88 -152h-68l56 152h-45v152h145v-152z" />
    <glyph glyph-name="quotedblbase" unicode="&#x201e;" horiz-adv-x="437" 
d="M390 0l-89 -152h-68l56 152h-45v152h146v-152zM191 0l-86 -152h-69l56 152h-46v152h145v-152z" />
    <glyph glyph-name="quotedblright" unicode="&#x201d;" horiz-adv-x="437" 
d="M390 556l-89 -153h-68l56 153h-45v150h146v-150zM192 556l-87 -153h-69l56 153h-46v150h146v-150z" />
    <glyph glyph-name="guillemotright" unicode="&#xbb;" horiz-adv-x="396" 
d="M364 247l-142 -116v125l57 47l-57 51v128l142 -117v-118zM183 245l-141 -116v128l56 47l-56 52v126l141 -117v-120z" />
    <glyph glyph-name="ellipsis" unicode="&#x2026;" horiz-adv-x="1000" 
d="M893 0h-120v133h120v-133zM560 0h-120v133h120v-133zM227 0h-120v133h120v-133z" />
    <glyph glyph-name="perthousand" unicode="&#x2030;" horiz-adv-x="1126" 
d="M545 706l-233 -706h-71l233 706h71zM27 383v202c0 75 17 131 144 131c121 0 138 -55 138 -115v-211c0 -89 -39 -129 -134 -129c-134 0 -148 65 -148 122zM205 375v229c0 26 -8 34 -38 34c-34 0 -34 -22 -34 -34v-229c0 -20 4 -32 35 -32c32 0 37 14 37 32zM482 114v202
c0 75 17 132 144 132c121 0 138 -56 138 -116v-211c0 -89 -39 -129 -134 -129c-134 0 -148 65 -148 122zM661 106v229c0 26 -8 35 -38 35c-34 0 -34 -23 -34 -35v-229c0 -20 4 -32 35 -32c32 0 37 14 37 32zM816 114v202c0 75 17 132 144 132c121 0 138 -56 138 -116v-211
c0 -89 -39 -129 -134 -129c-134 0 -148 65 -148 122zM995 106v229c0 26 -8 35 -38 35c-34 0 -34 -23 -34 -35v-229c0 -20 4 -32 35 -32c32 0 37 14 37 32z" />
    <glyph glyph-name="questiondown" unicode="&#xbf;" 
d="M416 207v-73c0 -115 -63 -145 -180 -145c-137 0 -197 37 -197 161c0 38 2 70 27 94l83 80c50 48 59 56 59 99v56h146v-50c0 -65 -16 -92 -56 -131l-75 -73c-25 -24 -35 -36 -35 -71c0 -16 3 -55 42 -55s43 31 43 49v59h143zM208 706h148v-151h-148v151z" />
    <glyph glyph-name="grave" unicode="`" horiz-adv-x="271" 
d="M270 609h-128l-141 127h174z" />
    <glyph glyph-name="acute" unicode="&#xb4;" horiz-adv-x="271" 
d="M263 735l-137 -125h-118l87 125h168z" />
    <glyph glyph-name="circumflex" unicode="&#x2c6;" horiz-adv-x="271" 
d="M299 612h-118l-45 59l-43 -59h-121l99 124h126z" />
    <glyph glyph-name="tilde" unicode="&#x2dc;" horiz-adv-x="271" 
d="M250 739h50c-6 -63 -30 -122 -106 -122c-58 0 -104 37 -139 37c-32 0 -33 -24 -33 -33h-50c5 68 29 121 105 121c50 0 101 -35 135 -35c17 0 33 5 38 32z" />
    <glyph glyph-name="macron" unicode="&#xaf;" horiz-adv-x="271" 
d="M291 609h-311v90h311v-90z" />
    <glyph glyph-name="breve" unicode="&#x2d8;" horiz-adv-x="271" 
d="M219 733h63c-15 -122 -110 -128 -148 -128c-111 0 -145 73 -145 123v5h63c10 -43 56 -50 86 -50c47 0 75 22 81 50z" />
    <glyph glyph-name="dotaccent" unicode="&#x2d9;" horiz-adv-x="271" 
d="M208 609h-145v124h145v-124z" />
    <glyph glyph-name="dieresis" unicode="&#xa8;" horiz-adv-x="271" 
d="M318 609h-142v124h142v-124zM97 609h-144v124h144v-124z" />
    <glyph glyph-name="ring" unicode="&#x2da;" horiz-adv-x="271" 
d="M172 665c0 20 -17 37 -37 37s-37 -17 -37 -37s17 -37 37 -37s37 17 37 37zM234 665c0 -52 -43 -99 -100 -99c-54 0 -98 45 -98 99s44 99 99 99c54 0 99 -45 99 -99z" />
    <glyph glyph-name="cedilla" unicode="&#xb8;" horiz-adv-x="271" 
d="M124 20h88l-66 -78c44 0 91 -25 91 -78c0 -64 -72 -98 -127 -98c-10 0 -35 0 -48 1l-17 48c9 -1 20 -2 30 -2c30 0 59 17 59 46c0 15 -8 34 -42 34c-17 0 -27 -4 -41 -11l-17 35z" />
    <glyph glyph-name="hungarumlaut" unicode="&#x2dd;" horiz-adv-x="271" 
d="M163 735l-131 -125h-106l80 125h157zM344 735l-131 -125h-106l80 125h157z" />
    <glyph glyph-name="ogonek" unicode="&#x2db;" horiz-adv-x="271" 
d="M92 0h99c-5 -5 -42 -31 -42 -61c0 -22 19 -36 52 -36c10 0 23 3 25 3v-96c-16 -2 -28 -3 -44 -3c-90 0 -137 37 -137 97c0 40 24 69 40 88z" />
    <glyph glyph-name="caron" unicode="&#x2c7;" horiz-adv-x="271" 
d="M299 736l-98 -125h-126l-103 125h118l46 -59l42 59h121z" />
    <glyph glyph-name="emdash" unicode="&#x2014;" horiz-adv-x="664" 
d="M636 235h-608v122h608v-122z" />
    <glyph glyph-name="AE" unicode="&#xc6;" horiz-adv-x="771" 
d="M748 0h-358v191h-146l-64 -191h-178l273 706h473v-127h-188v-157h175v-126h-175v-170h188v-126zM390 311v268h-12l-92 -268h104z" />
    <glyph glyph-name="ordfeminine" unicode="&#xaa;" horiz-adv-x="354" 
d="M325 371h-118v23c-21 -12 -49 -33 -94 -33c-79 0 -80 62 -80 86c0 75 28 92 85 112l89 32v19c0 16 -2 31 -33 31c-20 0 -33 -5 -33 -28v-22h-99v28c0 72 58 93 128 93c123 0 140 -43 140 -115v-173c0 -22 2 -36 15 -53zM207 468v64c-64 -23 -68 -24 -68 -68
c0 -15 0 -38 30 -38c37 0 38 27 38 42z" />
    <glyph glyph-name="Lslash" unicode="&#x141;" horiz-adv-x="417" 
d="M398 0h-348v235l-49 -36v96l49 36v375h172v-247l117 87v-99l-117 -86v-236h176v-125z" />
    <glyph glyph-name="Oslash" unicode="&#xd8;" horiz-adv-x="542" 
d="M533 687l-53 -78c14 -34 18 -53 18 -120v-279c0 -132 -43 -221 -226 -221c-93 0 -144 21 -176 51l-39 -56l-52 35l52 79c-14 37 -18 50 -18 116v304c0 145 89 201 229 201c91 0 125 -14 173 -52l39 55zM204 317l129 190c0 62 0 86 -61 86s-68 -25 -68 -56v-220zM333 390
l-129 -189c0 -69 0 -99 60 -99c47 0 69 4 69 63v225z" />
    <glyph glyph-name="OE" unicode="&#x152;" horiz-adv-x="708" 
d="M685 0h-359v31c-20 -14 -58 -41 -119 -41c-102 0 -165 64 -165 225v283c0 93 18 221 163 221c68 0 100 -27 121 -46v33h359v-125h-189v-158h174v-125h-174v-172h189v-126zM212 547v-375c0 -21 0 -66 56 -66c58 0 58 43 58 65v376c0 12 0 58 -56 58c-58 0 -58 -45 -58 -58
z" />
    <glyph glyph-name="ordmasculine" unicode="&#xba;" horiz-adv-x="333" 
d="M302 598v-125c0 -60 -20 -115 -132 -115c-107 0 -138 45 -138 120v95c0 78 2 138 133 138c93 0 137 -33 137 -113zM200 473v129c0 17 0 39 -33 39c-26 0 -33 -13 -33 -39v-129c0 -17 0 -41 33 -41s33 20 33 41z" />
    <glyph glyph-name="ae" unicode="&#xe6;" horiz-adv-x="729" 
d="M692 175v-31c0 -72 -16 -91 -50 -117c-33 -26 -98 -42 -153 -42c-72 0 -147 17 -189 78c-36 -49 -80 -79 -141 -79c-94 0 -127 46 -127 158c0 105 56 130 128 161l127 54v38c0 17 0 47 -44 47c-43 0 -43 -32 -43 -47v-39h-151v32c0 112 77 158 190 158
c67 0 94 -15 128 -40c36 27 62 41 133 41c140 0 192 -55 192 -203v-110h-248v-100c0 -47 28 -48 47 -48c44 0 44 30 44 48v41h157zM287 144v122c-71 -38 -94 -49 -94 -101v-24c0 -14 3 -48 45 -48c37 0 49 16 49 51zM444 397v-67h91v67c0 16 0 46 -43 46
c-48 0 -48 -29 -48 -46z" />
    <glyph glyph-name="dotlessi" unicode="&#x131;" horiz-adv-x="250" 
d="M204 0h-159v531h159v-531z" />
    <glyph glyph-name="lslash" unicode="&#x142;" horiz-adv-x="250" 
d="M250 470l-45 -44v-426h-160v268l-45 -44v83l45 44v355h160v-200l45 43v-79z" />
    <glyph glyph-name="oslash" unicode="&#xf8;" horiz-adv-x="479" 
d="M456 526l-36 -50c15 -28 23 -50 23 -97v-194c0 -118 -38 -199 -205 -199c-43 0 -110 11 -138 34l-30 -42l-52 36l38 55c-15 31 -21 46 -21 105v203c0 143 109 171 205 171c40 0 98 -7 132 -31l32 45zM187 372v-119l103 148c-2 12 -7 40 -50 40c-53 0 -53 -47 -53 -69z
M290 154v137l-103 -151c3 -19 6 -46 50 -46c53 0 53 42 53 60z" />
    <glyph glyph-name="oe" unicode="&#x153;" horiz-adv-x="729" 
d="M695 170v-31c0 -90 -53 -154 -193 -154c-43 0 -107 9 -135 35c-28 -16 -59 -35 -133 -35c-147 0 -199 60 -199 193v201c0 138 101 166 201 166c69 0 102 -14 131 -38c31 28 58 38 126 38c144 0 199 -72 199 -160v-154h-248v-92c0 -29 5 -54 49 -54c39 0 48 16 48 73v12
h154zM285 139v256c0 18 0 51 -46 51c-34 0 -47 -14 -47 -47v-263c0 -16 0 -52 45 -52c48 0 48 35 48 55zM444 327h95v62c0 20 0 51 -48 51c-47 0 -47 -34 -47 -50v-63z" />
    <glyph glyph-name="germandbls" unicode="&#xdf;" horiz-adv-x="521" 
d="M202 0h-157v555c0 116 71 163 204 163c149 0 217 -54 217 -172v-28c0 -73 -9 -108 -66 -128c65 -26 86 -40 86 -167v-75c0 -98 -29 -148 -154 -148c-29 0 -58 3 -87 7v78c5 -2 19 -7 35 -7c26 0 44 11 44 53v175c0 19 -5 45 -57 45h-20v96c1 -1 15 -2 25 -2
c38 2 38 33 38 45v61c0 34 -8 62 -55 62c-26 0 -53 -4 -53 -62v-551z" />
    <glyph glyph-name="Euro" unicode="&#x20ac;" horiz-adv-x="520" 
d="M513 674l-45 -130c-34 38 -70 52 -121 52c-95 0 -95 -59 -95 -137h187l-27 -80h-160v-41h146l-28 -80h-118v-46c0 -62 29 -92 94 -92c49 0 91 20 128 52v-150c-59 -23 -111 -31 -174 -31c-57 0 -135 7 -176 53c-38 43 -42 111 -42 171v43h-65l26 80h40v41h-66l26 80h39
v42c0 177 100 218 245 218c70 0 126 -7 186 -45z" />
    <glyph glyph-name="Ydieresis" unicode="&#x178;" horiz-adv-x="521" 
d="M423 785h-134v113h134v-113zM232 785h-136v113h136v-113zM515 706l-176 -458v-248h-167v248l-168 458h168l86 -312l86 312h171z" />
    <glyph glyph-name="trademark" unicode="&#x2122;" horiz-adv-x="642" 
d="M596 374h-81c0 77 1 253 1 253l-48 -253h-71l-53 257s3 -220 3 -257h-84v332h130l41 -183l40 183h122v-332zM239 638h-69v-264h-90v264h-72v68h231v-68z" />
    <glyph glyph-name="zcaron" unicode="&#x17e;" horiz-adv-x="396" 
d="M385 430l-197 -328h181v-102h-359v102l196 328h-160v101h339v-101zM377 736l-98 -125h-126l-103 125h118l46 -59l42 59h121z" />
    <glyph glyph-name="Zcaron" unicode="&#x17d;" horiz-adv-x="437" 
d="M408 909l-96 -141h-166l-107 141h130l59 -82l59 82h121zM427 0h-428v138l245 444h-214v124h391v-139l-245 -442h251v-125z" />
    <glyph glyph-name="scaron" unicode="&#x161;" horiz-adv-x="437" 
d="M21 164h152v-14c0 -44 14 -56 45 -56c36 0 43 26 43 39c0 29 -23 42 -45 54l-106 57c-71 38 -84 76 -84 146c0 76 27 103 58 123c40 26 90 33 137 33c124 0 195 -49 195 -152v-20h-152v16c0 19 -4 49 -42 49c-14 0 -43 -6 -43 -45c0 -29 23 -40 67 -62l92 -46
c72 -36 84 -69 84 -126c0 -58 -8 -96 -44 -127c-38 -32 -89 -47 -161 -47c-70 0 -146 14 -179 77c-12 24 -17 48 -17 101zM382 736l-98 -125h-126l-103 125h118l46 -59l42 59h121z" />
    <glyph glyph-name="Scaron" unicode="&#x160;" horiz-adv-x="479" 
d="M419 909l-96 -141h-166l-107 141h130l59 -82l59 82h121zM446 489h-161v50c0 36 -4 59 -48 59c-34 0 -42 -23 -42 -52v-26c0 -26 10 -42 32 -57l145 -101c71 -49 91 -74 91 -174c0 -89 -14 -198 -223 -198c-106 0 -174 29 -202 79c-18 34 -19 85 -19 115v42h169v-56
c0 -16 0 -56 50 -56c48 0 54 27 54 49c0 57 -3 61 -64 105l-102 74c-54 39 -99 56 -99 173c0 149 52 204 220 204c188 0 199 -81 199 -193v-37z" />
    <glyph glyph-name="ydieresis" unicode="&#xff;" horiz-adv-x="437" 
d="M436 531l-127 -546c-24 -104 -41 -175 -225 -175h-77v103h70c54 0 56 25 59 52l-138 566h156l64 -417l59 417h159zM400 609h-142v124h142v-124zM179 609h-144v124h144v-124z" />
    <glyph glyph-name="thorn" unicode="&#xfe;" 
d="M46 706h159v-232c25 37 55 72 131 72c106 0 129 -80 129 -141v-241c0 -79 -11 -178 -129 -178c-73 0 -101 26 -131 63v-236h-159v893zM307 165v202c0 21 0 62 -50 62c-52 0 -52 -41 -52 -59v-205c0 -21 0 -66 51 -66s51 44 51 66z" />
    <glyph glyph-name="yacute" unicode="&#xfd;" horiz-adv-x="437" 
d="M436 531l-127 -546c-24 -104 -41 -175 -225 -175h-77v103h70c54 0 56 25 59 52l-138 566h156l64 -417l59 417h159zM389 735l-137 -125h-118l87 125h168z" />
    <glyph glyph-name="udieresis" unicode="&#xfc;" 
d="M454 0h-158v58c-14 -23 -44 -72 -121 -72c-110 0 -133 79 -133 166v379h158v-371c0 -24 4 -52 47 -52c49 0 49 38 49 54v369h158v-531zM427 609h-142v124h142v-124zM206 609h-144v124h144v-124z" />
    <glyph glyph-name="ucircumflex" unicode="&#xfb;" 
d="M454 0h-158v58c-14 -23 -44 -72 -121 -72c-110 0 -133 79 -133 166v379h158v-371c0 -24 4 -52 47 -52c49 0 49 38 49 54v369h158v-531zM414 612h-118l-45 59l-43 -59h-121l99 124h126z" />
    <glyph glyph-name="uacute" unicode="&#xfa;" 
d="M454 0h-158v58c-14 -23 -44 -72 -121 -72c-110 0 -133 79 -133 166v379h158v-371c0 -24 4 -52 47 -52c49 0 49 38 49 54v369h158v-531zM409 735l-137 -125h-118l87 125h168z" />
    <glyph glyph-name="ugrave" unicode="&#xf9;" 
d="M454 0h-158v58c-14 -23 -44 -72 -121 -72c-110 0 -133 79 -133 166v379h158v-371c0 -24 4 -52 47 -52c49 0 49 38 49 54v369h158v-531zM355 609h-128l-141 127h174z" />
    <glyph glyph-name="divide" unicode="&#xf7;" horiz-adv-x="559" 
d="M350 417h-139v150h139v-150zM489 237h-419v126h419v-126zM350 32h-139v151h139v-151z" />
    <glyph glyph-name="odieresis" unicode="&#xf6;" horiz-adv-x="479" 
d="M442 380v-217c0 -121 -59 -179 -199 -179c-147 0 -207 64 -207 169v209c0 117 45 183 203 183c115 0 203 -39 203 -165zM285 157v219c0 22 0 60 -46 60s-46 -44 -46 -63v-224c0 -19 0 -52 46 -52s46 42 46 60zM421 609h-142v124h142v-124zM200 609h-144v124h144v-124z
" />
    <glyph glyph-name="otilde" unicode="&#xf5;" horiz-adv-x="479" 
d="M442 380v-217c0 -121 -59 -179 -199 -179c-147 0 -207 64 -207 169v209c0 117 45 183 203 183c115 0 203 -39 203 -165zM285 157v219c0 22 0 60 -46 60s-46 -44 -46 -63v-224c0 -19 0 -52 46 -52s46 42 46 60zM352 739h50c-6 -63 -30 -122 -106 -122
c-58 0 -104 37 -139 37c-32 0 -33 -24 -33 -33h-50c5 68 29 121 105 121c50 0 101 -35 135 -35c17 0 33 5 38 32z" />
    <glyph glyph-name="ocircumflex" unicode="&#xf4;" horiz-adv-x="479" 
d="M442 380v-217c0 -121 -59 -179 -199 -179c-147 0 -207 64 -207 169v209c0 117 45 183 203 183c115 0 203 -39 203 -165zM285 157v219c0 22 0 60 -46 60s-46 -44 -46 -63v-224c0 -19 0 -52 46 -52s46 42 46 60zM402 612h-118l-45 59l-43 -59h-121l99 124h126z" />
    <glyph glyph-name="oacute" unicode="&#xf3;" horiz-adv-x="479" 
d="M442 380v-217c0 -121 -59 -179 -199 -179c-147 0 -207 64 -207 169v209c0 117 45 183 203 183c115 0 203 -39 203 -165zM285 157v219c0 22 0 60 -46 60s-46 -44 -46 -63v-224c0 -19 0 -52 46 -52s46 42 46 60zM408 735l-137 -125h-118l87 125h168z" />
    <glyph glyph-name="ograve" unicode="&#xf2;" horiz-adv-x="479" 
d="M442 380v-217c0 -121 -59 -179 -199 -179c-147 0 -207 64 -207 169v209c0 117 45 183 203 183c115 0 203 -39 203 -165zM285 157v219c0 22 0 60 -46 60s-46 -44 -46 -63v-224c0 -19 0 -52 46 -52s46 42 46 60zM334 609h-128l-141 127h174z" />
    <glyph glyph-name="ntilde" unicode="&#xf1;" 
d="M457 0h-158v381c0 31 -11 55 -47 55c-26 0 -48 -13 -48 -50v-386h-159v531h159v-50c13 16 52 65 119 65c78 0 134 -52 134 -149v-397zM364 739h50c-6 -63 -30 -122 -106 -122c-58 0 -104 37 -139 37c-32 0 -33 -24 -33 -33h-50c5 68 29 121 105 121c50 0 101 -35 135 -35
c17 0 33 5 38 32z" />
    <glyph glyph-name="eth" unicode="&#xf0;" horiz-adv-x="479" 
d="M404 702l22 -53l-50 -14c10 -12 19 -27 31 -54c34 -77 35 -135 35 -212v-202c0 -25 -1 -61 -11 -87c-25 -63 -88 -96 -186 -96c-99 0 -162 30 -191 82c-18 33 -18 75 -18 108v206c0 52 18 165 139 165c61 0 86 -33 105 -62c-8 42 -17 69 -46 111l-122 -32l-20 56l99 26
c-18 18 -25 24 -57 47l146 39c21 -14 54 -44 56 -47zM285 157v219c0 22 0 60 -46 60s-46 -44 -46 -63v-224c0 -19 0 -52 46 -52s46 42 46 60z" />
    <glyph glyph-name="idieresis" unicode="&#xef;" horiz-adv-x="250" 
d="M204 0h-159v531h159v-531zM306 609h-142v124h142v-124zM85 609h-144v124h144v-124z" />
    <glyph glyph-name="icircumflex" unicode="&#xee;" horiz-adv-x="250" 
d="M204 0h-159v531h159v-531zM287 612h-118l-45 59l-43 -59h-121l99 124h126z" />
    <glyph glyph-name="iacute" unicode="&#xed;" horiz-adv-x="250" 
d="M204 0h-159v531h159v-531zM293 735l-137 -125h-118l87 125h168z" />
    <glyph glyph-name="igrave" unicode="&#xec;" horiz-adv-x="250" 
d="M204 0h-159v531h159v-531zM220 609h-128l-141 127h174z" />
    <glyph glyph-name="edieresis" unicode="&#xeb;" horiz-adv-x="479" 
d="M446 176v-36c0 -132 -116 -155 -203 -155c-173 0 -206 86 -206 195v159c0 142 42 207 204 207c108 0 199 -28 199 -165v-151h-242v-87c0 -16 0 -51 45 -51c35 0 50 15 50 53v31h153zM198 331h92v55c0 20 0 58 -44 58c-48 0 -48 -40 -48 -58v-55zM421 609h-142v124h142
v-124zM200 609h-144v124h144v-124z" />
    <glyph glyph-name="ecircumflex" unicode="&#xea;" horiz-adv-x="479" 
d="M446 176v-36c0 -132 -116 -155 -203 -155c-173 0 -206 86 -206 195v159c0 142 42 207 204 207c108 0 199 -28 199 -165v-151h-242v-87c0 -16 0 -51 45 -51c35 0 50 15 50 53v31h153zM198 331h92v55c0 20 0 58 -44 58c-48 0 -48 -40 -48 -58v-55zM403 612h-118l-45 59
l-43 -59h-121l99 124h126z" />
    <glyph glyph-name="eacute" unicode="&#xe9;" horiz-adv-x="479" 
d="M446 176v-36c0 -132 -116 -155 -203 -155c-173 0 -206 86 -206 195v159c0 142 42 207 204 207c108 0 199 -28 199 -165v-151h-242v-87c0 -16 0 -51 45 -51c35 0 50 15 50 53v31h153zM198 331h92v55c0 20 0 58 -44 58c-48 0 -48 -40 -48 -58v-55zM410 735l-137 -125h-118
l87 125h168z" />
    <glyph glyph-name="egrave" unicode="&#xe8;" horiz-adv-x="479" 
d="M446 176v-36c0 -132 -116 -155 -203 -155c-173 0 -206 86 -206 195v159c0 142 42 207 204 207c108 0 199 -28 199 -165v-151h-242v-87c0 -16 0 -51 45 -51c35 0 50 15 50 53v31h153zM198 331h92v55c0 20 0 58 -44 58c-48 0 -48 -40 -48 -58v-55zM334 609h-128l-141 127
h174z" />
    <glyph glyph-name="ccedilla" unicode="&#xe7;" horiz-adv-x="465" 
d="M281 187h158v-60c0 -38 -8 -126 -168 -141l-37 -44c44 0 91 -21 91 -78c0 -64 -74 -98 -129 -98c-10 0 -32 0 -45 1l-17 48c9 -1 21 -2 31 -2c30 0 57 17 57 46c0 15 -8 34 -42 34c-17 0 -27 -4 -41 -11l-15 37l63 71c-84 9 -151 48 -151 153v225c0 54 5 99 49 136
c43 35 99 41 151 41c179 0 203 -89 203 -166v-51h-158v60c0 33 -12 50 -41 50c-31 0 -45 -15 -45 -50v-251c0 -16 1 -49 46 -49c38 0 40 29 40 44v55z" />
    <glyph glyph-name="aring" unicode="&#xe5;" 
d="M473 0h-182v45c-32 -24 -62 -60 -133 -60c-97 0 -127 58 -127 139c0 89 23 135 96 164c56 22 111 41 164 67v32c0 32 -9 51 -48 51c-40 0 -44 -31 -44 -56v-27h-153v26c0 109 51 165 196 165c114 0 208 -30 208 -157v-306c0 -50 5 -60 23 -83zM291 147v120l-49 -26
c-45 -24 -47 -41 -47 -82v-14c0 -33 2 -58 40 -58c35 0 56 16 56 60zM296 665c0 20 -17 37 -37 37s-37 -17 -37 -37s17 -37 37 -37s37 17 37 37zM358 665c0 -52 -43 -99 -100 -99c-54 0 -98 45 -98 99s44 99 99 99c54 0 99 -45 99 -99z" />
    <glyph glyph-name="adieresis" unicode="&#xe4;" 
d="M473 0h-182v45c-32 -24 -62 -60 -133 -60c-97 0 -127 58 -127 139c0 89 23 135 96 164c56 22 111 41 164 67v32c0 32 -9 51 -48 51c-40 0 -44 -31 -44 -56v-27h-153v26c0 109 51 165 196 165c114 0 208 -30 208 -157v-306c0 -50 5 -60 23 -83zM291 147v120l-49 -26
c-45 -24 -47 -41 -47 -82v-14c0 -33 2 -58 40 -58c35 0 56 16 56 60zM441 609h-142v124h142v-124zM220 609h-144v124h144v-124z" />
    <glyph glyph-name="atilde" unicode="&#xe3;" 
d="M473 0h-182v45c-32 -24 -62 -60 -133 -60c-97 0 -127 58 -127 139c0 89 23 135 96 164c56 22 111 41 164 67v32c0 32 -9 51 -48 51c-40 0 -44 -31 -44 -56v-27h-153v26c0 109 51 165 196 165c114 0 208 -30 208 -157v-306c0 -50 5 -60 23 -83zM291 147v120l-49 -26
c-45 -24 -47 -41 -47 -82v-14c0 -33 2 -58 40 -58c35 0 56 16 56 60zM364 739h50c-6 -63 -30 -122 -106 -122c-58 0 -104 37 -139 37c-32 0 -33 -24 -33 -33h-50c5 68 29 121 105 121c50 0 101 -35 135 -35c17 0 33 5 38 32z" />
    <glyph glyph-name="acircumflex" unicode="&#xe2;" 
d="M473 0h-182v45c-32 -24 -62 -60 -133 -60c-97 0 -127 58 -127 139c0 89 23 135 96 164c56 22 111 41 164 67v32c0 32 -9 51 -48 51c-40 0 -44 -31 -44 -56v-27h-153v26c0 109 51 165 196 165c114 0 208 -30 208 -157v-306c0 -50 5 -60 23 -83zM291 147v120l-49 -26
c-45 -24 -47 -41 -47 -82v-14c0 -33 2 -58 40 -58c35 0 56 16 56 60zM414 612h-118l-45 59l-43 -59h-121l99 124h126z" />
    <glyph glyph-name="aacute" unicode="&#xe1;" 
d="M473 0h-182v45c-32 -24 -62 -60 -133 -60c-97 0 -127 58 -127 139c0 89 23 135 96 164c56 22 111 41 164 67v32c0 32 -9 51 -48 51c-40 0 -44 -31 -44 -56v-27h-153v26c0 109 51 165 196 165c114 0 208 -30 208 -157v-306c0 -50 5 -60 23 -83zM291 147v120l-49 -26
c-45 -24 -47 -41 -47 -82v-14c0 -33 2 -58 40 -58c35 0 56 16 56 60zM410 735l-137 -125h-118l87 125h168z" />
    <glyph glyph-name="agrave" unicode="&#xe0;" 
d="M473 0h-182v45c-32 -24 -62 -60 -133 -60c-97 0 -127 58 -127 139c0 89 23 135 96 164c56 22 111 41 164 67v32c0 32 -9 51 -48 51c-40 0 -44 -31 -44 -56v-27h-153v26c0 109 51 165 196 165c114 0 208 -30 208 -157v-306c0 -50 5 -60 23 -83zM291 147v120l-49 -26
c-45 -24 -47 -41 -47 -82v-14c0 -33 2 -58 40 -58c35 0 56 16 56 60zM349 609h-128l-141 127h174z" />
    <glyph glyph-name="Thorn" unicode="&#xde;" horiz-adv-x="521" 
d="M220 706v-117h125c113 0 155 -46 155 -142v-158c0 -97 -32 -149 -148 -149h-132v-140h-170v706h170zM220 468v-203h58c59 0 63 19 63 78v37c0 82 -2 88 -66 88h-55z" />
    <glyph glyph-name="Yacute" unicode="&#xdd;" horiz-adv-x="521" 
d="M451 910l-151 -142h-106l94 142h163zM515 706l-176 -458v-248h-167v248l-168 458h168l86 -312l86 312h171z" />
    <glyph glyph-name="Udieresis" unicode="&#xdc;" horiz-adv-x="542" 
d="M433 785h-134v113h134v-113zM242 785h-136v113h136v-113zM48 706h170v-532c0 -38 14 -63 54 -63s50 25 50 63v532h171v-508c0 -122 -28 -209 -218 -209c-180 0 -227 74 -227 188v529z" />
    <glyph glyph-name="Ucircumflex" unicode="&#xdb;" horiz-adv-x="542" 
d="M460 765h-130l-59 83l-58 -83h-122l96 142h167zM48 706h170v-532c0 -38 14 -63 54 -63s50 25 50 63v532h171v-508c0 -122 -28 -209 -218 -209c-180 0 -227 74 -227 188v529z" />
    <glyph glyph-name="Uacute" unicode="&#xda;" horiz-adv-x="542" 
d="M462 910l-151 -142h-106l94 142h163zM48 706h170v-532c0 -38 14 -63 54 -63s50 25 50 63v532h171v-508c0 -122 -28 -209 -218 -209c-180 0 -227 74 -227 188v529z" />
    <glyph glyph-name="Ugrave" unicode="&#xd9;" horiz-adv-x="542" 
d="M347 766h-109l-149 142h161zM48 706h170v-532c0 -38 14 -63 54 -63s50 25 50 63v532h171v-508c0 -122 -28 -209 -218 -209c-180 0 -227 74 -227 188v529z" />
    <glyph glyph-name="multiply" unicode="&#xd7;" horiz-adv-x="558" 
d="M467 212l-94 -101l-96 94l-86 -94l-94 90l88 96l-95 96l97 101l91 -93l84 94l94 -90l-86 -96z" />
    <glyph glyph-name="Odieresis" unicode="&#xd6;" horiz-adv-x="542" 
d="M432 785h-134v113h134v-113zM241 785h-136v113h136v-113zM499 500v-279c0 -101 -10 -230 -225 -230c-151 0 -234 53 -234 215v305c0 151 82 209 230 209c163 0 229 -68 229 -220zM211 537v-362c0 -32 0 -60 59 -60c46 0 59 19 59 60v361c0 46 -16 58 -62 58
c-42 0 -56 -15 -56 -57z" />
    <glyph glyph-name="Otilde" unicode="&#xd5;" horiz-adv-x="542" 
d="M384 899h50c-6 -63 -30 -122 -106 -122c-58 0 -104 37 -139 37c-32 0 -33 -24 -33 -33h-50c5 68 29 121 105 121c50 0 101 -35 135 -35c17 0 33 5 38 32zM499 500v-279c0 -101 -10 -230 -225 -230c-151 0 -234 53 -234 215v305c0 151 82 209 230 209
c163 0 229 -68 229 -220zM211 537v-362c0 -32 0 -60 59 -60c46 0 59 19 59 60v361c0 46 -16 58 -62 58c-42 0 -56 -15 -56 -57z" />
    <glyph glyph-name="Ocircumflex" unicode="&#xd4;" horiz-adv-x="542" 
d="M460 765h-130l-59 83l-58 -83h-122l96 142h167zM499 500v-279c0 -101 -10 -230 -225 -230c-151 0 -234 53 -234 215v305c0 151 82 209 230 209c163 0 229 -68 229 -220zM211 537v-362c0 -32 0 -60 59 -60c46 0 59 19 59 60v361c0 46 -16 58 -62 58c-42 0 -56 -15 -56 -57
z" />
    <glyph glyph-name="Oacute" unicode="&#xd3;" horiz-adv-x="542" 
d="M462 910l-151 -142h-106l94 142h163zM499 500v-279c0 -101 -10 -230 -225 -230c-151 0 -234 53 -234 215v305c0 151 82 209 230 209c163 0 229 -68 229 -220zM211 537v-362c0 -32 0 -60 59 -60c46 0 59 19 59 60v361c0 46 -16 58 -62 58c-42 0 -56 -15 -56 -57z" />
    <glyph glyph-name="Ograve" unicode="&#xd2;" horiz-adv-x="542" 
d="M348 766h-109l-149 142h161zM499 500v-279c0 -101 -10 -230 -225 -230c-151 0 -234 53 -234 215v305c0 151 82 209 230 209c163 0 229 -68 229 -220zM211 537v-362c0 -32 0 -60 59 -60c46 0 59 19 59 60v361c0 46 -16 58 -62 58c-42 0 -56 -15 -56 -57z" />
    <glyph glyph-name="Ntilde" unicode="&#xd1;" horiz-adv-x="562" 
d="M394 899h50c-6 -63 -30 -122 -106 -122c-58 0 -104 37 -139 37c-32 0 -33 -24 -33 -33h-50c5 68 29 121 105 121c50 0 101 -35 135 -35c17 0 33 5 38 32zM512 0h-172l-147 460v-460h-144v706h169l148 -458v458h146v-706z" />
    <glyph glyph-name="Eth" unicode="&#xd0;" horiz-adv-x="542" 
d="M50 706h275c116 0 179 -49 179 -172v-364c0 -141 -70 -170 -189 -170h-265v333h-49v102h49v271zM216 584v-149h64v-102h-64v-211h53c46 0 63 12 63 60v338c0 47 -17 64 -64 64h-52z" />
    <glyph glyph-name="Idieresis" unicode="&#xcf;" horiz-adv-x="271" 
d="M298 785h-134v113h134v-113zM107 785h-136v113h136v-113zM220 0h-171v706h171v-706z" />
    <glyph glyph-name="Icircumflex" unicode="&#xce;" horiz-adv-x="271" 
d="M325 765h-130l-59 83l-58 -83h-122l96 142h167zM220 0h-171v706h171v-706z" />
    <glyph glyph-name="Iacute" unicode="&#xcd;" horiz-adv-x="271" 
d="M326 910l-151 -142h-106l94 142h163zM220 0h-171v706h171v-706z" />
    <glyph glyph-name="Igrave" unicode="&#xcc;" horiz-adv-x="271" 
d="M212 766h-109l-149 142h161zM220 0h-171v706h171v-706z" />
    <glyph glyph-name="Edieresis" unicode="&#xcb;" horiz-adv-x="437" 
d="M391 785h-134v113h134v-113zM200 785h-136v113h136v-113zM416 0h-365v706h365v-124h-194v-163h183v-124h-183v-170h194v-125z" />
    <glyph glyph-name="Ecircumflex" unicode="&#xca;" horiz-adv-x="437" 
d="M419 765h-130l-59 83l-58 -83h-122l96 142h167zM416 0h-365v706h365v-124h-194v-163h183v-124h-183v-170h194v-125z" />
    <glyph glyph-name="Eacute" unicode="&#xc9;" horiz-adv-x="437" 
d="M420 910l-151 -142h-106l94 142h163zM416 0h-365v706h365v-124h-194v-163h183v-124h-183v-170h194v-125z" />
    <glyph glyph-name="Egrave" unicode="&#xc8;" horiz-adv-x="437" 
d="M306 766h-109l-149 142h161zM416 0h-365v706h365v-124h-194v-163h183v-124h-183v-170h194v-125z" />
    <glyph glyph-name="Ccedilla" unicode="&#xc7;" horiz-adv-x="521" 
d="M322 269h172v-63c0 -143 -42 -201 -185 -213l-43 -51c44 0 91 -23 91 -78c0 -64 -72 -98 -127 -98c-10 0 -35 0 -48 1l-17 48c9 -1 20 -2 30 -2c30 0 59 17 59 46c0 15 -8 35 -42 35c-17 0 -27 -5 -41 -12l-17 35l66 75c-141 8 -180 75 -180 173v370
c0 109 60 184 224 184c171 0 226 -71 226 -189v-85h-168v93c0 43 -16 58 -59 58c-44 0 -53 -25 -53 -64v-351c0 -45 6 -70 57 -70c46 0 55 22 55 70v88z" />
    <glyph glyph-name="Aring" unicode="&#xc5;" horiz-adv-x="521" 
d="M296 828c0 20 -17 37 -37 37s-37 -17 -37 -37s17 -37 37 -37s37 17 37 37zM358 828c0 -52 -43 -99 -100 -99c-54 0 -98 45 -98 99s44 99 99 99c54 0 99 -45 99 -99zM518 0h-167l-24 161h-131l-25 -161h-167l143 706h228zM310 280l-47 314l-48 -314h95z" />
    <glyph glyph-name="Adieresis" unicode="&#xc4;" horiz-adv-x="521" 
d="M422 785h-134v113h134v-113zM231 785h-136v113h136v-113zM518 0h-167l-24 161h-131l-25 -161h-167l143 706h228zM310 280l-47 314l-48 -314h95z" />
    <glyph glyph-name="Atilde" unicode="&#xc3;" horiz-adv-x="521" 
d="M373 899h50c-6 -63 -30 -122 -106 -122c-58 0 -104 37 -139 37c-32 0 -33 -24 -33 -33h-50c5 68 29 121 105 121c50 0 101 -35 135 -35c17 0 33 5 38 32zM518 0h-167l-24 161h-131l-25 -161h-167l143 706h228zM310 280l-47 314l-48 -314h95z" />
    <glyph glyph-name="Acircumflex" unicode="&#xc2;" horiz-adv-x="521" 
d="M450 765h-130l-59 83l-58 -83h-122l96 142h167zM518 0h-167l-24 161h-131l-25 -161h-167l143 706h228zM310 280l-47 314l-48 -314h95z" />
    <glyph glyph-name="Aacute" unicode="&#xc1;" horiz-adv-x="521" 
d="M451 910l-151 -142h-106l94 142h163zM518 0h-167l-24 161h-131l-25 -161h-167l143 706h228zM310 280l-47 314l-48 -314h95z" />
    <glyph glyph-name="Agrave" unicode="&#xc0;" horiz-adv-x="521" 
d="M337 766h-109l-149 142h161zM518 0h-167l-24 161h-131l-25 -161h-167l143 706h228zM310 280l-47 314l-48 -314h95z" />
    <glyph glyph-name="mu" unicode="&#xb5;" 
d="M477 0h-176l-5 58c-14 -48 -30 -64 -62 -64c-14 0 -25 4 -34 14v-195h-158v718h158v-374c0 -33 16 -49 47 -49c33 0 49 17 49 54v369h158v-448c0 -45 3 -57 23 -83z" />
    <glyph glyph-name="plusminus" unicode="&#xb1;" horiz-adv-x="559" 
d="M478 332h-120v-145h-155v145h-121v126h121v146h155v-146h120v-126zM478 0h-396v126h396v-126z" />
    <glyph glyph-name="degree" unicode="&#xb0;" horiz-adv-x="354" 
d="M349 573c0 -95 -77 -173 -172 -173s-172 78 -172 173c0 96 76 172 172 172s172 -76 172 -172zM233 575c0 31 -25 55 -56 55s-55 -25 -55 -55s25 -56 55 -56c31 0 56 25 56 56z" />
    <glyph glyph-name="registered" unicode="&#xae;" horiz-adv-x="799" 
d="M563 130h-109c-11 16 -14 27 -14 53v78c0 42 -9 52 -47 52h-24v-183h-104v449h153c87 0 121 -25 121 -91v-52c0 -48 -17 -74 -64 -88c51 -12 67 -35 67 -96v-65c0 -28 6 -42 21 -57zM369 401h22c34 0 46 12 46 47v14c0 24 -13 35 -42 35h-26v-96zM756 354
c0 -201 -156 -357 -357 -357c-197 0 -355 158 -355 356s158 356 356 356c199 0 356 -157 356 -355zM705 352c0 176 -134 313 -305 313c-168 0 -305 -140 -305 -312c0 -174 135 -312 304 -312c170 0 306 139 306 311z" />
    <glyph glyph-name="logicalnot" unicode="&#xac;" horiz-adv-x="559" 
d="M474 52h-157v186h-265v124h422v-310z" />
    <glyph glyph-name="copyright" unicode="&#xa9;" horiz-adv-x="799" 
d="M443 304h103v-39c0 -104 -40 -143 -146 -143s-151 41 -151 155v160c0 118 55 153 152 153c105 0 145 -39 145 -142v-35h-103v40c0 39 -13 54 -44 54c-33 0 -47 -11 -47 -69v-162c0 -59 14 -69 47 -69c31 0 44 15 44 54v43zM756 354c0 -201 -156 -357 -357 -357
c-197 0 -355 158 -355 356s158 356 356 356c199 0 356 -157 356 -355zM705 352c0 176 -134 313 -305 313c-168 0 -305 -140 -305 -312c0 -174 135 -312 304 -312c170 0 306 139 306 311z" />
    <glyph glyph-name="brokenbar" unicode="&#xa6;" horiz-adv-x="229" 
d="M178 324h-127v383h127v-383zM178 -199h-127v382h127v-382z" />
    <glyph glyph-name="minus" unicode="&#x2212;" horiz-adv-x="559" 
d="M493 237h-427v126h427v-126z" />
    <glyph glyph-name="threesuperior" unicode="&#xb3;" horiz-adv-x="333" 
d="M26 422h99v-44c0 -33 12 -44 37 -44s37 10 37 39v46c0 29 -15 35 -41 35h-49v81h45c37 0 45 12 45 36v25c0 36 -17 40 -39 40c-23 0 -35 -10 -35 -41v-29h-99v49c0 63 32 97 128 97c104 0 142 -29 142 -99v-34c0 -30 -5 -63 -46 -82c47 -17 49 -56 49 -89v-45
c0 -67 -30 -105 -139 -105c-118 0 -134 37 -134 112v52z" />
    <glyph glyph-name="twosuperior" unicode="&#xb2;" horiz-adv-x="333" 
d="M303 353v-88h-274v34c0 98 43 132 136 210c34 29 39 33 39 65v14c0 24 -3 48 -37 48c-37 0 -39 -24 -39 -43v-59h-99v59c0 51 10 121 133 121c92 0 143 -33 143 -115v-18c0 -87 -28 -94 -95 -155c-37 -34 -50 -55 -60 -73h153z" />
    <glyph glyph-name="onesuperior" unicode="&#xb9;" horiz-adv-x="333" 
d="M228 265h-99v316c-18 -14 -42 -24 -66 -30v94c38 7 64 20 82 61h83v-441z" />
    <glyph glyph-name="threequarters" unicode="&#xbe;" horiz-adv-x="792" 
d="M569 706l-240 -706h-73l240 706h73zM26 422h99v-44c0 -33 12 -44 37 -44s37 10 37 39v46c0 29 -15 35 -41 35h-49v81h45c37 0 45 12 45 36v25c0 36 -17 40 -39 40c-23 0 -35 -10 -35 -41v-29h-99v49c0 63 32 97 128 97c104 0 142 -29 142 -99v-34c0 -30 -5 -63 -46 -82
c47 -17 49 -56 49 -89v-45c0 -67 -30 -105 -139 -105c-118 0 -134 37 -134 112v52zM771 92h-45v-92h-95v92h-152v85l124 265h123v-265h45v-85zM631 177v181l-75 -181h75z" />
    <glyph glyph-name="onehalf" unicode="&#xbd;" horiz-adv-x="792" 
d="M761 88v-88h-274v34c0 98 43 132 136 210c34 29 39 33 39 65v14c0 24 -3 48 -37 48c-37 0 -39 -24 -39 -43v-59h-99v59c0 51 10 121 133 121c92 0 143 -33 143 -115v-18c0 -87 -28 -94 -95 -155c-37 -34 -50 -55 -60 -73h153zM528 706l-240 -706h-73l240 706h73zM228 265
h-99v316c-18 -14 -42 -24 -66 -30v94c38 7 64 20 82 61h83v-441z" />
    <glyph glyph-name="onequarter" unicode="&#xbc;" horiz-adv-x="792" 
d="M551 706l-240 -706h-72l240 706h72zM228 265h-99v316c-18 -14 -42 -24 -66 -30v94c38 7 64 20 82 61h83v-441zM771 92h-45v-92h-95v92h-152v85l124 265h123v-265h45v-85zM631 177v181l-75 -181h75z" />
    <glyph glyph-name="nbspace" unicode="&#xa0;" horiz-adv-x="271" 
 />
    <glyph glyph-name="uni00AD" unicode="&#xad;" horiz-adv-x="329" 
d="M301 235h-273v122h273v-122z" />
    </font>
</defs>
</svg>
