<?xml version="1.0" standalone="no"?>
<!DOCTYPE svg PUBLIC "-//W3C//DTD SVG 1.1//EN" "http://www.w3.org/Graphics/SVG/1.1/DTD/svg11.dtd" >
<svg>
<metadata>
Created by FontForge 20120731 at Wed Jul  3 14:26:05 2019
 By www-data
Berthold first published Akzidenz-Grotesk in 1896. The design originates from Royal Grotesk light by Ferdinand Theinhardt who also supplied the regular, medium and bold weights. Throughout the years, Berthold has expanded this extremely popular and versatile family. AG Super was developed in 1968 by Guenter Gerhard Lange and is an excellent choice for headlines. In 2001, Guenter Gerhard Lange added more weights for Berthold including Super Italic and Extra Bold italic.
</metadata>
<defs>
<font id="AkzidenzGroteskBE-LigExtIt" horiz-adv-x="708" >
  <font-face 
    font-family="Akzidenz Grotesk BE LightEx"
    font-weight="300"
    font-style="italic"
    font-stretch="expanded"
    units-per-em="1000"
    panose-1="2 0 5 4 8 0 0 9 0 3"
    ascent="750"
    descent="-250"
    x-height="489"
    cap-height="706"
    bbox="-206 -228 1522 913"
    underline-thickness="59"
    underline-position="-118"
    slope="-13"
    stemh="20"
    stemv="71"
    unicode-range="U+0020-FB02"
  />
<missing-glyph horiz-adv-x="500" 
d="M0 0v706h500v-706h-500zM250 401l170 255h-340zM280 353l170 -258v516zM80 50h340l-170 258zM50 611v-516l170 258z" />
    <glyph glyph-name="fi" unicode="fi" horiz-adv-x="562" 
d="M572 678l-22 -96h-66l22 96h66zM529 489l-114 -489h-66l114 489h66zM442 713l-15 -58c-33 8 -58 11 -85 11c-60 0 -83 -21 -99 -91l-20 -86h167l-12 -51h-167l-101 -438h-66l102 438h-98l11 51h98l24 102c23 96 66 133 163 133c32 0 68 -4 98 -11z" />
    <glyph glyph-name="fl" unicode="fl" horiz-adv-x="562" 
d="M579 706l-163 -706h-66l163 706h66zM442 713l-15 -58c-33 8 -58 11 -85 11c-60 0 -83 -21 -99 -91l-20 -86h167l-12 -51h-167l-101 -438h-66l102 438h-98l11 51h98l24 102c23 96 66 133 163 133c32 0 68 -4 98 -11z" />
    <glyph glyph-name=".notdef" horiz-adv-x="500" 
d="M0 0v706h500v-706h-500zM250 401l170 255h-340zM280 353l170 -258v516zM80 50h340l-170 258zM50 611v-516l170 258z" />
    <glyph glyph-name="space" unicode=" " horiz-adv-x="313" 
 />
    <glyph glyph-name="exclam" unicode="!" horiz-adv-x="313" 
d="M311 706l-67 -291l-63 -215h-46c4 26 38 214 38 214l67 292h71zM174 99l-23 -99h-77l23 99h77z" />
    <glyph glyph-name="quotedbl" unicode="&#x22;" horiz-adv-x="347" 
d="M400 744l-93 -291h-36l40 291h89zM211 744l-93 -291h-35l40 291h88z" />
    <glyph glyph-name="numbersign" unicode="#" horiz-adv-x="768" 
d="M747 467l-14 -57h-193l-29 -97h191l-13 -54h-193l-76 -259h-62l79 259h-146l-79 -259h-58l77 259h-202l13 54h206l28 97h-202l13 57h205l70 239h63l-72 -239h145l69 239h60l-71 -239h191zM481 410h-145l-29 -97h145z" />
    <glyph glyph-name="dollar" unicode="$" horiz-adv-x="812" 
d="M774 565l-64 -33c-44 72 -122 109 -203 124l-59 -254l34 -7c134 -28 247 -61 247 -184c0 -136 -117 -226 -357 -226h-20l-14 -62h-64l16 67c-84 14 -131 29 -182 61c-64 40 -92 77 -118 155l75 22c30 -109 101 -154 240 -178l69 299l-103 23c-94 21 -163 64 -163 154
c0 124 118 196 317 196c14 0 20 0 36 -1l14 62h62l-16 -69c30 -4 76 -17 118 -35c58 -24 102 -62 135 -114zM389 415l59 250c-15 1 -23 1 -34 1c-143 0 -237 -53 -237 -132c0 -70 63 -86 118 -98zM433 336l-67 -291c178 0 292 49 292 160c0 61 -31 97 -225 131z" />
    <glyph glyph-name="percent" unicode="%" horiz-adv-x="1083" 
d="M1034 243c0 -140 -99 -248 -228 -248c-111 0 -188 77 -188 191c0 138 100 249 225 249c114 0 191 -78 191 -192zM822 688l-508 -688h-60l508 688h60zM454 499c0 -141 -99 -249 -228 -249c-111 0 -188 78 -188 191c0 138 100 249 225 249c114 0 191 -77 191 -191zM983 245
c0 88 -55 147 -139 147c-100 0 -174 -87 -174 -204c0 -90 56 -151 140 -151c100 0 173 89 173 208zM403 501c0 88 -56 146 -139 146c-100 0 -175 -87 -175 -203c0 -90 57 -151 141 -151c99 0 173 88 173 208z" />
    <glyph glyph-name="ampersand" unicode="&#x26;" horiz-adv-x="771" 
d="M635 373h64c-26 -98 -80 -191 -133 -246l14 -11c49 -39 74 -53 122 -58l-11 -60c-57 0 -98 11 -179 83c-79 -65 -172 -99 -276 -99c-141 0 -232 69 -232 178c0 104 60 173 260 231c-36 51 -52 95 -52 137c0 98 75 165 185 165c95 0 161 -55 161 -136
c0 -35 -13 -66 -40 -98c-35 -42 -56 -52 -156 -94c35 -49 48 -66 72 -97c32 -40 47 -57 89 -101l6 7c49 57 80 111 106 199zM331 413c105 31 163 84 163 145c0 47 -42 80 -103 80c-69 0 -111 -38 -111 -100c0 -37 8 -58 51 -125zM471 121c-38 38 -118 132 -175 221
c-163 -52 -219 -86 -219 -172c0 -79 64 -129 166 -129c85 0 162 31 228 80z" />
    <glyph glyph-name="quoteright" unicode="&#x2019;" horiz-adv-x="278" 
d="M177 706h85l-28 -119c-11 -46 -21 -68 -43 -83c-17 -12 -35 -18 -59 -18l9 40c32 5 41 16 51 56l5 20h-44z" />
    <glyph glyph-name="parenleft" unicode="(" horiz-adv-x="354" 
d="M401 737l26 -28c-102 -79 -170 -142 -222 -233c-58 -102 -89 -222 -89 -347c0 -117 41 -244 102 -318l-31 -27c-93 90 -145 224 -145 372c0 154 51 287 141 402c57 72 117 124 218 179z" />
    <glyph glyph-name="parenright" unicode=")" horiz-adv-x="354" 
d="M90 717l30 27c93 -90 145 -223 145 -372c0 -49 -4 -97 -15 -142c-21 -88 -65 -185 -126 -260c-59 -72 -116 -122 -218 -179l-26 29c106 73 171 144 222 233c59 101 90 221 90 347c0 117 -41 244 -102 317z" />
    <glyph glyph-name="asterisk" unicode="*" horiz-adv-x="357" 
d="M371 561l-117 -14l45 -103l-42 -18l-46 102l-80 -73l-30 35l81 75l-96 54l22 39l98 -52l25 106l46 -11l-26 -108l114 11z" />
    <glyph glyph-name="plus" unicode="+" horiz-adv-x="772" 
d="M675 323l-14 -59h-262l-55 -239h-60l55 239h-261l14 59h261l55 237h60l-55 -237h262z" />
    <glyph glyph-name="comma" unicode="," horiz-adv-x="271" 
d="M35 99h75l-28 -119c-15 -64 -49 -91 -95 -96l8 36c16 0 41 15 53 71l2 9h-38z" />
    <glyph glyph-name="hyphen" unicode="-" horiz-adv-x="364" 
d="M320 324l-13 -60h-289l14 60h288z" />
    <glyph glyph-name="period" unicode="." horiz-adv-x="271" 
d="M112 99l-23 -99h-77l23 99h77z" />
    <glyph glyph-name="slash" unicode="/" horiz-adv-x="500" 
d="M538 706l-511 -706h-71l512 706h70z" />
    <glyph glyph-name="zero" unicode="0" horiz-adv-x="729" 
d="M700 391c0 -80 -27 -166 -73 -236c-72 -109 -180 -168 -308 -168c-178 0 -299 124 -299 307c0 222 168 406 370 406c187 0 310 -122 310 -309zM628 398c0 147 -91 241 -232 241c-78 0 -130 -18 -184 -65c-73 -62 -120 -176 -120 -287c0 -143 94 -240 230 -240
c175 0 306 151 306 351z" />
    <glyph glyph-name="one" unicode="1" horiz-adv-x="729" 
d="M494 693l-160 -693h-68l125 543c-52 -34 -102 -47 -177 -47h-17l15 60c127 3 186 38 236 137h46z" />
    <glyph glyph-name="two" unicode="2" horiz-adv-x="729" 
d="M602 57l-10 -57h-606l14 66c116 40 163 58 240 92c103 45 185 89 233 124c86 62 125 124 125 200c0 96 -83 161 -205 161c-90 0 -168 -35 -211 -93c-18 -25 -30 -55 -41 -99l-67 15c13 43 18 55 30 78c52 100 160 157 295 157c162 0 270 -86 270 -216
c0 -96 -57 -185 -160 -251c-62 -39 -158 -88 -238 -122c-51 -22 -83 -34 -167 -61c0 0 465 6 498 6z" />
    <glyph glyph-name="three" unicode="3" horiz-adv-x="729" 
d="M281 330l12 59h79c106 0 143 6 179 31c31 21 50 56 50 92c0 77 -82 127 -206 127c-119 0 -195 -45 -237 -140l-62 26c60 112 154 171 300 171c164 0 275 -72 275 -179c0 -82 -58 -141 -155 -159c77 -18 122 -69 122 -139c0 -136 -126 -229 -311 -229
c-155 0 -283 59 -316 208l71 16c21 -115 129 -168 250 -168c142 0 237 67 237 168c0 35 -14 65 -39 84c-34 26 -67 32 -167 32h-82z" />
    <glyph glyph-name="four" unicode="4" horiz-adv-x="729" 
d="M670 244l-14 -59h-149l-43 -185h-67l43 185h-435l14 59l532 451h74l-104 -451h149zM539 613l-431 -369h346z" />
    <glyph glyph-name="five" unicode="5" horiz-adv-x="729" 
d="M709 687l-13 -55h-476l-67 -222c69 49 130 69 220 69c171 0 277 -82 277 -214c0 -164 -136 -275 -337 -275c-195 0 -294 99 -308 205l72 14c8 -98 98 -162 235 -162c161 0 269 83 269 208c0 101 -86 166 -222 166c-92 0 -161 -28 -230 -94l-63 5l107 355h536z" />
    <glyph glyph-name="six" unicode="6" horiz-adv-x="729" 
d="M719 523l-69 -24c-40 96 -129 141 -230 141c-150 0 -256 -101 -303 -290c44 73 147 109 260 109c175 0 298 -89 298 -213c0 -150 -139 -258 -332 -258c-186 0 -300 103 -300 270c0 248 170 441 388 441c126 0 239 -60 288 -176zM606 234c0 99 -94 163 -238 163
c-151 0 -247 -69 -247 -178c0 -103 92 -169 235 -169c142 0 250 80 250 184z" />
    <glyph glyph-name="seven" unicode="7" horiz-adv-x="729" 
d="M703 688l-12 -50c-213 -148 -398 -382 -471 -638h-75c66 234 245 480 446 628h-503l13 60h602z" />
    <glyph glyph-name="eight" unicode="8" horiz-adv-x="729" 
d="M499 355c97 -20 154 -76 154 -155c0 -126 -137 -215 -332 -215c-183 0 -306 76 -306 187c0 51 21 97 61 130c50 41 85 48 156 64c-81 16 -127 66 -127 137c0 119 119 198 298 198c171 0 281 -69 281 -176c0 -78 -58 -151 -185 -170zM617 521c0 75 -84 124 -215 124
c-142 0 -224 -49 -224 -132c0 -77 80 -122 215 -122c140 0 224 49 224 130zM584 197c0 77 -98 130 -242 130c-161 0 -256 -54 -256 -144c0 -85 96 -139 243 -139c152 0 255 61 255 153z" />
    <glyph glyph-name="nine" unicode="9" horiz-adv-x="729" 
d="M0 163l69 23c41 -96 108 -140 229 -140c156 0 256 95 305 289c-58 -71 -143 -107 -261 -107c-176 0 -298 86 -298 212c0 149 140 257 332 257c186 0 301 -102 301 -269c0 -75 -19 -158 -52 -227c-68 -143 -181 -215 -340 -215c-144 0 -231 57 -285 177zM598 466
c0 103 -92 169 -235 169c-141 0 -250 -80 -250 -184c0 -97 93 -160 239 -160c151 0 246 68 246 175z" />
    <glyph glyph-name="colon" unicode=":" horiz-adv-x="313" 
d="M244 488l-23 -99h-77l23 99h77zM154 99l-23 -99h-77l23 99h77z" />
    <glyph glyph-name="semicolon" unicode=";" horiz-adv-x="313" 
d="M244 488l-23 -99h-77l23 99h77zM76 100h75l-27 -119c-15 -64 -49 -91 -95 -96l8 36c16 0 41 15 53 71l2 9h-38z" />
    <glyph glyph-name="less" unicode="&#x3c;" horiz-adv-x="772" 
d="M698 570l-16 -69l-526 -209l430 -203l-14 -62l-488 234l16 67z" />
    <glyph glyph-name="equal" unicode="=" horiz-adv-x="772" 
d="M695 408l-14 -58h-583l14 58h583zM653 231l-14 -58h-583l14 58h583z" />
    <glyph glyph-name="greater" unicode="&#x3e;" horiz-adv-x="772" 
d="M670 337l-15 -67l-598 -242l16 69l526 209l-431 203l14 61z" />
    <glyph glyph-name="question" unicode="?" 
d="M333 197h-62l4 17c17 74 45 96 115 115l37 10c59 16 109 37 135 58c36 29 59 79 59 127c0 90 -72 141 -198 141c-114 0 -185 -50 -255 -182l-59 24c80 153 176 215 331 215c156 0 250 -71 250 -190c0 -97 -64 -186 -167 -222c-23 -8 -33 -11 -97 -29
c-78 -22 -77 -25 -93 -84zM316 99l-23 -99h-75l23 99h75z" />
    <glyph glyph-name="at" unicode="@" horiz-adv-x="896" 
d="M791 70l32 -36c-55 -48 -75 -62 -121 -88c-83 -46 -185 -73 -279 -73c-222 0 -405 124 -405 359c0 265 217 480 484 480c202 0 337 -115 337 -289c0 -178 -125 -351 -253 -351c-51 0 -84 31 -84 80v13c-48 -61 -104 -92 -165 -92c-82 0 -135 60 -135 153
c0 151 111 289 232 289c55 0 97 -23 127 -95l19 72h61l-66 -264c-6 -25 -7 -43 -7 -58c0 -32 15 -50 40 -50c8 0 16 2 26 6c81 36 152 175 152 297c0 148 -113 242 -290 242c-233 0 -423 -193 -423 -431c0 -189 140 -312 355 -312c90 0 174 23 253 68c41 24 60 37 110 80z
M537 347v7c0 64 -39 108 -97 108c-88 0 -169 -110 -169 -230c0 -65 36 -105 94 -105c88 0 172 100 172 220z" />
    <glyph glyph-name="A" unicode="A" horiz-adv-x="792" 
d="M712 0h-69l-56 183h-453l-127 -183h-75l486 706h76zM570 239l-122 406l-275 -406h397z" />
    <glyph glyph-name="B" unicode="B" horiz-adv-x="912" 
d="M0 0l163 706h464c67 0 104 -3 134 -12c60 -17 97 -72 97 -142c0 -93 -56 -158 -155 -178c79 -23 117 -72 117 -153c0 -135 -99 -221 -252 -221h-568zM161 399h416c86 0 136 13 170 43c27 25 44 63 44 104c0 40 -19 77 -54 91c-24 10 -42 12 -95 12h-423zM83 59h439
c73 0 111 6 146 21c48 21 81 75 81 133c0 29 -9 58 -25 78c-28 37 -67 48 -167 48h-410z" />
    <glyph glyph-name="C" unicode="C" horiz-adv-x="812" 
d="M807 517l-65 -29c-46 117 -141 177 -278 177c-203 0 -358 -146 -358 -340c0 -63 14 -118 41 -159c51 -79 153 -127 268 -127c89 0 168 27 230 80c33 28 47 44 78 92l55 -33c-77 -127 -206 -196 -368 -196c-225 0 -375 132 -375 330c0 237 183 411 435 411
c162 0 272 -67 337 -206z" />
    <glyph glyph-name="D" unicode="D" horiz-adv-x="842" 
d="M0 0l163 706h254c88 0 122 -2 163 -7c51 -7 94 -23 130 -52c65 -52 97 -130 97 -231c0 -103 -34 -201 -97 -276c-83 -100 -194 -140 -390 -140h-320zM84 59h225c142 0 229 20 294 67c81 58 134 173 134 289c0 67 -15 115 -50 157c-31 38 -66 58 -119 68
c-38 7 -58 8 -148 8h-200z" />
    <glyph glyph-name="E" unicode="E" horiz-adv-x="828" 
d="M839 706l-14 -58h-606l-58 -248h561l-14 -60h-561l-64 -281h635l-13 -59h-705l163 706h676z" />
    <glyph glyph-name="F" unicode="F" horiz-adv-x="750" 
d="M812 706l-13 -58h-581l-58 -251h520l-14 -61h-520l-77 -336h-69l163 706h649z" />
    <glyph glyph-name="G" unicode="G" horiz-adv-x="896" 
d="M832 528l-62 -32c-29 59 -61 96 -106 125c-53 34 -125 53 -202 53c-88 0 -163 -25 -223 -74c-81 -65 -131 -177 -131 -289c0 -171 106 -273 284 -273c113 0 213 47 283 133c35 43 57 86 71 139h-374l13 60h436l-85 -369h-61l31 134c-75 -102 -184 -154 -319 -154
c-213 0 -353 126 -353 320c0 250 183 430 438 430c171 0 289 -67 360 -203z" />
    <glyph glyph-name="H" unicode="H" horiz-adv-x="896" 
d="M892 706l-163 -706h-67l79 345h-592l-80 -345h-69l163 706h69l-70 -302h593l70 302h67z" />
    <glyph glyph-name="I" unicode="I" horiz-adv-x="229" 
d="M230 706l-163 -706h-67l163 706h67z" />
    <glyph glyph-name="J" unicode="J" horiz-adv-x="625" 
d="M620 706l-102 -437c-48 -205 -132 -287 -296 -287c-148 0 -241 70 -272 206l73 25c9 -52 15 -69 33 -95c33 -47 96 -76 166 -76c51 0 99 15 135 43c56 43 79 109 111 248l86 373h66z" />
    <glyph glyph-name="K" unicode="K" horiz-adv-x="788" 
d="M838 706l-396 -277l255 -429h-77l-231 393l-276 -192l-46 -201h-67l163 706h67l-98 -425l601 425h105z" />
    <glyph glyph-name="L" unicode="L" horiz-adv-x="688" 
d="M597 59l-13 -59h-584l163 706h70l-149 -647h513z" />
    <glyph glyph-name="M" unicode="M" horiz-adv-x="937" 
d="M938 706l-163 -706h-63l145 628l-433 -628h-70l-145 629l-145 -629h-64l163 706h87l151 -646l446 646h91z" />
    <glyph glyph-name="N" unicode="N" horiz-adv-x="896" 
d="M894 706l-163 -706h-63l-463 616l-142 -616h-63l163 706h63l462 -619l143 619h63z" />
    <glyph glyph-name="O" unicode="O" horiz-adv-x="909" 
d="M874 411c0 -120 -56 -239 -143 -316c-84 -75 -192 -111 -326 -111c-226 0 -370 125 -370 321c0 184 130 419 465 419c226 0 374 -124 374 -313zM802 407c0 160 -120 260 -311 260c-227 0 -386 -148 -386 -359c0 -164 121 -268 313 -268c219 0 384 158 384 367z" />
    <glyph glyph-name="P" unicode="P" horiz-adv-x="812" 
d="M0 0l163 706h429c110 0 152 -9 191 -42c33 -28 53 -74 53 -125c0 -94 -58 -182 -147 -207c-49 -14 -79 -16 -192 -16h-354l-73 -316h-70zM156 374h423c125 0 182 59 182 155c0 108 -73 119 -143 119h-398z" />
    <glyph glyph-name="Q" unicode="Q" horiz-adv-x="909" 
d="M842 -15l-36 -51l-150 107c-71 -37 -154 -57 -251 -57c-226 0 -370 125 -370 321c0 202 147 419 463 419c228 0 376 -124 376 -313c0 -69 -23 -154 -59 -216c-30 -51 -49 -73 -105 -118zM802 407c0 160 -120 260 -311 260c-227 0 -386 -148 -386 -359
c0 -164 121 -268 313 -268c219 0 384 158 384 367z" />
    <glyph glyph-name="R" unicode="R" horiz-adv-x="875" 
d="M0 0l163 706h450c98 0 140 -8 176 -34c40 -28 63 -75 63 -132c0 -53 -18 -106 -47 -143c-51 -63 -115 -78 -251 -82l211 -315h-95l-206 315h-323l-73 -315h-68zM155 375h405c78 0 119 9 155 30c38 23 63 74 63 130c0 36 -13 67 -35 85c-23 20 -65 28 -141 28h-384z" />
    <glyph glyph-name="S" unicode="S" horiz-adv-x="812" 
d="M779 565l-64 -33c-56 97 -194 133 -285 133c-154 0 -248 -49 -248 -131c0 -52 28 -79 124 -100l235 -52c121 -27 193 -74 193 -171c0 -142 -130 -226 -348 -226c-203 0 -357 78 -390 221l75 22c16 -56 32 -83 67 -111c56 -46 144 -72 246 -72c176 0 279 59 279 160
c0 81 -64 98 -224 131l-126 26c-150 31 -200 82 -200 164c0 124 118 196 318 196c142 0 283 -50 348 -157z" />
    <glyph glyph-name="T" unicode="T" horiz-adv-x="688" 
d="M766 706l-13 -58h-303l-150 -648h-67l150 648h-317l13 58h687z" />
    <glyph glyph-name="U" unicode="U" horiz-adv-x="875" 
d="M874 706l-92 -400c-25 -109 -52 -173 -91 -219c-59 -70 -163 -105 -313 -105c-214 0 -326 75 -326 221c0 31 5 66 20 129l87 374h65l-88 -380c-13 -55 -17 -93 -17 -121c0 -114 104 -164 266 -164c119 0 210 31 259 87c38 42 58 109 80 205l86 373h64z" />
    <glyph glyph-name="V" unicode="V" 
d="M795 706l-490 -706h-66l-170 706h72l146 -632l429 632h79z" />
    <glyph glyph-name="W" unicode="W" horiz-adv-x="1062" 
d="M1142 706l-386 -706h-82l-71 637l-365 -637h-80l-71 706h68l59 -636l365 636h73l76 -636l345 636h69z" />
    <glyph glyph-name="X" unicode="X" horiz-adv-x="729" 
d="M794 706l-387 -346l247 -360h-80l-217 317l-351 -317h-93l410 369l-231 337h80l201 -293l329 293h92z" />
    <glyph glyph-name="Y" unicode="Y" horiz-adv-x="729" 
d="M800 706l-417 -420l-66 -286h-64l66 286l-235 420h79l197 -363l356 363h84z" />
    <glyph glyph-name="Z" unicode="Z" horiz-adv-x="748" 
d="M811 706l-14 -62l-758 -585h628l-13 -59h-732l13 57l762 591h-594l13 58h695z" />
    <glyph glyph-name="bracketleft" unicode="[" horiz-adv-x="292" 
d="M362 732l-14 -62h-122l-190 -822h122l-14 -63h-187l218 947h187z" />
    <glyph glyph-name="backslash" unicode="\" horiz-adv-x="354" 
d="M261 -17h-58l-113 724h57z" />
    <glyph glyph-name="bracketright" unicode="]" horiz-adv-x="292" 
d="M284 732l-219 -947h-187l15 62h122l189 822h-122l15 63h187z" />
    <glyph glyph-name="asciicircum" unicode="^" horiz-adv-x="772" 
d="M609 286l-63 1l-87 356l-260 -357h-72l310 420h69z" />
    <glyph glyph-name="underscore" unicode="_" horiz-adv-x="500" 
d="M419 -206h-520l13 59h520z" />
    <glyph glyph-name="quoteleft" unicode="&#x2018;" horiz-adv-x="278" 
d="M214 494h-85l27 119c10 46 22 67 44 83c16 12 34 18 58 18l-9 -40c-31 -5 -43 -16 -51 -56l-4 -20h44z" />
    <glyph glyph-name="a" unicode="a" horiz-adv-x="667" 
d="M605 51l-11 -50c-21 -3 -44 -5 -54 -5c-47 0 -72 21 -72 61v15c-55 -56 -147 -85 -273 -85c-123 0 -193 52 -193 143c0 50 23 116 95 148c70 31 189 42 318 42h111c5 27 6 41 6 50c0 60 -95 80 -201 80c-123 0 -179 -30 -205 -108l-68 4c33 114 114 159 279 159
c176 0 256 -41 256 -132c0 -16 -2 -34 -8 -58l-44 -193c-3 -12 -6 -25 -6 -38c0 -25 12 -33 48 -33h22zM507 237l6 29c-31 0 -54 1 -70 1c-20 0 -254 -1 -321 -38c-41 -23 -51 -59 -51 -90c0 -66 47 -96 148 -96c171 0 261 64 288 194z" />
    <glyph glyph-name="b" unicode="b" 
d="M-5 0l163 706h66l-64 -276c51 50 128 74 223 74c160 0 259 -87 259 -231c0 -166 -137 -285 -327 -285c-103 0 -182 37 -232 109l-22 -97h-66zM570 276c0 111 -72 174 -198 174c-163 0 -256 -95 -256 -238c0 -138 126 -170 207 -170c145 0 247 97 247 234z" />
    <glyph glyph-name="c" unicode="c" horiz-adv-x="665" 
d="M613 346l-64 -26c-45 89 -120 126 -217 126c-151 0 -249 -87 -249 -221c0 -111 84 -182 213 -182c73 0 139 24 184 66c23 22 32 34 60 78l62 -28c-79 -120 -174 -173 -313 -173c-167 0 -275 91 -275 232c0 165 134 285 320 285c130 0 232 -57 279 -157z" />
    <glyph glyph-name="d" unicode="d" 
d="M713 706l-163 -706h-66l15 63c-72 -59 -134 -77 -225 -77c-160 0 -260 88 -260 228c0 169 136 289 327 289c113 0 176 -28 235 -107l72 310h65zM541 280c0 106 -76 169 -204 169c-150 0 -252 -94 -252 -234c0 -110 74 -174 202 -174c158 0 254 92 254 239z" />
    <glyph glyph-name="e" unicode="e" horiz-adv-x="658" 
d="M518 169l46 -38c-75 -100 -164 -145 -290 -145c-157 0 -259 90 -259 231c0 171 125 288 308 288c167 0 264 -87 264 -237c0 -7 0 -17 -1 -31h-503c-2 -11 -2 -18 -2 -24c0 -99 85 -170 202 -170c96 0 174 42 235 126zM95 292h421c-10 103 -79 159 -198 159
c-112 0 -194 -59 -223 -159z" />
    <glyph glyph-name="f" unicode="f" horiz-adv-x="354" 
d="M442 713l-15 -58c-33 8 -58 11 -85 11c-60 0 -83 -21 -99 -91l-20 -86h167l-12 -51h-167l-101 -438h-66l102 438h-98l11 51h98l24 102c23 96 66 133 163 133c32 0 68 -4 98 -11z" />
    <glyph glyph-name="g" unicode="g" horiz-adv-x="688" 
d="M661 490l-101 -440c-15 -64 -34 -135 -70 -174c-47 -50 -132 -76 -245 -76c-160 0 -248 51 -248 146c0 4 0 10 1 17h69c-1 -6 -2 -11 -2 -15c0 -63 64 -92 204 -92c79 0 151 26 181 66c19 24 33 64 49 140c-46 -51 -136 -74 -221 -74c-163 0 -264 87 -264 228
c0 158 125 287 330 287c115 0 184 -32 233 -108l20 95h64zM543 279c0 106 -77 170 -206 170c-150 0 -251 -93 -251 -231c0 -111 74 -174 202 -174c161 0 255 89 255 235z" />
    <glyph glyph-name="h" unicode="h" 
d="M-5 0l162 706h66l-65 -286c46 55 120 82 222 82c159 0 245 -65 245 -185c0 -26 -4 -59 -13 -98l-50 -219h-66l49 215c8 34 12 69 12 89c0 93 -63 140 -185 140c-79 0 -140 -19 -184 -58c-43 -39 -58 -79 -72 -142l-55 -244h-66z" />
    <glyph glyph-name="i" unicode="i" horiz-adv-x="208" 
d="M218 678l-22 -96h-66l22 96h66zM175 489l-114 -489h-66l114 489h66z" />
    <glyph glyph-name="j" unicode="j" horiz-adv-x="208" 
d="M217 678l-23 -97h-64l23 97h64zM173 489l-121 -526c-12 -51 -20 -73 -36 -97c-25 -38 -62 -55 -123 -55c-32 0 -67 4 -99 12l15 60c28 -9 52 -13 81 -13c60 0 81 20 98 92l121 527h64z" />
    <glyph glyph-name="k" unicode="k" horiz-adv-x="667" 
d="M637 489l-298 -192l255 -297h-84l-224 262l-194 -125l-31 -137h-65l163 706h65l-114 -489l419 272h108z" />
    <glyph glyph-name="l" unicode="l" horiz-adv-x="208" 
d="M225 706l-163 -706h-66l163 706h66z" />
    <glyph glyph-name="m" unicode="m" horiz-adv-x="1177" 
d="M107 489h66l-15 -69c44 53 121 83 214 83c101 0 196 -32 227 -123c57 87 150 123 260 123c149 0 235 -69 235 -186c0 -26 -4 -59 -13 -98l-50 -219h-66l49 215c8 34 12 69 12 90c0 89 -63 139 -177 139c-72 0 -134 -18 -176 -58c-51 -48 -59 -88 -77 -167l-50 -219h-66
l49 215c8 34 12 69 12 90c0 89 -63 139 -177 139c-72 0 -133 -20 -176 -58c-43 -39 -58 -79 -72 -142l-55 -244h-66z" />
    <glyph glyph-name="n" unicode="n" 
d="M107 489h66l-15 -69c46 55 120 82 222 82c159 0 245 -65 245 -185c0 -26 -4 -59 -13 -98l-50 -219h-66l49 215c8 34 12 69 12 89c0 93 -63 140 -185 140c-144 0 -224 -58 -255 -195l-56 -249h-66z" />
    <glyph glyph-name="o" unicode="o" horiz-adv-x="700" 
d="M634 272c0 -164 -143 -286 -334 -286c-173 0 -287 91 -287 231c0 122 94 285 341 285c171 0 280 -90 280 -230zM563 269c0 70 -43 179 -206 179c-204 0 -273 -132 -273 -229c0 -112 83 -179 219 -179c152 0 260 95 260 229z" />
    <glyph glyph-name="p" unicode="p" 
d="M107 489h66l-15 -64c63 59 138 77 225 77c159 0 261 -89 261 -229c0 -171 -135 -290 -328 -290c-111 0 -184 32 -237 103l-62 -273h-66zM572 270c0 110 -74 174 -202 174c-217 0 -255 -152 -255 -236c0 -105 77 -167 206 -167c150 0 251 92 251 229z" />
    <glyph glyph-name="q" unicode="q" 
d="M662 489l-155 -676h-66l55 243c-65 -57 -136 -75 -223 -75c-159 0 -261 89 -261 229c0 172 135 291 328 291c110 0 189 -34 235 -102l21 90h66zM541 276c0 104 -77 167 -206 167c-150 0 -251 -92 -251 -229c0 -111 74 -175 202 -175c158 0 255 89 255 237z" />
    <glyph glyph-name="r" unicode="r" horiz-adv-x="396" 
d="M425 504l-17 -69c-27 3 -42 4 -59 4c-118 0 -202 -61 -228 -177l-59 -262h-66l112 489h66l-18 -80c51 67 123 96 231 96c10 0 20 0 38 -1z" />
    <glyph glyph-name="s" unicode="s" horiz-adv-x="625" 
d="M-20 134l74 12c11 -61 107 -104 229 -104c112 0 193 44 193 104c0 52 -53 58 -142 69l-91 11c-101 12 -189 30 -189 122c0 78 53 155 249 155c141 0 262 -33 281 -129l-76 -12c-13 64 -127 89 -205 89c-116 0 -180 -34 -180 -95c0 -42 33 -54 115 -64l132 -16
c97 -12 174 -34 174 -118c0 -65 -43 -171 -265 -171c-173 0 -278 51 -299 147z" />
    <glyph glyph-name="t" unicode="t" horiz-adv-x="310" 
d="M330 489l-12 -51h-135l-59 -256c-8 -33 -12 -60 -12 -78c0 -40 20 -57 67 -57c16 0 29 1 54 5l-12 -55c-23 -5 -44 -7 -64 -7c-72 0 -115 37 -115 97c0 21 4 44 13 83l62 268h-87l12 51h87l40 175l73 31l-47 -206h135z" />
    <glyph glyph-name="u" unicode="u" 
d="M672 489l-111 -489h-66l15 69c-46 -55 -120 -83 -222 -83c-160 0 -245 65 -245 186c0 26 4 58 13 98l49 219h66l-48 -216c-7 -33 -12 -69 -12 -89c0 -92 63 -140 185 -140c79 0 139 19 184 59c44 38 57 80 71 142l55 244h66z" />
    <glyph glyph-name="v" unicode="v" horiz-adv-x="562" 
d="M591 489l-362 -489h-60l-135 489h70l108 -416l301 416h78z" />
    <glyph glyph-name="w" unicode="w" horiz-adv-x="854" 
d="M886 489l-312 -489h-63l-68 414l-255 -414h-63l-91 489h68l70 -409l252 409h69l65 -409l258 409h70z" />
    <glyph glyph-name="x" unicode="x" horiz-adv-x="562" 
d="M582 489l-284 -238l184 -251h-81l-149 208l-246 -208h-95l307 258l-172 231h83l137 -190l224 190h92z" />
    <glyph glyph-name="y" unicode="y" horiz-adv-x="562" 
d="M519 489h78l-356 -528c-34 -51 -35 -59 -67 -94c-41 -46 -85 -64 -157 -64c-41 0 -64 4 -124 18l15 63c50 -18 77 -23 111 -23c58 0 99 16 156 111l-138 517h72l118 -445z" />
    <glyph glyph-name="z" unicode="z" horiz-adv-x="562" 
d="M570 489l-10 -46l-513 -389h439l-13 -54h-535l13 53l504 382h-384l12 54h487z" />
    <glyph glyph-name="braceleft" unicode="{" horiz-adv-x="268" 
d="M356 735l-13 -58h-33c-34 0 -48 -4 -61 -16c-16 -15 -21 -28 -36 -93l-41 -179c-20 -86 -48 -121 -112 -135c40 -14 58 -39 58 -79c0 -13 -4 -37 -8 -55l-40 -172c-10 -43 -11 -51 -11 -64c0 -32 17 -45 67 -45h24l-13 -57h-51c-60 0 -96 34 -96 90c0 19 0 28 12 77
l41 175c5 21 8 42 8 51c0 38 -22 53 -81 55l14 57c74 1 101 10 122 106l39 175c28 124 50 167 160 167h51z" />
    <glyph glyph-name="bar" unicode="|" horiz-adv-x="229" 
d="M228 732l-219 -947h-66l220 947h65z" />
    <glyph glyph-name="braceright" unicode="}" horiz-adv-x="268" 
d="M256 287l-14 -58c-77 -3 -101 -11 -122 -106l-39 -175c-28 -124 -51 -166 -161 -166h-51l13 58h33c34 0 48 4 62 16c15 13 20 27 35 92l41 179c20 86 48 121 112 136c-39 13 -57 38 -57 79c0 13 3 37 7 54l40 173c10 43 11 50 11 63c0 32 -16 45 -58 45h-33l14 58h50
c60 0 97 -34 97 -90c0 -20 -1 -27 -13 -78l-40 -175c-5 -21 -8 -41 -8 -51c0 -38 22 -53 81 -54z" />
    <glyph glyph-name="asciitilde" unicode="~" horiz-adv-x="772" 
d="M665 362l40 -44c-77 -70 -142 -100 -206 -100c-37 0 -70 9 -129 38l-36 18c-44 22 -76 30 -107 30c-57 0 -81 -26 -151 -82l-40 46c80 75 126 100 201 100c40 0 67 -8 122 -33l64 -29c47 -21 60 -25 83 -25c38 0 78 14 159 81z" />
    <glyph glyph-name="exclamdown" unicode="&#xa1;" horiz-adv-x="313" 
d="M243 706l-23 -99h-77l23 99h77zM136 506h46l-38 -215s-61 -264 -67 -291h-71l67 291z" />
    <glyph glyph-name="cent" unicode="&#xa2;" horiz-adv-x="667" 
d="M620 346l-64 -26c-34 73 -89 108 -170 123l-92 -400h8c111 0 181 38 245 144l62 -28c-69 -115 -177 -173 -305 -173c-6 0 -13 0 -23 1l-24 -103h-55l25 108c-130 24 -206 107 -206 226c0 164 135 285 316 285h8l25 107h55l-26 -111c111 -20 181 -69 221 -153zM332 446
c-150 -6 -239 -88 -239 -221c0 -91 50 -150 148 -175z" />
    <glyph glyph-name="sterling" unicode="&#xa3;" horiz-adv-x="792" 
d="M758 497l-69 -9v20c0 101 -71 154 -207 154c-133 0 -209 -55 -209 -152c0 -37 11 -65 49 -119h238l-13 -56h-196c34 -53 44 -82 44 -121c0 -30 -7 -54 -26 -86c80 -55 117 -74 166 -74c67 0 112 56 129 162h64c-22 -145 -97 -225 -211 -225c-70 0 -105 18 -186 87
c-59 -61 -118 -87 -201 -87c-87 0 -138 36 -138 99c0 74 69 126 166 126c59 0 86 -9 161 -53c7 22 9 31 9 44c0 23 -10 55 -52 115l-9 13h-203l13 56h158c-25 44 -33 71 -33 112c0 133 111 216 287 216c99 0 177 -26 222 -75c32 -35 44 -73 47 -147zM286 108
c-46 33 -82 51 -129 51c-58 0 -99 -26 -99 -62c0 -31 28 -50 76 -50c57 0 107 17 152 61z" />
    <glyph glyph-name="fraction" unicode="&#x2044;" horiz-adv-x="125" 
d="M374 688l-519 -688h-57l521 688h55z" />
    <glyph glyph-name="yen" unicode="&#xa5;" horiz-adv-x="729" 
d="M801 695l-328 -326h176l-13 -55h-218l-32 -33l-8 -34h243l-13 -55h-243l-44 -192h-64l44 192h-256l13 55h256l8 34l-20 33h-228l12 55h185l-186 326h79l197 -358l356 358h84z" />
    <glyph glyph-name="florin" unicode="&#x192;" horiz-adv-x="354" 
d="M427 696l-13 -58c-37 7 -57 10 -85 10c-35 0 -56 -7 -71 -22c-13 -14 -20 -33 -32 -80l-17 -69h167l-12 -51h-167l-117 -501c-15 -63 -31 -96 -62 -121c-28 -23 -61 -32 -116 -32c-32 0 -57 2 -88 10l14 58c30 -7 52 -10 79 -10c65 0 90 22 106 90l118 506h-98l12 51h98
l16 72c13 58 26 87 50 113c28 31 65 44 123 44c33 0 60 -3 95 -10z" />
    <glyph glyph-name="section" unicode="&#xa7;" horiz-adv-x="688" 
d="M606 641l-46 -54c-71 49 -143 74 -215 74c-75 0 -117 -31 -117 -87c0 -55 41 -70 156 -110c73 -25 110 -41 139 -58c65 -38 96 -84 96 -144c0 -80 -43 -163 -143 -209c19 -28 24 -47 24 -78c0 -56 -31 -168 -211 -168c-80 0 -179 23 -285 96l47 56
c85 -60 170 -90 251 -90c78 0 126 37 126 99c0 58 -62 79 -160 113c-172 59 -242 111 -242 214c0 87 48 170 147 212c-10 17 -15 37 -15 61c0 92 78 153 194 153c84 0 153 -30 254 -80zM429 90c71 26 118 90 118 158c0 82 -56 103 -200 156c-51 19 -101 32 -137 63
c-80 -39 -113 -97 -113 -161c0 -59 22 -88 99 -122c61 -27 183 -65 233 -94z" />
    <glyph glyph-name="currency" unicode="&#xa4;" horiz-adv-x="715" 
d="M670 560l-80 -66c27 -38 39 -77 39 -123c0 -74 -29 -147 -81 -201l66 -76l-47 -39l-66 76c-53 -32 -104 -47 -166 -47c-68 0 -117 18 -164 59l-82 -67l-39 45l81 66c-30 49 -41 84 -41 132c0 71 27 140 82 195l-66 76l46 40l65 -75c50 28 100 44 161 44
c69 0 129 -20 172 -58l79 65zM564 363c0 107 -75 178 -187 178c-127 0 -221 -93 -221 -220c0 -104 76 -180 180 -180c129 0 228 96 228 222z" />
    <glyph glyph-name="quotesingle" unicode="'" horiz-adv-x="158" 
d="M211 744l-93 -291h-35l40 291h88z" />
    <glyph glyph-name="quotedblleft" unicode="&#x201c;" horiz-adv-x="417" 
d="M352 494h-85l28 119c11 46 22 67 44 83c16 12 34 18 58 18l-9 -40c-31 -5 -41 -16 -51 -56l-5 -20h44zM214 494h-85l27 119c10 46 22 67 44 83c16 12 34 18 58 18l-9 -40c-31 -5 -43 -16 -51 -56l-4 -20h44z" />
    <glyph glyph-name="guillemotleft" unicode="&#xab;" horiz-adv-x="521" 
d="M483 493l-15 -63l-169 -141l103 -142l-11 -53l-161 173l13 55zM274 493l-15 -63l-169 -141l103 -142l-11 -53l-160 173l12 55z" />
    <glyph glyph-name="guilsinglleft" unicode="&#x2039;" horiz-adv-x="312" 
d="M274 493l-15 -63l-169 -141l103 -142l-11 -53l-160 173l12 55z" />
    <glyph glyph-name="guilsinglright" unicode="&#x203a;" horiz-adv-x="312" 
d="M260 323l-13 -55l-239 -171l15 64l169 141l-104 142l12 52z" />
    <glyph glyph-name="endash" unicode="&#x2013;" horiz-adv-x="610" 
d="M566 324l-14 -60h-534l14 60h534z" />
    <glyph glyph-name="dagger" unicode="&#x2020;" horiz-adv-x="542" 
d="M539 496l-12 -52h-204l-102 -444h-60l102 444h-204l12 52h204l49 210h60l-49 -210h204z" />
    <glyph glyph-name="daggerdbl" unicode="&#x2021;" horiz-adv-x="542" 
d="M541 503l-12 -52h-204l-40 -175h203l-12 -52h-203l-52 -224h-60l52 224h-205l12 52h205l40 175h-205l12 52h205l47 203h60l-47 -203h204z" />
    <glyph glyph-name="periodcentered" unicode="&#xb7;" horiz-adv-x="271" 
d="M168 344l-23 -99h-77l23 99h77z" />
    <glyph glyph-name="paragraph" unicode="&#xb6;" horiz-adv-x="640" 
d="M640 707l-13 -54h-34l-189 -819h-58l189 819h-162l-189 -819h-58l112 486c-71 15 -116 77 -116 158c0 76 37 149 97 188c42 28 96 41 172 41h249z" />
    <glyph glyph-name="bullet" unicode="&#x2022;" horiz-adv-x="333" 
d="M297 462l-48 -218h-221l50 218h219z" />
    <glyph glyph-name="quotesinglbase" unicode="&#x201a;" horiz-adv-x="278" 
d="M123 104l-28 -119c-11 -47 -21 -68 -43 -84c-17 -12 -35 -17 -59 -17l9 40c32 4 41 16 51 56l5 20h-44l24 104h85z" />
    <glyph glyph-name="quotedblbase" unicode="&#x201e;" horiz-adv-x="417" 
d="M262 104l-28 -119c-11 -47 -21 -68 -43 -84c-17 -12 -35 -17 -59 -17l9 40c32 4 41 16 51 56l5 20h-44l24 104h85zM123 104l-28 -119c-11 -47 -21 -68 -43 -84c-17 -12 -35 -17 -59 -17l9 40c32 4 41 16 51 56l5 20h-44l24 104h85z" />
    <glyph glyph-name="quotedblright" unicode="&#x201d;" horiz-adv-x="417" 
d="M401 706l-28 -119c-11 -46 -21 -68 -43 -83c-17 -12 -35 -18 -59 -18l9 40c32 5 41 16 51 56l5 20h-44l24 104h85zM262 706l-28 -119c-11 -46 -21 -68 -43 -83c-17 -12 -35 -18 -59 -18l9 40c32 5 41 16 51 56l5 20h-44l24 104h85z" />
    <glyph glyph-name="guillemotright" unicode="&#xbb;" horiz-adv-x="521" 
d="M469 323l-13 -55l-239 -171l15 64l169 141l-104 142l12 52zM260 323l-13 -55l-239 -171l15 64l169 141l-104 142l12 52z" />
    <glyph glyph-name="ellipsis" unicode="&#x2026;" horiz-adv-x="1000" 
d="M807 80l-19 -80h-77l19 80h77zM473 80l-18 -80h-77l18 80h77zM141 80l-19 -80h-77l19 80h77z" />
    <glyph glyph-name="perthousand" unicode="&#x2030;" horiz-adv-x="1571" 
d="M1034 243c0 -140 -99 -248 -228 -248c-111 0 -188 77 -188 191c0 138 100 249 225 249c114 0 191 -78 191 -192zM822 688l-508 -688h-60l508 688h60zM454 499c0 -141 -99 -249 -228 -249c-111 0 -188 78 -188 191c0 138 100 249 225 249c114 0 191 -77 191 -191zM983 245
c0 88 -55 147 -139 147c-100 0 -174 -87 -174 -204c0 -90 56 -151 140 -151c100 0 173 89 173 208zM403 501c0 88 -56 146 -139 146c-100 0 -175 -87 -175 -203c0 -90 57 -151 141 -151c99 0 173 88 173 208zM1522 243c0 -140 -99 -248 -228 -248c-111 0 -188 77 -188 191
c0 138 100 249 225 249c114 0 191 -78 191 -192zM1471 245c0 88 -55 147 -139 147c-100 0 -174 -87 -174 -204c0 -90 56 -151 140 -151c100 0 173 89 173 208z" />
    <glyph glyph-name="questiondown" unicode="&#xbf;" 
d="M538 222l59 -24c-80 -153 -176 -215 -331 -215c-156 0 -250 71 -250 190c0 97 64 186 167 222c23 8 32 11 96 29c78 22 78 26 94 85h62l-5 -17c-17 -74 -44 -96 -114 -115l-37 -10c-59 -16 -109 -38 -135 -59c-36 -29 -60 -79 -60 -127c0 -90 73 -141 199 -141
c114 0 185 50 255 182zM389 606l23 99h75l-23 -99h-75z" />
    <glyph glyph-name="grave" unicode="`" horiz-adv-x="292" 
d="M232 554h-43l-129 145h109z" />
    <glyph glyph-name="acute" unicode="&#xb4;" horiz-adv-x="292" 
d="M250 700l-165 -145h-43l99 145h109z" />
    <glyph glyph-name="circumflex" unicode="&#x2c6;" horiz-adv-x="292" 
d="M281 549h-49l-60 85l-105 -85h-56l136 132h59z" />
    <glyph glyph-name="tilde" unicode="&#x2dc;" horiz-adv-x="292" 
d="M290 670l29 -14c-18 -42 -61 -89 -115 -89c-50 0 -87 50 -135 50c-26 0 -46 -16 -68 -50l-28 15c23 44 60 88 111 88c56 0 88 -49 131 -49c31 0 54 18 75 49z" />
    <glyph glyph-name="macron" unicode="&#xaf;" horiz-adv-x="292" 
d="M320 621l-13 -52h-335l13 52h335z" />
    <glyph glyph-name="breve" unicode="&#x2d8;" horiz-adv-x="292" 
d="M236 682h49c-16 -74 -77 -124 -156 -124c-67 0 -122 38 -122 119v5h50c2 -54 27 -78 78 -78s84 25 101 78z" />
    <glyph glyph-name="dotaccent" unicode="&#x2d9;" horiz-adv-x="292" 
d="M194 660l-23 -97h-73l23 97h73z" />
    <glyph glyph-name="dieresis" unicode="&#xa8;" horiz-adv-x="292" 
d="M325 659l-22 -95h-70l22 95h70zM59 659l-21 -95h-71l22 95h70z" />
    <glyph glyph-name="ring" unicode="&#x2da;" horiz-adv-x="292" 
d="M260 633c0 -52 -47 -88 -115 -88c-66 0 -113 35 -113 85c0 51 47 87 115 87c67 0 113 -35 113 -84zM207 631c0 26 -26 44 -63 44c-35 0 -60 -19 -60 -44c0 -26 24 -42 61 -42s62 16 62 42z" />
    <glyph glyph-name="cedilla" unicode="&#xb8;" horiz-adv-x="292" 
d="M148 11h43l-20 -69c58 -10 81 -28 81 -64c0 -49 -41 -78 -110 -78c-23 0 -48 4 -87 12l-15 3l7 33c37 -7 53 -11 83 -11c38 0 58 12 58 36c0 22 -19 32 -70 37z" />
    <glyph glyph-name="hungarumlaut" unicode="&#x2dd;" horiz-adv-x="292" 
d="M170 700l-141 -145h-39l78 145h102zM301 700l-141 -145h-39l78 145h102z" />
    <glyph glyph-name="ogonek" unicode="&#x2db;" horiz-adv-x="292" 
d="M231 4l-1 -3c-66 -13 -108 -45 -108 -85c0 -32 29 -49 85 -49c11 0 16 0 29 1l-11 -50c-19 -1 -30 -1 -41 -1c-82 0 -128 27 -128 76c0 48 37 86 111 111h64z" />
    <glyph glyph-name="caron" unicode="&#x2c7;" horiz-adv-x="292" 
d="M281 680l-136 -132h-59l-75 132h50l59 -85l106 85h55z" />
    <glyph glyph-name="emdash" unicode="&#x2014;" horiz-adv-x="911" 
d="M867 324l-14 -60h-835l14 60h835z" />
    <glyph glyph-name="AE" unicode="&#xc6;" horiz-adv-x="1134" 
d="M1123 706l-13 -58h-447l-59 -254h446l-14 -60h-446l-63 -275h501l-14 -59h-568l40 174h-316l-165 -174h-88l669 706h537zM596 632l-374 -402h277z" />
    <glyph glyph-name="ordfeminine" unicode="&#xaa;" horiz-adv-x="437" 
d="M468 403l-8 -40c-18 -3 -25 -4 -40 -4c-38 0 -50 12 -52 50c-51 -41 -98 -56 -173 -56c-95 0 -148 36 -148 101c0 44 26 82 69 104c28 14 62 22 111 27c54 5 81 7 175 8c2 13 3 18 3 24c0 39 -36 55 -126 55s-122 -15 -146 -71l-53 2c32 85 86 115 208 115
c114 0 168 -29 168 -90c0 -10 -5 -41 -10 -65l-25 -119c-2 -10 -3 -18 -3 -22c0 -14 8 -19 31 -19h19zM391 533l3 15c-13 1 -22 1 -30 1c-17 0 -43 -1 -77 -3c-69 -4 -102 -9 -129 -18c-37 -13 -55 -35 -55 -67c0 -40 34 -60 99 -60c72 0 134 24 164 65c10 15 19 38 25 67z
" />
    <glyph glyph-name="Lslash" unicode="&#x141;" horiz-adv-x="688" 
d="M597 59l-14 -59h-583l52 227l-94 -47l15 63l94 47l96 416h69l-86 -377l395 196l-15 -63l-395 -196l-48 -207h514z" />
    <glyph glyph-name="Oslash" unicode="&#xd8;" horiz-adv-x="909" 
d="M920 635l-90 -63c31 -53 44 -100 44 -157c0 -35 -5 -72 -15 -110c-23 -87 -63 -153 -128 -210c-84 -74 -193 -111 -326 -111c-117 0 -224 37 -284 100l-100 -67l-30 44l94 66c-36 57 -51 109 -51 177c0 135 62 256 170 334c82 59 176 86 295 86c108 0 222 -29 297 -108
l92 64zM143 167l595 410c-51 58 -140 90 -250 90c-224 0 -383 -150 -383 -359c0 -55 11 -96 38 -141zM772 533l-594 -409c50 -53 141 -84 240 -84c218 0 384 158 384 366c0 61 -5 82 -30 127z" />
    <glyph glyph-name="OE" unicode="&#x152;" horiz-adv-x="1153" 
d="M1185 706l-14 -58h-447l-58 -252h401l-14 -59h-401l-64 -278h446l-14 -59h-515l6 23c-57 -27 -100 -37 -159 -37c-194 0 -320 120 -320 304c0 171 122 431 434 431c74 0 142 -14 196 -41l6 26h517zM525 83l123 534c-56 32 -113 46 -190 46c-203 0 -357 -159 -357 -369
c0 -101 37 -171 113 -213c45 -25 99 -39 149 -39c62 0 88 11 162 41z" />
    <glyph glyph-name="ordmasculine" unicode="&#xba;" horiz-adv-x="479" 
d="M498 551c0 -118 -96 -200 -232 -200c-119 0 -203 68 -203 164c0 118 94 201 228 201c123 0 207 -67 207 -165zM440 548c0 74 -63 124 -155 124c-98 0 -164 -62 -164 -153c0 -74 59 -123 149 -123c102 0 170 62 170 152z" />
    <glyph glyph-name="ae" unicode="&#xe6;" horiz-adv-x="1146" 
d="M571 237c-1 -11 -1 -18 -1 -24c0 -99 84 -170 202 -170c96 0 174 42 235 126l45 -38c-74 -100 -164 -145 -288 -145c-118 0 -193 38 -243 131c-53 -92 -151 -130 -308 -130c-136 0 -211 52 -211 149c0 43 20 85 52 112c40 32 103 45 234 45h230c10 34 13 51 13 65
c0 27 -10 46 -29 57c-35 21 -102 34 -174 34c-80 0 -123 -10 -153 -34c-23 -18 -38 -40 -48 -71l-69 4c11 35 33 72 61 98c45 42 104 59 207 59c146 0 222 -26 258 -87c65 62 128 87 226 87c169 0 265 -86 265 -237c0 -7 0 -17 -1 -31h-503zM1005 292
c-10 103 -80 159 -198 159c-113 0 -195 -59 -224 -159h422zM506 238c0 0 -179 -1 -223 -1c-113 0 -212 -2 -212 -96c0 -67 52 -98 160 -98c116 0 200 33 240 94c17 27 27 65 35 101z" />
    <glyph glyph-name="dotlessi" unicode="&#x131;" horiz-adv-x="208" 
d="M175 489l-114 -489h-66l114 489h66z" />
    <glyph glyph-name="lslash" unicode="&#x142;" horiz-adv-x="208" 
d="M247 504l-16 -69l-82 -54l-88 -381h-66l76 330l-85 -55l16 69l85 55l71 307h66l-59 -256z" />
    <glyph glyph-name="oslash" unicode="&#xf8;" horiz-adv-x="700" 
d="M655 443l-61 -42c27 -39 40 -81 40 -130c0 -163 -143 -285 -335 -285c-86 0 -160 24 -217 71l-71 -47l-30 43l67 45c-28 44 -35 65 -35 119c0 78 35 152 96 205c62 54 143 80 249 80c83 0 158 -23 199 -62l67 45zM103 135l398 267c-40 31 -90 46 -154 46
c-153 0 -263 -96 -263 -230c0 -35 6 -60 19 -83zM537 362l-401 -269c43 -36 96 -53 168 -53c151 0 259 95 259 228c0 38 -9 69 -26 94z" />
    <glyph glyph-name="oe" unicode="&#x153;" horiz-adv-x="1200" 
d="M1060 169l46 -39c-75 -100 -164 -145 -290 -145c-117 0 -193 42 -236 131c-66 -88 -158 -130 -279 -130c-173 0 -288 92 -288 230c0 166 141 286 338 286c103 0 207 -28 255 -127c61 94 137 129 260 129c167 0 263 -87 263 -236c0 -7 0 -18 -1 -32h-503
c-2 -10 -2 -18 -2 -23c0 -99 85 -171 202 -171c96 0 174 42 235 127zM637 292h421c-10 103 -79 158 -197 158c-113 0 -195 -58 -224 -158zM563 272c0 99 -76 177 -208 177c-163 0 -270 -98 -270 -234c0 -108 83 -175 218 -175c152 0 260 96 260 232z" />
    <glyph glyph-name="germandbls" unicode="&#xdf;" 
d="M311 389l13 54h47c65 0 100 4 133 14c65 19 98 56 98 107c0 64 -77 106 -195 106c-73 0 -128 -14 -163 -40c-36 -26 -56 -70 -78 -163l-108 -467h-63l109 471c16 70 24 94 38 124c42 88 125 129 266 129c167 0 262 -54 262 -147c0 -85 -46 -138 -140 -161
c75 -25 112 -75 112 -155c0 -60 -28 -141 -66 -191c-40 -53 -107 -80 -198 -80c-113 0 -171 45 -171 133c0 13 1 21 4 41h64c-2 -17 -3 -23 -3 -32c0 -61 33 -87 109 -87c56 0 94 12 124 38c41 36 69 108 69 180c0 40 -14 72 -40 92c-33 26 -74 35 -157 35
c-15 0 -35 0 -66 -1z" />
    <glyph glyph-name="Euro" unicode="&#x20ac;" horiz-adv-x="840" 
d="M834 598l-47 -66c-63 98 -169 131 -272 131c-152 0 -252 -74 -305 -227h508l-29 -53h-497c-7 -27 -8 -35 -9 -59h470l-30 -53h-441c12 -145 110 -227 271 -227c113 0 191 32 284 104l-15 -88c-86 -54 -168 -78 -267 -78c-205 0 -335 108 -347 289h-84l32 53h53l1 8
c3 23 4 34 8 51h-74l31 53h57c33 97 54 131 116 189c72 68 160 99 279 99c124 0 223 -35 307 -126z" />
    <glyph glyph-name="Ydieresis" unicode="&#x178;" horiz-adv-x="729" 
d="M668 894l-22 -96h-71l22 96h71zM345 894l-22 -96h-71l22 96h71zM800 706l-417 -420l-66 -286h-64l66 286l-235 420h79l197 -363l356 363h84z" />
    <glyph glyph-name="trademark" unicode="&#x2122;" horiz-adv-x="687" 
d="M675 706l-76 -332h-45l68 285l-155 -285h-42l-23 284l-62 -284h-47l76 332h67l24 -272l147 272h68zM341 706l-9 -41h-106l-67 -291h-48l67 291h-108l10 41h261z" />
    <glyph glyph-name="zcaron" unicode="&#x17e;" horiz-adv-x="562" 
d="M570 489l-10 -46l-513 -389h439l-13 -54h-535l13 53l504 382h-384l12 54h487zM491 680l-136 -132h-59l-75 132h50l59 -85l106 85h55z" />
    <glyph glyph-name="Zcaron" unicode="&#x17d;" horiz-adv-x="748" 
d="M618 900l-141 -126h-79l-81 126h60l65 -77l109 77h67zM811 706l-14 -62l-758 -585h628l-13 -59h-732l13 57l762 591h-594l13 58h695z" />
    <glyph glyph-name="scaron" unicode="&#x161;" horiz-adv-x="625" 
d="M-20 134l74 12c11 -61 107 -104 229 -104c112 0 193 44 193 104c0 52 -53 58 -142 69l-91 11c-101 12 -189 30 -189 122c0 78 53 155 249 155c141 0 262 -33 281 -129l-76 -12c-13 64 -127 89 -205 89c-116 0 -180 -34 -180 -95c0 -42 33 -54 115 -64l132 -16
c97 -12 174 -34 174 -118c0 -65 -43 -171 -265 -171c-173 0 -278 51 -299 147zM487 680l-136 -132h-59l-75 132h50l59 -85l106 85h55z" />
    <glyph glyph-name="Scaron" unicode="&#x160;" horiz-adv-x="812" 
d="M635 900l-141 -126h-79l-81 126h60l65 -77l109 77h67zM779 565l-64 -33c-56 97 -194 133 -285 133c-154 0 -248 -49 -248 -131c0 -52 28 -79 124 -100l235 -52c121 -27 193 -74 193 -171c0 -142 -130 -226 -348 -226c-203 0 -357 78 -390 221l75 22
c16 -56 32 -83 67 -111c56 -46 144 -72 246 -72c176 0 279 59 279 160c0 81 -64 98 -224 131l-126 26c-150 31 -200 82 -200 164c0 124 118 196 318 196c142 0 283 -50 348 -157z" />
    <glyph glyph-name="ydieresis" unicode="&#xff;" horiz-adv-x="562" 
d="M519 489h78l-356 -528c-34 -51 -35 -59 -67 -94c-41 -46 -85 -64 -157 -64c-41 0 -64 4 -124 18l15 63c50 -18 77 -23 111 -23c58 0 99 16 156 111l-138 517h72l118 -445zM513 659l-22 -95h-70l22 95h70zM247 659l-21 -95h-71l22 95h70z" />
    <glyph glyph-name="thorn" unicode="&#xfe;" 
d="M157 706h66l-65 -281c61 59 139 77 225 77c159 0 261 -89 261 -229c0 -171 -135 -290 -328 -290c-111 0 -184 32 -237 103l-62 -273h-66zM572 270c0 110 -74 174 -202 174c-159 0 -255 -88 -255 -236c0 -105 77 -167 206 -167c150 0 251 92 251 229z" />
    <glyph glyph-name="yacute" unicode="&#xfd;" horiz-adv-x="562" 
d="M519 489h78l-356 -528c-34 -51 -35 -59 -67 -94c-41 -46 -85 -64 -157 -64c-41 0 -64 4 -124 18l15 63c50 -18 77 -23 111 -23c58 0 99 16 156 111l-138 517h72l118 -445zM478 700l-165 -145h-43l99 145h109z" />
    <glyph glyph-name="udieresis" unicode="&#xfc;" 
d="M672 489l-111 -489h-66l15 69c-46 -55 -120 -83 -222 -83c-160 0 -245 65 -245 186c0 26 4 58 13 98l49 219h66l-48 -216c-7 -33 -12 -69 -12 -89c0 -92 63 -140 185 -140c79 0 139 19 184 59c44 38 57 80 71 142l55 244h66zM586 659l-22 -95h-70l22 95h70zM320 659
l-21 -95h-71l22 95h70z" />
    <glyph glyph-name="ucircumflex" unicode="&#xfb;" 
d="M672 489l-111 -489h-66l15 69c-46 -55 -120 -83 -222 -83c-160 0 -245 65 -245 186c0 26 4 58 13 98l49 219h66l-48 -216c-7 -33 -12 -69 -12 -89c0 -92 63 -140 185 -140c79 0 139 19 184 59c44 38 57 80 71 142l55 244h66zM520 549h-49l-60 85l-105 -85h-56l136 132h59
z" />
    <glyph glyph-name="uacute" unicode="&#xfa;" 
d="M672 489l-111 -489h-66l15 69c-46 -55 -120 -83 -222 -83c-160 0 -245 65 -245 186c0 26 4 58 13 98l49 219h66l-48 -216c-7 -33 -12 -69 -12 -89c0 -92 63 -140 185 -140c79 0 139 19 184 59c44 38 57 80 71 142l55 244h66zM543 700l-165 -145h-43l99 145h109z" />
    <glyph glyph-name="ugrave" unicode="&#xf9;" 
d="M672 489l-111 -489h-66l15 69c-46 -55 -120 -83 -222 -83c-160 0 -245 65 -245 186c0 26 4 58 13 98l49 219h66l-48 -216c-7 -33 -12 -69 -12 -89c0 -92 63 -140 185 -140c79 0 139 19 184 59c44 38 57 80 71 142l55 244h66zM442 554h-43l-129 145h109z" />
    <glyph glyph-name="divide" unicode="&#xf7;" horiz-adv-x="772" 
d="M458 477l-18 -82h-83l19 82h82zM702 323l-15 -60h-638l14 60h639zM393 188l-19 -82h-83l19 82h83z" />
    <glyph glyph-name="odieresis" unicode="&#xf6;" horiz-adv-x="700" 
d="M634 272c0 -164 -143 -286 -334 -286c-173 0 -287 91 -287 231c0 122 94 285 341 285c171 0 280 -90 280 -230zM563 269c0 70 -43 179 -206 179c-204 0 -273 -132 -273 -229c0 -112 83 -179 219 -179c152 0 260 95 260 229zM559 659l-22 -95h-70l22 95h70zM293 659
l-21 -95h-71l22 95h70z" />
    <glyph glyph-name="otilde" unicode="&#xf5;" horiz-adv-x="700" 
d="M634 272c0 -164 -143 -286 -334 -286c-173 0 -287 91 -287 231c0 122 94 285 341 285c171 0 280 -90 280 -230zM563 269c0 70 -43 179 -206 179c-204 0 -273 -132 -273 -229c0 -112 83 -179 219 -179c152 0 260 95 260 229zM512 670l29 -14c-18 -42 -61 -89 -115 -89
c-50 0 -87 50 -135 50c-26 0 -46 -16 -68 -50l-28 15c23 44 60 88 111 88c56 0 88 -49 131 -49c31 0 54 18 75 49z" />
    <glyph glyph-name="ocircumflex" unicode="&#xf4;" horiz-adv-x="700" 
d="M634 272c0 -164 -143 -286 -334 -286c-173 0 -287 91 -287 231c0 122 94 285 341 285c171 0 280 -90 280 -230zM563 269c0 70 -43 179 -206 179c-204 0 -273 -132 -273 -229c0 -112 83 -179 219 -179c152 0 260 95 260 229zM494 549h-49l-60 85l-105 -85h-56l136 132h59z
" />
    <glyph glyph-name="oacute" unicode="&#xf3;" horiz-adv-x="700" 
d="M634 272c0 -164 -143 -286 -334 -286c-173 0 -287 91 -287 231c0 122 94 285 341 285c171 0 280 -90 280 -230zM563 269c0 70 -43 179 -206 179c-204 0 -273 -132 -273 -229c0 -112 83 -179 219 -179c152 0 260 95 260 229zM520 700l-165 -145h-43l99 145h109z" />
    <glyph glyph-name="ograve" unicode="&#xf2;" horiz-adv-x="700" 
d="M634 272c0 -164 -143 -286 -334 -286c-173 0 -287 91 -287 231c0 122 94 285 341 285c171 0 280 -90 280 -230zM563 269c0 70 -43 179 -206 179c-204 0 -273 -132 -273 -229c0 -112 83 -179 219 -179c152 0 260 95 260 229zM416 554h-43l-129 145h109z" />
    <glyph glyph-name="ntilde" unicode="&#xf1;" 
d="M107 489h66l-15 -69c46 55 120 82 222 82c159 0 245 -65 245 -185c0 -26 -4 -59 -13 -98l-50 -219h-66l49 215c8 34 12 69 12 89c0 93 -63 140 -185 140c-144 0 -224 -58 -255 -195l-56 -249h-66zM546 670l29 -14c-18 -42 -61 -89 -115 -89c-50 0 -87 50 -135 50
c-26 0 -46 -16 -68 -50l-28 15c23 44 60 88 111 88c56 0 88 -49 131 -49c31 0 54 18 75 49z" />
    <glyph glyph-name="eth" unicode="&#xf0;" horiz-adv-x="700" 
d="M598 676l16 -51l-110 -18c83 -97 130 -205 130 -319c0 -180 -135 -302 -334 -302c-173 0 -287 91 -287 231c0 109 83 285 339 285c56 0 123 -10 177 -57c-23 56 -56 101 -106 149l-219 -37l-16 50l192 32c-22 23 -39 33 -87 69l86 15c28 -22 70 -57 82 -71zM563 269
c0 102 -74 179 -204 179c-173 0 -275 -98 -275 -229c0 -112 83 -179 219 -179c152 0 260 95 260 229z" />
    <glyph glyph-name="idieresis" unicode="&#xef;" horiz-adv-x="208" 
d="M175 489l-114 -489h-66l114 489h66zM337 659l-22 -95h-70l22 95h70zM71 659l-21 -95h-71l22 95h70z" />
    <glyph glyph-name="icircumflex" unicode="&#xee;" horiz-adv-x="208" 
d="M175 489l-114 -489h-66l114 489h66zM283 549h-49l-60 85l-105 -85h-56l136 132h59z" />
    <glyph glyph-name="iacute" unicode="&#xed;" horiz-adv-x="208" 
d="M175 489l-114 -489h-66l114 489h66zM308 700l-165 -145h-43l99 145h109z" />
    <glyph glyph-name="igrave" unicode="&#xec;" horiz-adv-x="208" 
d="M175 489l-114 -489h-66l114 489h66zM199 554h-43l-129 145h109z" />
    <glyph glyph-name="edieresis" unicode="&#xeb;" horiz-adv-x="658" 
d="M518 169l46 -38c-75 -100 -164 -145 -290 -145c-157 0 -259 90 -259 231c0 171 125 288 308 288c167 0 264 -87 264 -237c0 -7 0 -17 -1 -31h-503c-2 -11 -2 -18 -2 -24c0 -99 85 -170 202 -170c96 0 174 42 235 126zM95 292h421c-10 103 -79 159 -198 159
c-112 0 -194 -59 -223 -159zM528 659l-22 -95h-70l22 95h70zM262 659l-21 -95h-71l22 95h70z" />
    <glyph glyph-name="ecircumflex" unicode="&#xea;" horiz-adv-x="658" 
d="M518 169l46 -38c-75 -100 -164 -145 -290 -145c-157 0 -259 90 -259 231c0 171 125 288 308 288c167 0 264 -87 264 -237c0 -7 0 -17 -1 -31h-503c-2 -11 -2 -18 -2 -24c0 -99 85 -170 202 -170c96 0 174 42 235 126zM95 292h421c-10 103 -79 159 -198 159
c-112 0 -194 -59 -223 -159zM460 549h-49l-60 85l-105 -85h-56l136 132h59z" />
    <glyph glyph-name="eacute" unicode="&#xe9;" horiz-adv-x="658" 
d="M518 169l46 -38c-75 -100 -164 -145 -290 -145c-157 0 -259 90 -259 231c0 171 125 288 308 288c167 0 264 -87 264 -237c0 -7 0 -17 -1 -31h-503c-2 -11 -2 -18 -2 -24c0 -99 85 -170 202 -170c96 0 174 42 235 126zM95 292h421c-10 103 -79 159 -198 159
c-112 0 -194 -59 -223 -159zM480 700l-165 -145h-43l99 145h109z" />
    <glyph glyph-name="egrave" unicode="&#xe8;" horiz-adv-x="658" 
d="M518 169l46 -38c-75 -100 -164 -145 -290 -145c-157 0 -259 90 -259 231c0 171 125 288 308 288c167 0 264 -87 264 -237c0 -7 0 -17 -1 -31h-503c-2 -11 -2 -18 -2 -24c0 -99 85 -170 202 -170c96 0 174 42 235 126zM95 292h421c-10 103 -79 159 -198 159
c-112 0 -194 -59 -223 -159zM383 554h-43l-129 145h109z" />
    <glyph glyph-name="ccedilla" unicode="&#xe7;" horiz-adv-x="665" 
d="M613 346l-64 -26c-28 51 -41 66 -77 88c-42 27 -84 38 -140 38c-151 0 -249 -87 -249 -221c0 -111 84 -182 213 -182c114 0 187 47 244 144l62 -28c-34 -52 -50 -70 -87 -99c-63 -51 -126 -71 -228 -74l-13 -44c58 -10 82 -28 82 -64c0 -49 -42 -78 -111 -78
c-23 0 -48 4 -87 12l-15 3l7 34c35 -9 53 -12 83 -12c38 0 58 12 58 36c0 22 -19 32 -70 37l24 79c-144 15 -231 101 -231 229c0 165 134 285 320 285c130 0 232 -57 279 -157z" />
    <glyph glyph-name="aring" unicode="&#xe5;" horiz-adv-x="667" 
d="M605 51l-11 -50c-21 -3 -44 -5 -54 -5c-47 0 -72 21 -72 61v15c-55 -56 -147 -85 -273 -85c-123 0 -193 52 -193 143c0 50 23 116 95 148c70 31 189 42 318 42h111c5 27 6 41 6 50c0 60 -95 80 -201 80c-123 0 -179 -30 -205 -108l-68 4c33 114 114 159 279 159
c176 0 256 -41 256 -132c0 -16 -2 -34 -8 -58l-44 -193c-3 -12 -6 -25 -6 -38c0 -25 12 -33 48 -33h22zM507 237l6 29c-31 0 -54 1 -70 1c-20 0 -254 -1 -321 -38c-41 -23 -51 -59 -51 -90c0 -66 47 -96 148 -96c171 0 261 64 288 194zM475 633c0 -52 -47 -88 -115 -88
c-66 0 -113 35 -113 85c0 51 47 87 115 87c67 0 113 -35 113 -84zM422 631c0 26 -26 44 -63 44c-35 0 -60 -19 -60 -44c0 -26 24 -42 61 -42s62 16 62 42z" />
    <glyph glyph-name="adieresis" unicode="&#xe4;" horiz-adv-x="667" 
d="M605 51l-11 -50c-21 -3 -44 -5 -54 -5c-47 0 -72 21 -72 61v15c-55 -56 -147 -85 -273 -85c-123 0 -193 52 -193 143c0 50 23 116 95 148c70 31 189 42 318 42h111c5 27 6 41 6 50c0 60 -95 80 -201 80c-123 0 -179 -30 -205 -108l-68 4c33 114 114 159 279 159
c176 0 256 -41 256 -132c0 -16 -2 -34 -8 -58l-44 -193c-3 -12 -6 -25 -6 -38c0 -25 12 -33 48 -33h22zM507 237l6 29c-31 0 -54 1 -70 1c-20 0 -254 -1 -321 -38c-41 -23 -51 -59 -51 -90c0 -66 47 -96 148 -96c171 0 261 64 288 194zM536 659l-22 -95h-70l22 95h70z
M270 659l-21 -95h-71l22 95h70z" />
    <glyph glyph-name="atilde" unicode="&#xe3;" horiz-adv-x="667" 
d="M605 51l-11 -50c-21 -3 -44 -5 -54 -5c-47 0 -72 21 -72 61v15c-55 -56 -147 -85 -273 -85c-123 0 -193 52 -193 143c0 50 23 116 95 148c70 31 189 42 318 42h111c5 27 6 41 6 50c0 60 -95 80 -201 80c-123 0 -179 -30 -205 -108l-68 4c33 114 114 159 279 159
c176 0 256 -41 256 -132c0 -16 -2 -34 -8 -58l-44 -193c-3 -12 -6 -25 -6 -38c0 -25 12 -33 48 -33h22zM507 237l6 29c-31 0 -54 1 -70 1c-20 0 -254 -1 -321 -38c-41 -23 -51 -59 -51 -90c0 -66 47 -96 148 -96c171 0 261 64 288 194zM510 670l29 -14
c-18 -42 -61 -89 -115 -89c-50 0 -87 50 -135 50c-26 0 -46 -16 -68 -50l-28 15c23 44 60 88 111 88c56 0 88 -49 131 -49c31 0 54 18 75 49z" />
    <glyph glyph-name="acircumflex" unicode="&#xe2;" horiz-adv-x="667" 
d="M605 51l-11 -50c-21 -3 -44 -5 -54 -5c-47 0 -72 21 -72 61v15c-55 -56 -147 -85 -273 -85c-123 0 -193 52 -193 143c0 50 23 116 95 148c70 31 189 42 318 42h111c5 27 6 41 6 50c0 60 -95 80 -201 80c-123 0 -179 -30 -205 -108l-68 4c33 114 114 159 279 159
c176 0 256 -41 256 -132c0 -16 -2 -34 -8 -58l-44 -193c-3 -12 -6 -25 -6 -38c0 -25 12 -33 48 -33h22zM507 237l6 29c-31 0 -54 1 -70 1c-20 0 -254 -1 -321 -38c-41 -23 -51 -59 -51 -90c0 -66 47 -96 148 -96c171 0 261 64 288 194zM483 549h-49l-60 85l-105 -85h-56
l136 132h59z" />
    <glyph glyph-name="aacute" unicode="&#xe1;" horiz-adv-x="667" 
d="M605 51l-11 -50c-21 -3 -44 -5 -54 -5c-47 0 -72 21 -72 61v15c-55 -56 -147 -85 -273 -85c-123 0 -193 52 -193 143c0 50 23 116 95 148c70 31 189 42 318 42h111c5 27 6 41 6 50c0 60 -95 80 -201 80c-123 0 -179 -30 -205 -108l-68 4c33 114 114 159 279 159
c176 0 256 -41 256 -132c0 -16 -2 -34 -8 -58l-44 -193c-3 -12 -6 -25 -6 -38c0 -25 12 -33 48 -33h22zM507 237l6 29c-31 0 -54 1 -70 1c-20 0 -254 -1 -321 -38c-41 -23 -51 -59 -51 -90c0 -66 47 -96 148 -96c171 0 261 64 288 194zM499 700l-165 -145h-43l99 145h109z
" />
    <glyph glyph-name="agrave" unicode="&#xe0;" horiz-adv-x="667" 
d="M605 51l-11 -50c-21 -3 -44 -5 -54 -5c-47 0 -72 21 -72 61v15c-55 -56 -147 -85 -273 -85c-123 0 -193 52 -193 143c0 50 23 116 95 148c70 31 189 42 318 42h111c5 27 6 41 6 50c0 60 -95 80 -201 80c-123 0 -179 -30 -205 -108l-68 4c33 114 114 159 279 159
c176 0 256 -41 256 -132c0 -16 -2 -34 -8 -58l-44 -193c-3 -12 -6 -25 -6 -38c0 -25 12 -33 48 -33h22zM507 237l6 29c-31 0 -54 1 -70 1c-20 0 -254 -1 -321 -38c-41 -23 -51 -59 -51 -90c0 -66 47 -96 148 -96c171 0 261 64 288 194zM396 554h-43l-129 145h109z" />
    <glyph glyph-name="Thorn" unicode="&#xde;" horiz-adv-x="812" 
d="M163 706h70l-33 -141h359c110 0 152 -9 190 -42c34 -29 53 -73 53 -125c0 -97 -57 -180 -147 -206c-48 -14 -79 -17 -191 -17h-354l-40 -175h-70zM186 507l-63 -274h359c89 0 152 4 193 34c33 24 53 71 53 122c0 35 -10 65 -28 85c-24 26 -51 33 -154 33h-360z" />
    <glyph glyph-name="Yacute" unicode="&#xdd;" horiz-adv-x="729" 
d="M613 900l-168 -126h-45l102 126h111zM800 706l-417 -420l-66 -286h-64l66 286l-235 420h79l197 -363l356 363h84z" />
    <glyph glyph-name="Udieresis" unicode="&#xdc;" horiz-adv-x="875" 
d="M742 894l-22 -96h-71l22 96h71zM419 894l-22 -96h-71l22 96h71zM874 706l-92 -400c-25 -109 -52 -173 -91 -219c-59 -70 -163 -105 -313 -105c-214 0 -326 75 -326 221c0 31 5 66 20 129l87 374h65l-88 -380c-13 -55 -17 -93 -17 -121c0 -114 104 -164 266 -164
c119 0 210 31 259 87c38 42 58 109 80 205l86 373h64z" />
    <glyph glyph-name="Ucircumflex" unicode="&#xdb;" horiz-adv-x="875" 
d="M674 774h-61l-64 77l-110 -77h-66l140 126h79zM874 706l-92 -400c-25 -109 -52 -173 -91 -219c-59 -70 -163 -105 -313 -105c-214 0 -326 75 -326 221c0 31 5 66 20 129l87 374h65l-88 -380c-13 -55 -17 -93 -17 -121c0 -114 104 -164 266 -164c119 0 210 31 259 87
c38 42 58 109 80 205l86 373h64z" />
    <glyph glyph-name="Uacute" unicode="&#xda;" horiz-adv-x="875" 
d="M669 900l-168 -126h-45l102 126h111zM874 706l-92 -400c-25 -109 -52 -173 -91 -219c-59 -70 -163 -105 -313 -105c-214 0 -326 75 -326 221c0 31 5 66 20 129l87 374h65l-88 -380c-13 -55 -17 -93 -17 -121c0 -114 104 -164 266 -164c119 0 210 31 259 87
c38 42 58 109 80 205l86 373h64z" />
    <glyph glyph-name="Ugrave" unicode="&#xd9;" horiz-adv-x="875" 
d="M554 774h-48l-135 126h111zM874 706l-92 -400c-25 -109 -52 -173 -91 -219c-59 -70 -163 -105 -313 -105c-214 0 -326 75 -326 221c0 31 5 66 20 129l87 374h65l-88 -380c-13 -55 -17 -93 -17 -121c0 -114 104 -164 266 -164c119 0 210 31 259 87c38 42 58 109 80 205
l86 373h64z" />
    <glyph glyph-name="multiply" unicode="&#xd7;" horiz-adv-x="772" 
d="M634 445l-210 -153l187 -163l-52 -37l-187 163l-210 -153l-42 37l210 153l-186 161l52 36l186 -160l210 152z" />
    <glyph glyph-name="Odieresis" unicode="&#xd6;" horiz-adv-x="909" 
d="M714 894l-22 -96h-71l22 96h71zM391 894l-22 -96h-71l22 96h71zM874 411c0 -120 -56 -239 -143 -316c-84 -75 -192 -111 -326 -111c-226 0 -370 125 -370 321c0 184 130 419 465 419c226 0 374 -124 374 -313zM802 407c0 160 -120 260 -311 260
c-227 0 -386 -148 -386 -359c0 -164 121 -268 313 -268c219 0 384 158 384 367z" />
    <glyph glyph-name="Otilde" unicode="&#xd5;" horiz-adv-x="909" 
d="M657 890l30 -14c-20 -41 -60 -87 -119 -87c-52 0 -91 49 -141 49c-27 0 -48 -15 -71 -49l-29 15c24 43 63 86 116 86c58 0 93 -48 138 -48c33 0 54 18 76 48zM874 411c0 -120 -56 -239 -143 -316c-84 -75 -192 -111 -326 -111c-226 0 -370 125 -370 321
c0 184 130 419 465 419c226 0 374 -124 374 -313zM802 407c0 160 -120 260 -311 260c-227 0 -386 -148 -386 -359c0 -164 121 -268 313 -268c219 0 384 158 384 367z" />
    <glyph glyph-name="Ocircumflex" unicode="&#xd4;" horiz-adv-x="909" 
d="M658 774h-61l-64 77l-110 -77h-66l140 126h79zM874 411c0 -120 -56 -239 -143 -316c-84 -75 -192 -111 -326 -111c-226 0 -370 125 -370 321c0 184 130 419 465 419c226 0 374 -124 374 -313zM802 407c0 160 -120 260 -311 260c-227 0 -386 -148 -386 -359
c0 -164 121 -268 313 -268c219 0 384 158 384 367z" />
    <glyph glyph-name="Oacute" unicode="&#xd3;" horiz-adv-x="909" 
d="M661 900l-168 -126h-45l102 126h111zM874 411c0 -120 -56 -239 -143 -316c-84 -75 -192 -111 -326 -111c-226 0 -370 125 -370 321c0 184 130 419 465 419c226 0 374 -124 374 -313zM802 407c0 160 -120 260 -311 260c-227 0 -386 -148 -386 -359
c0 -164 121 -268 313 -268c219 0 384 158 384 367z" />
    <glyph glyph-name="Ograve" unicode="&#xd2;" horiz-adv-x="909" 
d="M548 774h-48l-135 126h111zM874 411c0 -120 -56 -239 -143 -316c-84 -75 -192 -111 -326 -111c-226 0 -370 125 -370 321c0 184 130 419 465 419c226 0 374 -124 374 -313zM802 407c0 160 -120 260 -311 260c-227 0 -386 -148 -386 -359c0 -164 121 -268 313 -268
c219 0 384 158 384 367z" />
    <glyph glyph-name="Ntilde" unicode="&#xd1;" horiz-adv-x="896" 
d="M695 890l30 -14c-20 -41 -60 -87 -119 -87c-52 0 -91 49 -141 49c-27 0 -48 -15 -71 -49l-29 15c24 43 63 86 116 86c58 0 93 -48 138 -48c33 0 54 18 76 48zM894 706l-163 -706h-63l-463 616l-142 -616h-63l163 706h63l462 -619l143 619h63z" />
    <glyph glyph-name="Eth" unicode="&#xd0;" horiz-adv-x="842" 
d="M163 706h254c88 0 122 -1 163 -7c149 -20 227 -130 227 -283c0 -103 -34 -201 -97 -276c-83 -100 -194 -140 -390 -140h-320l82 356h-83l12 52h83zM220 648l-56 -241h348l-12 -51h-348l-68 -297h225c142 0 229 20 294 67c81 58 134 173 134 289c0 121 -61 205 -169 225
c-38 7 -58 8 -148 8h-200z" />
    <glyph glyph-name="Idieresis" unicode="&#xcf;" horiz-adv-x="229" 
d="M424 894l-22 -96h-71l22 96h71zM101 894l-22 -96h-71l22 96h71zM230 706l-163 -706h-67l163 706h67z" />
    <glyph glyph-name="Icircumflex" unicode="&#xce;" horiz-adv-x="229" 
d="M361 774h-61l-64 77l-110 -77h-66l140 126h79zM230 706l-163 -706h-67l163 706h67z" />
    <glyph glyph-name="Iacute" unicode="&#xcd;" horiz-adv-x="229" 
d="M362 900l-168 -126h-45l102 126h111zM230 706l-163 -706h-67l163 706h67z" />
    <glyph glyph-name="Igrave" unicode="&#xcc;" horiz-adv-x="229" 
d="M254 774h-48l-135 126h111zM230 706l-163 -706h-67l163 706h67z" />
    <glyph glyph-name="Edieresis" unicode="&#xcb;" horiz-adv-x="828" 
d="M732 894l-22 -96h-71l22 96h71zM409 894l-22 -96h-71l22 96h71zM839 706l-14 -58h-606l-58 -248h561l-14 -60h-561l-64 -281h635l-13 -59h-705l163 706h676z" />
    <glyph glyph-name="Ecircumflex" unicode="&#xca;" horiz-adv-x="828" 
d="M651 774h-61l-64 77l-110 -77h-66l140 126h79zM839 706l-14 -58h-606l-58 -248h561l-14 -60h-561l-64 -281h635l-13 -59h-705l163 706h676z" />
    <glyph glyph-name="Eacute" unicode="&#xc9;" horiz-adv-x="828" 
d="M657 900l-168 -126h-45l102 126h111zM839 706l-14 -58h-606l-58 -248h561l-14 -60h-561l-64 -281h635l-13 -59h-705l163 706h676z" />
    <glyph glyph-name="Egrave" unicode="&#xc8;" horiz-adv-x="828" 
d="M533 774h-48l-135 126h111zM839 706l-14 -58h-606l-58 -248h561l-14 -60h-561l-64 -281h635l-13 -59h-705l163 706h676z" />
    <glyph glyph-name="Ccedilla" unicode="&#xc7;" horiz-adv-x="812" 
d="M807 517l-65 -29c-46 117 -141 177 -278 177c-203 0 -358 -146 -358 -340c0 -239 203 -286 309 -286c132 0 232 55 308 172l55 -33c-75 -125 -206 -196 -360 -196c-6 0 -13 0 -23 1l-13 -44c58 -10 82 -28 82 -64c0 -48 -42 -77 -111 -77c-23 0 -48 3 -87 11l-15 3l7 34
c29 -7 54 -12 83 -12c38 0 58 12 58 36c0 22 -19 32 -70 37l23 79c-193 20 -317 147 -317 326c0 237 183 411 435 411c162 0 272 -67 337 -206z" />
    <glyph glyph-name="Aring" unicode="&#xc5;" horiz-adv-x="792" 
d="M584 830c0 -52 -46 -88 -113 -88s-114 35 -114 84c0 53 45 87 116 87c67 0 111 -32 111 -83zM531 828c0 27 -23 44 -61 44c-36 0 -61 -18 -61 -45c0 -26 24 -42 61 -42s61 17 61 43zM712 0h-69l-56 183h-453l-127 -183h-75l486 706h76zM570 239l-122 406l-275 -406h397z
" />
    <glyph glyph-name="Adieresis" unicode="&#xc4;" horiz-adv-x="792" 
d="M684 894l-22 -96h-71l22 96h71zM361 894l-22 -96h-71l22 96h71zM712 0h-69l-56 183h-453l-127 -183h-75l486 706h76zM570 239l-122 406l-275 -406h397z" />
    <glyph glyph-name="Atilde" unicode="&#xc3;" horiz-adv-x="792" 
d="M619 890l30 -14c-20 -41 -60 -87 -119 -87c-52 0 -91 49 -141 49c-27 0 -48 -15 -71 -49l-29 15c24 43 63 86 116 86c58 0 93 -48 138 -48c33 0 54 18 76 48zM712 0h-69l-56 183h-453l-127 -183h-75l486 706h76zM570 239l-122 406l-275 -406h397z" />
    <glyph glyph-name="Acircumflex" unicode="&#xc2;" horiz-adv-x="792" 
d="M609 774h-61l-64 77l-110 -77h-66l140 126h79zM712 0h-69l-56 183h-453l-127 -183h-75l486 706h76zM570 239l-122 406l-275 -406h397z" />
    <glyph glyph-name="Aacute" unicode="&#xc1;" horiz-adv-x="792" 
d="M615 900l-168 -126h-45l102 126h111zM712 0h-69l-56 183h-453l-127 -183h-75l486 706h76zM570 239l-122 406l-275 -406h397z" />
    <glyph glyph-name="Agrave" unicode="&#xc0;" horiz-adv-x="792" 
d="M503 774h-48l-135 126h111zM712 0h-69l-56 183h-453l-127 -183h-75l486 706h76zM570 239l-122 406l-275 -406h397z" />
    <glyph glyph-name="mu" unicode="&#xb5;" horiz-adv-x="729" 
d="M673 489l-83 -366c-2 -8 -6 -31 -6 -38c0 -25 12 -34 48 -34c5 0 15 1 23 1l-12 -51c-30 -3 -40 -4 -54 -4c-48 0 -72 20 -72 62v19c-50 -63 -120 -91 -227 -91c-93 0 -165 28 -211 94l-61 -266h-66l156 674h65l-49 -215c-8 -37 -12 -69 -12 -89c0 -92 63 -140 185 -140
c159 0 227 77 251 183l59 261h66z" />
    <glyph glyph-name="plusminus" unicode="&#xb1;" horiz-adv-x="772" 
d="M700 435l-14 -59h-261l-55 -239h-60l55 239h-262l14 59h262l54 237h60l-55 -237h262zM613 58l-13 -58h-583l13 58h583z" />
    <glyph glyph-name="degree" unicode="&#xb0;" horiz-adv-x="354" 
d="M379 602c0 -81 -66 -147 -147 -147s-147 65 -147 147c0 80 66 147 146 147c83 0 148 -65 148 -147zM322 602c0 51 -40 92 -89 92c-51 0 -92 -41 -92 -93c0 -51 41 -92 92 -92c50 0 89 41 89 93z" />
    <glyph glyph-name="registered" unicode="&#xae;" horiz-adv-x="833" 
d="M768 353c0 -200 -160 -356 -357 -356c-199 0 -355 158 -355 358c0 198 156 354 356 354c198 0 356 -154 356 -356zM736 351c0 183 -142 326 -324 326c-180 0 -324 -144 -324 -324s144 -324 324 -324c179 0 324 145 324 322zM221 147l94 416h176c78 0 122 -38 122 -104
c0 -80 -53 -124 -157 -129l108 -183h-63l-104 183h-79l-41 -183h-56zM329 378h116c78 0 115 24 115 77c0 38 -29 60 -72 60h-127z" />
    <glyph glyph-name="logicalnot" unicode="&#xac;" horiz-adv-x="772" 
d="M679 323l-75 -323h-60l60 264h-563l14 59h624z" />
    <glyph glyph-name="copyright" unicode="&#xa9;" horiz-adv-x="833" 
d="M631 449l-53 -24c-21 64 -73 95 -154 95c-107 0 -181 -74 -181 -181c0 -91 64 -153 160 -153c72 0 133 31 165 93l46 -28c-43 -75 -119 -116 -214 -116c-128 0 -217 81 -217 198c0 136 108 239 250 239c87 0 162 -40 198 -123zM768 353c0 -200 -160 -356 -357 -356
c-199 0 -355 158 -355 358c0 198 156 354 356 354c198 0 356 -154 356 -356zM736 351c0 183 -142 326 -324 326c-180 0 -324 -144 -324 -324s144 -324 324 -324c179 0 324 145 324 322z" />
    <glyph glyph-name="brokenbar" unicode="&#xa6;" horiz-adv-x="229" 
d="M228 732l-94 -405h-66l95 405h65zM103 189l-94 -404h-66l95 404h65z" />
    <glyph glyph-name="minus" unicode="&#x2212;" horiz-adv-x="772" 
d="M702 323l-15 -60h-638l14 60h639z" />
    <glyph glyph-name="threesuperior" unicode="&#xb3;" horiz-adv-x="476" 
d="M211 460l8 39h53c67 0 90 5 113 26c17 15 26 33 26 53c0 45 -46 72 -123 72c-75 0 -117 -27 -147 -93l-41 17c42 82 97 115 191 115c104 0 167 -40 167 -107c0 -46 -35 -86 -86 -100c46 -23 64 -48 64 -86c0 -85 -82 -146 -196 -146c-109 0 -179 44 -196 125l46 12
c14 -66 74 -96 153 -96c85 0 144 41 144 99c0 47 -36 70 -116 70h-60z" />
    <glyph glyph-name="twosuperior" unicode="&#xb2;" horiz-adv-x="476" 
d="M420 300l-8 -42h-375l9 45c70 27 97 39 168 73c143 69 197 113 197 181c0 57 -51 96 -128 96c-71 0 -123 -25 -148 -117l-46 10c33 102 92 149 197 149c104 0 175 -55 175 -134c0 -108 -91 -161 -320 -263c0 0 246 2 279 2z" />
    <glyph glyph-name="onesuperior" unicode="&#xb9;" horiz-adv-x="476" 
d="M354 689l-99 -431h-47l76 331c-27 -18 -59 -25 -104 -25h-15l9 40c67 0 106 11 147 85h33z" />
    <glyph glyph-name="threequarters" unicode="&#xbe;" horiz-adv-x="1083" 
d="M995 155l-10 -42h-93l-26 -113h-46l26 113h-269l9 39l331 280h48l-63 -277h93zM847 688l-520 -688h-57l521 688h56zM906 373l-255 -218h205zM206 460l8 39h53c67 0 90 5 113 26c17 15 26 33 26 53c0 45 -46 72 -123 72c-75 0 -117 -27 -147 -93l-41 17
c42 82 97 115 191 115c104 0 167 -40 167 -107c0 -46 -35 -86 -86 -100c46 -23 64 -48 64 -86c0 -85 -82 -146 -196 -146c-109 0 -179 44 -196 125l46 12c14 -66 74 -96 153 -96c85 0 144 41 144 99c0 47 -36 70 -116 70h-60z" />
    <glyph glyph-name="onehalf" unicode="&#xbd;" horiz-adv-x="1083" 
d="M778 688l-519 -688h-58l521 688h56zM352 689l-99 -431h-47l76 331c-27 -18 -59 -25 -104 -25h-15l9 40c67 0 106 11 147 85h33zM949 42l-8 -42h-375l9 45c70 27 97 39 168 73c143 69 197 113 197 181c0 57 -51 96 -128 96c-71 0 -123 -25 -148 -117l-46 10
c33 102 92 149 197 149c104 0 175 -55 175 -134c0 -108 -91 -161 -320 -263c0 0 246 2 279 2z" />
    <glyph glyph-name="onequarter" unicode="&#xbc;" horiz-adv-x="1083" 
d="M970 155l-10 -42h-93l-25 -113h-46l25 113h-268l8 39l331 280h48l-63 -277h93zM816 688l-519 -688h-58l521 688h56zM881 373l-255 -218h205zM382 689l-99 -431h-47l76 331c-27 -18 -59 -25 -104 -25h-15l9 40c67 0 106 11 147 85h33z" />
    <glyph glyph-name="nbspace" unicode="&#xa0;" horiz-adv-x="313" 
 />
    <glyph glyph-name="uni00AD" unicode="&#xad;" horiz-adv-x="364" 
d="M320 324l-13 -60h-289l14 60h288z" />
    </font>
</defs>
</svg>
