<?xml version="1.0" standalone="no"?>
<!DOCTYPE svg PUBLIC "-//W3C//DTD SVG 1.1//EN" "http://www.w3.org/Graphics/SVG/1.1/DTD/svg11.dtd" >
<svg>
<metadata>
Created by FontForge 20120731 at Wed Jul  3 14:29:51 2019
 By www-data
Berthold first published Akzidenz-Grotesk in 1896. The design originates from Royal Grotesk light by Ferdinand Theinhardt who also supplied the regular, medium and bold weights. Throughout the years, Berthold has expanded this extremely popular and versatile family. AG Super was developed in 1968 by Guenter Gerhard Lange and is an excellent choice for headlines. In 2001, Guenter Gerhard Lange added more weights for Berthold including Super Italic and Extra Bold italic.
</metadata>
<defs>
<font id="AkzidenzGroteskBE-XBdCnIt" horiz-adv-x="500" >
  <font-face 
    font-family="Akzidenz Grotesk BE XBdCn"
    font-weight="800"
    font-style="italic"
    font-stretch="condensed"
    units-per-em="1000"
    panose-1="2 0 5 6 6 0 0 9 0 4"
    ascent="750"
    descent="-250"
    x-height="536"
    cap-height="706"
    bbox="-101 -242 1141 927"
    underline-thickness="50"
    underline-position="-50"
    slope="-13"
    stemh="100"
    stemv="156"
    unicode-range="U+0020-FB02"
  />
<missing-glyph 
d="M0 0v706h500v-706h-500zM250 401l170 255h-340zM280 353l170 -258v516zM80 50h340l-170 258zM50 611v-516l170 258z" />
    <glyph glyph-name="fi" unicode="fi" horiz-adv-x="563" 
d="M654 706l-28 -120h-158l27 120h159zM615 536l-124 -536h-159l124 536h159zM403 536l-23 -97h-70l-101 -439h-160l101 439h-64l22 97h65l5 24c23 111 37 150 174 150c32 0 63 -1 95 -3l-23 -98h-24c-48 0 -53 -12 -61 -47l-6 -26h70z" />
    <glyph glyph-name="fl" unicode="fl" horiz-adv-x="563" 
d="M655 706l-163 -706h-160l163 706h160zM403 536l-23 -97h-70l-101 -439h-160l101 439h-64l22 97h65l5 24c23 111 37 150 174 150c32 0 63 -1 95 -3l-23 -98h-24c-48 0 -53 -12 -61 -47l-6 -26h70z" />
    <glyph glyph-name=".notdef" 
d="M0 0v706h500v-706h-500zM250 401l170 255h-340zM280 353l170 -258v516zM80 50h340l-170 258zM50 611v-516l170 258z" />
    <glyph glyph-name="space" unicode=" " horiz-adv-x="250" 
 />
    <glyph glyph-name="exclam" unicode="!" horiz-adv-x="292" 
d="M225 706h148l-30 -127c-5 -21 -26 -86 -36 -117l-73 -233h-91l33 227c6 38 11 91 16 114zM245 152l-35 -152h-148l35 152h148z" />
    <glyph glyph-name="quotedbl" unicode="&#x22;" horiz-adv-x="313" 
d="M441 741l-109 -288h-36l23 288h122zM279 741l-110 -288h-36l24 288h122z" />
    <glyph glyph-name="numbersign" unicode="#" horiz-adv-x="561" 
d="M643 515l-25 -107h-113l-30 -100h110l-26 -107h-119l-63 -201h-109l64 201h-91l-64 -201h-107l63 201h-105l26 107h113l30 100h-108l25 107h117l60 191h108l-59 -191h90l60 191h108l-59 -191h104zM396 408h-90l-31 -100h90z" />
    <glyph glyph-name="dollar" unicode="$" horiz-adv-x="521" 
d="M558 482h-163c6 25 15 52 15 78c0 25 -20 38 -43 38c-12 0 -26 -2 -36 -10c-21 -16 -33 -65 -33 -91c0 -37 29 -53 55 -73l74 -57c45 -35 86 -66 86 -128c0 -34 -11 -78 -22 -110c-41 -119 -107 -136 -224 -143l-25 -103h-79l25 107c-15 3 -31 5 -46 9
c-64 18 -105 60 -105 129c0 39 11 80 21 115h171c-7 -30 -19 -60 -19 -91c0 -33 21 -47 54 -47c54 0 72 69 72 114c0 21 -15 37 -61 72l-69 52c-47 36 -77 59 -77 123c0 65 43 192 100 227c34 21 88 24 128 25l20 92h79l-22 -96c78 -9 142 -38 142 -127
c0 -36 -10 -71 -18 -105z" />
    <glyph glyph-name="percent" unicode="%" horiz-adv-x="792" 
d="M661 706l-349 -706h-79l348 706h80zM404 572l-48 -205c-20 -85 -58 -112 -144 -112c-63 0 -126 20 -126 95c0 21 3 41 8 61l42 182c21 89 59 123 151 123c64 0 123 -22 123 -96c0 -16 -2 -32 -6 -48zM261 386l45 195c3 13 6 21 6 32c0 19 -14 26 -31 26
c-35 0 -41 -31 -47 -58l-45 -194c-2 -9 -5 -17 -5 -26c0 -20 15 -25 32 -25c33 0 39 23 45 50zM801 307l-47 -205c-19 -85 -61 -112 -144 -112c-63 0 -127 20 -127 95c0 21 5 42 9 61l42 183c23 101 73 122 151 122c64 0 122 -22 122 -96c0 -16 -2 -32 -6 -48zM659 121
l45 195c3 13 6 21 6 32c0 19 -14 26 -31 26c-35 0 -41 -31 -47 -58l-45 -194c-2 -9 -5 -17 -5 -26c0 -20 15 -25 32 -25c33 0 39 23 45 50z" />
    <glyph glyph-name="ampersand" unicode="&#x26;" horiz-adv-x="667" 
d="M521 368h139c-17 -94 -47 -167 -113 -237c31 -26 59 -30 98 -30l-32 -115c-10 -1 -21 -1 -31 -1c-60 0 -109 14 -156 52c-59 -29 -107 -48 -174 -48c-109 0 -208 56 -208 176c0 117 86 181 180 231c-7 34 -14 68 -14 103c0 130 77 205 206 205c85 0 160 -40 160 -134
c0 -104 -100 -166 -180 -210c16 -50 45 -96 73 -141c32 46 44 95 52 149zM363 462c39 23 78 58 78 107c0 19 -10 38 -31 38c-41 0 -53 -52 -53 -84c0 -21 2 -41 6 -61zM351 123c-37 50 -65 103 -87 159c-30 -26 -57 -63 -57 -105c0 -50 40 -67 84 -67c23 0 39 4 60 13z" />
    <glyph glyph-name="quoteright" unicode="&#x2019;" horiz-adv-x="250" 
d="M337 706l-35 -152l-122 -156h-65l91 156h-55l35 152h151z" />
    <glyph glyph-name="parenleft" unicode="(" horiz-adv-x="354" 
d="M474 706l-14 -62c-79 0 -106 -3 -125 -86l-138 -594c-4 -18 -8 -36 -8 -55c0 -42 37 -47 71 -47h27l-14 -64h-27c-150 0 -192 54 -192 147c0 37 10 81 20 126l110 479c30 131 89 156 217 156h73z" />
    <glyph glyph-name="parenright" unicode=")" horiz-adv-x="354" 
d="M129 642l15 64h27c98 0 190 -18 190 -139c0 -50 -11 -99 -22 -147l-107 -466c-29 -127 -92 -157 -218 -157h-72l14 64h23c69 0 87 21 102 86l138 593c4 18 8 37 8 56c0 42 -38 46 -76 46h-22z" />
    <glyph glyph-name="asterisk" unicode="*" horiz-adv-x="411" 
d="M489 498l-104 -13l43 -89l-97 -47l-46 96l-78 -69l-72 80l74 66l-90 49l51 95l94 -51l22 103l105 -23l-22 -103l108 12z" />
    <glyph glyph-name="plus" unicode="+" horiz-adv-x="558" 
d="M534 363l-29 -126h-119l-34 -146h-155l33 146h-121l29 126h121l34 146h155l-33 -146h119z" />
    <glyph glyph-name="comma" unicode="," horiz-adv-x="250" 
d="M209 153l-36 -153l-121 -155h-64l91 155h-55l35 153h150z" />
    <glyph glyph-name="hyphen" unicode="-" horiz-adv-x="329" 
d="M353 357l-28 -122h-273l28 122h273z" />
    <glyph glyph-name="period" unicode="." horiz-adv-x="250" 
d="M206 153l-35 -153h-149l35 153h149z" />
    <glyph glyph-name="slash" unicode="/" horiz-adv-x="292" 
d="M389 706l-266 -706h-116l263 706h119z" />
    <glyph glyph-name="zero" unicode="0" horiz-adv-x="521" 
d="M547 454l-58 -252c-25 -108 -49 -215 -230 -215c-97 0 -195 33 -195 147c0 48 10 95 21 142l58 252c25 106 69 190 235 190c97 0 186 -37 186 -148c0 -39 -8 -78 -17 -116zM332 192l77 335c2 8 4 19 4 29c0 31 -19 45 -49 45c-47 0 -56 -31 -68 -81l-76 -326
c-3 -13 -6 -26 -6 -40c0 -30 21 -45 50 -45c50 0 59 44 68 83z" />
    <glyph glyph-name="one" unicode="1" horiz-adv-x="521" 
d="M508 706l-163 -706h-154l120 518c-37 -25 -76 -37 -117 -48l33 144c70 11 114 28 150 92h131z" />
    <glyph glyph-name="two" unicode="2" horiz-adv-x="521" 
d="M464 0h-445c17 98 34 183 112 254c49 45 134 90 210 145c18 13 32 26 42 50c16 37 23 79 23 104c0 32 -15 48 -47 48c-48 0 -57 -34 -67 -75l-19 -79h-159l10 42c35 146 59 230 247 230c97 0 197 -30 197 -145c0 -61 -30 -177 -68 -224c-33 -40 -71 -57 -167 -118
c-45 -28 -94 -58 -108 -105h268z" />
    <glyph glyph-name="three" unicode="3" horiz-adv-x="521" 
d="M284 488h-155c10 46 29 134 59 169c46 53 116 62 182 62c85 0 189 -31 189 -134c0 -43 -17 -123 -38 -160c-21 -39 -50 -52 -95 -55c48 -7 77 -31 77 -82c0 -50 -31 -170 -57 -213c-44 -72 -120 -87 -198 -87c-99 0 -193 33 -193 148c0 35 8 69 16 102h155
c-6 -31 -17 -62 -17 -94c0 -28 21 -45 48 -45c53 0 62 43 71 85c6 28 15 57 15 86c0 38 -35 39 -64 39h-52l27 119h58c23 0 46 0 63 17s31 93 31 118c0 28 -18 42 -45 42c-58 0 -69 -69 -77 -117z" />
    <glyph glyph-name="four" unicode="4" horiz-adv-x="521" 
d="M568 706l-102 -441h66l-26 -113h-66l-35 -152h-155l36 152h-262l27 117l310 437h207zM313 269l80 315c-66 -108 -139 -211 -211 -315h131z" />
    <glyph glyph-name="five" unicode="5" horiz-adv-x="521" 
d="M589 706l-28 -121h-234l-44 -154c31 34 68 51 114 51c82 0 124 -50 124 -130c0 -65 -33 -209 -64 -265c-43 -76 -120 -99 -202 -99c-96 0 -192 35 -192 147c0 31 7 63 14 93h155c-5 -23 -13 -47 -13 -71c0 -29 19 -48 48 -48c35 0 50 19 60 49c9 28 36 143 36 171
c0 30 -18 49 -47 49c-34 0 -50 -22 -57 -52h-149l98 380h381z" />
    <glyph glyph-name="six" unicode="6" horiz-adv-x="521" 
d="M556 501h-150c4 16 13 40 13 57c0 27 -22 40 -47 40c-37 0 -51 -22 -63 -65l-38 -137c34 33 66 46 113 46c82 0 128 -48 128 -129c0 -49 -33 -179 -55 -223c-40 -80 -113 -101 -197 -101c-101 0 -192 35 -192 151c0 41 10 84 19 122l55 239c11 48 29 114 61 152
c43 51 114 65 178 65c84 0 188 -31 188 -133c0 -28 -7 -56 -13 -84zM358 294c0 30 -25 42 -51 42c-28 0 -44 -18 -55 -41c-12 -24 -33 -114 -33 -141c0 -30 18 -46 47 -46c21 0 35 5 48 21c15 18 44 139 44 165z" />
    <glyph glyph-name="seven" unicode="7" horiz-adv-x="521" 
d="M611 706l-28 -121c-136 -185 -231 -362 -287 -585h-179c26 74 53 148 88 218c65 131 150 252 237 369h-165l-22 -96h-139l50 215h445z" />
    <glyph glyph-name="eight" unicode="8" horiz-adv-x="521" 
d="M444 375c45 -14 60 -54 60 -94c0 -35 -10 -73 -19 -108c-32 -124 -82 -185 -217 -185c-105 0 -205 35 -205 158c0 60 28 184 77 223c19 15 42 21 65 26c-43 16 -61 49 -61 93c0 51 26 135 60 173c40 44 106 57 164 57c96 0 195 -36 195 -148c0 -74 -30 -187 -119 -195z
M350 279c0 30 -23 43 -50 43c-24 0 -43 -10 -53 -33c-8 -18 -33 -119 -33 -138c0 -31 20 -48 50 -48c31 0 46 18 57 44c7 18 29 114 29 132zM414 556c0 32 -25 43 -53 43c-23 0 -40 -12 -51 -39c-13 -31 -22 -74 -22 -93c0 -32 25 -46 54 -46c47 0 55 39 63 76
c5 22 9 39 9 59z" />
    <glyph glyph-name="nine" unicode="9" horiz-adv-x="521" 
d="M73 206h150c-5 -15 -13 -43 -13 -58c0 -28 26 -39 50 -39c43 0 52 30 70 98l28 106c-28 -35 -68 -48 -112 -48c-76 0 -129 44 -129 122c0 54 33 183 57 232c38 77 115 100 196 100c100 0 192 -38 192 -152c0 -25 -4 -50 -10 -75l-64 -279c-11 -47 -28 -116 -58 -154
c-42 -52 -115 -71 -180 -71c-84 0 -189 30 -189 132c0 29 6 58 12 86zM411 551c0 30 -19 48 -49 48c-28 0 -47 -15 -57 -40c-9 -24 -34 -118 -34 -144c0 -29 19 -44 47 -44c43 0 56 30 69 73c13 41 24 90 24 107z" />
    <glyph glyph-name="colon" unicode=":" horiz-adv-x="292" 
d="M337 542l-35 -153h-150l35 153h150zM246 153l-35 -153h-149l35 153h149z" />
    <glyph glyph-name="semicolon" unicode=";" horiz-adv-x="292" 
d="M341 542l-35 -153h-151l35 153h151zM251 153l-35 -153l-121 -155h-65l91 155h-56l35 153h151z" />
    <glyph glyph-name="less" unicode="&#x3c;" horiz-adv-x="559" 
d="M565 598l-36 -154l-247 -115l200 -111l-34 -142l-317 194l32 133z" />
    <glyph glyph-name="equal" unicode="=" horiz-adv-x="559" 
d="M554 479l-28 -122h-390l28 122h390zM504 267l-27 -122h-390l28 122h389z" />
    <glyph glyph-name="greater" unicode="&#x3e;" horiz-adv-x="559" 
d="M530 404l-31 -133l-403 -195l36 154l248 115l-200 110l34 142z" />
    <glyph glyph-name="question" unicode="?" horiz-adv-x="458" 
d="M303 231h-150c10 45 19 107 48 143c61 74 192 90 192 204c0 23 -14 37 -37 37c-39 0 -48 -17 -64 -94l-3 -15h-146l4 18c28 127 44 196 218 196c86 0 177 -23 177 -127c0 -28 -6 -55 -14 -82c-15 -52 -27 -69 -73 -101l-68 -47c-64 -44 -70 -56 -84 -132zM285 153
l-36 -153h-150l36 153h150z" />
    <glyph glyph-name="at" unicode="@" horiz-adv-x="834" 
d="M585 504h94l-44 -159c-31 -112 -38 -132 -38 -163c0 -15 6 -24 18 -24c15 0 36 16 58 43c48 61 81 157 81 238c0 126 -77 195 -216 195c-197 0 -371 -195 -371 -415c0 -159 104 -258 269 -258c119 0 235 49 338 141l44 -66c-55 -48 -79 -65 -132 -93
c-85 -44 -168 -65 -258 -65c-218 0 -355 133 -355 343c0 268 216 493 475 493c179 0 298 -108 298 -269c0 -181 -130 -377 -264 -377c-48 0 -80 25 -86 68c-39 -45 -82 -68 -128 -68c-80 0 -127 56 -127 150c0 157 115 306 236 306c41 0 68 -12 95 -60zM349 236
c0 -45 20 -71 54 -71c56 0 128 99 128 185c0 51 -23 78 -57 78c-64 0 -125 -106 -125 -192z" />
    <glyph glyph-name="A" unicode="A" horiz-adv-x="542" 
d="M290 706h275l-51 -706h-168l15 157h-131l-60 -157h-183zM404 641l-129 -363h97z" />
    <glyph glyph-name="B" unicode="B" horiz-adv-x="542" 
d="M183 706h230c83 0 189 -6 189 -115c0 -35 -18 -126 -36 -155c-25 -41 -67 -51 -112 -58c48 -12 88 -35 88 -90c0 -42 -32 -171 -50 -210c-32 -69 -103 -78 -171 -78h-300zM326 579l-36 -154h61c40 0 65 7 76 54l11 47c1 6 2 12 2 18c0 35 -29 35 -57 35h-57zM329 305h-67
l-41 -181h74c50 0 57 26 66 65l14 60c2 6 3 14 3 22c0 26 -22 34 -49 34z" />
    <glyph glyph-name="C" unicode="C" horiz-adv-x="521" 
d="M563 438h-164c8 34 22 91 22 107c0 33 -22 44 -53 44c-29 0 -50 -13 -57 -42l-84 -362c-3 -11 -6 -26 -6 -37c0 -26 20 -39 47 -39c55 0 63 29 91 158h175c-48 -190 -44 -281 -272 -281c-138 0 -213 53 -213 140c0 34 9 68 16 99l68 298c33 144 86 195 248 195
c101 0 209 -20 209 -145c0 -27 -16 -91 -27 -135z" />
    <glyph glyph-name="D" unicode="D" horiz-adv-x="542" 
d="M185 706h239c88 0 183 -9 183 -120c0 -23 -4 -45 -9 -67l-80 -346c-30 -132 -48 -173 -195 -173h-301zM328 586l-108 -468h43c59 0 77 15 89 69l78 341c2 7 2 13 2 20c0 30 -18 38 -45 38h-59z" />
    <glyph glyph-name="E" unicode="E" horiz-adv-x="437" 
d="M538 706l-28 -121h-183l-37 -162h174l-27 -119h-174l-42 -180h200l-28 -124h-373l163 706h355z" />
    <glyph glyph-name="F" unicode="F" horiz-adv-x="417" 
d="M540 706l-28 -120h-185l-37 -161h178l-28 -122h-178l-70 -303h-170l163 706h355z" />
    <glyph glyph-name="G" unicode="G" horiz-adv-x="542" 
d="M560 457h-164c7 29 19 74 19 91c0 28 -18 42 -45 42c-42 0 -62 -33 -72 -74l-75 -324c-3 -11 -4 -23 -4 -34c0 -32 23 -47 52 -47c57 0 61 44 86 142h-69l26 114h231l-84 -367h-163l16 68c-39 -54 -78 -80 -146 -80c-80 0 -125 45 -125 125c0 62 27 159 45 236l44 184
c32 132 87 187 239 187c85 0 214 -25 214 -135c0 -27 -16 -86 -25 -128z" />
    <glyph glyph-name="H" unicode="H" horiz-adv-x="562" 
d="M645 706l-163 -706h-172l69 297h-117l-69 -297h-172l163 706h172l-66 -287h117l66 287h172z" />
    <glyph glyph-name="I" unicode="I" horiz-adv-x="271" 
d="M184 706h171l-163 -706h-171z" />
    <glyph glyph-name="J" unicode="J" horiz-adv-x="375" 
d="M291 706h172l-119 -515c-36 -156 -73 -191 -249 -191h-78l29 127h41c61 0 79 19 93 83z" />
    <glyph glyph-name="K" unicode="K" horiz-adv-x="542" 
d="M661 706l-228 -327l87 -379h-175l-67 379l-88 -379h-169l163 706h169l-72 -312l198 312h182z" />
    <glyph glyph-name="L" unicode="L" horiz-adv-x="396" 
d="M402 120l-28 -120h-352l163 706h171l-135 -586h181z" />
    <glyph glyph-name="M" unicode="M" horiz-adv-x="771" 
d="M852 706l-163 -706h-160l134 525l-235 -525h-144c2 94 5 525 5 525l-108 -525h-160l164 706h235c-5 -166 -8 -332 -19 -498c70 167 143 332 216 498h235z" />
    <glyph glyph-name="N" unicode="N" horiz-adv-x="562" 
d="M645 706l-163 -706h-165c-18 145 -38 290 -50 435l-86 -435h-159l163 706h166c19 -146 37 -292 51 -438c23 147 56 292 86 438h157z" />
    <glyph glyph-name="O" unicode="O" horiz-adv-x="542" 
d="M571 410l-56 -238c-34 -145 -98 -186 -247 -186c-107 0 -212 32 -212 158c0 30 5 59 12 88l68 288c23 97 51 198 248 198c104 0 214 -27 214 -153c0 -53 -15 -104 -27 -155zM352 210l64 265c12 49 15 59 15 68c0 28 -14 48 -49 48c-44 0 -53 -24 -59 -43
c-13 -44 -98 -368 -98 -394c0 -27 19 -41 52 -41c47 0 60 34 75 97z" />
    <glyph glyph-name="P" unicode="P" horiz-adv-x="521" 
d="M185 706h264c79 0 151 -17 151 -112c0 -36 -20 -116 -30 -160c-26 -116 -60 -152 -182 -152h-130l-66 -282h-171zM328 585l-41 -175h66c51 0 57 29 67 71l6 25c4 15 7 32 7 44c0 26 -21 35 -44 35h-61z" />
    <glyph glyph-name="Q" unicode="Q" horiz-adv-x="542" 
d="M410 -102l-31 -102h-90c-68 0 -138 11 -138 82c0 28 21 84 30 117c-81 21 -123 66 -123 152c0 26 3 52 9 77l68 300c34 148 95 196 249 196c101 0 211 -27 211 -150c0 -45 -10 -90 -20 -134l-56 -241c-28 -122 -60 -193 -196 -204c-5 -16 -17 -48 -17 -63
c0 -31 38 -32 60 -32c14 0 30 1 44 2zM349 200l74 316c2 9 5 24 5 34c0 31 -23 44 -51 44c-46 0 -53 -30 -63 -68l-85 -339c-3 -11 -4 -19 -4 -29c0 -31 21 -44 50 -44c55 0 64 42 74 86z" />
    <glyph glyph-name="R" unicode="R" horiz-adv-x="542" 
d="M184 706h240c72 0 172 -7 172 -114c0 -35 -16 -111 -33 -148c-32 -70 -97 -78 -126 -82c58 -9 94 -36 94 -82c0 -20 -6 -45 -7 -51l-22 -107c-6 -32 -10 -70 -13 -77c0 -28 16 -37 30 -42v-6l-147 5c-10 0 -51 0 -51 45c0 11 1 20 6 42l27 127c3 14 7 31 7 43
c0 35 -28 38 -51 38h-49l-68 -297h-172zM328 585l-38 -164h54c48 0 65 14 75 63l9 43c1 7 3 17 3 27c0 30 -30 31 -49 31h-54z" />
    <glyph glyph-name="S" unicode="S" horiz-adv-x="521" 
d="M558 482h-163c6 24 16 55 16 76c0 27 -21 40 -48 40c-50 0 -65 -65 -65 -103c0 -28 16 -42 41 -61l91 -70c37 -28 83 -63 83 -123c0 -51 -26 -147 -59 -187c-45 -54 -126 -66 -197 -66c-94 0 -219 18 -219 138c0 40 12 81 21 117h170c-5 -20 -19 -67 -19 -91
c0 -32 20 -46 56 -46c62 0 70 88 70 106c0 32 -24 51 -47 68l-81 61c-51 38 -79 62 -79 122c0 55 34 161 67 200c41 49 108 55 168 55c91 0 212 -14 212 -132c0 -35 -10 -70 -18 -104z" />
    <glyph glyph-name="T" unicode="T" horiz-adv-x="417" 
d="M548 706l-28 -122h-118l-135 -584h-172l135 584h-129l29 122h418z" />
    <glyph glyph-name="U" unicode="U" horiz-adv-x="542" 
d="M631 706l-116 -504c-7 -32 -15 -65 -29 -95c-43 -94 -127 -119 -224 -119c-153 0 -210 69 -210 157c0 41 14 101 25 148l97 413h171l-117 -504c-3 -13 -5 -26 -5 -39c0 -31 25 -42 52 -42c50 0 61 41 70 81l117 504h169z" />
    <glyph glyph-name="V" unicode="V" 
d="M632 706l-296 -706h-238l31 706h165l-38 -526l192 526h184z" />
    <glyph glyph-name="W" unicode="W" horiz-adv-x="812" 
d="M944 706l-259 -706h-214l21 495l-204 -495h-219l63 706h168l-74 -517l207 517h206l-32 -513l166 513h171z" />
    <glyph glyph-name="X" unicode="X" 
d="M617 706l-206 -335l58 -371h-167l-27 266l-126 -266h-182l226 398l-63 308h169l29 -209l106 209h183z" />
    <glyph glyph-name="Y" unicode="Y" horiz-adv-x="521" 
d="M655 706l-294 -476l-53 -230h-169l56 244l-66 462h167l24 -288l144 288h191z" />
    <glyph glyph-name="Z" unicode="Z" horiz-adv-x="479" 
d="M576 706l-30 -130l-352 -446h249l-30 -130h-439l30 130l356 453h-238l29 123h425z" />
    <glyph glyph-name="bracketleft" unicode="[" horiz-adv-x="354" 
d="M476 706l-15 -64h-109l-186 -784h108l-14 -62h-259l217 910h258z" />
    <glyph glyph-name="backslash" unicode="\" horiz-adv-x="292" 
d="M265 0h-118c-5 227 -17 706 -17 706h116c5 -156 19 -706 19 -706z" />
    <glyph glyph-name="bracketright" unicode="]" horiz-adv-x="354" 
d="M403 706l-215 -910h-258l14 62h112l181 784h-107l15 64h258z" />
    <glyph glyph-name="asciicircum" unicode="^" horiz-adv-x="559" 
d="M573 358h-147l-36 215l-139 -214h-159l253 347h137z" />
    <glyph glyph-name="underscore" unicode="_" 
d="M435 -229h-520l25 108h520z" />
    <glyph glyph-name="quoteleft" unicode="&#x2018;" horiz-adv-x="250" 
d="M333 706l-91 -153h56l-36 -154h-150l36 154l121 153h64z" />
    <glyph glyph-name="a" unicode="a" horiz-adv-x="479" 
d="M241 369h-152c23 93 35 124 84 149c37 19 88 28 144 28c92 0 187 -23 187 -117c0 -20 -4 -40 -9 -60l-70 -303c-2 -9 -4 -21 -4 -29c0 -24 8 -31 15 -37h-182l14 56c-36 -31 -81 -70 -144 -70c-11 0 -106 0 -106 97c0 33 21 127 54 165s81 52 268 106c5 21 12 55 12 63
c0 28 -26 30 -43 30c-45 0 -53 -24 -68 -78zM284 122l33 129c-36 -11 -82 -25 -101 -40c-26 -21 -33 -78 -33 -88c0 -18 8 -33 35 -33c28 0 49 17 66 32z" />
    <glyph glyph-name="b" unicode="b" 
d="M16 0l163 706h162l-52 -227c34 45 67 70 125 70c68 0 111 -43 111 -111c0 -58 -52 -300 -77 -351c-31 -63 -76 -100 -149 -100c-52 0 -86 25 -107 72l-14 -59h-162zM310 152l48 208c3 14 7 27 7 41c0 26 -18 40 -43 40c-29 0 -46 -16 -52 -41l-57 -246
c-2 -7 -2 -13 -2 -20c0 -24 19 -39 42 -39c34 0 50 27 57 57z" />
    <glyph glyph-name="c" unicode="c" horiz-adv-x="489" 
d="M504 336h-154c6 22 14 45 14 68s-17 36 -39 36c-45 0 -57 -32 -66 -70l-49 -210c-2 -7 -3 -18 -3 -25c0 -25 18 -40 43 -40c46 0 57 50 65 91h161c-21 -101 -55 -200 -228 -200c-93 0 -195 34 -195 144c0 55 24 139 39 202c8 34 15 69 29 102c39 94 116 114 210 114
c88 0 186 -33 186 -137c0 -26 -7 -50 -13 -75z" />
    <glyph glyph-name="d" unicode="d" 
d="M595 706l-163 -706h-161l16 65c-34 -42 -72 -74 -129 -74c-68 0 -114 42 -114 110c0 33 17 111 29 161l32 130c28 114 77 157 158 157c47 0 101 -22 119 -69l52 226h161zM309 166l48 207c2 9 4 19 4 28c0 26 -16 41 -42 41c-40 0 -51 -37 -58 -69l-46 -200
c-3 -14 -7 -28 -7 -43c0 -25 17 -39 41 -39c42 0 52 42 60 75z" />
    <glyph glyph-name="e" unicode="e" 
d="M482 230h-256c-8 -32 -18 -67 -18 -98c0 -27 24 -36 47 -36c44 0 53 34 62 77h162c-27 -153 -121 -187 -231 -187c-101 0 -194 33 -194 142c0 50 34 220 68 310c31 82 116 111 201 111c89 0 194 -21 194 -130c0 -36 -21 -129 -35 -189zM248 328h103c5 24 14 58 14 73
c0 29 -18 41 -45 41c-57 0 -59 -52 -72 -114z" />
    <glyph glyph-name="f" unicode="f" horiz-adv-x="313" 
d="M403 536l-23 -97h-70l-101 -439h-160l101 439h-64l22 97h65l5 24c23 111 37 150 174 150c32 0 63 -1 95 -3l-23 -98h-24c-48 0 -53 -12 -61 -47l-6 -26h70z" />
    <glyph glyph-name="g" unicode="g" 
d="M398 536h161l-131 -566c-22 -93 -46 -212 -239 -212c-87 0 -196 24 -196 132c0 19 4 37 9 55h158c-4 -17 -9 -34 -9 -51c0 -26 18 -37 42 -37s47 5 62 67l34 141c-34 -43 -72 -74 -130 -74c-74 0 -109 47 -109 117s50 270 79 335c31 70 73 105 143 105
c52 0 97 -25 111 -76zM312 163l51 222c1 5 2 11 2 16c0 35 -27 41 -43 41c-23 0 -49 -10 -62 -65l-44 -189c-3 -13 -7 -34 -7 -48c0 -41 29 -43 40 -43c38 0 56 34 63 66z" />
    <glyph glyph-name="h" unicode="h" 
d="M182 706h159l-53 -230c34 42 74 70 130 70c64 0 110 -35 110 -102c0 -15 -2 -29 -6 -45l-91 -399h-159l87 377c2 8 3 17 3 25c0 25 -17 41 -42 41c-32 0 -44 -20 -51 -49l-91 -394h-159z" />
    <glyph glyph-name="i" unicode="i" horiz-adv-x="250" 
d="M341 706l-28 -120h-159l28 120h159zM301 536l-124 -536h-158l123 536h159z" />
    <glyph glyph-name="j" unicode="j" horiz-adv-x="250" 
d="M341 706l-27 -119h-158l28 119h157zM302 536l-134 -580c-31 -134 -67 -153 -202 -153h-62l24 105h14c39 0 57 3 69 53l133 575h158z" />
    <glyph glyph-name="k" unicode="k" 
d="M601 536l-208 -231l92 -305h-164l-76 288l-66 -288h-159l163 706h159l-86 -372l166 202h179z" />
    <glyph glyph-name="l" unicode="l" horiz-adv-x="250" 
d="M342 706l-163 -706h-160l163 706h160z" />
    <glyph glyph-name="m" unicode="m" horiz-adv-x="771" 
d="M143 536h161l-14 -62c29 47 90 74 144 74c47 0 95 -22 101 -74c38 48 96 75 157 75c58 0 110 -27 110 -91c0 -16 -3 -33 -6 -47l-95 -411h-162l88 380c1 6 2 14 2 21c0 25 -16 41 -41 41c-37 0 -51 -30 -58 -61l-88 -381h-163l89 386c1 5 3 13 3 20c0 25 -19 40 -42 40
c-36 0 -53 -28 -60 -60l-89 -386h-160z" />
    <glyph glyph-name="n" unicode="n" 
d="M143 536h157l-13 -53c36 38 87 65 142 65c63 0 100 -35 100 -98c0 -17 -3 -34 -7 -51l-92 -399h-159l86 377c1 5 3 15 3 21c0 32 -17 42 -37 42c-38 0 -52 -30 -60 -64l-87 -376h-156z" />
    <glyph glyph-name="o" unicode="o" 
d="M519 403c0 -56 -43 -234 -58 -280c-19 -56 -50 -135 -210 -135c-120 0 -197 41 -197 143c0 65 46 238 54 265c18 57 53 154 205 154c80 0 206 -13 206 -147zM313 168l48 214c1 4 3 14 3 21c0 27 -19 40 -43 40c-43 0 -51 -37 -57 -61l-50 -214c-2 -9 -4 -20 -4 -31
c0 -21 12 -41 43 -41c43 0 52 35 60 72z" />
    <glyph glyph-name="p" unicode="p" 
d="M143 536h161l-18 -68c38 49 73 79 138 79c66 0 108 -41 108 -107c0 -22 -3 -43 -8 -64l-52 -226c-20 -87 -54 -163 -157 -163c-57 0 -105 26 -118 85l-62 -265h-160zM312 150l48 209c3 14 8 30 8 46c0 24 -17 41 -41 41c-33 0 -49 -19 -56 -50l-51 -221
c-3 -13 -5 -26 -5 -39c0 -25 16 -42 41 -42c34 0 49 27 56 56z" />
    <glyph glyph-name="q" unicode="q" 
d="M554 536l-169 -733h-160l58 251c-34 -41 -69 -66 -124 -66c-66 0 -115 33 -115 104c0 61 53 296 77 353c27 64 70 104 142 104c56 0 99 -20 117 -76l14 63h160zM308 165l45 192c4 15 7 30 7 46c0 28 -18 41 -44 41c-19 0 -32 -10 -42 -25c-19 -28 -70 -247 -70 -285
c0 -25 15 -43 41 -43c44 0 55 39 63 74z" />
    <glyph glyph-name="r" unicode="r" horiz-adv-x="333" 
d="M144 536h158l-25 -107c40 79 74 102 161 116l-40 -148h-33c-98 0 -108 -55 -127 -136l-60 -261h-158z" />
    <glyph glyph-name="s" unicode="s" horiz-adv-x="458" 
d="M39 183h154c-5 -16 -11 -35 -11 -53c0 -28 23 -34 40 -34c40 0 52 32 52 61c0 23 -5 27 -44 56l-78 58c-39 29 -59 61 -59 99c0 31 15 77 27 99c29 52 97 79 184 79c105 0 186 -41 186 -123c0 -19 -4 -37 -8 -55h-151c3 10 9 32 9 43c0 4 -1 30 -40 30
c-29 0 -48 -20 -48 -52c0 -18 11 -30 31 -44l65 -47c59 -42 93 -65 93 -121c0 -32 -10 -89 -41 -127c-26 -32 -81 -63 -175 -63c-109 0 -198 33 -198 126c0 25 6 48 12 68z" />
    <glyph glyph-name="t" unicode="t" horiz-adv-x="313" 
d="M394 536l-22 -97h-70l-65 -278c-2 -10 -4 -20 -4 -30c0 -26 23 -29 44 -29h21l-23 -102h-78c-56 0 -135 8 -135 80c0 18 5 36 9 53l74 306h-65l22 97h66l39 170h157l-40 -170h70z" />
    <glyph glyph-name="u" unicode="u" 
d="M556 536l-124 -536h-160l12 56c-39 -42 -78 -66 -137 -66c-65 0 -104 34 -104 101c0 19 4 38 8 56l89 389h162l-81 -350c-4 -17 -9 -34 -9 -51c0 -23 15 -39 38 -39c44 0 56 52 64 86l81 354h161z" />
    <glyph glyph-name="v" unicode="v" horiz-adv-x="437" 
d="M537 536l-240 -536h-215s8 369 12 536h155l-33 -407l154 407h167z" />
    <glyph glyph-name="w" unicode="w" horiz-adv-x="729" 
d="M96 536h154s-16 -299 -24 -391l140 391h180s-12 -246 -24 -386l142 386h166l-242 -536h-172s5 271 8 379l-145 -379h-176c-3 204 -7 536 -7 536z" />
    <glyph glyph-name="x" unicode="x" horiz-adv-x="458" 
d="M543 536l-181 -269l72 -267h-156l-34 156l-93 -156h-175l201 286l-72 250h158l30 -146l84 146h166z" />
    <glyph glyph-name="y" unicode="y" horiz-adv-x="437" 
d="M364 536h173l-217 -495c-75 -172 -101 -237 -293 -237h-85l22 119h36c51 0 77 1 79 62c0 0 15 510 16 551h159l-43 -451z" />
    <glyph glyph-name="z" unicode="z" horiz-adv-x="417" 
d="M487 536l-23 -98l-265 -330h206l-25 -108h-398l23 103l270 332h-181l23 101h370z" />
    <glyph glyph-name="braceleft" unicode="{" horiz-adv-x="396" 
d="M509 707l-17 -74h-16c-60 0 -73 -8 -95 -106l-24 -108c-19 -85 -42 -159 -149 -169l-2 -6c54 -17 80 -42 80 -96c0 -24 -6 -61 -15 -100l-18 -76c-6 -25 -9 -48 -9 -57c0 -30 12 -43 72 -43l-17 -73h-20c-124 0 -168 36 -168 109c0 20 4 47 13 84l24 99c6 24 8 43 8 58
c0 40 -16 57 -63 67l20 86c68 6 90 32 114 133l24 101c36 151 74 171 233 171h25z" />
    <glyph glyph-name="bar" unicode="|" horiz-adv-x="229" 
d="M313 707l-210 -906h-127l210 906h127z" />
    <glyph glyph-name="braceright" unicode="}" horiz-adv-x="396" 
d="M-49 -200l16 74h16c62 0 73 8 95 106l25 109c20 88 41 155 148 167l2 7c-54 15 -79 42 -79 96c0 24 5 61 14 100l18 76c6 25 10 48 10 57c0 30 -13 43 -73 43l17 73h40c112 0 148 -48 148 -109c0 -20 -4 -47 -13 -84l-23 -99c-5 -21 -9 -41 -9 -62c0 -29 14 -56 63 -63
l-20 -86c-68 -6 -89 -32 -113 -133l-24 -101c-20 -86 -35 -117 -73 -143c-32 -22 -65 -28 -161 -28h-24z" />
    <glyph glyph-name="asciitilde" unicode="~" horiz-adv-x="559" 
d="M515 399l23 -124c-55 -50 -93 -69 -135 -69c-24 0 -45 7 -84 27l-23 12c-29 15 -50 21 -70 21c-28 0 -48 -9 -86 -47l-9 -9l-22 126c50 50 81 69 131 69c26 0 43 -5 79 -23l41 -20c31 -15 39 -18 54 -18c30 0 53 12 101 55z" />
    <glyph glyph-name="exclamdown" unicode="&#xa1;" horiz-adv-x="292" 
d="M167 0h-148l30 127c5 21 26 86 36 117l73 233h91l-33 -227c-6 -38 -11 -91 -16 -114zM147 553l35 152h148l-35 -152h-148z" />
    <glyph glyph-name="cent" unicode="&#xa2;" horiz-adv-x="479" 
d="M329 655h78l-27 -113c78 -9 137 -50 137 -134c0 -25 -5 -48 -13 -72h-154c6 22 14 48 14 68c0 23 -17 36 -39 36c-46 0 -57 -30 -66 -70l-50 -214c-2 -7 -2 -13 -2 -20c0 -25 16 -41 43 -41c45 0 55 43 65 91h161c-26 -147 -97 -200 -224 -200l-30 -128h-77l31 136
c-73 15 -123 56 -123 136c0 47 22 134 36 194c37 157 71 214 214 221z" />
    <glyph glyph-name="sterling" unicode="&#xa3;" horiz-adv-x="646" 
d="M579 367l-13 -57h-177c4 -22 8 -44 8 -67c0 -37 -12 -71 -26 -104c13 -8 27 -16 43 -16c50 0 57 59 71 113h156l-8 -35c-25 -110 -49 -213 -176 -213c-59 0 -101 23 -141 65c-42 -44 -93 -65 -154 -65c-74 0 -144 39 -144 121c0 79 64 133 141 133c46 0 75 -11 113 -37
v19c0 33 -7 56 -18 86h-155l13 57h124c-11 43 -21 86 -21 130c0 154 85 222 234 222c92 0 200 -25 200 -138c0 -39 -12 -76 -20 -113h-152c7 28 18 73 18 87c0 33 -19 48 -51 48c-60 0 -75 -88 -75 -150c0 -29 6 -58 11 -86h199zM253 116c-23 28 -48 50 -85 50
c-32 0 -58 -17 -58 -52c0 -32 30 -48 59 -48c37 0 62 24 84 50z" />
    <glyph glyph-name="fraction" unicode="&#x2044;" horiz-adv-x="125" 
d="M-100 0l348 706h79l-348 -706h-79z" />
    <glyph glyph-name="yen" unicode="&#xa5;" horiz-adv-x="521" 
d="M655 706l-168 -274h73l-23 -93h-110l-37 -63h130l-20 -93h-150l-41 -183h-170l42 183h-147l24 93h132l-8 63h-110l23 93h74l-40 274h167l23 -291l145 291h191z" />
    <glyph glyph-name="florin" unicode="&#x192;" horiz-adv-x="333" 
d="M457 707l-23 -98h-15c-59 0 -60 -4 -75 -63l-2 -10h70l-23 -97h-70l-116 -493c-25 -108 -63 -122 -167 -122c-32 0 -64 1 -95 3l23 98h29c44 0 49 8 63 68l105 446h-66l23 97h64l6 26c25 109 37 148 175 148c31 0 63 -1 94 -3z" />
    <glyph glyph-name="section" unicode="&#xa7;" horiz-adv-x="458" 
d="M517 635l-74 -80c-32 29 -68 58 -113 58c-17 0 -41 -5 -41 -27c0 -48 189 -101 189 -223c0 -62 -36 -111 -93 -138c23 -28 39 -55 39 -93c0 -103 -93 -144 -183 -144c-91 0 -164 36 -220 108l78 81c34 -36 76 -77 129 -77c18 0 43 7 43 29c0 51 -184 101 -184 227
c0 66 35 105 93 130c-28 26 -44 53 -44 92c0 96 94 141 180 141c82 0 145 -27 201 -84zM224 448c-7 -8 -25 -24 -25 -48c0 -45 69 -75 141 -134c14 12 29 25 29 47c0 33 -40 55 -145 135z" />
    <glyph glyph-name="currency" unicode="&#xa4;" horiz-adv-x="687" 
d="M729 550l-86 -76c17 -38 24 -67 24 -101c0 -70 -20 -132 -60 -188l68 -84l-107 -93l-68 84c-47 -24 -82 -33 -130 -33c-58 0 -95 12 -146 48l-87 -77l-82 102l87 76c-18 39 -25 70 -25 108c0 64 22 129 60 178l-67 83l106 93l66 -82c44 23 87 34 134 34
c54 0 93 -13 144 -48l87 77zM522 356c0 77 -49 131 -119 131c-79 0 -140 -71 -140 -162c0 -76 49 -131 116 -131c79 0 143 72 143 162z" />
    <glyph glyph-name="quotesingle" unicode="'" horiz-adv-x="150" 
d="M279 741l-110 -288h-36l24 288h122z" />
    <glyph glyph-name="quotedblleft" unicode="&#x201c;" horiz-adv-x="437" 
d="M530 706l-91 -156h55l-35 -151h-149l34 151l120 156h66zM328 706l-89 -156h53l-35 -151h-149l35 151l116 156h69z" />
    <glyph glyph-name="guillemotleft" unicode="&#xab;" horiz-adv-x="437" 
d="M473 487l-34 -145l-81 -57l55 -57l-30 -127l-130 127l29 127zM273 487l-33 -144l-83 -57l56 -58l-29 -125l-131 125l30 128z" />
    <glyph glyph-name="guilsinglleft" unicode="&#x2039;" horiz-adv-x="229" 
d="M269 485l-34 -146l-84 -56l59 -58l-30 -125l-132 125l31 128z" />
    <glyph glyph-name="guilsinglright" unicode="&#x203a;" horiz-adv-x="229" 
d="M252 359l-30 -127l-190 -132l33 146l84 55l-57 58l29 126z" />
    <glyph glyph-name="endash" unicode="&#x2013;" horiz-adv-x="493" 
d="M517 357l-28 -122h-437l28 122h437z" />
    <glyph glyph-name="dagger" unicode="&#x2020;" horiz-adv-x="437" 
d="M502 379h-153l-114 -492h-157l114 492h-153l31 133h153l44 194h157l-44 -194h153z" />
    <glyph glyph-name="daggerdbl" unicode="&#x2021;" horiz-adv-x="458" 
d="M453 79h-153l-45 -192h-157l45 192h-153l30 133h153l44 187h-153l30 133h153l40 174h157l-40 -174h153l-30 -133h-153l-44 -187h153z" />
    <glyph glyph-name="periodcentered" unicode="&#xb7;" horiz-adv-x="250" 
d="M251 372l-36 -152h-149l35 152h150z" />
    <glyph glyph-name="paragraph" unicode="&#xb6;" horiz-adv-x="574" 
d="M643 706l-21 -88h-36l-181 -786h-95l182 786h-83l-181 -785h-97l108 468c-78 34 -115 83 -115 168c0 73 31 140 83 182c50 40 112 55 228 55h208z" />
    <glyph glyph-name="bullet" unicode="&#x2022;" horiz-adv-x="333" 
d="M362 471l-57 -246h-234l57 246h234z" />
    <glyph glyph-name="quotesinglbase" unicode="&#x201a;" horiz-adv-x="250" 
d="M205 152l-36 -152l-122 -156h-64l91 156h-55l35 152h151z" />
    <glyph glyph-name="quotedblbase" unicode="&#x201e;" horiz-adv-x="437" 
d="M396 153l-35 -153l-116 -154h-68l88 154h-53l36 153h148zM195 153l-36 -153l-118 -154h-67l91 154h-55l35 153h150z" />
    <glyph glyph-name="quotedblright" unicode="&#x201d;" horiz-adv-x="437" 
d="M534 706l-35 -151l-116 -155h-69l90 155h-54l35 151h149zM333 706l-35 -151l-120 -155h-66l91 155h-55l35 151h150z" />
    <glyph glyph-name="guillemotright" unicode="&#xbb;" horiz-adv-x="437" 
d="M457 361l-30 -128l-189 -130l33 143l83 57l-57 58l30 125zM258 361l-30 -128l-190 -131l33 143l82 60l-55 56l30 128z" />
    <glyph glyph-name="ellipsis" unicode="&#x2026;" horiz-adv-x="1000" 
d="M896 133l-31 -133h-120l31 133h120zM563 133l-30 -133h-120l30 133h120zM230 133l-31 -133h-120l31 133h120z" />
    <glyph glyph-name="perthousand" unicode="&#x2030;" horiz-adv-x="1126" 
d="M661 706l-349 -706h-79l348 706h80zM404 572l-48 -205c-20 -85 -58 -112 -144 -112c-63 0 -126 20 -126 95c0 21 3 41 8 61l42 182c21 89 59 123 151 123c64 0 123 -22 123 -96c0 -16 -2 -32 -6 -48zM261 386l45 195c3 13 6 21 6 32c0 19 -14 26 -31 26
c-35 0 -41 -31 -47 -58l-45 -194c-2 -9 -5 -17 -5 -26c0 -20 15 -25 32 -25c33 0 39 23 45 50zM801 307l-47 -205c-19 -85 -61 -112 -144 -112c-63 0 -127 20 -127 95c0 21 5 42 9 61l42 183c22 97 69 122 151 122c64 0 122 -22 122 -96c0 -16 -2 -32 -6 -48zM659 121
l45 195c3 13 6 21 6 32c0 19 -14 26 -31 26c-35 0 -41 -31 -47 -58l-45 -194c-2 -9 -5 -17 -5 -26c0 -20 15 -25 32 -25c33 0 39 23 45 50zM1135 307l-47 -205c-19 -85 -61 -112 -144 -112c-63 0 -127 20 -127 95c0 21 5 42 9 61l42 183c22 96 69 122 151 122
c64 0 122 -22 122 -96c0 -16 -2 -32 -6 -48zM993 121l45 195c3 13 6 21 6 32c0 19 -14 26 -31 26c-35 0 -41 -31 -47 -58l-45 -194c-2 -9 -5 -17 -5 -26c0 -20 15 -25 32 -25c33 0 39 23 45 50z" />
    <glyph glyph-name="questiondown" unicode="&#xbf;" horiz-adv-x="458" 
d="M263 476h150c-10 -45 -19 -107 -48 -143c-61 -74 -192 -90 -192 -204c0 -23 14 -37 37 -37c39 0 48 17 64 94l3 15h146l-4 -18c-28 -127 -44 -196 -218 -196c-86 0 -177 23 -177 127c0 28 6 55 14 82c15 52 27 69 73 101l68 47c64 44 70 56 84 132zM281 554l36 153h150
l-36 -153h-150z" />
    <glyph glyph-name="grave" unicode="`" horiz-adv-x="250" 
d="M257 606h-122l-141 124h168z" />
    <glyph glyph-name="acute" unicode="&#xb4;" horiz-adv-x="250" 
d="M255 730l-138 -125h-121l93 125h166z" />
    <glyph glyph-name="circumflex" unicode="&#x2c6;" horiz-adv-x="250" 
d="M291 605h-105l-37 62l-67 -62h-122l134 125h126z" />
    <glyph glyph-name="tilde" unicode="&#x2dc;" horiz-adv-x="250" 
d="M243 729h45c-11 -65 -35 -119 -110 -119c-49 0 -91 35 -132 35c-21 0 -32 -12 -40 -30h-44c8 65 30 117 105 117c47 0 87 -32 133 -32c20 0 35 11 43 29z" />
    <glyph glyph-name="macron" unicode="&#xaf;" horiz-adv-x="250" 
d="M293 697l-19 -87h-317l20 87h316z" />
    <glyph glyph-name="breve" unicode="&#x2d8;" horiz-adv-x="250" 
d="M200 727h70c-18 -78 -81 -122 -164 -122c-57 0 -126 33 -126 98c0 8 1 16 2 24h68c0 -36 32 -43 61 -43c37 0 74 3 89 43z" />
    <glyph glyph-name="dotaccent" unicode="&#x2d9;" horiz-adv-x="250" 
d="M209 729l-29 -125h-139l29 125h139z" />
    <glyph glyph-name="dieresis" unicode="&#xa8;" horiz-adv-x="250" 
d="M320 729l-28 -125h-141l29 125h140zM99 729l-29 -125h-139l29 125h139z" />
    <glyph glyph-name="ring" unicode="&#x2da;" horiz-adv-x="250" 
d="M162 682c0 20 -17 37 -37 37s-37 -17 -37 -37s17 -37 37 -37s37 17 37 37zM224 682c0 -52 -43 -99 -100 -99c-54 0 -98 45 -98 99s44 99 99 99c54 0 99 -45 99 -99z" />
    <glyph glyph-name="cedilla" unicode="&#xb8;" horiz-adv-x="250" 
d="M124 0h82l-48 -56c40 -5 72 -21 72 -66c0 -65 -62 -96 -120 -96c-35 0 -59 10 -90 26v45c19 -7 38 -15 58 -15c27 0 51 18 51 46c0 22 -19 36 -40 36c-6 0 -12 -1 -18 -2l-5 26z" />
    <glyph glyph-name="hungarumlaut" unicode="&#x2dd;" horiz-adv-x="250" 
d="M351 725l-140 -120h-117l94 120h163zM152 725l-138 -120h-115l94 120h159z" />
    <glyph glyph-name="ogonek" unicode="&#x2db;" horiz-adv-x="250" 
d="M89 0h101c-14 -16 -43 -46 -43 -68c0 -19 28 -20 41 -20c10 0 20 0 30 2l-25 -104c-14 -2 -29 -3 -43 -3c-51 0 -118 10 -118 75c0 44 33 84 57 118z" />
    <glyph glyph-name="caron" unicode="&#x2c7;" horiz-adv-x="250" 
d="M291 730l-133 -125h-127l-71 125h105l38 -62l66 62h122z" />
    <glyph glyph-name="emdash" unicode="&#x2014;" horiz-adv-x="664" 
d="M688 357l-29 -122h-607l28 122h608z" />
    <glyph glyph-name="AE" unicode="&#xc6;" horiz-adv-x="792" 
d="M893 706l-29 -121h-182l-38 -164h172l-28 -121h-172l-41 -178h200l-28 -122h-370l46 196h-137l-103 -196h-193l409 706h494zM524 630l-172 -313h99z" />
    <glyph glyph-name="ordfeminine" unicode="&#xaa;" horiz-adv-x="313" 
d="M232 603h-97c12 48 17 64 29 77c22 24 68 35 113 35s118 -9 118 -73c0 -13 -2 -26 -5 -38l-44 -192c-1 -5 -2 -11 -2 -16c0 -10 2 -16 11 -23h-118l7 32c-25 -22 -52 -41 -86 -41c-37 0 -67 20 -67 61c0 31 16 90 40 112c27 25 120 48 160 59c2 10 7 29 7 38
c0 15 -15 17 -27 17c-25 0 -35 -22 -39 -48zM256 451l20 77c-22 -6 -49 -14 -60 -23c-15 -12 -20 -46 -20 -54c0 -12 7 -19 21 -19c15 0 26 8 39 19z" />
    <glyph glyph-name="Lslash" unicode="&#x141;" horiz-adv-x="396" 
d="M436 588l-33 -139l-127 -91l-55 -238h181l-28 -120h-352l49 211l-63 -45l32 140l63 44l82 356h171l-48 -209z" />
    <glyph glyph-name="Oslash" unicode="&#xd8;" horiz-adv-x="542" 
d="M653 658l-54 -59c1 -9 2 -19 2 -28c0 -45 -19 -131 -34 -190c-7 -30 -55 -214 -63 -243c-31 -111 -103 -150 -217 -150c-73 0 -140 3 -196 55l-38 -39l-42 39l51 56c-2 15 -4 31 -4 46c0 26 4 51 9 76c24 113 49 225 83 334c39 126 98 163 230 163c74 0 137 -8 194 -60
l37 40zM238 290l199 219c2 12 3 24 3 36c0 54 -53 54 -59 54c-59 0 -74 -50 -103 -158zM415 399l-195 -214c-1 -7 -2 -15 -2 -22c0 -42 33 -54 58 -54c53 0 72 44 90 110z" />
    <glyph glyph-name="OE" unicode="&#x152;" horiz-adv-x="708" 
d="M816 706l-28 -121h-179l-38 -162h169l-29 -123h-168l-41 -177h194l-28 -123h-366l10 44c-34 -42 -70 -56 -123 -56c-88 0 -137 42 -137 132c0 66 36 214 62 313c15 55 28 111 48 164c30 79 65 122 164 122c51 0 93 -10 131 -48l8 35h351zM367 274l52 226c5 20 9 42 9 60
c0 32 -22 44 -49 44c-50 0 -58 -30 -92 -168c-14 -56 -61 -251 -61 -293c0 -33 26 -43 44 -43c57 0 66 40 97 174z" />
    <glyph glyph-name="ordmasculine" unicode="&#xba;" horiz-adv-x="313" 
d="M103 454c0 36 28 146 33 164c12 38 33 97 128 97c41 0 130 -4 130 -92c0 -33 -28 -157 -43 -192c-10 -24 -32 -68 -125 -68c-66 0 -123 19 -123 91zM236 609l-31 -133c-2 -8 -3 -12 -3 -19c0 -13 6 -24 25 -24c25 0 30 18 35 41l31 136c1 4 2 8 2 13c0 20 -18 23 -26 23
c-18 0 -27 -10 -33 -37z" />
    <glyph glyph-name="ae" unicode="&#xe6;" horiz-adv-x="729" 
d="M716 238h-252c-7 -34 -17 -67 -18 -102c0 -26 14 -39 41 -39c47 0 53 46 62 80h163c-30 -143 -109 -190 -230 -190c-59 0 -139 13 -164 75c-35 -56 -105 -76 -169 -76c-71 0 -130 30 -130 106c0 27 8 56 15 81c29 98 71 109 164 137l133 40c4 19 12 49 12 59
c0 26 -17 38 -41 38c-44 0 -53 -37 -62 -72l-3 -10h-153l5 21c21 87 47 163 213 163c50 0 104 -12 134 -55c34 43 88 55 140 55c86 0 172 -32 172 -132c0 -42 -19 -120 -32 -179zM485 332h97c4 18 14 57 14 71c0 29 -19 39 -43 39c-51 0 -54 -52 -68 -110zM277 118l30 130
c-81 -27 -95 -31 -111 -59c-9 -17 -17 -48 -17 -63c0 -25 14 -38 37 -38c30 0 47 16 61 30z" />
    <glyph glyph-name="dotlessi" unicode="&#x131;" horiz-adv-x="250" 
d="M302 536l-124 -536h-159l123 536h160z" />
    <glyph glyph-name="lslash" unicode="&#x142;" horiz-adv-x="250" 
d="M345 543l-27 -121l-49 -33l-90 -389h-160l61 263l-49 -33l28 122l49 33l74 321h160l-45 -195z" />
    <glyph glyph-name="oslash" unicode="&#xf8;" 
d="M537 540l-42 -50c20 -28 26 -45 26 -82c0 -54 -23 -143 -40 -205c-10 -36 -17 -72 -32 -106c-41 -90 -107 -110 -200 -110c-48 0 -112 8 -150 38l-41 -47l-36 31l44 52c-12 22 -15 46 -15 70c0 44 18 121 33 179c37 139 64 239 232 239c52 0 100 -7 140 -30l44 51z
M205 221l167 199c-9 21 -27 29 -48 29c-40 0 -58 -34 -69 -68zM371 344l-179 -211c3 -29 22 -46 52 -46c22 0 36 7 50 23c25 28 65 189 77 234z" />
    <glyph glyph-name="oe" unicode="&#x153;" horiz-adv-x="750" 
d="M574 174h162c-33 -129 -82 -186 -221 -186c-52 0 -107 9 -136 58c-37 -43 -100 -59 -155 -59c-91 0 -170 39 -170 140c0 52 24 148 39 214c8 35 16 71 31 104c38 80 112 106 196 106c52 0 103 -11 135 -57c43 44 96 55 155 55c82 0 167 -33 167 -128
c0 -41 -22 -127 -35 -185h-252c-8 -34 -21 -86 -21 -102c0 -23 19 -36 40 -36c49 0 56 37 65 76zM510 330h99c6 25 14 60 14 75c0 37 -31 39 -41 39c-50 0 -58 -46 -72 -114zM307 152l50 212c3 14 6 29 6 41c0 37 -32 37 -43 37c-39 0 -51 -32 -62 -78l-46 -197
c-4 -17 -4 -27 -4 -31c0 -28 22 -39 42 -39c45 0 53 36 57 55z" />
    <glyph glyph-name="germandbls" unicode="&#xdf;" horiz-adv-x="521" 
d="M178 0h-160l127 550c32 138 95 169 224 169c76 0 196 -19 196 -118c0 -37 -19 -128 -37 -160c-19 -33 -50 -47 -86 -52c44 -11 76 -37 76 -85c0 -41 -37 -194 -55 -231c-31 -64 -91 -79 -157 -79c-34 0 -68 3 -102 6l20 87c13 -2 26 -4 39 -4c54 0 56 45 66 86
c11 46 30 127 30 144c0 34 -34 40 -63 40h-5l22 98h23c17 0 34 1 47 14c16 15 31 88 31 111c0 30 -23 36 -48 36c-44 0 -52 -27 -61 -64z" />
    <glyph glyph-name="Euro" unicode="&#x20ac;" horiz-adv-x="542" 
d="M604 649l-73 -137c-24 36 -53 62 -98 62c-64 0 -82 -83 -93 -133h158l-35 -66h-138l-10 -44h129l-34 -65h-110c-8 -26 -13 -50 -13 -78c0 -53 28 -70 78 -70c51 0 99 16 140 47l-37 -154c-51 -20 -105 -25 -159 -25c-107 0 -200 37 -200 158c0 41 11 83 19 122h-66l35 65
h46l10 44h-61l34 66h42l18 82c29 133 108 196 244 196c71 0 123 -19 174 -70z" />
    <glyph glyph-name="Ydieresis" unicode="&#x178;" horiz-adv-x="521" 
d="M606 876l-29 -125h-140l29 125h140zM384 876l-28 -125h-139l28 125h139zM655 706l-294 -476l-53 -230h-169l56 244l-66 462h167l24 -288l144 288h191z" />
    <glyph glyph-name="trademark" unicode="&#x2122;" horiz-adv-x="642" 
d="M728 706l-77 -332h-84l60 253l-104 -253h-71c3 92 5 257 5 257l-57 -257h-82l77 332h125c0 -107 -3 -189 -3 -189l85 189h126zM370 706l-15 -68h-69l-61 -264h-90l61 264h-72l16 68h230z" />
    <glyph glyph-name="zcaron" unicode="&#x17e;" horiz-adv-x="417" 
d="M487 536l-23 -98l-265 -330h206l-25 -108h-398l23 103l270 332h-181l23 101h370zM499 730l-133 -125h-127l-71 125h105l38 -62l66 62h122z" />
    <glyph glyph-name="Zcaron" unicode="&#x17d;" horiz-adv-x="479" 
d="M572 878l-133 -125h-126l-72 125h105l37 -62l67 62h122zM576 706l-30 -130l-352 -446h249l-30 -130h-439l30 130l356 453h-238l29 123h425z" />
    <glyph glyph-name="scaron" unicode="&#x161;" horiz-adv-x="458" 
d="M39 183h154c-5 -16 -11 -35 -11 -53c0 -28 23 -34 40 -34c40 0 52 32 52 61c0 23 -5 27 -44 56l-78 58c-39 29 -59 61 -59 99c0 31 15 77 27 99c29 52 97 79 184 79c105 0 186 -41 186 -123c0 -19 -4 -37 -8 -55h-151c3 10 9 32 9 43c0 4 -1 30 -40 30
c-29 0 -48 -20 -48 -52c0 -18 11 -30 31 -44l65 -47c59 -42 93 -65 93 -121c0 -32 -10 -89 -41 -127c-26 -32 -81 -63 -175 -63c-109 0 -198 33 -198 126c0 25 6 48 12 68zM530 730l-133 -125h-127l-71 125h105l38 -62l66 62h122z" />
    <glyph glyph-name="Scaron" unicode="&#x160;" horiz-adv-x="521" 
d="M598 878l-133 -125h-126l-72 125h105l37 -62l67 62h122zM558 482h-163c6 24 16 55 16 76c0 27 -21 40 -48 40c-50 0 -65 -65 -65 -103c0 -28 16 -42 41 -61l91 -70c37 -28 83 -63 83 -123c0 -51 -26 -147 -59 -187c-45 -54 -126 -66 -197 -66c-94 0 -219 18 -219 138
c0 40 12 81 21 117h170c-5 -20 -19 -67 -19 -91c0 -32 20 -46 56 -46c62 0 70 88 70 106c0 32 -24 51 -47 68l-81 61c-51 38 -79 62 -79 122c0 55 34 161 67 200c41 49 108 55 168 55c91 0 212 -14 212 -132c0 -35 -10 -70 -18 -104z" />
    <glyph glyph-name="ydieresis" unicode="&#xff;" horiz-adv-x="437" 
d="M364 536h173l-217 -495c-75 -172 -101 -237 -293 -237h-85l22 119h36c51 0 77 1 79 62c0 0 15 510 16 551h159l-43 -451zM533 729l-28 -125h-141l29 125h140zM312 729l-29 -125h-139l29 125h139z" />
    <glyph glyph-name="thorn" unicode="&#xfe;" 
d="M182 706h161l-57 -238c38 49 73 79 138 79c66 0 108 -41 108 -107c0 -22 -3 -43 -8 -64l-52 -226c-20 -87 -54 -163 -157 -163c-57 0 -105 26 -118 85l-62 -265h-160zM271 396l-51 -221c-3 -13 -5 -26 -5 -39c0 -25 16 -42 41 -42c34 0 49 27 56 56l48 209
c4 17 8 35 8 46c0 24 -17 41 -41 41c-33 0 -49 -19 -56 -50z" />
    <glyph glyph-name="yacute" unicode="&#xfd;" horiz-adv-x="437" 
d="M364 536h173l-217 -495c-75 -172 -101 -237 -293 -237h-85l22 119h36c51 0 77 1 79 62c0 0 15 510 16 551h159l-43 -451zM505 730l-138 -125h-121l93 125h166z" />
    <glyph glyph-name="udieresis" unicode="&#xfc;" 
d="M556 536l-124 -536h-160l12 56c-39 -42 -78 -66 -137 -66c-65 0 -104 34 -104 101c0 19 4 38 8 56l89 389h162l-81 -350c-4 -17 -9 -34 -9 -51c0 -23 15 -39 38 -39c44 0 56 52 64 86l81 354h161zM572 729l-28 -125h-141l29 125h140zM351 729l-29 -125h-139l29 125h139z
" />
    <glyph glyph-name="ucircumflex" unicode="&#xfb;" 
d="M556 536l-124 -536h-160l12 56c-39 -42 -78 -66 -137 -66c-65 0 -104 34 -104 101c0 19 4 38 8 56l89 389h162l-81 -350c-4 -17 -9 -34 -9 -51c0 -23 15 -39 38 -39c44 0 56 52 64 86l81 354h161zM517 605h-105l-37 62l-67 -62h-122l134 125h126z" />
    <glyph glyph-name="uacute" unicode="&#xfa;" 
d="M556 536l-124 -536h-160l12 56c-39 -42 -78 -66 -137 -66c-65 0 -104 34 -104 101c0 19 4 38 8 56l89 389h162l-81 -350c-4 -17 -9 -34 -9 -51c0 -23 15 -39 38 -39c44 0 56 52 64 86l81 354h161zM536 730l-138 -125h-121l93 125h166z" />
    <glyph glyph-name="ugrave" unicode="&#xf9;" 
d="M556 536l-124 -536h-160l12 56c-39 -42 -78 -66 -137 -66c-65 0 -104 34 -104 101c0 19 4 38 8 56l89 389h162l-81 -350c-4 -17 -9 -34 -9 -51c0 -23 15 -39 38 -39c44 0 56 52 64 86l81 354h161zM435 606h-122l-141 124h168z" />
    <glyph glyph-name="divide" unicode="&#xf7;" horiz-adv-x="559" 
d="M450 567l-35 -150h-139l35 150h139zM542 363l-29 -126h-419l29 126h419zM363 183l-35 -151h-139l34 151h140z" />
    <glyph glyph-name="odieresis" unicode="&#xf6;" 
d="M519 403c0 -56 -43 -234 -58 -280c-19 -56 -50 -135 -210 -135c-120 0 -197 41 -197 143c0 65 46 238 54 265c18 57 53 154 205 154c80 0 206 -13 206 -147zM313 168l48 214c1 4 3 14 3 21c0 27 -19 40 -43 40c-43 0 -51 -37 -57 -61l-50 -214c-2 -9 -4 -20 -4 -31
c0 -21 12 -41 43 -41c43 0 52 35 60 72zM566 729l-28 -125h-141l29 125h140zM345 729l-29 -125h-139l29 125h139z" />
    <glyph glyph-name="otilde" unicode="&#xf5;" 
d="M519 403c0 -56 -43 -234 -58 -280c-19 -56 -50 -135 -210 -135c-120 0 -197 41 -197 143c0 65 46 238 54 265c18 57 53 154 205 154c80 0 206 -13 206 -147zM313 168l48 214c1 4 3 14 3 21c0 27 -19 40 -43 40c-43 0 -51 -37 -57 -61l-50 -214c-2 -9 -4 -20 -4 -31
c0 -21 12 -41 43 -41c43 0 52 35 60 72zM490 729h45c-11 -65 -35 -119 -110 -119c-49 0 -91 35 -132 35c-21 0 -32 -12 -40 -30h-44c8 65 30 117 105 117c47 0 87 -32 133 -32c20 0 35 11 43 29z" />
    <glyph glyph-name="ocircumflex" unicode="&#xf4;" 
d="M519 403c0 -56 -43 -234 -58 -280c-19 -56 -50 -135 -210 -135c-120 0 -197 41 -197 143c0 65 46 238 54 265c18 57 53 154 205 154c80 0 206 -13 206 -147zM313 168l48 214c1 4 3 14 3 21c0 27 -19 40 -43 40c-43 0 -51 -37 -57 -61l-50 -214c-2 -9 -4 -20 -4 -31
c0 -21 12 -41 43 -41c43 0 52 35 60 72zM517 605h-105l-37 62l-67 -62h-122l134 125h126z" />
    <glyph glyph-name="oacute" unicode="&#xf3;" 
d="M519 403c0 -56 -43 -234 -58 -280c-19 -56 -50 -135 -210 -135c-120 0 -197 41 -197 143c0 65 46 238 54 265c18 57 53 154 205 154c80 0 206 -13 206 -147zM313 168l48 214c1 4 3 14 3 21c0 27 -19 40 -43 40c-43 0 -51 -37 -57 -61l-50 -214c-2 -9 -4 -20 -4 -31
c0 -21 12 -41 43 -41c43 0 52 35 60 72zM536 730l-138 -125h-121l93 125h166z" />
    <glyph glyph-name="ograve" unicode="&#xf2;" 
d="M519 403c0 -56 -43 -234 -58 -280c-19 -56 -50 -135 -210 -135c-120 0 -197 41 -197 143c0 65 46 238 54 265c18 57 53 154 205 154c80 0 206 -13 206 -147zM313 168l48 214c1 4 3 14 3 21c0 27 -19 40 -43 40c-43 0 -51 -37 -57 -61l-50 -214c-2 -9 -4 -20 -4 -31
c0 -21 12 -41 43 -41c43 0 52 35 60 72zM435 606h-122l-141 124h168z" />
    <glyph glyph-name="ntilde" unicode="&#xf1;" 
d="M143 536h157l-13 -53c36 38 87 65 142 65c63 0 100 -35 100 -98c0 -17 -3 -34 -7 -51l-92 -399h-159l86 377c1 5 3 15 3 21c0 32 -17 42 -37 42c-38 0 -52 -30 -60 -64l-87 -376h-156zM490 729h45c-11 -65 -35 -119 -110 -119c-49 0 -91 35 -132 35
c-21 0 -32 -12 -40 -30h-44c8 65 30 117 105 117c47 0 87 -32 133 -32c20 0 35 11 43 29z" />
    <glyph glyph-name="eth" unicode="&#xf0;" 
d="M546 655l-57 -17c24 -49 37 -99 37 -153c0 -106 -26 -216 -53 -318c-36 -137 -93 -179 -222 -179c-132 0 -197 44 -197 143c0 56 40 227 59 282c31 89 92 139 176 139c36 0 73 -11 97 -40c-2 39 -10 57 -26 91l-119 -34l-22 59l108 31c-7 12 -15 24 -24 34l126 39
c8 -13 20 -23 27 -37l67 20zM263 382l-49 -214c-2 -10 -5 -20 -5 -31c0 -26 18 -42 44 -42c42 0 50 34 59 72l49 215c2 7 3 15 3 22c0 25 -19 39 -43 39c-38 0 -50 -28 -58 -61z" />
    <glyph glyph-name="idieresis" unicode="&#xef;" horiz-adv-x="250" 
d="M302 536l-124 -536h-159l123 536h160zM439 729l-28 -125h-141l29 125h140zM218 729l-29 -125h-139l29 125h139z" />
    <glyph glyph-name="icircumflex" unicode="&#xee;" horiz-adv-x="250" 
d="M302 536l-124 -536h-159l123 536h160zM391 605h-105l-37 62l-67 -62h-122l134 125h126z" />
    <glyph glyph-name="iacute" unicode="&#xed;" horiz-adv-x="250" 
d="M302 536l-124 -536h-159l123 536h160zM411 730l-138 -125h-121l93 125h166z" />
    <glyph glyph-name="igrave" unicode="&#xec;" horiz-adv-x="250" 
d="M302 536l-124 -536h-159l123 536h160zM310 606h-122l-141 124h168z" />
    <glyph glyph-name="edieresis" unicode="&#xeb;" 
d="M482 230h-256c-8 -32 -18 -67 -18 -98c0 -27 24 -36 47 -36c44 0 53 34 62 77h162c-27 -153 -121 -187 -231 -187c-101 0 -194 33 -194 142c0 50 34 220 68 310c31 82 116 111 201 111c89 0 194 -21 194 -130c0 -36 -21 -129 -35 -189zM248 328h103c5 24 14 58 14 73
c0 29 -18 41 -45 41c-57 0 -59 -52 -72 -114zM564 729l-28 -125h-141l29 125h140zM343 729l-29 -125h-139l29 125h139z" />
    <glyph glyph-name="ecircumflex" unicode="&#xea;" 
d="M482 230h-256c-8 -32 -18 -67 -18 -98c0 -27 24 -36 47 -36c44 0 53 34 62 77h162c-27 -153 -121 -187 -231 -187c-101 0 -194 33 -194 142c0 50 34 220 68 310c31 82 116 111 201 111c89 0 194 -21 194 -130c0 -36 -21 -129 -35 -189zM248 328h103c5 24 14 58 14 73
c0 29 -18 41 -45 41c-57 0 -59 -52 -72 -114zM517 605h-105l-37 62l-67 -62h-122l134 125h126z" />
    <glyph glyph-name="eacute" unicode="&#xe9;" 
d="M482 230h-256c-8 -32 -18 -67 -18 -98c0 -27 24 -36 47 -36c44 0 53 34 62 77h162c-27 -153 -121 -187 -231 -187c-101 0 -194 33 -194 142c0 50 34 220 68 310c31 82 116 111 201 111c89 0 194 -21 194 -130c0 -36 -21 -129 -35 -189zM248 328h103c5 24 14 58 14 73
c0 29 -18 41 -45 41c-57 0 -59 -52 -72 -114zM536 730l-138 -125h-121l93 125h166z" />
    <glyph glyph-name="egrave" unicode="&#xe8;" 
d="M482 230h-256c-8 -32 -18 -67 -18 -98c0 -27 24 -36 47 -36c44 0 53 34 62 77h162c-27 -153 -121 -187 -231 -187c-101 0 -194 33 -194 142c0 50 34 220 68 310c31 82 116 111 201 111c89 0 194 -21 194 -130c0 -36 -21 -129 -35 -189zM248 328h103c5 24 14 58 14 73
c0 29 -18 41 -45 41c-57 0 -59 -52 -72 -114zM433 606h-122l-141 124h168z" />
    <glyph glyph-name="ccedilla" unicode="&#xe7;" horiz-adv-x="489" 
d="M315 186h161c-20 -96 -52 -190 -204 -199l-36 -43c40 -5 72 -21 72 -66c0 -65 -62 -96 -120 -96c-35 0 -59 10 -90 26v45c19 -7 38 -15 58 -15c27 0 51 18 51 46c0 22 -19 36 -40 36c-6 0 -13 -1 -19 -2l-4 26l47 47c-74 11 -138 51 -138 139c0 55 24 139 39 202
c8 34 15 69 29 102c39 94 116 114 210 114c88 0 186 -33 186 -137c0 -26 -7 -50 -13 -75h-154c6 22 14 45 14 68s-17 36 -39 36c-45 0 -57 -32 -66 -70l-49 -210c-2 -7 -3 -18 -3 -25c0 -25 18 -40 43 -40c46 0 57 50 65 91z" />
    <glyph glyph-name="aring" unicode="&#xe5;" horiz-adv-x="479" 
d="M241 369h-152c23 93 35 124 84 149c37 19 88 28 144 28c92 0 187 -23 187 -117c0 -20 -4 -40 -9 -60l-70 -303c-2 -9 -4 -21 -4 -29c0 -24 8 -31 15 -37h-182l14 56c-36 -31 -81 -70 -144 -70c-11 0 -106 0 -106 97c0 33 21 127 54 165s81 52 268 106c5 21 12 55 12 63
c0 28 -26 30 -43 30c-45 0 -53 -24 -68 -78zM284 122l33 129c-36 -11 -82 -25 -101 -40c-26 -21 -33 -78 -33 -88c0 -18 8 -33 35 -33c28 0 49 17 66 32zM372 682c0 20 -17 37 -37 37s-37 -17 -37 -37s17 -37 37 -37s37 17 37 37zM434 682c0 -52 -43 -99 -100 -99
c-54 0 -98 45 -98 99s44 99 99 99c54 0 99 -45 99 -99z" />
    <glyph glyph-name="adieresis" unicode="&#xe4;" horiz-adv-x="479" 
d="M241 369h-152c23 93 35 124 84 149c37 19 88 28 144 28c92 0 187 -23 187 -117c0 -20 -4 -40 -9 -60l-70 -303c-2 -9 -4 -21 -4 -29c0 -24 8 -31 15 -37h-182l14 56c-36 -31 -81 -70 -144 -70c-11 0 -106 0 -106 97c0 33 21 127 54 165s81 52 268 106c5 21 12 55 12 63
c0 28 -26 30 -43 30c-45 0 -53 -24 -68 -78zM284 122l33 129c-36 -11 -82 -25 -101 -40c-26 -21 -33 -78 -33 -88c0 -18 8 -33 35 -33c28 0 49 17 66 32zM550 729l-28 -125h-141l29 125h140zM329 729l-29 -125h-139l29 125h139z" />
    <glyph glyph-name="atilde" unicode="&#xe3;" horiz-adv-x="479" 
d="M241 369h-152c23 93 35 124 84 149c37 19 88 28 144 28c92 0 187 -23 187 -117c0 -20 -4 -40 -9 -60l-70 -303c-2 -9 -4 -21 -4 -29c0 -24 8 -31 15 -37h-182l14 56c-36 -31 -81 -70 -144 -70c-11 0 -106 0 -106 97c0 33 21 127 54 165s81 52 268 106c5 21 12 55 12 63
c0 28 -26 30 -43 30c-45 0 -53 -24 -68 -78zM284 122l33 129c-36 -11 -82 -25 -101 -40c-26 -21 -33 -78 -33 -88c0 -18 8 -33 35 -33c28 0 49 17 66 32zM479 729h45c-11 -65 -35 -119 -110 -119c-49 0 -91 35 -132 35c-21 0 -32 -12 -40 -30h-44c8 65 30 117 105 117
c47 0 87 -32 133 -32c20 0 35 11 43 29z" />
    <glyph glyph-name="acircumflex" unicode="&#xe2;" horiz-adv-x="479" 
d="M241 369h-152c23 93 35 124 84 149c37 19 88 28 144 28c92 0 187 -23 187 -117c0 -20 -4 -40 -9 -60l-70 -303c-2 -9 -4 -21 -4 -29c0 -24 8 -31 15 -37h-182l14 56c-36 -31 -81 -70 -144 -70c-11 0 -106 0 -106 97c0 33 21 127 54 165s81 52 268 106c5 21 12 55 12 63
c0 28 -26 30 -43 30c-45 0 -53 -24 -68 -78zM284 122l33 129c-36 -11 -82 -25 -101 -40c-26 -21 -33 -78 -33 -88c0 -18 8 -33 35 -33c28 0 49 17 66 32zM506 605h-105l-37 62l-67 -62h-122l134 125h126z" />
    <glyph glyph-name="aacute" unicode="&#xe1;" horiz-adv-x="479" 
d="M241 369h-152c23 93 35 124 84 149c37 19 88 28 144 28c92 0 187 -23 187 -117c0 -20 -4 -40 -9 -60l-70 -303c-2 -9 -4 -21 -4 -29c0 -24 8 -31 15 -37h-182l14 56c-36 -31 -81 -70 -144 -70c-11 0 -106 0 -106 97c0 33 21 127 54 165s81 52 268 106c5 21 12 55 12 63
c0 28 -26 30 -43 30c-45 0 -53 -24 -68 -78zM284 122l33 129c-36 -11 -82 -25 -101 -40c-26 -21 -33 -78 -33 -88c0 -18 8 -33 35 -33c28 0 49 17 66 32zM526 730l-138 -125h-121l93 125h166z" />
    <glyph glyph-name="agrave" unicode="&#xe0;" horiz-adv-x="479" 
d="M241 369h-152c23 93 35 124 84 149c37 19 88 28 144 28c92 0 187 -23 187 -117c0 -20 -4 -40 -9 -60l-70 -303c-2 -9 -4 -21 -4 -29c0 -24 8 -31 15 -37h-182l14 56c-36 -31 -81 -70 -144 -70c-11 0 -106 0 -106 97c0 33 21 127 54 165s81 52 268 106c5 21 12 55 12 63
c0 28 -26 30 -43 30c-45 0 -53 -24 -68 -78zM284 122l33 129c-36 -11 -82 -25 -101 -40c-26 -21 -33 -78 -33 -88c0 -18 8 -33 35 -33c28 0 49 17 66 32zM427 606h-122l-141 124h168z" />
    <glyph glyph-name="Thorn" unicode="&#xde;" horiz-adv-x="521" 
d="M185 706h172l-29 -117h94c79 0 150 -18 150 -112c0 -34 -7 -68 -15 -102l-15 -64c-25 -106 -55 -147 -185 -147h-127l-38 -164h-171zM260 292h66c47 0 57 27 66 67l8 35c4 19 6 30 6 39c0 25 -19 34 -42 34h-63z" />
    <glyph glyph-name="Yacute" unicode="&#xdd;" horiz-adv-x="521" 
d="M584 878l-138 -124h-122l94 124h166zM655 706l-294 -476l-53 -230h-169l56 244l-66 462h167l24 -288l144 288h191z" />
    <glyph glyph-name="Udieresis" unicode="&#xdc;" horiz-adv-x="542" 
d="M622 876l-29 -125h-140l29 125h140zM400 876l-28 -125h-139l28 125h139zM631 706l-116 -504c-7 -32 -15 -65 -29 -95c-43 -94 -127 -119 -224 -119c-153 0 -210 69 -210 157c0 41 14 101 25 148l97 413h171l-117 -504c-3 -13 -5 -26 -5 -39c0 -31 25 -42 52 -42
c50 0 61 41 70 81l117 504h169z" />
    <glyph glyph-name="Ucircumflex" unicode="&#xdb;" horiz-adv-x="542" 
d="M575 753h-105l-37 62l-66 -62h-122l132 125h127zM631 706l-116 -504c-7 -32 -15 -65 -29 -95c-43 -94 -127 -119 -224 -119c-153 0 -210 69 -210 157c0 41 14 101 25 148l97 413h171l-117 -504c-3 -13 -5 -26 -5 -39c0 -31 25 -42 52 -42c50 0 61 41 70 81l117 504h169z
" />
    <glyph glyph-name="Uacute" unicode="&#xda;" horiz-adv-x="542" 
d="M594 878l-138 -124h-122l94 124h166zM631 706l-116 -504c-7 -32 -15 -65 -29 -95c-43 -94 -127 -119 -224 -119c-153 0 -210 69 -210 157c0 41 14 101 25 148l97 413h171l-117 -504c-3 -13 -5 -26 -5 -39c0 -31 25 -42 52 -42c50 0 61 41 70 81l117 504h169z" />
    <glyph glyph-name="Ugrave" unicode="&#xd9;" horiz-adv-x="542" 
d="M501 753h-122l-140 124h168zM631 706l-116 -504c-7 -32 -15 -65 -29 -95c-43 -94 -127 -119 -224 -119c-153 0 -210 69 -210 157c0 41 14 101 25 148l97 413h171l-117 -504c-3 -13 -5 -26 -5 -39c0 -31 25 -42 52 -42c50 0 61 41 70 81l117 504h169z" />
    <glyph glyph-name="multiply" unicode="&#xd7;" horiz-adv-x="558" 
d="M497 197l-98 -92l-90 102l-106 -101l-88 96l108 102l-88 103l101 92l85 -99l103 99l90 -97l-107 -100z" />
    <glyph glyph-name="Odieresis" unicode="&#xd6;" horiz-adv-x="542" 
d="M634 876l-29 -125h-140l29 125h140zM412 876l-28 -125h-139l28 125h139zM571 410l-56 -238c-34 -145 -98 -186 -247 -186c-107 0 -212 32 -212 158c0 30 5 59 12 88l68 288c23 97 51 198 248 198c104 0 214 -27 214 -153c0 -53 -15 -104 -27 -155zM352 210l64 265
c12 49 15 59 15 68c0 28 -14 48 -49 48c-44 0 -53 -24 -59 -43c-13 -44 -98 -368 -98 -394c0 -27 19 -41 52 -41c47 0 60 34 75 97z" />
    <glyph glyph-name="Otilde" unicode="&#xd5;" horiz-adv-x="542" 
d="M552 877h45c-8 -62 -37 -119 -107 -119c-51 0 -94 35 -134 35c-20 0 -33 -10 -40 -29h-46c9 63 32 117 105 117c51 0 90 -34 133 -34c23 0 34 10 44 30zM571 410l-56 -238c-34 -145 -98 -186 -247 -186c-107 0 -212 32 -212 158c0 30 5 59 12 88l68 288
c23 97 51 198 248 198c104 0 214 -27 214 -153c0 -53 -15 -104 -27 -155zM352 210l64 265c12 49 15 59 15 68c0 28 -14 48 -49 48c-44 0 -53 -24 -59 -43c-13 -44 -98 -368 -98 -394c0 -27 19 -41 52 -41c47 0 60 34 75 97z" />
    <glyph glyph-name="Ocircumflex" unicode="&#xd4;" horiz-adv-x="542" 
d="M581 753h-105l-37 62l-66 -62h-122l132 125h127zM571 410l-56 -238c-34 -145 -98 -186 -247 -186c-107 0 -212 32 -212 158c0 30 5 59 12 88l68 288c23 97 51 198 248 198c104 0 214 -27 214 -153c0 -53 -15 -104 -27 -155zM352 210l64 265c12 49 15 59 15 68
c0 28 -14 48 -49 48c-44 0 -53 -24 -59 -43c-13 -44 -98 -368 -98 -394c0 -27 19 -41 52 -41c47 0 60 34 75 97z" />
    <glyph glyph-name="Oacute" unicode="&#xd3;" horiz-adv-x="542" 
d="M601 878l-138 -124h-122l94 124h166zM571 410l-56 -238c-34 -145 -98 -186 -247 -186c-107 0 -212 32 -212 158c0 30 5 59 12 88l68 288c23 97 51 198 248 198c104 0 214 -27 214 -153c0 -53 -15 -104 -27 -155zM352 210l64 265c12 49 15 59 15 68c0 28 -14 48 -49 48
c-44 0 -53 -24 -59 -43c-13 -44 -98 -368 -98 -394c0 -27 19 -41 52 -41c47 0 60 34 75 97z" />
    <glyph glyph-name="Ograve" unicode="&#xd2;" horiz-adv-x="542" 
d="M500 753h-122l-140 124h168zM571 410l-56 -238c-34 -145 -98 -186 -247 -186c-107 0 -212 32 -212 158c0 30 5 59 12 88l68 288c23 97 51 198 248 198c104 0 214 -27 214 -153c0 -53 -15 -104 -27 -155zM352 210l64 265c12 49 15 59 15 68c0 28 -14 48 -49 48
c-44 0 -53 -24 -59 -43c-13 -44 -98 -368 -98 -394c0 -27 19 -41 52 -41c47 0 60 34 75 97z" />
    <glyph glyph-name="Ntilde" unicode="&#xd1;" horiz-adv-x="562" 
d="M557 877h45c-8 -62 -37 -119 -107 -119c-51 0 -94 35 -134 35c-20 0 -33 -10 -40 -29h-46c9 63 32 117 105 117c51 0 90 -34 133 -34c23 0 34 10 44 30zM645 706l-163 -706h-165c-18 145 -38 290 -50 435l-86 -435h-159l163 706h166c19 -146 37 -292 51 -438
c23 147 56 292 86 438h157z" />
    <glyph glyph-name="Eth" unicode="&#xd0;" horiz-adv-x="542" 
d="M185 706h239c88 0 182 -9 182 -120c0 -23 -3 -45 -8 -67l-79 -346c-30 -132 -52 -173 -196 -173h-301l77 333h-54l24 102h54zM328 586l-35 -151h65l-24 -102h-64l-50 -215h43c60 0 76 10 89 69l78 341c2 7 2 13 2 20c0 30 -18 38 -45 38h-59z" />
    <glyph glyph-name="Idieresis" unicode="&#xcf;" horiz-adv-x="271" 
d="M486 876l-29 -125h-140l29 125h140zM264 876l-28 -125h-139l28 125h139zM184 706h171l-163 -706h-171z" />
    <glyph glyph-name="Icircumflex" unicode="&#xce;" horiz-adv-x="271" 
d="M439 753h-105l-37 62l-66 -62h-122l132 125h127zM184 706h171l-163 -706h-171z" />
    <glyph glyph-name="Iacute" unicode="&#xcd;" horiz-adv-x="271" 
d="M459 878l-138 -124h-122l94 124h166zM184 706h171l-163 -706h-171z" />
    <glyph glyph-name="Igrave" unicode="&#xcc;" horiz-adv-x="271" 
d="M366 753h-122l-140 124h168zM184 706h171l-163 -706h-171z" />
    <glyph glyph-name="Edieresis" unicode="&#xcb;" horiz-adv-x="437" 
d="M575 876l-29 -125h-140l29 125h140zM353 876l-28 -125h-139l28 125h139zM538 706l-28 -121h-183l-37 -162h174l-27 -119h-174l-42 -180h200l-28 -124h-373l163 706h355z" />
    <glyph glyph-name="Ecircumflex" unicode="&#xca;" horiz-adv-x="437" 
d="M529 753h-105l-37 62l-66 -62h-122l132 125h127zM538 706l-28 -121h-183l-37 -162h174l-27 -119h-174l-42 -180h200l-28 -124h-373l163 706h355z" />
    <glyph glyph-name="Eacute" unicode="&#xc9;" horiz-adv-x="437" 
d="M547 878l-138 -124h-122l94 124h166zM538 706l-28 -121h-183l-37 -162h174l-27 -119h-174l-42 -180h200l-28 -124h-373l163 706h355z" />
    <glyph glyph-name="Egrave" unicode="&#xc8;" horiz-adv-x="437" 
d="M454 753h-122l-140 124h168zM538 706l-28 -121h-183l-37 -162h174l-27 -119h-174l-42 -180h200l-28 -124h-373l163 706h355z" />
    <glyph glyph-name="Ccedilla" unicode="&#xc7;" horiz-adv-x="521" 
d="M359 267h175c-46 -181 -45 -272 -241 -280l-36 -43c40 -5 72 -21 72 -66c0 -65 -62 -96 -120 -96c-35 0 -59 10 -90 26v45c19 -7 38 -15 58 -15c27 0 51 18 51 46c0 22 -19 36 -40 36c-6 0 -13 -1 -19 -2l-4 26l45 44c-106 11 -161 62 -161 138c0 34 9 68 16 99l68 298
c33 144 86 195 248 195c101 0 209 -20 209 -145c0 -27 -16 -91 -27 -135h-164c8 34 22 91 22 107c0 33 -22 44 -53 44c-29 0 -50 -13 -57 -42l-84 -362c-3 -11 -6 -26 -6 -37c0 -26 20 -39 47 -39c55 0 63 29 91 158z" />
    <glyph glyph-name="Aring" unicode="&#xc5;" horiz-adv-x="542" 
d="M472 828c0 20 -17 37 -37 37s-37 -17 -37 -37s17 -37 37 -37s37 17 37 37zM534 828c0 -52 -43 -99 -100 -99c-54 0 -98 45 -98 99s44 99 99 99c54 0 99 -45 99 -99zM290 706h275l-51 -706h-168l15 157h-131l-60 -157h-183zM404 641l-129 -363h97z" />
    <glyph glyph-name="Adieresis" unicode="&#xc4;" horiz-adv-x="542" 
d="M642 876l-29 -125h-140l29 125h140zM420 876l-28 -125h-139l28 125h139zM290 706h275l-51 -706h-168l15 157h-131l-60 -157h-183zM404 641l-129 -363h97z" />
    <glyph glyph-name="Atilde" unicode="&#xc3;" horiz-adv-x="542" 
d="M557 877h45c-8 -62 -37 -119 -107 -119c-51 0 -94 35 -134 35c-20 0 -33 -10 -40 -29h-46c9 63 32 117 105 117c51 0 90 -34 133 -34c23 0 34 10 44 30zM290 706h275l-51 -706h-168l15 157h-131l-60 -157h-183zM404 641l-129 -363h97z" />
    <glyph glyph-name="Acircumflex" unicode="&#xc2;" horiz-adv-x="542" 
d="M586 753h-105l-37 62l-66 -62h-122l132 125h127zM290 706h275l-51 -706h-168l15 157h-131l-60 -157h-183zM404 641l-129 -363h97z" />
    <glyph glyph-name="Aacute" unicode="&#xc1;" horiz-adv-x="542" 
d="M604 878l-138 -124h-122l94 124h166zM290 706h275l-51 -706h-168l15 157h-131l-60 -157h-183zM404 641l-129 -363h97z" />
    <glyph glyph-name="Agrave" unicode="&#xc0;" horiz-adv-x="542" 
d="M512 753h-122l-140 124h168zM290 706h275l-51 -706h-168l15 157h-131l-60 -157h-183zM404 641l-129 -363h97z" />
    <glyph glyph-name="mu" unicode="&#xb5;" 
d="M556 536l-110 -475c-2 -9 -3 -17 -3 -25c0 -18 4 -27 14 -36h-173l5 56c-19 -43 -37 -59 -69 -59c-17 0 -26 3 -39 16l-48 -206h-161l168 729h161l-80 -350c-3 -13 -9 -33 -9 -50c0 -24 15 -40 38 -40c32 0 48 21 63 86l82 354h161z" />
    <glyph glyph-name="plusminus" unicode="&#xb1;" horiz-adv-x="559" 
d="M556 458l-29 -125h-119l-34 -146h-155l33 146h-121l29 125h121l34 146h155l-33 -146h119zM480 126l-29 -126h-397l29 126h397z" />
    <glyph glyph-name="degree" unicode="&#xb0;" horiz-adv-x="354" 
d="M396 573c0 -95 -77 -173 -172 -173s-172 78 -172 173c0 96 76 172 172 172s172 -76 172 -172zM281 575c0 31 -26 55 -56 55c-31 0 -56 -24 -56 -55c0 -30 26 -56 56 -56s56 26 56 56z" />
    <glyph glyph-name="registered" unicode="&#xae;" horiz-adv-x="833" 
d="M383 584h130c88 0 121 -22 121 -81c0 -10 -1 -19 -3 -28l-7 -35c-10 -50 -31 -77 -84 -88c33 -7 49 -27 49 -60c0 -11 -1 -24 -4 -36l-15 -64c-2 -10 -3 -19 -3 -27c0 -12 3 -20 11 -30h-110c-4 9 -5 15 -5 25c0 6 1 15 4 28l18 77c2 11 3 18 3 23c0 21 -11 30 -39 30
h-23l-42 -183h-104zM446 406h22c40 0 47 7 53 33l5 23c1 6 2 11 2 16c0 18 -9 23 -39 23h-21zM819 354c0 -201 -156 -357 -357 -357c-197 0 -355 158 -355 356s158 356 356 356c199 0 356 -157 356 -355zM768 352c0 176 -134 313 -305 313c-168 0 -305 -140 -305 -312
c0 -174 135 -312 304 -312c170 0 306 139 306 311z" />
    <glyph glyph-name="logicalnot" unicode="&#xac;" horiz-adv-x="559" 
d="M533 362l-70 -310h-158l42 186h-265l29 124h422z" />
    <glyph glyph-name="copyright" unicode="&#xa9;" horiz-adv-x="833" 
d="M625 413h-103l9 40c2 10 4 18 4 24c0 19 -15 30 -40 30c-33 0 -45 -14 -58 -69l-37 -162c-4 -17 -6 -28 -6 -35c0 -22 14 -33 41 -33c30 0 43 13 52 53l10 43h103l-12 -50c-21 -90 -52 -133 -155 -133c-92 0 -144 36 -144 100c0 16 2 34 7 56l43 181
c22 91 72 132 165 132c88 0 135 -35 135 -99c0 -14 -1 -28 -5 -43zM819 354c0 -201 -156 -357 -357 -357c-197 0 -355 158 -355 356s158 356 356 356c199 0 356 -157 356 -355zM768 352c0 176 -134 313 -305 313c-168 0 -305 -140 -305 -312c0 -174 135 -312 304 -312
c170 0 306 139 306 311z" />
    <glyph glyph-name="brokenbar" unicode="&#xa6;" horiz-adv-x="229" 
d="M313 707l-89 -383h-127l89 383h127zM192 184l-89 -383h-127l89 383h127z" />
    <glyph glyph-name="minus" unicode="&#x2212;" horiz-adv-x="559" 
d="M543 363l-28 -126h-424l30 126h422z" />
    <glyph glyph-name="threesuperior" unicode="&#xb3;" horiz-adv-x="333" 
d="M196 457l18 77h32c35 0 46 2 55 39c4 16 7 34 7 42c0 21 -14 26 -31 26c-37 0 -41 -29 -48 -71h-99c5 23 10 45 18 68c22 65 75 77 137 77c55 0 121 -19 121 -86c0 -13 -5 -50 -16 -83c-10 -30 -30 -47 -58 -50c25 -6 38 -25 38 -50c0 -13 -5 -52 -12 -77
c-23 -88 -59 -111 -151 -111c-63 0 -122 19 -122 93c0 22 4 44 10 65h99c-4 -19 -11 -40 -11 -60c0 -21 15 -26 34 -26c30 0 36 23 43 54l5 25c2 11 3 18 3 24c0 18 -12 24 -40 24h-32z" />
    <glyph glyph-name="twosuperior" unicode="&#xb2;" horiz-adv-x="333" 
d="M365 347l-19 -82h-280c10 73 25 130 87 176c27 20 92 56 119 81c8 8 15 17 20 29c7 19 13 48 13 60c0 20 -11 26 -29 26c-36 0 -39 -45 -50 -94h-101l4 19c20 95 34 152 154 152c62 0 127 -16 127 -89c0 -37 -15 -106 -40 -138c-42 -54 -143 -77 -174 -140h169z" />
    <glyph glyph-name="onesuperior" unicode="&#xb9;" horiz-adv-x="333" 
d="M359 705l-103 -440h-99l74 319c-23 -14 -48 -22 -74 -29l23 94c34 0 81 24 95 56h84z" />
    <glyph glyph-name="threequarters" unicode="&#xbe;" horiz-adv-x="792" 
d="M673 706l-349 -706h-79l348 706h80zM194 457l18 77h32c35 0 46 2 55 39c4 16 7 34 7 42c0 21 -14 26 -31 26c-37 0 -41 -29 -48 -71h-99c5 23 10 45 18 68c22 65 75 77 137 77c55 0 121 -19 121 -86c0 -13 -5 -50 -16 -83c-10 -30 -30 -47 -58 -50c25 -6 38 -25 38 -50
c0 -13 -5 -52 -12 -77c-23 -88 -59 -111 -151 -111c-63 0 -122 19 -122 93c0 22 4 44 10 65h99c-4 -19 -11 -40 -11 -60c0 -21 15 -26 34 -26c30 0 36 23 43 54l5 25c2 11 3 18 3 24c0 18 -12 24 -40 24h-32zM803 440l-63 -273h41l-16 -73h-41l-23 -94h-100l23 92h-162
l17 77l193 271h131zM643 169l47 189c-41 -64 -83 -126 -125 -189h78z" />
    <glyph glyph-name="onehalf" unicode="&#xbd;" horiz-adv-x="792" 
d="M631 706l-348 -706h-79l348 706h79zM359 705l-103 -440h-99l74 319c-23 -14 -48 -22 -74 -29l23 94c34 0 81 24 95 56h84zM763 82l-19 -82h-280c10 73 25 130 87 176c27 20 92 56 119 81c8 8 15 17 20 29c7 19 13 48 13 60c0 20 -11 26 -29 26c-36 0 -39 -45 -50 -94
h-101l4 19c20 95 34 152 154 152c62 0 127 -16 127 -89c0 -37 -15 -106 -40 -138c-42 -54 -143 -77 -174 -140h169z" />
    <glyph glyph-name="onequarter" unicode="&#xbc;" horiz-adv-x="792" 
d="M643 706l-348 -706h-79l348 706h79zM359 705l-103 -440h-99l74 319c-23 -14 -48 -22 -74 -29l23 94c34 0 81 24 95 56h84zM803 440l-63 -273h41l-16 -73h-41l-23 -94h-100l23 92h-162l17 77l193 271h131zM643 169l47 189c-41 -64 -83 -126 -125 -189h78z" />
    <glyph glyph-name="nbspace" unicode="&#xa0;" horiz-adv-x="250" 
 />
    <glyph glyph-name="uni00AD" unicode="&#xad;" horiz-adv-x="329" 
d="M353 357l-28 -122h-273l28 122h273z" />
    </font>
</defs>
</svg>
