<?xml version="1.0" standalone="no"?>
<!DOCTYPE svg PUBLIC "-//W3C//DTD SVG 20010904//EN"
 "http://www.w3.org/TR/2001/REC-SVG-20010904/DTD/svg10.dtd">
<svg version="1.0" xmlns="http://www.w3.org/2000/svg"
 width="1001.000000pt" height="1001.000000pt" viewBox="0 0 1001.000000 1001.000000"
 preserveAspectRatio="xMidYMid meet">
<metadata>
Created by potrace 1.11, written by Peter Selinger 2001-2013
</metadata>
<g transform="translate(0.000000,1001.000000) scale(0.100000,-0.100000)"
fill="#000000" stroke="none">
<path d="M5 9998 c-3 -7 -4 -814 -3 -1793 l3 -1780 455 0 455 0 3 763 2 762
655 0 655 0 0 -765 0 -765 450 0 450 0 0 1795 0 1795 -450 0 -450 0 0 -645 0
-645 -655 0 -655 0 -2 643 -3 642 -453 3 c-357 2 -454 0 -457 -10z"/>
<path d="M8232 10000 c-452 -48 -800 -227 -993 -512 -59 -87 -114 -208 -145
-323 -25 -92 -28 -115 -28 -285 0 -174 1 -190 27 -275 70 -228 221 -401 455
-523 207 -107 382 -152 837 -212 352 -46 485 -75 583 -124 77 -39 143 -105
162 -161 18 -54 8 -160 -19 -213 -57 -111 -210 -203 -401 -243 -90 -18 -126
-20 -255 -16 -82 4 -183 13 -222 22 -239 52 -455 164 -625 324 -55 51 -83 71
-95 67 -9 -4 -155 -95 -325 -203 -269 -171 -306 -198 -296 -212 194 -248 509
-469 830 -580 240 -82 418 -106 733 -98 318 8 497 35 717 107 549 180 860 602
834 1135 -22 460 -277 712 -871 859 -137 34 -225 49 -545 96 -313 45 -390 62
-475 100 -126 56 -170 119 -170 245 0 67 4 89 28 137 69 140 234 217 463 218
302 0 597 -121 826 -340 l83 -79 46 32 c252 178 578 413 578 419 1 13 -212
198 -301 261 -257 181 -550 301 -873 357 -136 24 -427 34 -563 20z"/>
<path d="M6880 1820 l0 -1820 458 2 457 3 3 592 2 593 408 0 c440 0 571 8 758
45 703 141 1072 584 1041 1250 -34 709 -407 1086 -1131 1145 -77 6 -506 10
-1062 10 l-934 0 0 -1820z m1855 1117 c189 -54 296 -156 340 -324 18 -68 20
-277 4 -355 -30 -143 -117 -258 -243 -317 -126 -59 -161 -63 -618 -68 l-418
-5 0 547 0 546 438 -3 c375 -4 446 -7 497 -21z"/>
</g>
</svg>
