<?xml version="1.0" encoding="UTF-8"?>
<svg width="20px" height="20px" viewBox="0 0 20 20" version="1.1" xmlns="http://www.w3.org/2000/svg" xmlns:xlink="http://www.w3.org/1999/xlink">
    <!-- Generator: Sketch 58 (84663) - https://sketch.com -->
    <title>icon/insta-white</title>
    <desc>Created with Sketch.</desc>
    <g id="Design" stroke="none" stroke-width="1" fill="none" fill-rule="evenodd">
        <g id="ROW-Desktop-Home-1" transform="translate(-44.000000, -1246.000000)" fill="#FFFFFF" fill-rule="nonzero">
            <g id="footer-drawer" transform="translate(0.000000, 960.000000)">
                <g id="visit" transform="translate(44.000000, 64.000000)">
                    <g id="social" transform="translate(0.000000, 222.000000)">
                        <path d="M8.55838645,0.000982650048 L11.28762,0.000619204404 C12.8843629,0.00352999434 13.318187,0.01924826 14.1669734,0.104126894 C15.2086657,0.104126894 15.9378503,0.312465361 16.5628657,0.520803827 C17.1878811,0.729142294 17.8128965,1.14581923 18.3337427,1.66666539 C18.8545889,2.18751156 19.2712658,2.81252696 19.4796043,3.43754236 C19.6879427,4.06255776 19.8962812,4.79174239 19.8962812,5.83343472 C19.985018,6.80953902 19.9981641,7.18091877 20.0001117,8.9437249 L20.0000323,10.2918546 C19.9928771,12.7403264 19.8962812,13.1638622 19.8962812,14.1669734 C19.8962812,15.2086657 19.6879427,15.9378503 19.4796043,16.5628657 C19.2712658,17.1878811 18.8545889,17.8128965 18.3337427,18.3337427 C17.8128965,18.8545889 17.1878811,19.2712658 16.5628657,19.4796043 C15.9378503,19.6879427 15.2086657,19.8962812 14.1669734,19.8962812 C13.1908691,19.985018 12.8194893,19.9981641 11.0566832,20.0001117 L9.70855348,20.0000323 C7.26008167,19.9928771 6.83654586,19.8962812 5.83343472,19.8962812 C4.79174239,19.8962812 4.06255776,19.6879427 3.43754236,19.4796043 C2.81252696,19.2712658 2.18751156,18.8545889 1.66666539,18.3337427 C1.14581923,17.8128965 0.729142294,17.1878811 0.520803827,16.5628657 C0.312465361,15.9378503 0.104126894,15.2086657 0.104126894,14.1669734 C0.01924826,13.2333084 0.00352999434,12.8529264 0.000619204404,11.2788876 L0.000982650048,8.55838645 C0.00474094235,7.12438915 0.0222796398,6.7560765 0.104126894,5.93760395 C0.104126894,4.79174239 0.312465361,4.06255776 0.520803827,3.43754236 C0.833311527,2.81252696 1.14581923,2.29168079 1.66666539,1.66666539 C2.29168079,1.14581923 2.81252696,0.833311527 3.54171159,0.520803827 C4.16672699,0.312465361 4.89591162,0.104126894 5.93760395,0.104126894 C6.7560765,0.0222796398 7.12438915,0.00474094235 8.55838645,0.000982650048 L11.28762,0.000619204404 Z M10.7920933,1.77096275 L9.18547215,1.77099465 C7.31276111,1.77222149 6.95125072,1.78285415 5.93760395,1.87500386 C5.00008085,1.87500386 4.47923469,2.08334233 4.16672699,2.18751156 C3.64588082,2.39585002 3.33337312,2.60418849 2.91669619,3.02086542 C2.60418849,3.33337312 2.39585002,3.75005006 2.18751156,4.16672699 C2.08334233,4.47923469 1.87500386,5.00008085 1.87500386,5.93760395 C1.78199561,6.86768639 1.77203045,7.21646731 1.77096275,9.20831478 L1.77083463,10.000204 C1.77083463,12.7086041 1.87500386,13.0211118 1.87500386,14.0628041 C1.87500386,15.1044965 2.08334233,15.6253426 2.18751156,16.0420196 C2.39585002,16.4586965 2.60418849,16.8753734 2.91669619,17.1878811 C3.22920389,17.5003888 3.64588082,17.7087273 4.06255776,17.9170658 C4.47923469,18.021235 5.00008085,18.2295735 5.93760395,18.2295735 C6.7932798,18.3151411 7.15694203,18.330421 8.76067939,18.3331495 L10.2813642,18.3333536 C12.7318562,18.3264349 13.0583151,18.2295735 14.0628041,18.2295735 C15.1044965,18.2295735 15.6253426,18.021235 15.9378503,17.9170658 C16.3545273,17.7087273 16.7712042,17.5003888 17.0837119,17.1878811 C17.3962196,16.8753734 17.6045581,16.4586965 17.8128965,16.0420196 C17.9170658,15.6253426 18.1254042,15.1044965 18.1254042,14.1669734 C18.2146922,13.2740942 18.2274476,12.9169426 18.2292698,11.1275399 L18.2291844,9.82321316 C18.2222657,7.37272116 18.1254042,7.04626222 18.1254042,6.04177319 C18.1254042,5.00008085 17.9170658,4.47923469 17.8128965,4.16672699 C17.7087273,3.64588082 17.5003888,3.33337312 17.0837119,2.91669619 C16.7712042,2.60418849 16.3545273,2.39585002 15.9378503,2.18751156 C15.5211734,2.08334233 15.0003272,1.87500386 14.0628041,1.87500386 C13.1327217,1.78199561 12.7839408,1.77203045 10.7920933,1.77096275 Z M10.000204,4.89591162 C12.9169426,4.89591162 15.1044965,7.18763475 15.1044965,10.000204 C15.1044965,12.8127733 12.8127733,15.1044965 10.000204,15.1044965 C7.18763475,15.1044965 4.89591162,12.8127733 4.89591162,10.000204 C4.89591162,7.18763475 7.18763475,4.89591162 10.000204,4.89591162 Z M10.000204,6.66678859 C8.12515785,6.66678859 6.66678859,8.12515785 6.66678859,10.000204 C6.66678859,11.8752502 8.12515785,13.3336195 10.000204,13.3336195 C11.8752502,13.3336195 13.3336195,11.8752502 13.3336195,10.000204 C13.3336195,8.12515785 11.8752502,6.66678859 10.000204,6.66678859 Z M15.4170042,3.43754236 C16.1073771,3.43754236 16.667035,3.99720021 16.667035,4.68757316 C16.667035,5.3779461 16.1073771,5.93760395 15.4170042,5.93760395 C14.7266312,5.93760395 14.1669734,5.3779461 14.1669734,4.68757316 C14.1669734,3.99720021 14.7266312,3.43754236 15.4170042,3.43754236 Z" id="icon/insta-white"></path>
                    </g>
                </g>
            </g>
        </g>
    </g>
</svg>