<svg id="Layer_1" data-name="Layer 1" xmlns="http://www.w3.org/2000/svg" viewBox="0 0 90.26 22.64"><title>HSP_BuildingLockUps_7.9.18</title><path d="M0,8.21V7.44C0,2.29,3.32,0,7.66,0s7.41,2.45,7.41,6.67c0,3.8-2.06,6.69-8.44,11.56,0,0,7.6-.13,8.51-.13v4.12H.16v-3.8C1.84,17.1,3,16.23,5.22,14.3,7.79,12,9.66,10.21,9.66,6.76c0-.87,0-3-2.22-3-.87,0-2.38.38-2.38,2.67,0,.55.06,1.39.12,2.06Z"/><path d="M16.3,8.21V7.44C16.3,2.29,19.61,0,24,0s7.41,2.45,7.41,6.67c0,3.8-2.06,6.69-8.44,11.56,0,0,7.6-.13,8.5-.13v4.12h-15v-3.8c1.67-1.32,2.8-2.19,5.05-4.12C24.09,12,26,10.21,26,6.76c0-.87,0-3-2.23-3-.87,0-2.38.38-2.38,2.67,0,.55.07,1.39.13,2.06Z"/><path d="M34.33.45H46.89l-.32,4.12H38.32l-.51,4a5.22,5.22,0,0,1,3.44-1.13c4.22,0,6.57,3.25,6.57,7.21,0,3.8-2.38,8-8.21,8-5.34,0-7.47-3.54-7.47-7.28l5.12-.19c0,2.16.68,3.57,2.58,3.57,2.54,0,2.7-2.86,2.7-4.06,0-2.67-1.29-3.76-2.77-3.76a2.2,2.2,0,0,0-2.28,1.7L33,11.88Z"/><polygon points="56.48 10.41 53.93 10.41 50.5 0.39 53.17 0.39 55.24 7.51 57.29 0.39 59.96 0.39 56.48 10.41"/><path d="M63.49,10.41V9.74a3.6,3.6,0,0,1-2.27.87A2.24,2.24,0,0,1,58.8,8.35a2.4,2.4,0,0,1,1.56-2.13,17.68,17.68,0,0,1,2.92-.68V5.13a.78.78,0,0,0-.84-.89c-.92,0-1.09.54-1.15.86H59.11c0-1.63,1.5-2.3,3.12-2.3,1.28,0,3.19.34,3.19,2.13V9.26a1.84,1.84,0,0,0,.21,1.15ZM61.88,7.33c-.76.24-.94.6-.94.92a.79.79,0,0,0,.84.75,1.63,1.63,0,0,0,1.5-1.81V6.86Z"/><path d="M68.8,3v.77a2.54,2.54,0,0,1,.87-.55,3.42,3.42,0,0,1,1.27-.3V4.85L70.22,5c-1.15.19-1.36.48-1.36,1.28v4.17H66.69V3Z"/><path d="M71.41.39h2.17V2.08H71.41Zm0,2.61h2.17v7.41H71.41Z"/><path d="M81.39,8.66a3.74,3.74,0,0,1-3.29,2,3.58,3.58,0,0,1-3.67-3.89,3.71,3.71,0,0,1,6.88-2.18l-1.62.92a1.61,1.61,0,0,0-1.45-1c-1.16,0-1.57,1.34-1.57,2.23s.44,2.23,1.64,2.23a1.52,1.52,0,0,0,1.44-1.11Z"/><polygon points="86.89 10.41 85 7.22 84.06 8.11 84.06 10.41 81.93 10.41 81.93 0.39 84.07 0.39 84.07 5.54 86.47 3 89.09 3 86.54 5.64 89.42 10.41 86.89 10.41"/><path d="M58.66,15.2A3.57,3.57,0,0,0,56,14c-1,0-1.49.6-1.49,1.07s.43.79,1.28.92l1.1.15c2.61.37,3.69,1.17,3.69,2.88,0,2.12-1.69,3.49-4.55,3.49a5.38,5.38,0,0,1-4.57-2l1.9-1.21a3.85,3.85,0,0,0,2.9,1.26c.73,0,1.84-.32,1.84-1.16s-.85-.91-1.74-1l-1.15-.16c-1.76-.24-3.19-1.06-3.19-2.82,0-2,1.46-3.35,4-3.35a6.09,6.09,0,0,1,4.41,1.9Z"/><path d="M63.86,16.35V19.9c0,.49.23.61.57.61l.76,0v1.69a6.75,6.75,0,0,1-1.37.11c-1.19,0-2.12-.37-2.12-2.1V16.34H60.63V15H61.7V12.69h2.16V15h1.45v1.33Z"/><path d="M68.09,14.83v.77a2.54,2.54,0,0,1,.87-.55,3.42,3.42,0,0,1,1.27-.3v1.93l-.72.11c-1.15.18-1.36.48-1.36,1.28v4.17H66V14.83Z"/><path d="M72.52,19v.08a1.66,1.66,0,0,0,1.68,1.76,2,2,0,0,0,1.88-1.32l1.64.85A4.16,4.16,0,0,1,74,22.51a3.53,3.53,0,0,1-3.74-3.83c0-1.86.91-4.07,3.8-4.07s3.72,2.22,3.72,4.28V19Zm3-1.36a1.42,1.42,0,0,0-1.47-1.46,1.59,1.59,0,0,0-1.56,1.46Z"/><path d="M80.35,19v.08A1.66,1.66,0,0,0,82,20.83a2,2,0,0,0,1.87-1.32l1.65.85a4.18,4.18,0,0,1-3.69,2.15,3.53,3.53,0,0,1-3.74-3.83c0-1.86.9-4.07,3.8-4.07s3.71,2.22,3.71,4.28V19Zm3-1.36a1.42,1.42,0,0,0-1.48-1.46,1.61,1.61,0,0,0-1.56,1.46Z"/><path d="M88.81,16.35V19.9c0,.49.23.61.57.61l.77,0v1.69a7,7,0,0,1-1.38.11c-1.19,0-2.11-.37-2.11-2.1V16.34H85.58V15h1.08V12.69h2.15V15h1.45v1.33Z"/></svg>