<svg id="Layer_1" data-name="Layer 1" xmlns="http://www.w3.org/2000/svg" viewBox="0 0 126.64 22.67"><title>HSP_BuildingLockUps_7.9.18</title><path d="M0,3.61A8.77,8.77,0,0,0,3.61,2.8,4.6,4.6,0,0,0,5.86.35H9.79V22.19H4.6V6.25C3.41,6.76,3.12,6.89,0,7Z"/><path d="M19.19,0c7,0,7.73,8.28,7.73,11.37,0,5-1.64,11.3-7.92,11.3-5.15,0-7.57-4.51-7.57-11.56C11.43,5,13.85,0,19.19,0m0,18.68c2.45,0,2.9-3.74,2.9-7.25s-.58-7.4-3-7.4-2.9,3.18-2.93,8.14c0,2.51.39,6.51,3,6.51"/><path d="M35.91,0c7,0,7.73,8.28,7.73,11.37,0,5-1.65,11.3-7.93,11.3-5.15,0-7.56-4.51-7.56-11.56C28.15,5,30.56,0,35.91,0m0,18.68c2.45,0,2.9-3.74,2.9-7.25s-.58-7.4-3-7.4S33,7.21,32.91,12.17c0,2.51.39,6.51,3,6.51"/><path d="M52.54,10.38,52,8.77H48.36l-.5,1.61H45.19l3.72-10h2.61l3.69,10ZM50.17,2.74,48.94,7h2.54Z"/><polygon points="59.11 10.38 56.83 10.38 54.41 2.97 56.73 2.97 58.05 7.99 59.27 2.97 61.51 2.97 59.11 10.38"/><path d="M63.48,7.13v.08A1.67,1.67,0,0,0,65.17,9a2,2,0,0,0,1.88-1.32l1.64.85A4.17,4.17,0,0,1,65,10.64a3.52,3.52,0,0,1-3.74-3.83c0-1.85.91-4.07,3.8-4.07S68.78,5,68.78,7v.1Zm3-1.36A1.43,1.43,0,0,0,65.05,4.3a1.62,1.62,0,0,0-1.57,1.47Z"/><path d="M73.94,10.38V5.81c0-.7-.2-1.28-1.08-1.28s-1.15.71-1.15,1.7v4.15H69.53V3h2.21v.65a2.66,2.66,0,0,1,2.08-.83,2,2,0,0,1,2.3,2.27v5.32Z"/><path d="M81.82,10.38v-.7a2.74,2.74,0,0,1-2.16.91c-1.63,0-2.32-.82-2.32-2.65V3h2.19V7.72a1,1,0,0,0,1,1.1A1.13,1.13,0,0,0,81.83,7.6V3H84v7.41Z"/><path d="M87.1,7.13v.08A1.66,1.66,0,0,0,88.79,9a2,2,0,0,0,1.87-1.32l1.64.85a4.14,4.14,0,0,1-3.68,2.14,3.52,3.52,0,0,1-3.75-3.83c0-1.85.91-4.07,3.8-4.07S92.39,5,92.39,7v.1Zm3-1.36A1.43,1.43,0,0,0,88.66,4.3,1.61,1.61,0,0,0,87.1,5.77Z"/><path d="M98.7,10.6a3.69,3.69,0,0,1-4-4,4,4,0,0,1,8,0,3.68,3.68,0,0,1-4,3.93m-.08-6.13c-.83,0-1.69.63-1.69,2.17,0,1.24.52,2.22,1.8,2.22s1.74-1,1.74-2.12c0-1.57-.66-2.27-1.85-2.27"/><path d="M106,4.47v5.91h-2.17V4.47h-1.16V3.14h1.16V2.08c0-1.28.95-1.88,2.23-1.88a10.15,10.15,0,0,1,1.3.13V2H107c-.91,0-1,.18-1,.72v.44h1.46V4.47Z"/><path d="M48.88,16.32v3.54c0,.5.23.61.57.61h.76v1.69a6.75,6.75,0,0,1-1.37.11c-1.19,0-2.12-.37-2.12-2.1V16.3H45.65V15h1.07V12.66h2.16V15h1.45v1.34Z"/><path d="M55.49,22.2v-4c0-.76-.05-1.74-1.12-1.74-.91,0-1.18.68-1.18,1.84v3.9H51v-10h2.19v3.4a2.81,2.81,0,0,1,2.11-1,2.24,2.24,0,0,1,2.36,2.54V22.2Z"/><path d="M60.71,19V19A1.67,1.67,0,0,0,62.4,20.8a2,2,0,0,0,1.87-1.32l1.64.85a4.14,4.14,0,0,1-3.68,2.14,3.52,3.52,0,0,1-3.75-3.83c0-1.85.91-4.07,3.8-4.07S66,16.8,66,18.86V19Zm3-1.37a1.42,1.42,0,0,0-1.47-1.46,1.61,1.61,0,0,0-1.56,1.46Z"/><path d="M74.37,22.2l-.5-1.6H70.18l-.49,1.6H67l3.72-10h2.61L77,22.2ZM72,14.57,70.77,18.8h2.54Z"/><path d="M79.71,14.8v.77a2.53,2.53,0,0,1,2.08-1,2.49,2.49,0,0,1,2.07.87,3.28,3.28,0,0,1,2.2-.87,2,2,0,0,1,2.27,2.17v5.44H86.16V17.94c0-1-.24-1.56-1-1.56S84,16.87,84,17.76v4.45H81.85V17.78c0-1-.39-1.39-1.07-1.39-1,0-1.09.91-1.09,1.53v4.29H77.54V14.8Z"/><path d="M91.4,19V19a1.67,1.67,0,0,0,1.69,1.76A2,2,0,0,0,95,19.48l1.65.85a4.17,4.17,0,0,1-3.69,2.14,3.52,3.52,0,0,1-3.74-3.83c0-1.85.9-4.07,3.8-4.07s3.72,2.23,3.72,4.29V19Zm3-1.37A1.43,1.43,0,0,0,93,16.13a1.62,1.62,0,0,0-1.56,1.46Z"/><path d="M99.54,14.8v.77a2.62,2.62,0,0,1,.86-.56,3.65,3.65,0,0,1,1.28-.29v1.92l-.72.12c-1.15.18-1.37.48-1.37,1.27v4.18H97.42V14.8Z"/><path d="M102.14,12.19h2.17v1.69h-2.17Zm0,2.61h2.17v7.41h-2.17Z"/><path d="M112.13,20.46a3.75,3.75,0,0,1-3.29,2,3.58,3.58,0,0,1-3.68-3.89,3.61,3.61,0,0,1,3.72-4A3.57,3.57,0,0,1,112,16.38l-1.61.92a1.61,1.61,0,0,0-1.45-1c-1.16,0-1.57,1.33-1.57,2.23s.43,2.23,1.64,2.23a1.5,1.5,0,0,0,1.43-1.11Z"/><path d="M117.18,22.2v-.66a3.6,3.6,0,0,1-2.27.86,2.23,2.23,0,0,1-2.42-2.25A2.37,2.37,0,0,1,114.05,18a17.68,17.68,0,0,1,2.92-.68v-.41a.79.79,0,0,0-.84-.9c-.92,0-1.09.54-1.15.87H112.8c0-1.63,1.5-2.3,3.12-2.3,1.28,0,3.19.34,3.19,2.13v4.33a1.8,1.8,0,0,0,.21,1.14Zm-1.62-3.07c-.75.24-.93.59-.93.92a.79.79,0,0,0,.83.75A1.64,1.64,0,0,0,117,19v-.32Z"/><path d="M125.15,16.91a3.17,3.17,0,0,0-1.89-.73c-.46,0-1,.15-1,.56s.34.47,1.21.64l.52.1c1.61.3,2.67.95,2.67,2.33,0,1.84-2,2.58-3.5,2.58A4.89,4.89,0,0,1,119.55,21l1.37-1.25a3.17,3.17,0,0,0,2.16,1c.72,0,1.32-.26,1.32-.72s-.38-.53-1.18-.66l-.67-.11c-1.75-.3-2.48-1.06-2.48-2.2s1.05-2.48,3.14-2.48a5.37,5.37,0,0,1,3.29,1.11Z"/></svg>