<svg id="Layer_1" data-name="Layer 1" xmlns="http://www.w3.org/2000/svg" viewBox="0 0 71.33 22.25"><title>HSP_BuildingLockUps_7.9.18</title><path d="M0,0H15.43V3.93A29.82,29.82,0,0,0,9.37,14.75a31.74,31.74,0,0,0-1.51,7.08h-6A38.26,38.26,0,0,1,10.4,4.22H0Z"/><path d="M17.42.06H30l-.32,4.13H21.42l-.52,4a5.29,5.29,0,0,1,3.45-1.13c4.22,0,6.57,3.26,6.57,7.22,0,3.8-2.39,8-8.22,8-5.34,0-7.47-3.54-7.47-7.28l5.12-.19c0,2.16.68,3.58,2.58,3.58,2.54,0,2.7-2.87,2.7-4.06,0-2.67-1.28-3.77-2.76-3.77a2.21,2.21,0,0,0-2.29,1.71L16.1,11.5Z"/><polygon points="37.84 10.02 35.28 10.02 31.85 0.01 34.52 0.01 36.59 7.13 38.65 0.01 41.31 0.01 37.84 10.02"/><path d="M44.84,10V9.35a3.55,3.55,0,0,1-2.27.87A2.24,2.24,0,0,1,40.15,8a2.37,2.37,0,0,1,1.56-2.12,16.65,16.65,0,0,1,2.92-.68V4.74a.78.78,0,0,0-.84-.89c-.92,0-1.09.54-1.15.87H40.46c0-1.64,1.5-2.3,3.12-2.3,1.28,0,3.19.34,3.19,2.13V8.87A1.76,1.76,0,0,0,47,10ZM43.23,6.94c-.76.24-.94.6-.94.92a.79.79,0,0,0,.84.76,1.64,1.64,0,0,0,1.5-1.82V6.47Z"/><path d="M50.15,2.62v.76A2.89,2.89,0,0,1,51,2.83a3.89,3.89,0,0,1,1.27-.3V4.46l-.72.11c-1.15.19-1.36.49-1.36,1.28V10H48V2.62Z"/><path d="M52.76,0h2.17V1.69H52.76Zm0,2.61h2.17V10H52.76Z"/><path d="M62.74,8.28a3.72,3.72,0,0,1-3.29,2,3.57,3.57,0,0,1-3.67-3.88,3.71,3.71,0,0,1,6.88-2.19L61,5.11a1.6,1.6,0,0,0-1.45-1C58.43,4.08,58,5.41,58,6.3s.44,2.23,1.64,2.23a1.52,1.52,0,0,0,1.44-1.1Z"/><polygon points="68.25 10.02 66.34 6.83 65.41 7.72 65.41 10.02 63.28 10.02 63.28 0.01 65.42 0.01 65.42 5.16 67.82 2.62 70.44 2.62 67.89 5.25 70.77 10.02 68.25 10.02"/><path d="M39.72,14.81a3.52,3.52,0,0,0-2.62-1.24c-1,0-1.49.59-1.49,1.06s.42.79,1.28.92l1.1.16c2.61.37,3.69,1.16,3.69,2.88,0,2.11-1.69,3.49-4.55,3.49a5.39,5.39,0,0,1-4.57-2l1.9-1.21a3.85,3.85,0,0,0,2.89,1.27c.74,0,1.85-.33,1.85-1.17s-.85-.91-1.75-1l-1.15-.15c-1.75-.25-3.19-1.07-3.19-2.83,0-2,1.46-3.35,4-3.35a6.06,6.06,0,0,1,4.42,1.91Z"/><path d="M44.93,16v3.55c0,.5.22.61.56.61h.77v1.68a6.44,6.44,0,0,1-1.38.12c-1.19,0-2.11-.37-2.11-2.1V16H41.69V14.62h1.08V12.3h2.16v2.33h1.44V16Z"/><path d="M49.16,14.45v.76a2.81,2.81,0,0,1,.86-.55,4,4,0,0,1,1.28-.3v1.93l-.72.11c-1.15.19-1.37.49-1.37,1.28v4.17H47v-7.4Z"/><path d="M53.58,18.6v.09a1.67,1.67,0,0,0,1.69,1.76,2,2,0,0,0,1.87-1.32l1.65.85a4.19,4.19,0,0,1-3.69,2.14,3.52,3.52,0,0,1-3.74-3.83c0-1.86.9-4.07,3.8-4.07s3.71,2.23,3.71,4.28v.1Zm3-1.36a1.43,1.43,0,0,0-1.48-1.46,1.61,1.61,0,0,0-1.56,1.46Z"/><path d="M61.42,18.6v.09a1.67,1.67,0,0,0,1.69,1.76A2,2,0,0,0,65,19.13l1.65.85a4.19,4.19,0,0,1-3.69,2.14,3.52,3.52,0,0,1-3.75-3.83c0-1.86.91-4.07,3.8-4.07s3.72,2.23,3.72,4.28v.1Zm3-1.36A1.44,1.44,0,0,0,63,15.78a1.6,1.6,0,0,0-1.56,1.46Z"/><path d="M69.88,16v3.55c0,.5.23.61.57.61h.76v1.68a6.4,6.4,0,0,1-1.37.12c-1.19,0-2.12-.37-2.12-2.1V16H66.65V14.62h1.07V12.3h2.16v2.33h1.45V16Z"/></svg>