<svg id="Layer_1" data-name="Layer 1" xmlns="http://www.w3.org/2000/svg" viewBox="0 0 98.8 22.7"><title>HSP_BuildingLockUps_7.9.18</title><path d="M.42,6.6C.93,1.35,4.54,0,8.05,0c5.89,0,7.12,3.77,7.12,5.86a4.83,4.83,0,0,1-3.61,4.86,4.78,4.78,0,0,1,4.16,5c0,2.06-1.36,6.89-8.28,6.89C2.61,22.61,0,19.71,0,15.36v-.48l5-.42s0,.61,0,.93c0,2,1.19,3.22,2.67,3.22,1.71,0,2.87-1.19,2.87-3.22,0-2.48-1.87-2.8-3.22-2.8-.26,0-.71,0-.71,0V8.92s.48,0,.74,0a2.48,2.48,0,0,0,2.74-2.57A2.31,2.31,0,0,0,7.73,3.9c-2.22,0-2.22,2.22-2.22,3.15Z"/><path d="M18.61.45H31.17l-.32,4.12H22.61l-.52,4a5.25,5.25,0,0,1,3.45-1.13c4.22,0,6.57,3.25,6.57,7.21,0,3.8-2.39,8-8.21,8-5.35,0-7.48-3.54-7.48-7.28l5.13-.19c0,2.16.67,3.57,2.57,3.57,2.55,0,2.71-2.86,2.71-4.06,0-2.67-1.29-3.76-2.77-3.76a2.22,2.22,0,0,0-2.29,1.7l-4.48-.74Z"/><path d="M40.74,0c7,0,7.73,8.28,7.73,11.37,0,5-1.64,11.3-7.92,11.3C35.39,22.7,33,18.19,33,11.14,33,5,35.39,0,40.74,0m0,18.68c2.45,0,2.9-3.74,2.9-7.25s-.58-7.4-3-7.4-2.89,3.19-2.93,8.15c0,2.51.39,6.5,3,6.5"/><polygon points="56.99 10.41 56.99 6.14 53.33 6.14 53.33 10.41 50.8 10.41 50.8 0.39 53.33 0.39 53.33 4.01 56.99 4.01 56.99 0.39 59.5 0.39 59.5 10.41 56.99 10.41"/><path d="M65.39,10.41v-.7a2.71,2.71,0,0,1-2.16.91C61.6,10.62,60.9,9.8,60.9,8V3h2.2V7.75a1,1,0,0,0,1.05,1.1A1.13,1.13,0,0,0,65.4,7.63V3h2.17v7.41Z"/><path d="M73.61,10.41v-.7a2.67,2.67,0,0,1-2,.9c-1.75,0-3.21-1.35-3.21-3.85,0-2.2,1.08-4,3.1-4a3,3,0,0,1,2,.76V.39H75.6v10ZM72.05,9c1.42,0,1.48-1.87,1.48-2.23,0-.92-.17-2.33-1.37-2.33S70.65,5.7,70.65,6.75c0,.65.14,2.24,1.4,2.24"/><path d="M81.61,5.12a3.12,3.12,0,0,0-1.89-.74c-.47,0-1,.15-1,.57s.34.46,1.21.63l.52.1C82,6,83.1,6.63,83.1,8c0,1.84-2,2.58-3.5,2.58A4.89,4.89,0,0,1,76,9.16l1.37-1.25a3.15,3.15,0,0,0,2.16,1c.72,0,1.32-.25,1.32-.72s-.39-.53-1.18-.65L79,7.44c-1.76-.3-2.48-1.06-2.48-2.2s1-2.48,3.14-2.48A5.43,5.43,0,0,1,83,3.87Z"/><path d="M87.36,10.63a3.69,3.69,0,0,1-4-4,4,4,0,0,1,8,0,3.67,3.67,0,0,1-4,3.93m-.08-6.12c-.82,0-1.69.62-1.69,2.17,0,1.23.53,2.21,1.8,2.21s1.75-1,1.75-2.11c0-1.58-.67-2.27-1.86-2.27"/><path d="M96.61,10.41V5.84c0-.7-.2-1.28-1.07-1.28s-1.15.71-1.15,1.71v4.14H92.2V3h2.21v.66a2.66,2.66,0,0,1,2.09-.84,2,2,0,0,1,2.3,2.27v5.32Z"/><path d="M57.41,15.2A3.53,3.53,0,0,0,54.79,14c-1,0-1.49.6-1.49,1.07s.42.79,1.28.92l1.1.15c2.61.37,3.69,1.17,3.69,2.88,0,2.12-1.69,3.49-4.55,3.49a5.36,5.36,0,0,1-4.57-2l1.9-1.2A3.84,3.84,0,0,0,55,20.49c.74,0,1.85-.32,1.85-1.16s-.85-.91-1.75-1L54,18.15c-1.76-.24-3.19-1.06-3.19-2.82,0-2,1.46-3.35,4-3.35a6.1,6.1,0,0,1,4.42,1.9Z"/><path d="M62.62,16.35V19.9c0,.49.22.61.56.61l.77,0v1.69a6.8,6.8,0,0,1-1.38.11c-1.19,0-2.11-.37-2.11-2.1V16.34H59.38V15h1.08V12.69h2.16V15h1.44v1.33Z"/><path d="M66.85,14.83v.77a2.48,2.48,0,0,1,.86-.55,3.5,3.5,0,0,1,1.28-.3v1.93l-.72.11c-1.15.18-1.37.48-1.37,1.28v4.17H64.73V14.83Z"/><path d="M71.27,19v.08A1.66,1.66,0,0,0,73,20.83a2,2,0,0,0,1.87-1.32l1.65.85a4.18,4.18,0,0,1-3.69,2.15,3.53,3.53,0,0,1-3.74-3.83c0-1.86.9-4.07,3.8-4.07s3.71,2.22,3.71,4.28V19Zm3-1.36a1.42,1.42,0,0,0-1.48-1.46,1.61,1.61,0,0,0-1.56,1.46Z"/><path d="M79.11,19v.08a1.66,1.66,0,0,0,1.69,1.76,2,2,0,0,0,1.87-1.32l1.65.85a4.18,4.18,0,0,1-3.69,2.15,3.53,3.53,0,0,1-3.75-3.83c0-1.86.91-4.07,3.8-4.07s3.72,2.22,3.72,4.28V19Zm3-1.36a1.43,1.43,0,0,0-1.48-1.46,1.6,1.6,0,0,0-1.56,1.46Z"/><path d="M87.57,16.35V19.9c0,.49.23.61.57.61l.76,0v1.69a6.75,6.75,0,0,1-1.37.11c-1.19,0-2.12-.37-2.12-2.1V16.34H84.34V15h1.07V12.69h2.16V15H89v1.33Z"/></svg>