<svg id="Layer_1" data-name="Layer 1" xmlns="http://www.w3.org/2000/svg" viewBox="0 0 101.45 22.64"><title>HSP_BuildingLockUps_7.9.18</title><path d="M.42,6.6C.93,1.35,4.54,0,8.05,0c5.89,0,7.12,3.77,7.12,5.86a4.83,4.83,0,0,1-3.61,4.86,4.78,4.78,0,0,1,4.16,5c0,2.06-1.36,6.89-8.28,6.89C2.61,22.61,0,19.71,0,15.36v-.48l5-.42s0,.61,0,.93c0,2,1.19,3.22,2.67,3.22,1.71,0,2.87-1.19,2.87-3.22,0-2.48-1.87-2.8-3.22-2.8-.26,0-.71,0-.71,0V8.92s.48,0,.74,0a2.48,2.48,0,0,0,2.74-2.57A2.31,2.31,0,0,0,7.73,3.9c-2.22,0-2.22,2.22-2.22,3.15Z"/><path d="M30.69,17.16v5.06H25.6v-5H16.74c0-.74.07-3.93.07-3.93l9-12.88h4.87V13.62h2.9v3.54ZM25.63,5.93l-5.18,7.69h5.18Z"/><path d="M36.83.45H49.39l-.32,4.12H40.83l-.52,4a5.23,5.23,0,0,1,3.45-1.13c4.21,0,6.57,3.25,6.57,7.21,0,3.8-2.39,8-8.22,8-5.34,0-7.47-3.54-7.47-7.28l5.12-.19c0,2.16.68,3.57,2.58,3.57,2.54,0,2.7-2.86,2.7-4.06,0-2.67-1.28-3.76-2.77-3.76A2.2,2.2,0,0,0,40,12.62l-4.48-.74Z"/><polygon points="59.64 10.41 59.64 6.14 55.98 6.14 55.98 10.41 53.46 10.41 53.46 0.39 55.98 0.39 55.98 4.01 59.64 4.01 59.64 0.39 62.15 0.39 62.15 10.41 59.64 10.41"/><path d="M68,10.41v-.7a2.71,2.71,0,0,1-2.16.91c-1.63,0-2.32-.82-2.32-2.65V3h2.2V7.75a1,1,0,0,0,1,1.1,1.12,1.12,0,0,0,1.24-1.22V3h2.17v7.41Z"/><path d="M76.27,10.41v-.7a2.69,2.69,0,0,1-2,.9c-1.74,0-3.2-1.35-3.2-3.85,0-2.2,1.08-4,3.09-4a3,3,0,0,1,2,.76V.39h2.11v10ZM74.7,9c1.42,0,1.48-1.87,1.48-2.23,0-.92-.17-2.32-1.36-2.32S73.3,5.7,73.3,6.75c0,.65.14,2.24,1.4,2.24"/><path d="M84.26,5.12a3.11,3.11,0,0,0-1.88-.74c-.47,0-1,.15-1,.57s.34.46,1.2.63l.53.1c1.6.3,2.66,1,2.66,2.33,0,1.84-2,2.58-3.5,2.58a4.9,4.9,0,0,1-3.59-1.43L80,7.91a3.15,3.15,0,0,0,2.15,1c.73,0,1.32-.25,1.32-.72s-.38-.53-1.17-.65l-.67-.12c-1.76-.3-2.48-1.06-2.48-2.2s1-2.48,3.13-2.48a5.41,5.41,0,0,1,3.29,1.11Z"/><path d="M90,10.63a3.69,3.69,0,0,1-4-4,4,4,0,0,1,8,0,3.68,3.68,0,0,1-4,3.93m-.09-6.12c-.82,0-1.68.62-1.68,2.17,0,1.23.52,2.21,1.8,2.21s1.74-1,1.74-2.11c0-1.58-.66-2.27-1.86-2.27"/><path d="M99.27,10.41V5.84c0-.7-.2-1.28-1.08-1.28S97,5.27,97,6.27v4.14H94.86V3h2.21v.66a2.63,2.63,0,0,1,2.08-.84,2,2,0,0,1,2.3,2.27v5.32Z"/><path d="M60.07,15.2A3.57,3.57,0,0,0,57.44,14c-1,0-1.49.6-1.49,1.07s.43.79,1.28.92l1.11.15C61,16.46,62,17.26,62,19c0,2.12-1.68,3.49-4.55,3.49a5.39,5.39,0,0,1-4.57-2l1.9-1.21a3.85,3.85,0,0,0,2.9,1.26c.74,0,1.84-.32,1.84-1.16s-.85-.91-1.74-1l-1.15-.16c-1.76-.24-3.19-1.06-3.19-2.82,0-2,1.46-3.35,4-3.35a6.09,6.09,0,0,1,4.41,1.9Z"/><path d="M65.27,16.35V19.9c0,.49.23.61.57.61l.77,0v1.69a7,7,0,0,1-1.38.11c-1.19,0-2.11-.37-2.11-2.1V16.34H62V15h1.08V12.69h2.15V15h1.45v1.33Z"/><path d="M69.5,14.83v.77a2.65,2.65,0,0,1,.87-.55,3.46,3.46,0,0,1,1.28-.3v1.93l-.73.11c-1.15.18-1.36.48-1.36,1.28v4.17H67.39V14.83Z"/><path d="M73.93,19v.08a1.66,1.66,0,0,0,1.69,1.76,2,2,0,0,0,1.87-1.32l1.64.85a4.15,4.15,0,0,1-3.68,2.15,3.53,3.53,0,0,1-3.75-3.83c0-1.86.91-4.07,3.8-4.07s3.72,2.22,3.72,4.28V19Zm3-1.36a1.42,1.42,0,0,0-1.47-1.46,1.6,1.6,0,0,0-1.56,1.46Z"/><path d="M81.77,19v.08a1.66,1.66,0,0,0,1.68,1.76,2,2,0,0,0,1.88-1.32l1.64.85a4.18,4.18,0,0,1-3.69,2.15,3.53,3.53,0,0,1-3.74-3.83c0-1.86.91-4.07,3.8-4.07s3.72,2.22,3.72,4.28V19Zm3-1.36a1.42,1.42,0,0,0-1.48-1.46,1.59,1.59,0,0,0-1.55,1.46Z"/><path d="M90.22,16.35V19.9c0,.49.23.61.57.61l.77,0v1.69a6.8,6.8,0,0,1-1.38.11c-1.19,0-2.11-.37-2.11-2.1V16.34H87V15h1.08V12.69h2.15V15h1.45v1.33Z"/></svg>