<svg id="Layer_1" data-name="Layer 1" xmlns="http://www.w3.org/2000/svg" viewBox="0 0 101.31 22.7"><title>HSP_BuildingLockUps_7.9.18</title><path d="M0,8.21V7.44C0,2.29,3.32,0,7.66,0s7.41,2.45,7.41,6.67c0,3.8-2.06,6.69-8.44,11.56,0,0,7.6-.13,8.51-.13v4.12H.16v-3.8C1.84,17.1,3,16.23,5.22,14.3,7.79,12,9.66,10.21,9.66,6.76c0-.87,0-3-2.22-3-.87,0-2.38.38-2.38,2.67,0,.55.06,1.39.12,2.06Z"/><path d="M24.31,0C31.3,0,32,8.31,32,11.4c0,5-1.64,11.3-7.92,11.3-5.15,0-7.57-4.5-7.57-11.56C16.55,5,19,0,24.31,0m0,18.68c2.45,0,2.9-3.74,2.9-7.24s-.58-7.41-3-7.41-2.9,3.19-2.93,8.15c0,2.51.39,6.5,3,6.5"/><path d="M41.68,0c7,0,7.72,8.28,7.72,11.37,0,5-1.64,11.3-7.92,11.3-5.15,0-7.57-4.5-7.57-11.56C33.91,5,36.33,0,41.68,0m0,18.68c2.44,0,2.89-3.74,2.89-7.24s-.58-7.41-3-7.41-2.9,3.19-2.93,8.15c0,2.51.39,6.5,3,6.5"/><polygon points="59.5 10.33 59.5 6.06 55.84 6.06 55.84 10.33 53.31 10.33 53.31 0.31 55.84 0.31 55.84 3.93 59.5 3.93 59.5 0.31 62.01 0.31 62.01 10.33 59.5 10.33"/><path d="M67.9,10.33v-.7a2.74,2.74,0,0,1-2.16.91c-1.63,0-2.32-.82-2.32-2.65v-5h2.19V7.67a1,1,0,0,0,1,1.1,1.13,1.13,0,0,0,1.25-1.22V2.92h2.17v7.41Z"/><path d="M76.12,10.33v-.7a2.65,2.65,0,0,1-2,.89c-1.75,0-3.21-1.34-3.21-3.84,0-2.2,1.08-4,3.1-4A3,3,0,0,1,76,3.47V.31h2.12v10ZM74.56,8.91C76,8.91,76,7,76,6.68c0-.92-.17-2.33-1.37-2.33s-1.51,1.27-1.51,2.32c0,.65.14,2.24,1.4,2.24"/><path d="M84.12,5a3.12,3.12,0,0,0-1.89-.74c-.46,0-1,.15-1,.57s.34.46,1.21.63l.52.1c1.61.3,2.67,1,2.67,2.33,0,1.84-2,2.58-3.5,2.58a4.89,4.89,0,0,1-3.59-1.43l1.37-1.25a3.15,3.15,0,0,0,2.16,1c.72,0,1.32-.25,1.32-.72S83,7.6,82.19,7.48l-.67-.12C79.77,7.06,79,6.3,79,5.16s1-2.48,3.14-2.48a5.43,5.43,0,0,1,3.29,1.11Z"/><path d="M89.88,10.55a3.7,3.7,0,0,1-4-4,4,4,0,0,1,8,0,3.67,3.67,0,0,1-4,3.93m-.09-6.12c-.82,0-1.69.62-1.69,2.17,0,1.23.53,2.21,1.8,2.21s1.75-1,1.75-2.12c0-1.57-.67-2.26-1.86-2.26"/><path d="M99.12,10.33V5.76c0-.7-.19-1.28-1.07-1.28s-1.15.71-1.15,1.7v4.15H94.71V2.92h2.22v.65A2.66,2.66,0,0,1,99,2.74,2,2,0,0,1,101.31,5v5.32Z"/><path d="M59.92,15.12a3.53,3.53,0,0,0-2.62-1.25c-1,0-1.49.6-1.49,1.07s.43.79,1.28.92l1.1.15c2.61.37,3.69,1.17,3.69,2.88,0,2.12-1.69,3.49-4.55,3.49a5.36,5.36,0,0,1-4.57-2l1.9-1.2a3.84,3.84,0,0,0,2.89,1.26c.74,0,1.85-.33,1.85-1.16s-.85-.91-1.75-1l-1.15-.16c-1.75-.24-3.19-1.06-3.19-2.82,0-2,1.46-3.35,4-3.35a6.05,6.05,0,0,1,4.41,1.9Z"/><path d="M65.13,16.27v3.54c0,.5.23.61.57.61h.76V22.1a6.75,6.75,0,0,1-1.37.11c-1.2,0-2.12-.37-2.12-2.1V16.25H61.89V14.92H63V12.61h2.16v2.33h1.44v1.33Z"/><path d="M69.36,14.75v.77a2.62,2.62,0,0,1,.86-.56,3.65,3.65,0,0,1,1.28-.29V16.6l-.72.11c-1.15.18-1.36.48-1.36,1.28v4.17H67.25V14.75Z"/><path d="M73.78,18.91V19a1.66,1.66,0,0,0,1.69,1.76,2,2,0,0,0,1.87-1.32l1.65.85a4.17,4.17,0,0,1-3.69,2.14,3.52,3.52,0,0,1-3.74-3.82c0-1.86.9-4.08,3.8-4.08s3.71,2.23,3.71,4.29v.1Zm3-1.36a1.43,1.43,0,0,0-1.48-1.47,1.62,1.62,0,0,0-1.56,1.47Z"/><path d="M81.62,18.91V19a1.66,1.66,0,0,0,1.69,1.76,2,2,0,0,0,1.87-1.32l1.65.85a4.17,4.17,0,0,1-3.69,2.14,3.52,3.52,0,0,1-3.75-3.82c0-1.86.91-4.08,3.81-4.08s3.71,2.23,3.71,4.29v.1Zm3-1.36a1.44,1.44,0,0,0-1.48-1.47,1.62,1.62,0,0,0-1.56,1.47Z"/><path d="M90.08,16.27v3.54c0,.5.23.61.57.61h.76V22.1a6.75,6.75,0,0,1-1.37.11c-1.19,0-2.12-.37-2.12-2.1V16.25H86.85V14.92h1.07V12.61h2.16v2.33h1.45v1.33Z"/></svg>