<svg id="Layer_1" data-name="Layer 1" xmlns="http://www.w3.org/2000/svg" viewBox="0 0 98.77 22.7"><title>HSP_BuildingLockUps_7.9.18</title><path d="M0,8.21V7.44C0,2.29,3.32,0,7.66,0s7.41,2.45,7.41,6.67c0,3.8-2.06,6.69-8.44,11.56,0,0,7.6-.13,8.51-.13v4.12H.16v-3.8C1.84,17.1,3,16.23,5.22,14.3,7.79,12,9.66,10.21,9.66,6.76c0-.87,0-3-2.22-3-.87,0-2.38.38-2.38,2.67,0,.55.06,1.39.12,2.06Z"/><path d="M24,0c7,0,7.73,8.28,7.73,11.37,0,5-1.64,11.3-7.92,11.3-5.15,0-7.57-4.5-7.57-11.56C16.23,5,18.65,0,24,0m0,18.68c2.45,0,2.9-3.74,2.9-7.25s-.58-7.4-3-7.4S21,7.25,21,12.21c0,2.51.38,6.5,3,6.5"/><path d="M34.85.45H47.4l-.32,4.12H38.84l-.52,4a5.25,5.25,0,0,1,3.45-1.13c4.22,0,6.57,3.25,6.57,7.21,0,3.8-2.38,8-8.21,8-5.35,0-7.47-3.54-7.47-7.28l5.12-.19c0,2.16.67,3.57,2.57,3.57,2.55,0,2.71-2.86,2.71-4.06,0-2.67-1.29-3.76-2.77-3.76A2.22,2.22,0,0,0,38,12.62l-4.48-.74Z"/><polygon points="56.95 10.41 56.95 6.14 53.3 6.14 53.3 10.41 50.77 10.41 50.77 0.39 53.3 0.39 53.3 4.01 56.95 4.01 56.95 0.39 59.47 0.39 59.47 10.41 56.95 10.41"/><path d="M65.35,10.41v-.7a2.68,2.68,0,0,1-2.15.91c-1.63,0-2.33-.82-2.33-2.65V3h2.2V7.75a1,1,0,0,0,1.05,1.1,1.13,1.13,0,0,0,1.25-1.22V3h2.17v7.41Z"/><path d="M73.58,10.41v-.7a2.69,2.69,0,0,1-2,.9c-1.75,0-3.21-1.35-3.21-3.85,0-2.2,1.08-4,3.09-4a3,3,0,0,1,2,.76V.39h2.11v10ZM72,9c1.42,0,1.47-1.87,1.47-2.23,0-.92-.17-2.32-1.36-2.32S70.61,5.7,70.61,6.75C70.61,7.4,70.76,9,72,9"/><path d="M81.58,5.12a3.14,3.14,0,0,0-1.89-.74c-.47,0-1,.16-1,.57s.34.46,1.2.63l.53.1c1.6.3,2.67,1,2.67,2.33,0,1.84-2,2.58-3.51,2.58A4.9,4.9,0,0,1,76,9.16l1.38-1.25a3.15,3.15,0,0,0,2.16,1c.72,0,1.31-.25,1.31-.72s-.38-.53-1.17-.65L79,7.44c-1.76-.29-2.48-1.06-2.48-2.2s1-2.48,3.13-2.48a5.39,5.39,0,0,1,3.29,1.11Z"/><path d="M87.33,10.63a3.69,3.69,0,0,1-4-4,4,4,0,0,1,8,0,3.67,3.67,0,0,1-4,3.92m-.08-6.12c-.83,0-1.69.62-1.69,2.17,0,1.23.52,2.21,1.8,2.21s1.74-1,1.74-2.11c0-1.58-.66-2.27-1.85-2.27"/><path d="M96.58,10.41V5.84c0-.7-.2-1.28-1.08-1.28s-1.15.71-1.15,1.71v4.14H92.17V3h2.21v.66a2.66,2.66,0,0,1,2.09-.84,2,2,0,0,1,2.3,2.27v5.32Z"/><path d="M57.38,15.2A3.55,3.55,0,0,0,54.76,14c-1,0-1.49.6-1.49,1.07s.42.79,1.27.92l1.11.15c2.61.37,3.69,1.17,3.69,2.88,0,2.12-1.69,3.49-4.56,3.49a5.36,5.36,0,0,1-4.56-2l1.9-1.21A3.81,3.81,0,0,0,55,20.49c.74,0,1.85-.32,1.85-1.16s-.86-.91-1.75-1L54,18.15c-1.76-.24-3.19-1.06-3.19-2.82,0-2,1.46-3.35,4-3.35a6.05,6.05,0,0,1,4.41,1.9Z"/><path d="M62.58,16.35V19.9c0,.49.23.61.57.61l.77,0v1.69a6.8,6.8,0,0,1-1.38.11c-1.19,0-2.11-.37-2.11-2.1V16.34H59.35V15h1.08V12.69h2.15V15H64v1.33Z"/><path d="M66.82,14.83v.77a2.48,2.48,0,0,1,.86-.55,3.5,3.5,0,0,1,1.28-.3v1.93l-.73.11c-1.14.18-1.36.48-1.36,1.28v4.17H64.7V14.83Z"/><path d="M71.24,19v.08a1.66,1.66,0,0,0,1.69,1.76,2,2,0,0,0,1.87-1.32l1.65.85a4.18,4.18,0,0,1-3.69,2.15A3.53,3.53,0,0,1,69,18.68c0-1.86.91-4.07,3.8-4.07s3.72,2.22,3.72,4.28V19Zm3-1.36a1.43,1.43,0,0,0-1.48-1.46,1.61,1.61,0,0,0-1.56,1.46Z"/><path d="M79.08,19v.08a1.66,1.66,0,0,0,1.69,1.76,2,2,0,0,0,1.87-1.32l1.64.85a4.15,4.15,0,0,1-3.69,2.15,3.53,3.53,0,0,1-3.74-3.83c0-1.86.91-4.07,3.8-4.07s3.72,2.22,3.72,4.28V19Zm3-1.36a1.42,1.42,0,0,0-1.47-1.46,1.6,1.6,0,0,0-1.56,1.46Z"/><path d="M87.54,16.35V19.9c0,.49.22.61.57.61l.76,0v1.69a6.8,6.8,0,0,1-1.38.11c-1.19,0-2.11-.37-2.11-2.1V16.34H84.3V15h1.08V12.69h2.16V15H89v1.33Z"/></svg>