<svg id="Layer_1" data-name="Layer 1" xmlns="http://www.w3.org/2000/svg" viewBox="0 0 126.64 22.4"><title>HSP_BuildingLockUps_7.9.18</title><path d="M0,3.4a8.61,8.61,0,0,0,3.61-.8A4.6,4.6,0,0,0,5.86.15H9.79V22H4.6V6c-1.19.52-1.48.65-4.6.71Z"/><path d="M13.24.21H25.8l-.33,4.13H17.23l-.52,4A5.28,5.28,0,0,1,20.16,7.2c4.22,0,6.57,3.25,6.57,7.22,0,3.8-2.38,8-8.21,8-5.35,0-7.47-3.54-7.47-7.28l5.12-.19c0,2.16.67,3.58,2.57,3.58,2.55,0,2.71-2.87,2.71-4.06,0-2.68-1.29-3.77-2.77-3.77a2.22,2.22,0,0,0-2.29,1.71l-4.47-.74Z"/><path d="M30,.21H42.57l-.32,4.13H34l-.52,4A5.25,5.25,0,0,1,36.94,7.2c4.22,0,6.57,3.25,6.57,7.22,0,3.8-2.39,8-8.21,8-5.35,0-7.48-3.54-7.48-7.28L33,14.93c0,2.16.67,3.58,2.57,3.58,2.55,0,2.71-2.87,2.71-4.06,0-2.68-1.29-3.77-2.77-3.77a2.22,2.22,0,0,0-2.29,1.71l-4.48-.74Z"/><path d="M52.54,10.17,52,8.57H48.36l-.5,1.6H45.19l3.72-10h2.61l3.69,10ZM50.17,2.54,48.94,6.77h2.54Z"/><polygon points="59.11 10.17 56.83 10.17 54.41 2.77 56.73 2.77 58.05 7.79 59.26 2.77 61.51 2.77 59.11 10.17"/><path d="M63.49,6.92V7a1.67,1.67,0,0,0,1.68,1.76,2,2,0,0,0,1.88-1.32l1.64.85A4.19,4.19,0,0,1,65,10.44a3.52,3.52,0,0,1-3.74-3.83c0-1.86.91-4.07,3.8-4.07s3.72,2.23,3.72,4.28v.1Zm3-1.36A1.43,1.43,0,0,0,65.05,4.1a1.59,1.59,0,0,0-1.56,1.46Z"/><path d="M73.94,10.17V5.6c0-.69-.2-1.27-1.08-1.27S71.71,5,71.71,6v4.14H69.53V2.77h2.21v.65a2.63,2.63,0,0,1,2.08-.84,2,2,0,0,1,2.3,2.27v5.32Z"/><path d="M81.82,10.17V9.48a2.74,2.74,0,0,1-2.16.9c-1.63,0-2.32-.82-2.32-2.65v-5h2.19V7.52a1,1,0,0,0,1,1.09,1.13,1.13,0,0,0,1.25-1.22V2.77H84v7.4Z"/><path d="M87.1,6.92V7a1.67,1.67,0,0,0,1.69,1.76,2,2,0,0,0,1.87-1.32l1.64.85a4.16,4.16,0,0,1-3.68,2.14,3.52,3.52,0,0,1-3.75-3.83c0-1.86.91-4.07,3.8-4.07s3.72,2.23,3.72,4.28v.1Zm3-1.36A1.43,1.43,0,0,0,88.66,4.1,1.6,1.6,0,0,0,87.1,5.56Z"/><path d="M98.7,10.4a3.69,3.69,0,0,1-4-4,4,4,0,0,1,8,0,3.68,3.68,0,0,1-4,3.93m-.08-6.13c-.83,0-1.69.62-1.69,2.17,0,1.23.52,2.21,1.8,2.21s1.74-1,1.74-2.11c0-1.58-.66-2.27-1.85-2.27"/><path d="M106,4.27v5.9h-2.17V4.27h-1.16V2.94h1.16V1.87c0-1.27.95-1.87,2.23-1.87a8.55,8.55,0,0,1,1.3.13V1.77H107c-.91,0-1,.19-1,.73v.44h1.46V4.27Z"/><path d="M48.88,16.11v3.55c0,.5.23.61.57.61h.76v1.68a6.4,6.4,0,0,1-1.37.12c-1.19,0-2.12-.37-2.12-2.1V16.1H45.65V14.77h1.07V12.45h2.16v2.33h1.45v1.33Z"/><path d="M55.49,22V18c0-.77-.05-1.75-1.12-1.75-.91,0-1.18.69-1.18,1.85V22H51V12h2.19v3.4a2.81,2.81,0,0,1,2.11-1,2.24,2.24,0,0,1,2.36,2.54V22Z"/><path d="M60.71,18.75v.09A1.67,1.67,0,0,0,62.4,20.6a2,2,0,0,0,1.87-1.32l1.64.85a4.16,4.16,0,0,1-3.68,2.14,3.52,3.52,0,0,1-3.75-3.83c0-1.86.91-4.07,3.8-4.07S66,16.6,66,18.65v.1Zm3-1.36a1.42,1.42,0,0,0-1.47-1.46,1.6,1.6,0,0,0-1.56,1.46Z"/><path d="M74.37,22l-.5-1.6H70.18L69.69,22H67l3.72-10h2.61L77,22ZM72,14.37,70.77,18.6h2.54Z"/><path d="M79.71,14.6v.76a2.53,2.53,0,0,1,2.08-1,2.48,2.48,0,0,1,2.07.86,3.28,3.28,0,0,1,2.2-.86,2,2,0,0,1,2.27,2.17V22H86.16V17.73c0-1-.24-1.56-1-1.56S84,16.67,84,17.56V22H81.85V17.57c0-1-.39-1.39-1.07-1.39-1,0-1.09.91-1.09,1.54V22H77.54V14.6Z"/><path d="M91.4,18.75v.09a1.67,1.67,0,0,0,1.69,1.76A2,2,0,0,0,95,19.28l1.65.85a4.19,4.19,0,0,1-3.69,2.14,3.52,3.52,0,0,1-3.74-3.83c0-1.86.9-4.07,3.8-4.07s3.71,2.23,3.71,4.28v.1Zm3-1.36A1.43,1.43,0,0,0,93,15.93a1.61,1.61,0,0,0-1.56,1.46Z"/><path d="M99.54,14.6v.76a2.81,2.81,0,0,1,.86-.55,3.73,3.73,0,0,1,1.28-.3v1.93l-.72.11c-1.15.19-1.37.49-1.37,1.28V22H97.42V14.6Z"/><path d="M102.14,12h2.17v1.68h-2.17Zm0,2.61h2.17V22h-2.17Z"/><path d="M112.13,20.25a3.73,3.73,0,0,1-3.29,2,3.58,3.58,0,0,1-3.68-3.89,3.61,3.61,0,0,1,3.72-4A3.57,3.57,0,0,1,112,16.17l-1.61.92a1.6,1.6,0,0,0-1.45-1c-1.16,0-1.58,1.33-1.58,2.22s.44,2.23,1.65,2.23a1.5,1.5,0,0,0,1.43-1.11Z"/><path d="M117.18,22v-.67a3.55,3.55,0,0,1-2.27.87,2.23,2.23,0,0,1-2.42-2.26,2.36,2.36,0,0,1,1.56-2.12,17.31,17.31,0,0,1,2.92-.69v-.41a.78.78,0,0,0-.84-.89c-.92,0-1.09.54-1.15.86H112.8c0-1.63,1.5-2.29,3.12-2.29,1.27,0,3.19.34,3.19,2.12v4.33a1.84,1.84,0,0,0,.21,1.15Zm-1.62-3.08c-.75.24-.93.6-.93.92a.79.79,0,0,0,.83.76A1.64,1.64,0,0,0,117,18.78v-.33Z"/><path d="M125.15,16.71a3.12,3.12,0,0,0-1.89-.74c-.46,0-1,.16-1,.57s.34.47,1.21.64l.52.1c1.61.29,2.67.95,2.67,2.32,0,1.85-2,2.58-3.5,2.58a4.89,4.89,0,0,1-3.59-1.43l1.37-1.25a3.17,3.17,0,0,0,2.16,1c.72,0,1.32-.25,1.32-.72s-.38-.52-1.18-.65l-.67-.11c-1.75-.3-2.48-1.07-2.48-2.2s1.05-2.49,3.14-2.49a5.43,5.43,0,0,1,3.29,1.11Z"/></svg>