<svg xmlns="http://www.w3.org/2000/svg" viewBox="0 0 470 100" width="470" height="100">
<g fill="#000">
	<path d="M0.8,36.2v-3.4C0.8,10.1,15.4,0,34.6,0s32.7,10.8,32.7,29.4c0,16.8-9.1,29.5-37.3,51
		c0,0,33.6-0.6,37.6-0.6v18.2H1.5V81.3c7.4-5.8,12.5-9.7,22.3-18.2C35.1,53,43.4,45.1,43.4,29.8c0-3.8,0-13.2-9.8-13.2
		c-3.8,0-10.5,1.7-10.5,11.8c0,2.4,0.3,6.1,0.5,9.1L0.8,36.2z"/>
	<path d="M72.7,36.2v-3.4c0-22.7,14.6-32.8,34-32.8s32.7,10.8,32.7,29.4c0,16.8-9.1,29.5-37.3,51
		c0,0,33.6-0.6,37.5-0.6v18.2H73.5V81.3c7.4-5.8,12.4-9.7,22.3-18.2c11.3-10.2,19.8-18.1,19.8-33.3c0-3.8,0-13.2-9.8-13.2
		c-3.8,0-10.5,1.7-10.5,11.8c0,2.4,0.3,6.1,0.6,9.1L72.7,36.2z"/>
	<path d="M152.3,2h55.5l-1.4,18.2h-36.4l-2.3,17.7c4.3-3.4,9.7-5.2,15.2-5c18.6,0,29,14.3,29,31.8
		c0,16.8-10.5,35.3-36.2,35.3c-23.6,0-33-15.6-33-32.1l22.6-0.8c0,9.5,3,15.8,11.4,15.8c11.2,0,11.9-12.6,11.9-17.9
		c0-11.8-5.7-16.6-12.2-16.6c-4.7-0.3-9,2.9-10.1,7.5l-19.8-3.3L152.3,2z"/>
	<polygon points="250.1,46 238.9,46 223.7,1.7 235.5,1.7 244.6,33.2 253.7,1.7 265.5,1.7 		"/>
	<path d="M281.1,46v-3c-2.8,2.4-6.3,3.8-10,3.8c-5.4,0.4-10.2-3.6-10.7-9.1c0-0.3,0-0.6,0-0.9
		c0.2-4.2,2.9-7.9,6.9-9.4c4.2-1.4,8.5-2.4,12.9-3v-1.8c0.3-1.9-1-3.6-2.9-3.9c-0.3,0-0.5,0-0.8,0c-4.1,0-4.8,2.4-5.1,3.8h-9.6
		c0-7.2,6.6-10.2,13.8-10.2c5.7,0,14.1,1.5,14.1,9.4v19.1c-0.3,1.7,0.1,3.5,0.9,5.1H281.1z M274,32.4c-3.4,1.1-4.2,2.6-4.2,4.1
		c0.1,1.9,1.7,3.4,3.7,3.3c0,0,0,0,0.1,0c4-0.3,6.9-3.7,6.6-7.7c0-0.1,0-0.2,0-0.3v-1.5L274,32.4z"/>
	<path d="M304.5,13.2v3.4c1.1-1.1,2.4-1.9,3.8-2.4c1.8-0.8,3.7-1.2,5.6-1.3v8.5l-3.2,0.7c-5.1,0.8-6,2.1-6,5.7v18.4
		h-9.6V13.2H304.5z"/>
	<path d="M316,1.7h9.6v7.5H316V1.7z M316,13.2h9.6V46H316V13.2z"/>
	<path d="M360.1,38.2c-2.8,5.4-8.4,8.8-14.5,8.8c-8.7,0.3-16-6.6-16.3-15.3c0-0.6,0-1.2,0.1-1.8
		c-0.7-9,6.1-16.9,15.2-17.5c6.2-0.4,12,2.6,15.2,7.9l-7.2,4.1c-1.1-2.6-3.6-4.3-6.4-4.4c-5.1,0-6.9,5.9-6.9,9.8s1.9,9.8,7.2,9.8
		c3,0,5.6-2,6.4-4.9L360.1,38.2z"/>
	<polygon points="384.4,46 376,31.9 371.9,35.8 371.9,46 362.5,46 362.5,1.7 371.9,1.7 371.9,24.5 382.5,13.2 
		394.1,13.2 382.8,24.9 395.5,46 		"/>
	<path d="M259.7,67.1c-3-3.4-7.3-5.3-11.7-5.3c-4.4,0-6.6,2.6-6.6,4.7s1.9,3.5,5.7,4.1l4.9,0.7
		c11.5,1.6,16.3,5.2,16.3,12.7c0,9.4-7.5,15.4-20.1,15.4c-7.8,0.5-15.3-2.8-20.2-8.8l8.4-5.3c3.3,3.6,7.9,5.6,12.8,5.6
		c3.2,0,8.1-1.4,8.1-5.1s-3.8-4-7.7-4.4l-5.1-0.7c-7.8-1.1-14.1-4.7-14.1-12.5c0-8.8,6.4-14.8,17.7-14.8c7.4,0,14.4,3,19.5,8.4
		L259.7,67.1z"/>
	<path d="M282.7,72.2v15.7c0,2.2,1,2.7,2.5,2.7h3.4V98c-2,0.4-4,0.5-6,0.5c-5.3,0-9.4-1.6-9.4-9.3V72.1h-4.7v-5.9
		h4.7V56h9.5v10.2h6.4v5.9L282.7,72.2z"/>
	<path d="M301.4,65.5v3.4c1.1-1.1,2.4-1.9,3.8-2.4c1.8-0.8,3.7-1.2,5.6-1.3v8.5l-3.2,0.5c-5.1,0.8-6,2.1-6,5.7v18.4
		h-9.5V65.5H301.4z"/>
	<path d="M320.9,83.9v0.4c-0.2,4,2.8,7.5,6.9,7.8c0.2,0,0.4,0,0.5,0c3.7,0,7-2.3,8.3-5.8l7.2,3.8
		c-3.3,5.9-9.6,9.6-16.4,9.4c-8.6,0.5-16-6-16.5-14.6c0-0.8,0-1.6,0-2.3c0-8.2,4-18,16.8-18s16.4,9.8,16.4,18.9v0.5H320.9z
		 M334.2,77.9c0.1-3.5-2.6-6.3-6.1-6.4c-0.1,0-0.3,0-0.4,0c-3.6,0.1-6.6,2.8-6.9,6.4H334.2z"/>
	<path d="M355.5,83.9v0.4c-0.2,4,2.9,7.5,6.9,7.7c0.1,0,0.2,0,0.4,0c3.7,0,7-2.3,8.3-5.8l7.3,3.8
		c-3.3,5.9-9.5,9.6-16.3,9.5c-8.6,0.5-16-6-16.5-14.6c0-0.8,0-1.6,0-2.3c0-8.2,4-18,16.8-18s16.4,9.8,16.4,18.9v0.5H355.5z
		 M368.7,77.9c0.1-3.5-2.6-6.3-6.1-6.4c-0.1,0-0.3,0-0.4,0c-3.6,0.1-6.6,2.9-6.9,6.4H368.7z"/>
	<path d="M392.8,72.2v15.7c0,2.2,1,2.7,2.5,2.7h3.4V98c-2,0.4-4.1,0.5-6.1,0.5c-5.3,0-9.3-1.6-9.3-9.3V72.1h-4.8
		v-5.9h4.8V56h9.5v10.2h6.4v5.9L392.8,72.2z"/>
</g>
</svg>
