<svg xmlns="http://www.w3.org/2000/svg" viewBox="0 0 105.45 22.61" width="425"><title>Asset 16</title><g id="Layer_2" data-name="Layer 2"><g id="Layer_1-2" data-name="Layer 1" fill="#000"><path d="M0,3.67a8.76,8.76,0,0,0,3.61-.8A4.6,4.6,0,0,0,5.86.42H9.79V22.25H4.6V6.31C3.41,6.83,3.12,7,0,7Z"/><path d="M11.79,8.24V7.47C11.79,2.32,15.1,0,19.45,0s7.41,2.45,7.41,6.67c0,3.8-2.06,6.7-8.44,11.56,0,0,7.6-.13,8.5-.13v4.12H12v-3.8c1.67-1.32,2.8-2.19,5.05-4.12,2.58-2.25,4.45-4.09,4.45-7.54,0-.86,0-3-2.22-3-.87,0-2.39.39-2.39,2.67,0,.55.07,1.39.13,2.06Z"/><rect x="28.15" y="10.02" width="9.63" height="4.6"/><path d="M37.33,3.67a8.72,8.72,0,0,0,3.6-.8A4.58,4.58,0,0,0,43.19.42h3.93V22.25H41.93V6.31c-1.19.52-1.48.65-4.6.71Z"/><path d="M58.87,6.5V6.09a2,2,0,0,0-2-2.19c-2.8,0-3.09,4.15-3.18,6.89a5.15,5.15,0,0,1,4.73-2.55c2.64,0,6,1.87,6,6.7s-3.22,7.67-7.82,7.67c-3.84,0-7.83-2.45-7.83-10.76C48.79,5.93,50.17,0,57.29,0,62.83,0,63.73,4.32,64,5.93Zm-2,12.31c2.67,0,2.67-2.9,2.67-3.51,0-.84-.12-3.35-2.6-3.35-1.49,0-2.58,1.16-2.58,3.35,0,1.19.29,3.51,2.51,3.51"/><polygon points="70.82 10.44 68.27 10.44 64.83 0.42 67.5 0.42 69.57 7.54 71.63 0.42 74.3 0.42 70.82 10.44"/><path d="M75.29,7.19v.09A1.66,1.66,0,0,0,77,9a2,2,0,0,0,1.87-1.31l1.64.85a4.16,4.16,0,0,1-3.68,2.14,3.52,3.52,0,0,1-3.75-3.83c0-1.86.91-4.07,3.8-4.07S80.58,5,80.58,7.09v.1Zm3-1.36a1.42,1.42,0,0,0-1.47-1.46,1.6,1.6,0,0,0-1.56,1.46Z"/><path d="M86.12,5.15a3.12,3.12,0,0,0-1.89-.74c-.46,0-1,.16-1,.57s.34.47,1.21.64l.52.1c1.61.29,2.67,1,2.67,2.32,0,1.85-2,2.58-3.5,2.58a4.89,4.89,0,0,1-3.59-1.43l1.37-1.25a3.15,3.15,0,0,0,2.16,1c.72,0,1.32-.25,1.32-.72s-.38-.52-1.18-.65l-.67-.12C81.77,7.18,81,6.41,81,5.28s1-2.49,3.14-2.49A5.43,5.43,0,0,1,87.47,3.9Z"/><path d="M91,4.55V8.1c0,.5.23.61.57.61l.77,0v1.69a6.54,6.54,0,0,1-1.38.12c-1.19,0-2.11-.37-2.11-2.1V4.54H87.73V3.21h1.08V.89H91V3.22h1.45V4.55Z"/><path d="M95.19,3V3.8a3,3,0,0,1,.87-.55A3.73,3.73,0,0,1,97.34,3V4.88L96.61,5c-1.15.19-1.36.48-1.36,1.28v4.17H93.08V3Z"/><path d="M104.45,3l-2.61,8a3.56,3.56,0,0,1-.72,1.39,1.84,1.84,0,0,1-1.55.56H98V11.25h.93c.6,0,.74-.29.74-.54a2.24,2.24,0,0,0-.15-.71L97.36,3h2.33l1.22,5.3L102.13,3Z"/><path d="M73.84,15.23A3.52,3.52,0,0,0,71.22,14c-1,0-1.49.59-1.49,1.06s.42.79,1.27.92l1.11.16c2.61.37,3.69,1.16,3.69,2.88,0,2.11-1.69,3.49-4.55,3.49a5.39,5.39,0,0,1-4.57-2l1.9-1.21a3.82,3.82,0,0,0,2.89,1.26c.74,0,1.85-.32,1.85-1.16s-.85-.91-1.75-1l-1.15-.16c-1.76-.24-3.19-1.06-3.19-2.82,0-2,1.46-3.35,4-3.35a6.1,6.1,0,0,1,4.42,1.9Z"/><path d="M79.05,16.38v3.55c0,.49.22.61.56.61l.77,0v1.69a6.44,6.44,0,0,1-1.38.12c-1.19,0-2.11-.37-2.11-2.1V16.37H75.81V15h1.08V12.72h2.16v2.33h1.44v1.33Z"/><path d="M83.28,14.86v.77a2.63,2.63,0,0,1,.86-.55,3.73,3.73,0,0,1,1.28-.3v1.93l-.72.11c-1.15.19-1.37.48-1.37,1.28v4.17H81.16V14.86Z"/><path d="M87.7,19v.09a1.66,1.66,0,0,0,1.69,1.75,2,2,0,0,0,1.87-1.31l1.65.85a4.19,4.19,0,0,1-3.69,2.14,3.52,3.52,0,0,1-3.74-3.83c0-1.86.9-4.07,3.8-4.07S93,16.86,93,18.92V19Zm3-1.36a1.43,1.43,0,0,0-1.48-1.46,1.61,1.61,0,0,0-1.56,1.46Z"/><path d="M95.54,19v.09a1.66,1.66,0,0,0,1.69,1.75,2,2,0,0,0,1.87-1.31l1.65.85a4.19,4.19,0,0,1-3.69,2.14,3.52,3.52,0,0,1-3.75-3.83c0-1.86.91-4.07,3.8-4.07s3.72,2.22,3.72,4.28V19Zm3-1.36A1.42,1.42,0,0,0,97.1,16.2a1.6,1.6,0,0,0-1.56,1.46Z"/><path d="M104,16.38v3.55c0,.49.23.61.57.61l.76,0v1.69a6.4,6.4,0,0,1-1.37.12c-1.19,0-2.12-.37-2.12-2.1V16.37h-1.07V15h1.07V12.72H104v2.33h1.45v1.33Z"/></g></g></svg>