<svg height="100" viewBox="0 0 340 100" width="340" xmlns="http://www.w3.org/2000/svg"><g fill="#fff"><path d="m89 .3h56.4l-1.4 18.5h-37l-2.3 18c4.4-3.5 9.9-5.3 15.4-5.1 18.9 0 29.5 14.6 29.5 32.4 0 17.1-10.7 35.9-36.9 35.9-24 0-33.5-15.9-33.5-32.7l23-.9c0 9.7 3.1 16.1 11.6 16.1 11.4 0 12.1-12.9 12.1-18.2 0-12-5.8-16.9-12.4-16.9-4.8-.3-9.2 3-10.2 7.7l-20.1-3.3z"/><path d="m2 0h69.3v17.6c-12.4 14.2-21.7 30.7-27.3 48.6-3.5 10.3-5.7 21-6.8 31.8h-26.9c5.7-29.2 18.9-56.5 38.4-79.1h-46.7z"/><path d="m187.4 44.4h-11.2l-15.1-44.1h11.7l9 31.4 9-31.4h11.7z"/><path d="m219.2 44.4v-3c-2.8 2.4-6.3 3.8-10 3.8-5.4.4-10.2-3.6-10.6-9 0-.3 0-.6 0-.9.2-4.2 2.9-7.9 6.9-9.3 4.2-1.4 8.5-2.4 12.8-3v-1.8c.3-1.9-1-3.6-2.9-3.9-.3 0-.5 0-.8 0-4 0-4.8 2.4-5.1 3.8h-9.6c0-7.2 6.6-10.1 13.7-10.1 5.6 0 14.1 1.5 14.1 9.3v19c-.3 1.7.1 3.5.9 5.1zm-7.1-13.5c-3.3 1.1-4.1 2.6-4.1 4.1.1 1.9 1.7 3.4 3.5 3.3h.1c4-.3 6.9-3.8 6.6-7.8 0-.1 0-.1 0-.2v-1.5z"/><path d="m242.5 11.8v3.4c1.1-1 2.4-1.8 3.8-2.4 1.8-.8 3.7-1.2 5.6-1.3v8.5l-3 .5c-5 .8-6 2.1-6 5.6v18.4h-9.7v-32.7z"/><path d="m256.1 7.7v-7.4h9.6v7.5h-9.6zm0 36.7v-32.6h9.6v32.6z"/><path d="m300.9 36.7c-2.8 5.3-8.4 8.7-14.5 8.7-8.7.3-16-6.5-16.3-15.2 0-.6 0-1.3 0-1.9-.6-9 6.3-16.8 15.3-17.4 6.1-.4 11.8 2.6 15 7.8l-7.1 4.1c-1-2.7-3.5-4.4-6.4-4.5-5.1 0-6.9 5.9-6.9 9.8s1.9 9.8 7.2 9.8c3.1 0 5.7-2 6.5-5z"/><path d="m326 44.4-8.4-14.1-4.1 4v10.1h-9.4v-44.1h9.4v22.7l10.6-11.2h11.5l-11.2 11.6 12.7 21z"/><path d="m193.3 67.1c-2.9-3.4-7.2-5.4-11.7-5.5-4.5 0-6.6 2.6-6.6 4.5s1.8 3.5 5.6 4l4.8.7c11.5 1.7 16.3 5.1 16.3 12.7 0 9.3-7.5 15.4-20.1 15.4-7.8.5-15.3-2.9-20.1-9l8.4-5.3c3.3 3.6 7.9 5.6 12.8 5.5 3.2 0 8.1-1.4 8.1-5.1s-3.7-4-7.7-4.5l-5-.7c-7.8-1.1-14.1-4.5-14.1-12.4 0-8.7 6.4-14.7 18-14.7 7.3 0 14.4 3 19.4 8.4z"/><path d="m217.1 72.1v15.6c0 2.2 1 2.7 2.5 2.7h3.4v7.5c-2 .4-4 .5-6.1.5-5.3 0-9.3-1.6-9.3-9.3v-17h-4.8v-5.9h4.8v-10.2h9.5v10.2h6.4v5.8h-6.4z"/><path d="m237.2 65.5v3.4c1.1-1.1 2.4-1.9 3.8-2.4 1.8-.8 3.7-1.2 5.6-1.3v8.5l-3.2.5c-5.1.8-6 2.1-6 5.6v18.2h-9.6v-32.5z"/><path d="m257 83.7v.4c-.2 4 2.8 7.5 6.9 7.8h.6c3.7 0 7-2.3 8.3-5.8l7.2 3.8c-3.3 5.9-9.5 9.5-16.2 9.4-8.6.6-16-5.9-16.5-14.5-.1-.8 0-1.6 0-2.4 0-8.2 4-18 16.7-18s16.4 9.9 16.4 18.9v.4zm13.5-5.9c.1-3.5-2.6-6.4-6.1-6.5-.1 0-.2 0-.4 0-3.6.1-6.6 2.9-6.9 6.5z"/><path d="m292.8 83.7v.4c-.2 4.1 2.9 7.5 6.9 7.8h.5c3.7 0 7-2.3 8.2-5.8l7.2 3.8c-3.3 5.9-9.5 9.5-16.2 9.4-8.6.6-16-5.9-16.5-14.5-.1-.8 0-1.6 0-2.4 0-8.2 4-18 16.7-18 12.8 0 16.6 9.9 16.6 18.9v.4zm13.4-5.9c.1-3.5-2.7-6.4-6.2-6.5-.1 0-.2 0-.3 0-3.6.1-6.5 2.9-6.9 6.5z"/><path d="m331.7 72.1v15.6c0 2.2 1 2.7 2.5 2.7h3.4v7.5c-2 .4-4 .5-6.1.5-5.3 0-9.3-1.6-9.3-9.3v-17h-4.8v-5.9h4.8v-10.2h9.5v10.2h6.4v5.8h-6.4z"/></g></svg>