<svg xmlns="http://www.w3.org/2000/svg" viewBox="0 0 560 100" width="560" height="100">
<g>
	<path fill="#FFFFFF" d="M0.6,15.9c5.5,0,10.9-1.3,15.9-3.6c4.5-2.2,8.1-6.1,9.9-10.8h17.3v96.3H20.9V27.6
		c-5.2,2.2-6.5,2.8-20.3,3.3V15.9z"/>
	<path fill="#FFFFFF" d="M85.3,0c30.9,0,34.1,36.5,34.1,50.2c0,22.1-7.2,49.8-34.9,49.8c-22.7,0-33.4-19.9-33.4-51
		C51.1,22.1,61.7,0,85.3,0 M85.3,82.4c10.8,0,12.8-16.5,12.8-32s-2.6-32.6-13.2-32.6s-12.8,14-12.9,35.9c0,11.1,1.7,28.7,13.2,28.7
		"/>
	<path fill="#FFFFFF" d="M159,0c30.9,0,34.1,36.5,34.1,50.2c0,22.1-7.3,49.8-35,49.8c-22.7,0-33.3-19.9-33.3-51
		C124.8,22.1,135.4,0,159,0 M159,82.4c10.8,0,12.8-16.5,12.8-32s-2.6-32.6-13.2-32.6c-10.7,0-12.4,14-12.8,35.9
		C145.8,64.8,147.5,82.4,159,82.4"/>
	<path fill="#FFFFFF" d="M232.4,45.8l-2.4-7.1H214l-2.2,7.1H200l16.4-44.1h11.5l16.3,44.1H232.4z M221.9,12.1l-5.4,18.8h11.2
		L221.9,12.1z"/>
	<polygon fill="#FFFFFF" points="261.4,45.8 251.3,45.8 240.7,13.1 250.9,13.1 256.7,35.2 262.1,13.1 272,13.1 		"/>
	<path fill="#FFFFFF" d="M280.7,31.5v0.4c-0.3,4.1,2.8,7.6,6.8,7.9c0.2,0,0.4,0,0.6,0c3.7,0,7-2.3,8.3-5.8l7.2,3.7
		c-3.3,5.8-9.6,9.4-16.3,9.3c-8.6,0.6-16-5.9-16.5-14.5c-0.1-0.8,0-1.6,0-2.4c0-8.2,4-18,16.8-18c12.7,0,16.4,10,16.4,18.8v0.4
		L280.7,31.5z M293.9,25.5c0.1-3.5-2.6-6.4-6.1-6.5c-0.1,0-0.1,0-0.2,0c-3.6,0.1-6.6,2.9-6.9,6.5L293.9,25.5z"/>
	<path fill="#FFFFFF" d="M326.8,45.8V25.6c0-3.1-0.9-5.6-4.8-5.6c-3.9,0-5.1,3.1-5.1,7.5v18.3h-9.6V13.2h9.7v2.9
		c2.4-2.5,5.7-3.9,9.2-3.7c4.8-0.8,9.3,2.5,10.1,7.3c0.1,0.9,0.2,1.8,0,2.7v23.5L326.8,45.8z"/>
	<path fill="#FFFFFF" d="M361.6,45.8v-3.1c-2.4,2.7-5.9,4.2-9.5,4c-7.2,0-10.2-3.6-10.2-11.7V13.2h9.7v20.8
		c-0.2,2.4,1.5,4.6,3.9,4.8c0.2,0,0.3,0,0.5,0c2.7,0.4,5.3-1.4,5.7-4.2c0.1-0.4,0.1-0.8,0-1.2V13.2h9.6v32.7L361.6,45.8z"/>
	<path fill="#FFFFFF" d="M384.9,31.5v0.4c-0.3,4,2.7,7.6,6.7,7.9c0.2,0,0.5,0,0.7,0c3.7,0,7-2.3,8.2-5.8l7.2,3.7
		c-3.3,5.9-9.5,9.5-16.2,9.4c-8.6,0.6-16-5.9-16.6-14.4c-0.1-0.8,0-1.7,0-2.5c0-8.2,4-18,16.8-18c12.7,0,16.4,9.8,16.4,18.7v0.4
		L384.9,31.5z M398.1,25.5c0.1-3.5-2.6-6.4-6.1-6.5c-0.1,0-0.1,0-0.2,0c-3.6,0.1-6.6,2.9-6.9,6.5H398.1z"/>
	<path fill="#FFFFFF" d="M436,46.8c-9,0.8-16.9-5.8-17.6-14.8c-0.1-1-0.1-1.9,0-2.9c0-9.7,7.9-17.6,17.6-17.6
		c9.7,0,17.6,7.9,17.6,17.6c0.6,8.9-6.1,16.7-15,17.4c-0.9,0.1-1.7,0.1-2.6,0 M435.7,19.4c-3.7,0-7.5,2.8-7.5,9.6
		c0,5.5,2.3,9.8,7.9,9.8c5.6,0,7.7-4.4,7.7-9.4C443.8,22.5,440.9,19.4,435.7,19.4"/>
	<path fill="#FFFFFF" d="M468.2,19.7v26.1h-9.6V19.7h-5.1v-5.9h5.1V9.2c0-5.6,4.2-8.3,9.8-8.3c1.9,0.1,3.8,0.3,5.7,0.6v7.4h-1.6
		c-4,0-4.4,0.8-4.4,3.2v1.9h6.4v5.8H468.2z"/>
	<path fill="#FFFFFF" d="M216.3,72v15.6c0,2.2,1,2.7,2.5,2.7h3.4v7.5c-2,0.4-4,0.5-6,0.5c-5.2,0-9.4-1.6-9.4-9.3V71.9H202v-5.7h4.7
		V55.8h9.5v10.3h6.4v5.9L216.3,72z"/>
	<path fill="#FFFFFF" d="M245.4,97.9V80.3c0-3.4-0.2-7.7-4.9-7.7c-4,0-5.2,3-5.2,8.1v17.2h-9.7V53.8h9.7v15
		c2.3-2.8,5.7-4.4,9.3-4.4c5.4-0.3,10.1,3.8,10.5,9.2c0,0.7,0,1.3-0.1,2v22.3H245.4z"/>
	<path fill="#FFFFFF" d="M268.4,83.8L268.4,83.8c-0.3,4.1,2.7,7.6,6.8,7.9c0.2,0,0.5,0,0.7,0c3.7,0,7-2.3,8.2-5.8l7.2,3.7
		c-3.3,5.9-9.5,9.5-16.2,9.4c-8.6,0.6-16-5.9-16.6-14.4c-0.1-0.8,0-1.7,0-2.5c0-8.2,4-18,16.8-18s16.4,9.8,16.4,18.9v0.6H268.4z
		 M281.7,77.8c0.1-3.5-2.6-6.3-6.1-6.4c-0.1,0-0.3,0-0.4,0c-3.6,0.1-6.5,2.9-6.9,6.4L281.7,77.8z"/>
	<path fill="#FFFFFF" d="M328.7,97.9l-2.2-7.1h-16.3l-2.2,7.1h-11.9l16.4-44.1h11.5l16.2,44.1H328.7z M318.2,64.3l-5.4,18.7H324
		L318.2,64.3z"/>
	<path fill="#FFFFFF" d="M352.3,65.3v3.4c2.2-2.9,5.6-4.5,9.2-4.4c3.5-0.2,6.9,1.2,9.1,3.8c2.6-2.4,6.1-3.8,9.7-3.8
		c4.8-0.7,9.3,2.7,10,7.5c0.1,0.7,0.1,1.4,0,2.1v24h-9.6V79.1c0-4.4-1.1-6.9-4.4-6.9c-3.4,0-5.1,2.2-5.1,6.1V98h-9.5V78.4
		c0-4.4-1.7-6.1-4.7-6.1c-4.4,0-4.8,4-4.8,6.7V98h-9.5V65.3H352.3z"/>
	<path fill="#FFFFFF" d="M403.8,83.8L403.8,83.8c-0.2,4.1,2.9,7.5,7,7.8c0.2,0,0.3,0,0.5,0c3.7,0.1,7.1-2.2,8.4-5.6l7.3,3.7
		c-3.3,5.9-9.5,9.5-16.3,9.4c-8.6,0.6-16-5.9-16.5-14.5c-0.1-0.8,0-1.6,0-2.4c0-8.2,4-18,16.8-18s16.4,9.8,16.4,18.9v0.6H403.8z
		 M417.1,77.8c0.2-3.5-2.5-6.4-6-6.6c-0.1,0-0.1,0-0.2,0c-3.6,0.1-6.5,2.9-6.9,6.4L417.1,77.8z"/>
	<path fill="#FFFFFF" d="M439.7,65.3v3.4c1.1-1.1,2.4-1.9,3.8-2.5c1.8-0.8,3.7-1.2,5.6-1.3v8.5l-3.2,0.5c-5.1,0.8-6,2.1-6,5.6V98
		h-9.6V65.3H439.7z"/>
	<path fill="#FFFFFF" d="M451.2,53.8h9.6v7.5h-9.6V53.8z M451.2,65.3h9.6V98h-9.6V65.3z"/>
	<path fill="#FFFFFF" d="M495.3,90.3c-2.8,5.4-8.4,8.8-14.5,8.8c-8.7,0.3-16-6.6-16.3-15.3c0-0.6,0-1.3,0.1-1.9
		c-1-8.7,5.4-16.6,14.1-17.6c0.8-0.1,1.5-0.1,2.3-0.1c5.7,0,11,3,13.8,8l-7.1,4.1c-1.1-2.6-3.6-4.3-6.4-4.4c-5.1,0-6.9,5.9-6.9,9.8
		s1.9,9.8,7.2,9.8c3,0,5.5-2,6.3-4.9L495.3,90.3z"/>
	<path fill="#FFFFFF" d="M517.5,97.9V95c-2.8,2.4-6.3,3.7-10,3.8c-5.4,0.5-10.2-3.5-10.6-9c0-0.3,0-0.6,0-1c0.1-4.3,2.9-8,6.9-9.5
		c4.2-1.4,8.5-2.4,12.9-3v-1.8c0.3-1.9-1-3.7-3-3.9c-0.2,0-0.5,0-0.8,0c-4.1,0-4.8,2.4-5.1,3.8h-9.6c0-7.2,6.6-10.1,13.8-10.1
		c5.6,0,14.1,1.5,14.1,9.4v19.1c-0.3,1.7,0.1,3.5,0.9,5L517.5,97.9z M510.4,84.4c-3.3,1.1-4.1,2.6-4.1,4.1c0.1,1.9,1.7,3.4,3.7,3.3
		c0,0,0,0,0,0c4-0.2,7-3.6,6.8-7.6c0-0.1,0-0.2,0-0.3v-1.4L510.4,84.4z"/>
	<path fill="#FFFFFF" d="M552.7,74.6c-2.4-2-5.3-3.1-8.3-3.2c-2,0-4.4,0.7-4.4,2.5s1.5,2.1,5.3,2.8l2.3,0.4
		c7.1,1.3,11.8,4.2,11.8,10.3c0,8.1-8.8,11.4-15.4,11.4c-5.9,0.2-11.7-2-15.9-6.1l6-5.5c2.5,2.7,5.9,4.2,9.5,4.4
		c3.2,0,5.8-1.1,5.8-3.2c0-2-1.7-2.3-5.2-2.9l-3-0.5c-7.7-1.3-10.9-4.7-10.9-9.7s4.6-10.9,13.9-10.9c5.2,0,10.4,1.7,14.5,4.9
		L552.7,74.6z"/>
</g>
</svg>
