<svg xmlns="http://www.w3.org/2000/svg" viewBox="0 0 440 100" width="440" height="100">
<g fill="#000">
	<path d="M2.1,36.2v-3.4C2.1,10.1,16.8,0,35.9,0s32.7,10.8,32.7,29.4c0,16.8-9.1,29.5-37.2,51
		c0,0,33.5-0.6,37.5-0.6V98H2.8V81.3c7.4-5.8,12.5-9.7,22.3-18.2c11.3-10.1,19.6-18,19.6-33.3c0-3.8,0-13.2-9.8-13.2
		c-3.8,0-10.5,1.7-10.5,11.8c0,2.4,0.3,6.1,0.5,9.1L2.1,36.2z"/>
	<path d="M108,0c30.9,0,34.1,36.5,34.1,50.2c0,22.1-7.2,49.8-34.9,49.8c-22.7,0-33.4-19.9-33.4-51
		C73.7,22.1,84.4,0,108,0 M108,82.4c10.8,0,12.8-16.5,12.8-32s-2.6-32.6-13.2-32.6S94.7,32,94.7,53.9c0,11.1,1.7,28.7,13.2,28.7"/>
	<path d="M155.8,2h55.4l-1.4,18.2h-36.3l-2.3,17.6c4.3-3.4,9.7-5.2,15.2-5c18.6,0,29,14.3,29,31.8
		c0,16.8-10.5,35.3-36.2,35.3c-23.6,0-33-15.6-33-32.1l22.6-0.8c0,9.5,3,15.7,11.3,15.7c11.2,0,12-12.6,12-17.9
		c0-11.8-5.7-16.6-12.2-16.6c-4.7-0.3-9,2.9-10.1,7.5L150,52.4L155.8,2z"/>
	<polygon points="253.3,45.9 253.3,27.1 237.2,27.1 237.2,45.9 226.1,45.9 226.1,1.7 237.2,1.7 237.2,17.7 
		253.3,17.7 253.3,1.7 264.4,1.7 264.4,45.9 		"/>
	<path d="M290.4,45.9v-3.1c-2.4,2.7-5.9,4.2-9.5,4c-7.2,0-10.3-3.6-10.3-11.7V13.2h9.7v21c-0.2,2.4,1.5,4.6,3.9,4.8
		c0.2,0,0.5,0,0.7,0c2.7,0.3,5.2-1.7,5.5-4.4c0-0.3,0-0.7,0-1V13.2h9.6v32.7H290.4z"/>
	<path d="M326.7,45.9v-3.1c-2.2,2.5-5.5,4-8.8,4c-7.7,0-14.2-6-14.2-17c0-9.7,4.8-17.6,13.6-17.6
		c3.3,0,6.4,1.2,8.8,3.4V1.7h9.3v44.1L326.7,45.9z M319.7,39.7c6.3,0,6.5-8.2,6.5-9.8c0-4.1-0.7-10.2-6-10.2s-6.6,5.5-6.6,10.1
		C313.6,32.6,314.2,39.7,319.7,39.7"/>
	<path d="M362,22.6c-2.3-2-5.3-3.1-8.3-3.3c-2.1,0-4.4,0.7-4.4,2.5s1.5,2,5.3,2.8l2.3,0.4
		c7.1,1.3,11.8,4.4,11.8,10.3c0,8.1-8.8,11.4-15.5,11.4c-5.9,0.1-11.6-2.1-15.8-6.3l6.1-5.5c2.5,2.7,5.9,4.2,9.5,4.4
		c3.2,0,5.8-1.1,5.8-3.2c0-2.1-1.7-2.3-5.2-2.9l-3-0.4c-7.8-1.3-10.9-4.7-10.9-9.7s4.4-10.9,13.8-10.9c5.2,0,10.3,1.7,14.5,4.9
		L362,22.6z"/>
	<path d="M387.3,46.9c-9,0.8-16.9-5.8-17.6-14.8c-0.1-1-0.1-1.9,0-2.9c0-9.7,7.9-17.6,17.6-17.6
		c9.7,0,17.6,7.9,17.6,17.6c0.6,8.9-6.1,16.7-15,17.3c-0.9,0.1-1.8,0.1-2.7,0 M387,19.5c-3.7,0-7.5,2.7-7.5,9.6
		c0,5.4,2.3,9.7,7.9,9.7c5.6,0,7.7-4.4,7.7-9.3C395.1,22.6,392.2,19.5,387,19.5"/>
	<path d="M428.1,45.9V25.8c0-3.1-0.9-5.6-4.8-5.6c-3.9,0-5.1,3.1-5.1,7.5v18.3h-9.6V13.2h9.7v2.9
		c2.4-2.5,5.7-3.9,9.2-3.7c4.8-0.8,9.3,2.5,10.1,7.3c0.1,0.9,0.2,1.8,0,2.7v23.5H428.1z"/>
	<path d="M255.2,67c-2.9-3.3-7.1-5.2-11.6-5.3c-4.4,0-6.6,2.6-6.6,4.7s1.9,3.5,5.6,4.1l4.9,0.7
		c11.5,1.6,16.3,5.2,16.3,12.7c0,9.4-7.5,15.4-20.1,15.4c-7.7,0.5-15.3-2.8-20.1-8.8l8.4-5.3c3.3,3.5,7.9,5.4,12.7,5.2
		c3.3,0,8.2-1.4,8.2-5.1c0-3.7-3.8-4-7.7-4.4l-4.9-0.8c-7.8-1.1-14.1-4.7-14.1-12.4c0-8.8,6.4-14.8,17.6-14.8
		c7.4,0,14.4,3,19.5,8.4L255.2,67z"/>
	<path d="M278.2,72.1v15.7c0,2.2,1,2.7,2.5,2.7h3.4v7.5c-2,0.4-4,0.5-6.1,0.5c-5.2,0-9.3-1.6-9.3-9.3V72.1h-4.8
		v-5.9h4.8V56h9.5v10.2h6.3V72L278.2,72.1z"/>
	<path d="M296.9,65.4v3.4c1.1-1.1,2.4-1.9,3.8-2.4c1.8-0.8,3.7-1.2,5.6-1.3v8.5l-3.2,0.5c-5,0.8-6,2.1-6,5.6v18.4
		h-9.6V65.4H296.9z"/>
	<path d="M316.4,83.8v0.4c-0.2,4,2.8,7.5,6.9,7.8c0.2,0,0.4,0,0.6,0c3.7,0,7-2.3,8.2-5.8l7.3,3.7
		c-3.3,5.9-9.5,9.5-16.3,9.5c-8.6,0.6-16-5.9-16.6-14.5c-0.1-0.8,0-1.7,0-2.5c0-8.2,4-18,16.8-18c12.7,0,16.4,9.8,16.4,18.9v0.5
		H316.4z M329.6,77.8c0.1-3.5-2.7-6.4-6.2-6.4c-0.1,0-0.2,0-0.4,0c-3.6,0.1-6.5,2.9-6.9,6.4H329.6z"/>
	<path d="M350.9,83.8v0.4c-0.2,4,2.8,7.5,6.9,7.8c0.2,0,0.4,0,0.6,0c3.7,0,7-2.3,8.2-5.8l7.2,3.7
		c-3.3,5.9-9.5,9.6-16.3,9.5c-8.6,0.5-16-6-16.5-14.6c0-0.8,0-1.6,0-2.3c0-8.2,4-18,16.8-18c12.7,0,16.4,9.8,16.4,18.9v0.4H350.9z
		 M364.2,77.8c0.1-3.5-2.6-6.3-6.1-6.4c-0.1,0-0.3,0-0.4,0c-3.6,0.1-6.6,2.9-6.9,6.4H364.2z"/>
	<path d="M388.3,72.1v15.7c0,2.2,1,2.7,2.5,2.7h3.4v7.5c-2,0.4-4,0.5-6.1,0.5c-5.2,0-9.3-1.6-9.3-9.3V72.1H374v-5.9
		h4.8V56h9.5v10.2h6.4V72L388.3,72.1z"/>
</g>
</svg>
