<svg xmlns="http://www.w3.org/2000/svg" viewBox="0 0 450 100" width="450" height="100">
<g fill="#000">
	<path d="M2.9,29.1C5.1,6,21,0,36.5,0C62.5,0,68,16.6,68,25.9c0.4,10-6.2,18.9-15.9,21.5c11,1.4,19,11,18.4,22.1
		c0,9.1-6,30.4-36.6,30.4C12.5,99.8,1,87,1,67.8v-2.1l22.1-1.9c0,0,0,2.7,0,4.1c0,8.8,5.3,14.2,11.8,14.2c7.5,0,12.7-5.3,12.7-14.2
		c0-10.9-8.3-12.4-14.2-12.4c-1.1,0-3.1,0-3.1,0V39.4c0,0,2.1,0,3.3,0c6,0.6,11.4-3.7,12-9.7c0.1-0.5,0.1-1.1,0.1-1.6
		c0.3-5.6-3.9-10.5-9.6-10.8c-0.3,0-0.6,0-0.9,0c-9.8,0-9.8,9.8-9.8,13.9L2.9,29.1z"/>
	<path d="M136.5,75.8v22.3H114V76H74.9c0-3.3,0.3-17.4,0.3-17.4L115,1.8h21.5v58.3h12.8v15.6H136.5z M114.2,26.2
		l-22.9,34h22.9V26.2z"/>
	<path d="M163.6,2h55.5l-1.4,18.2h-36.4L179,37.8c4.3-3.4,9.7-5.2,15.2-5c18.6,0,29,14.3,29,31.8
		c0,16.8-10.6,35.3-36.3,35.3c-23.6,0-33-15.6-33-32.1l22.6-0.8c0,9.5,3,15.8,11.4,15.8c11.2,0,11.9-12.6,11.9-17.9
		c0-11.8-5.7-16.6-12.2-16.6c-4.7-0.3-8.9,2.9-10,7.5l-19.8-3.3L163.6,2z"/>
	<polygon points="264.3,46 264.3,27.1 248.2,27.1 248.2,46 237,46 237,1.7 248.2,1.7 248.2,17.7 264.3,17.7 
		264.3,1.7 275.4,1.7 275.4,46 		"/>
	<path d="M301.2,46v-3.1c-2.4,2.7-5.9,4.2-9.5,4c-7.2,0-10.2-3.6-10.2-11.7V13.2h9.7v21c-0.2,2.4,1.5,4.6,4,4.8
		c0.2,0,0.3,0,0.5,0c2.7,0.3,5.2-1.6,5.5-4.4c0-0.3,0-0.7,0-1V13.2h9.6V46H301.2z"/>
	<path d="M337.7,46v-3.1c-2.2,2.5-5.5,4-8.8,4c-7.7,0-14.1-6-14.1-17c0-9.7,4.8-17.7,13.6-17.7
		c3.3,0,6.4,1.2,8.8,3.4V1.7h9.3v44.2L337.7,46z M330.8,39.7c6.3,0,6.5-8.3,6.5-9.8c0-4.1-0.8-10.2-6-10.2s-6.7,5.5-6.7,10.2
		C324.6,32.7,325.2,39.7,330.8,39.7"/>
	<path d="M373,22.6c-2.3-2-5.2-3.1-8.3-3.3c-2.1,0-4.4,0.7-4.4,2.5c0,1.9,1.5,2,5.3,2.8l2.3,0.4
		c7.1,1.3,11.7,4.4,11.7,10.3c0,8.1-8.8,11.4-15.5,11.4c-5.9,0.2-11.7-2.1-15.8-6.3l5.8-5.5c2.5,2.7,5.9,4.2,9.5,4.4
		c3.2,0,5.8-1.1,5.8-3.2s-1.7-2.3-5.2-2.9l-3-0.5c-7.8-1.3-10.9-4.7-10.9-9.7s4.4-10.9,13.8-10.9c5.2,0,10.4,1.7,14.5,4.9L373,22.6
		z"/>
	<path d="M398.4,46.9c-9,0.8-16.9-5.8-17.7-14.8c-0.1-1-0.1-1.9,0-2.9c0-9.8,7.9-17.7,17.7-17.7S416,19.5,416,29.3
		c0.6,8.9-6.1,16.7-15,17.4c-0.9,0.1-1.8,0.1-2.6,0 M398,19.6c-3.6,0-7.4,2.7-7.4,9.6c0,5.4,2.3,9.8,7.9,9.8s7.7-4.4,7.7-9.3
		C406.2,22.6,403.3,19.6,398,19.6"/>
	<path d="M439.3,46V25.8c0-3.1-0.9-5.7-4.8-5.7c-3.9,0-5.3,3.1-5.3,7.5V46h-9.4V13.2h9.8v2.9
		c2.4-2.5,5.7-3.9,9.2-3.7c4.8-0.8,9.4,2.5,10.1,7.3c0.1,0.9,0.2,1.8,0,2.7V46H439.3z"/>
	<path d="M266.2,67.1c-3-3.3-7.2-5.2-11.6-5.3c-4.4,0-6.6,2.6-6.6,4.7s1.9,3.5,5.7,4.1l4.9,0.7
		c11.7,1.4,16.2,4.9,16.2,12.6c0,9.4-7.4,15.4-20.1,15.4c-7.8,0.5-15.3-2.8-20.2-8.8l8.4-5.3c3.3,3.6,7.9,5.6,12.8,5.6
		c3.3,0,8.1-1.4,8.1-5.1s-3.8-4-7.7-4.4l-5.1-0.7c-7.8-1.1-14.1-4.7-14.1-12.5c0-8.8,6.4-14.8,17.7-14.8c7.4,0,14.4,3,19.5,8.4
		L266.2,67.1z"/>
	<path d="M289.2,72.2v15.7c0,2.2,1,2.7,2.5,2.7h3.4V98c-2,0.4-4.1,0.5-6.1,0.5c-5.3,0-9.3-1.6-9.3-9.3V72.1h-4.9
		v-5.9h4.8V56h9.5v10.2h6.4v5.9L289.2,72.2z"/>
	<path d="M307.8,65.5v3.4c1.1-1.1,2.4-1.9,3.8-2.4c1.8-0.8,3.7-1.2,5.7-1.3v8.5l-3.2,0.5c-5.1,0.8-6,2.1-6,5.7v18.4
		h-9.6V65.5H307.8z"/>
	<path d="M327.4,83.9v0.4c-0.2,4,2.8,7.5,6.9,7.8c0.2,0,0.4,0,0.6,0c3.7,0,7-2.3,8.3-5.8l7.2,3.8
		c-3.3,5.9-9.5,9.6-16.2,9.5c-8.6,0.6-16-5.9-16.6-14.5c-0.1-0.8,0-1.6,0-2.4c0-8.2,4-18,16.8-18c12.8,0,16.4,9.8,16.4,18.9v0.4
		H327.4z M340.6,77.9c0.1-3.5-2.6-6.3-6.1-6.4c-0.1,0-0.3,0-0.4,0c-3.6,0.1-6.6,2.9-6.9,6.4H340.6z"/>
	<path d="M362,83.9v0.4c-0.2,4,2.8,7.5,6.9,7.8c0.2,0,0.4,0,0.5,0c3.7,0,7-2.3,8.3-5.8l7.2,3.8
		c-3.3,5.9-9.5,9.6-16.3,9.5c-8.6,0.5-16-6-16.5-14.6c0-0.8,0-1.6,0-2.3c0-8.2,4-18,16.8-18c12.8,0,16.4,9.8,16.4,18.9v0.4H362z
		 M375.3,77.9c0.1-3.5-2.6-6.3-6.1-6.4c-0.1,0-0.3,0-0.4,0c-3.6,0.1-6.6,2.9-6.8,6.4H375.3z"/>
	<path d="M399.3,72.2v15.7c0,2.2,1,2.7,2.5,2.7h3.4V98c-2,0.4-4.1,0.5-6.1,0.5c-5.3,0-9.3-1.6-9.3-9.3V72.1h-4.7
		v-5.9h4.8V56h9.5v10.2h6.4v5.9L399.3,72.2z"/>
</g>
</svg>
