<svg xmlns="http://www.w3.org/2000/svg" viewBox="0 0 380 100" width="380" height="100">
<g fill="#000">
	<path d="M4.8,16.1c5.5,0,10.9-1.2,15.9-3.5c4.5-2.2,8-6.1,9.9-10.8h17.3v96H25.1V27.7c-5.2,2.3-6.5,3-20.2,3V16.1z"/>
	<path d="M99.7,28.6v-1.8c0.5-4.8-3.1-9.1-7.9-9.6c-0.3,0-0.6,0-0.9,0c-12.3,0-13.6,18.2-14,30.3
		c4.3-7.3,12.3-11.7,20.8-11.2c11.6,0,26.4,8.2,26.4,29.5S110,99.4,89.7,99.4c-16.8,0-34.4-10.8-34.4-47.3C55.4,26.1,61.5,0,92.8,0
		c24.4,0,28.3,19,29.6,26.1L99.7,28.6z M90.9,82.7c11.7,0,11.7-12.8,11.7-15.4c0-3.7-0.6-14.7-11.5-14.7
		c-6.6,0.2-11.6,5.1-11.6,14.7c0,5.2,1.3,15.4,11,15.4"/>
	<path d="M162.6,0.3c30.8,0,33.9,36.4,33.9,50c0,22-7.2,49.7-34.8,49.7c-22.6,0-33.3-19.8-33.3-50.9
		C128.5,22,139.1,0.3,162.6,0.3 M162.6,82.4c10.7,0,12.7-16.4,12.7-31.8S172.8,18,162.1,18c-10.6,0-12.8,14-12.9,35.8
		c0,11,1.7,28.6,13.2,28.6"/>
	<polygon points="226.6,45.9 215.4,45.9 200.3,1.8 212,1.8 221.2,33.2 230.2,1.8 241.9,1.8 		"/>
	<path d="M257.4,45.9V43c-2.8,2.4-6.3,3.8-10,3.8c-5.4,0.5-10.1-3.5-10.6-8.9c0-0.3,0-0.7,0-1
		c0.2-4.2,2.9-7.9,6.9-9.4c4.2-1.3,8.5-2.3,12.8-3v-1.8c0.3-1.9-1-3.6-2.9-3.9c-0.3,0-0.5,0-0.8,0c-4,0-4.8,2.4-5.1,3.8h-9.6
		c0-7.2,6.6-10.1,13.7-10.1c5.6,0,14,1.5,14,9.3v19c-0.3,1.7,0.1,3.5,0.9,5.1H257.4z M250.3,32.4c-3.3,1.1-4.1,2.6-4.1,4
		c0.1,1.9,1.7,3.4,3.6,3.3c0,0,0,0,0.1,0c4-0.3,7-3.7,6.7-7.7c0-0.1,0-0.2,0-0.3v-1.5L250.3,32.4z"/>
	<path d="M280.8,13.2v3.5c1.1-1,2.4-1.9,3.8-2.4c1.8-0.7,3.7-1.1,5.6-1.1v8.3L287,22c-5.1,0.8-6,2.1-6,5.6V46h-9.5
		V13.2H280.8z"/>
	<path d="M292.2,1.8h9.5v7.4h-9.5V1.8z M292.2,13.4h9.5v32.5h-9.5V13.4z"/>
	<path d="M336.2,38.2c-2.8,5.4-8.4,8.8-14.5,8.8c-8.7,0.3-15.9-6.6-16.2-15.3c0-0.6,0-1.2,0.1-1.8
		c-1-8.7,5.3-16.5,14-17.5c0.8-0.1,1.6-0.1,2.4-0.1c5.7-0.1,11,2.9,13.9,7.9l-7.1,4c-1.1-2.6-3.6-4.3-6.4-4.4
		c-5.1,0-6.9,5.8-6.9,9.8s1.9,10,7.2,10c3,0,5.5-2,6.3-4.9L336.2,38.2z"/>
	<polygon points="360.3,45.9 352,31.9 347.9,35.8 347.9,45.9 338.5,45.9 338.5,1.8 347.9,1.8 347.9,24.5 
		358.5,13.4 370,13.4 358.8,24.9 371.5,45.9 		"/>
	<path d="M236.2,67c-2.9-3.3-7-5.3-11.4-5.4c-4.4,0-6.6,2.6-6.6,4.7s1.9,3.5,5.6,4l4.8,0.7
		c11.5,1.6,16.2,5.1,16.2,12.7c0,9.3-7.4,15.3-20,15.3c-7.7,0.5-15.2-2.8-20.1-8.8l8.4-5.3c3.3,3.6,7.9,5.6,12.8,5.5
		c3.2,0,8.1-1.4,8.1-5.1s-3.7-4-7.7-4.4l-5-0.7c-7.7-1.1-14.1-4.7-14.1-12.4c0-8.8,6.5-14.7,17.6-14.7c7.3,0,14.3,3,19.4,8.4
		L236.2,67z"/>
	<path d="M259.1,72v15.6c0,2.2,1,2.7,2.5,2.7h3.3v7.4c-2,0.4-4,0.6-6,0.5c-5.3,0-9.3-1.6-9.3-9.2V72h-4.7v-6h4.7
		v-10h9.5v10.2h6.4V72L259.1,72z"/>
	<path d="M277.5,65.3v3.4c1.1-1.1,2.4-1.9,3.8-2.4c1.8-0.8,3.7-1.2,5.6-1.3v8.5l-3.2,0.5c-5.1,0.8-6,2.1-6,5.6v18.3
		h-9.4V65.3H277.5z"/>
	<path d="M297.1,83.6v0.4c-0.2,4.1,2.9,7.5,7,7.7c0.1,0,0.3,0,0.4,0c3.6,0,6.9-2.3,8.1-5.7l7.3,3.7
		c-3.3,5.8-9.4,9.4-16.1,9.4c-8.5,0.6-15.9-5.9-16.5-14.4c-0.1-0.8,0-1.6,0-2.4c0-8.2,4-17.9,16.7-17.9c12.7,0,16.4,9.8,16.4,18.8
		v0.4H297.1z M310.3,77.6c0-3.5-2.8-6.3-6.2-6.3c-0.1,0-0.1,0-0.2,0c-3.6,0.1-6.5,2.9-6.9,6.4L310.3,77.6z"/>
	<path d="M331.6,83.6v0.4c-0.3,4,2.8,7.5,6.8,7.8c0.2,0,0.5,0,0.7,0c3.7,0,7-2.3,8.2-5.8l7.3,3.7
		c-3.3,5.9-9.5,9.5-16.2,9.4c-8.5,0.6-15.9-5.8-16.5-14.4c-0.1-0.8,0-1.7,0-2.5c0-8.2,4-17.9,16.8-17.9c12.8,0,16.3,9.8,16.3,18.8
		v0.4H331.6z M344.8,77.6c0.1-3.5-2.7-6.3-6.2-6.4c-0.1,0-0.2,0-0.4,0c-3.6,0.1-6.5,2.9-6.9,6.4H344.8z"/>
	<path d="M368.8,72v15.6c0,2.2,1,2.7,2.5,2.7h3.4v7.4c-2,0.4-4,0.6-6.1,0.5c-5.2,0-9.3-1.6-9.3-9.2V72h-4.7v-6h4.7
		v-10h9.5v10.2h6.4V72L368.8,72z"/>
</g>
</svg>
