<svg xmlns="http://www.w3.org/2000/svg" viewBox="0 0 450 100" width="450" height="100">
<g fill="#fff">
	<path d="M1.8,36.2v-3.4C1.8,10.1,16.4,0,35.5,0s32.6,10.8,32.6,29.4c0,16.7-9.1,29.5-37.2,50.9
		c0,0,33.5-0.6,37.5-0.6v18.1h-66V81.1C9.9,75.3,15,71.5,24.8,63c11.3-10.1,19.6-18,19.6-33.2c0-3.8,0-13.2-9.8-13.2
		c-3.8,0-10.5,1.7-10.5,11.8c0,2.4,0.3,6.1,0.5,9.1L1.8,36.2z"/>
	<path d="M108.9,0c30.8,0,33.9,36.6,33.9,50.2c0,22-7.2,49.8-34.9,49.8c-22.7,0-33.3-19.8-33.3-50.9
		C74.7,22,85.5,0,108.9,0 M108.9,82.3c10.8,0,12.8-16.5,12.8-31.9s-2.6-32.6-13.2-32.6S95.7,31.8,95.5,53.7
		c0,11.1,1.7,28.6,13.2,28.6"/>
	<path d="M185.4,0c30.8,0,34,36.5,34,50.1c0,22-7.2,49.8-34.9,49.8c-22.7,0-33.3-19.8-33.3-50.9
		C151.2,22,161.8,0,185.4,0 M185.4,82.3c10.7,0,12.7-16.5,12.7-31.9s-2.6-32.6-13.2-32.6S172.2,31.8,172,53.7
		c0,11.1,1.7,28.6,13.2,28.6"/>
	<polygon points="263.9,45.5 263.9,26.7 247.8,26.7 247.8,45.5 236.7,45.5 236.7,1.4 247.8,1.4 247.8,17.3 
		263.9,17.3 263.9,1.4 275,1.4 275,45.5 		"/>
	<path d="M300.9,45.5v-3.1c-2.4,2.7-5.9,4.2-9.5,4c-7.2,0-10.2-3.6-10.2-11.7v-22h9.6v21.1
		c-0.2,2.4,1.5,4.6,3.9,4.8c0.2,0,0.3,0,0.5,0c2.7,0.3,5.2-1.7,5.5-4.4c0-0.3,0-0.6,0-1V12.9h9.6v32.6H300.9z"/>
	<path d="M337.1,45.5v-3.1c-2.2,2.5-5.4,3.9-8.8,3.9c-7.7,0-14.1-5.9-14.1-16.9c0-9.7,4.8-17.6,13.7-17.6
		c3.3,0,6.4,1.3,8.8,3.5V1.4h9.3v44.1L337.1,45.5z M330.3,39.3c6.3,0,6.3-8.4,6.3-9.8c0-4.1-0.7-10.3-6-10.3
		c-5.3,0-6.7,5.6-6.7,10.2c0,2.9,0.6,9.9,6.2,9.9"/>
	<path d="M372.4,22c-2.3-2-5.3-3.1-8.3-3.3c-2,0-4.4,0.7-4.4,2.5c0,1.9,1.5,2,5.3,2.8l2.3,0.4
		c7.1,1.3,11.8,4.4,11.8,10.3c0,8.1-8.8,11.4-15.4,11.4c-5.9,0.2-11.6-2.1-15.8-6.3l6-5.5c2.5,2.7,5.9,4.2,9.5,4.4
		c3.2,0,5.8-1.1,5.8-3.2c0-2.1-1.7-2.1-5.3-2.6l-3-0.5c-7.7-1.3-11.1-4.7-11.1-9.7s4.4-10.9,13.8-10.9c5.2,0,10.3,1.7,14.5,4.9
		L372.4,22z"/>
	<path d="M397.8,46.5c-9,0.8-16.9-5.9-17.6-14.9c-0.1-0.9-0.1-1.8,0-2.8c0-9.7,7.9-17.6,17.6-17.6
		c9.7,0,17.6,7.9,17.6,17.6c0.7,8.9-6,16.7-14.9,17.3c-0.9,0.1-1.8,0.1-2.7,0 M397.4,19.2c-3.6,0-7.4,2.7-7.4,9.6
		c0,5.4,2.3,9.7,7.9,9.7s7.7-4.4,7.7-9.3C405.5,22.2,402.6,19.2,397.4,19.2"/>
	<path d="M438.5,45.5V25.4c0-3.1-0.8-5.6-4.7-5.6c-3.9,0-5.1,3.1-5.1,7.5v18.3H419V12.9h9.8v2.9
		c2.4-2.5,5.7-3.8,9.1-3.7c4.8-0.8,9.3,2.4,10.1,7.2c0.2,0.9,0.2,1.8,0,2.7v23.4L438.5,45.5z"/>
	<path d="M265.8,66.6c-2.9-3.4-7.1-5.4-11.5-5.5c-4.4,0-6.6,2.6-6.6,4.7s1.9,3.5,5.6,4.1l4.8,0.7
		c11.5,1.6,16.3,5.2,16.3,12.7c0,9.3-7.4,15.4-20,15.4c-7.8,0.6-15.3-2.7-20.1-8.8l8.4-5.3c3.3,3.6,7.9,5.6,12.7,5.6
		c3.3,0,8.1-1.5,8.1-5.1s-3.7-4-7.7-4.4l-5.1-0.7c-7.7-1.1-14.1-4.7-14.1-12.4c0-8.8,6.4-14.8,17.6-14.8c7.4,0,14.4,3,19.4,8.4
		L265.8,66.6z"/>
	<path d="M288.7,71.7v15.6c0,2.2,1,2.7,2.5,2.7h3.3v7.4c-2,0.4-4,0.5-6,0.5c-5.3,0-9.3-1.6-9.3-9.3v-17h-4.8v-5.9
		h4.9V55.6h9.5v10.3h6.3v5.9H288.7z"/>
	<path d="M307.4,65v3.4c1.1-1.1,2.4-1.9,3.8-2.5c1.8-0.8,3.7-1.2,5.6-1.3v8.5l-3.2,0.5c-5.1,0.8-6,2.1-6,5.6v18.4
		h-9.6V65H307.4z"/>
	<path d="M326.8,83.3v0.4c-0.2,4,2.8,7.5,6.9,7.7c0.2,0,0.4,0,0.6,0c3.7,0,7-2.3,8.2-5.8l7.3,3.7
		c-3.3,5.9-9.5,9.5-16.3,9.4c-8.5,0.6-15.9-5.9-16.5-14.4c-0.1-0.8,0-1.6,0-2.4c0-8.2,4-18,16.7-18s16.3,9.8,16.3,18.9v0.4
		L326.8,83.3z M340,77.3c0.1-3.5-2.6-6.4-6.1-6.5c-0.1,0-0.3,0-0.4,0c-3.6,0.1-6.5,2.9-6.9,6.5H340z"/>
	<path d="M361.4,83.3v0.4c-0.2,4,2.8,7.5,6.9,7.7c0.2,0,0.4,0,0.6,0c3.7,0,7-2.3,8.2-5.8l7.3,3.7
		c-3.3,5.9-9.5,9.5-16.3,9.4c-8.5,0.6-15.9-5.9-16.5-14.4c-0.1-0.8,0-1.6,0-2.4c0-8.2,4-18,16.8-18c12.8,0,16.3,9.8,16.3,18.9v0.4
		L361.4,83.3z M374.6,77.3c0.1-3.5-2.7-6.4-6.2-6.5c-0.1,0-0.2,0-0.3,0c-3.6,0.1-6.5,2.9-6.9,6.5H374.6z"/>
	<path d="M398.6,71.7v15.6c0,2.2,1,2.7,2.5,2.7h3.3v7.4c-2,0.4-4,0.5-6,0.5c-5.2,0-9.3-1.6-9.3-9.3v-17h-4.7v-5.9
		h4.7V55.6h9.5v10.3h6.4v5.9H398.6z"/>
</g>
</svg>
