<svg xmlns="http://www.w3.org/2000/svg" viewBox="0 0 570 100" width="570" height="100">
<g>
	<path fill="#FFFFFF" d="M2.5,15.2c5.6,0,11.1-1.2,16.1-3.6c4.6-2.3,8.2-6.2,10-10.9h17.5v97.5H23V26.8c-5.3,2.3-6.6,2.9-20.5,3.2
		V15.2z"/>
	<path fill="#FFFFFF" d="M61.6,0.9h56l-1.5,18.4H79.4l-2.3,17.8c4.4-3.5,9.8-5.3,15.4-5.1c18.8,0,29.3,14.5,29.3,32.2
		c0,16.9-10.6,35.7-36.6,35.7c-23.9,0-33.3-15.8-33.3-32.5l22.8-0.8c0,9.6,3,16,11.5,16c11.4,0,12.1-12.8,12.1-18.1
		c0-12-5.8-16.8-12.4-16.8c-4.8-0.3-9.1,2.9-10.2,7.6l-19.9-3.3L61.6,0.9z"/>
	<path fill="#FFFFFF" d="M136.3,0.9h56.1L191,19.4h-36.8l-2.3,17.8c4.4-3.5,9.8-5.3,15.4-5.1c18.8,0,29.3,14.5,29.3,32.2
		c0,16.9-10.7,35.7-36.6,35.7c-23.9,0-33.4-15.8-33.4-32.5l23.1-0.9c0,9.6,3,16,11.5,16c11.4,0,12.1-12.8,12.1-18.1
		c0-12-5.8-16.8-12.4-16.8c-4.8-0.3-9.1,2.9-10.2,7.6l-20-3.3L136.3,0.9z"/>
	<path fill="#FFFFFF" d="M236.9,45.4l-2.4-7.1h-16.2l-2.2,7.1h-11.9l16.6-44.6h11.6l16.5,44.6H236.9z M226.3,11.3l-5.5,18.9h11.3
		L226.3,11.3z"/>
	<polygon fill="#FFFFFF" points="266.2,45.4 256,45.4 245.2,12.4 255.6,12.4 261.4,34.7 266.8,12.4 276.9,12.4 		"/>
	<path fill="#FFFFFF" d="M285.7,30.9v0.4c-0.2,4.1,2.9,7.6,7,7.8c0.2,0,0.3,0,0.5,0c3.8,0,7.1-2.4,8.4-5.9l7.3,3.8
		c-3.3,6-9.6,9.6-16.5,9.6c-8.7,0.6-16.1-6-16.7-14.6c-0.1-0.8,0-1.6,0-2.5c0-8.3,4.1-18.2,16.9-18.2c12.9,0,16.6,9.9,16.6,19.1
		v0.4L285.7,30.9z M299.1,24.8c0.1-3.5-2.7-6.4-6.2-6.5c-0.1,0-0.1,0-0.2,0c-3.6,0.1-6.7,2.9-7,6.5H299.1z"/>
	<path fill="#FFFFFF" d="M332.3,45.4V25c0-3.1-0.9-5.7-4.8-5.7c-3.9,0-5.1,3-5.1,7.4v18.5h-9.7V12.4h9.9v2.9
		c2.4-2.6,5.8-3.9,9.3-3.7c4.9-0.8,9.4,2.5,10.2,7.4c0.1,0.9,0.2,1.8,0,2.8v23.7H332.3z"/>
	<path fill="#FFFFFF" d="M367.5,45.4v-3.1c-2.4,2.7-6,4.2-9.6,4c-7.3,0-10.3-3.7-10.3-11.8V12.2h9.8v21.4c-0.2,2.5,1.6,4.6,4,4.8
		c0.1,0,0.3,0,0.4,0c2.8,0.3,5.3-1.7,5.6-4.5c0-0.3,0-0.7,0-1V12.4h9.9v33H367.5z"/>
	<path fill="#FFFFFF" d="M391,30.9v0.4c-0.2,4.1,2.9,7.6,7,7.8c0.2,0,0.3,0,0.5,0c3.7,0,7.1-2.4,8.3-5.9l7.3,3.8
		c-3.3,6-9.6,9.6-16.4,9.5c-8.7,0.6-16.2-5.9-16.8-14.6c-0.1-0.8,0-1.7,0-2.5c0-8.3,4.1-18.2,16.9-18.2c12.9,0,16.6,9.9,16.6,19.1
		v0.4L391,30.9z M404.4,24.8c0.1-3.5-2.7-6.4-6.2-6.5c-0.1,0-0.1,0-0.2,0c-3.6,0.1-6.6,2.9-7,6.5H404.4z"/>
	<path fill="#FFFFFF" d="M442.8,46.4c-9.1,0.8-17-5.9-17.8-14.9c-0.1-1-0.1-1.9,0-2.9c0-9.9,8-17.8,17.8-17.8s17.8,8,17.8,17.8
		c0.7,9-6.1,16.9-15.2,17.6c-0.9,0.1-1.8,0.1-2.7,0 M442.4,18.7c-3.7,0-7.5,2.8-7.5,9.7c0,5.5,2.3,9.9,8,9.9c5.7,0,7.8-4.5,7.8-9.4
		C450.7,21.8,447.7,18.7,442.4,18.7"/>
	<path fill="#FFFFFF" d="M475.3,19v26.3h-9.7V19h-5.2v-5.9h5.2V8.3c0-5.7,4.2-8.3,9.9-8.3c1.9,0,3.9,0.2,5.8,0.6v7.3h-1.6
		c-4.1,0-4.5,0.8-4.5,3.3v2h6.5V19H475.3z"/>
	<path fill="#FFFFFF" d="M220.5,71.9v15.8c0,2.2,1,2.7,2.5,2.7h3.4v7.5c-2,0.4-4.1,0.6-6.1,0.5c-5.3,0-9.5-1.7-9.5-9.4V71.8h-4.8
		v-5.9h4.8V55.5h9.6v10.4h6.5v5.9H220.5z"/>
	<path fill="#FFFFFF" d="M250,98.1V80.3c0-3.4-0.2-7.8-5-7.8c-4.1,0-5.3,3.1-5.3,8.3v17.4H230V53.5h9.8v15.2
		c2.3-2.8,5.8-4.4,9.4-4.5c5.5-0.3,10.3,3.8,10.6,9.3c0,0.7,0,1.3-0.1,2v22.6H250z"/>
	<path fill="#FFFFFF" d="M273.3,83.6V84c-0.2,4.1,2.9,7.6,7,7.8c0.2,0,0.3,0,0.5,0c3.7,0,7.1-2.4,8.3-5.9l7.3,3.8
		c-3.3,6-9.6,9.6-16.4,9.5c-8.7,0.6-16.2-5.9-16.8-14.6c-0.1-0.8,0-1.7,0-2.5c0-8.3,4.1-18.2,16.9-18.2c12.9,0,16.6,9.9,16.6,19.1
		v0.4H273.3z M286.7,77.6c0.1-3.5-2.7-6.4-6.1-6.5c-0.1,0-0.3,0-0.4,0c-3.6,0.1-6.6,2.9-7,6.5H286.7z"/>
	<path fill="#FFFFFF" d="M334.2,98.1L332,91h-16.5l-2.2,7.1h-12L318,53.5h11.6L346,98.1H334.2z M323.7,64.1L318.2,83h11.3
		L323.7,64.1z"/>
	<path fill="#FFFFFF" d="M358.1,65.1v3.4c2.2-2.9,5.6-4.6,9.3-4.5c3.5-0.3,6.9,1.2,9.2,3.8c2.7-2.5,6.2-3.8,9.8-3.8
		c4.9-0.7,9.4,2.7,10.1,7.6c0.1,0.7,0.1,1.4,0,2.1v24.4h-9.7v-19c0-4.5-1.1-7-4.5-7c-3.4,0-5.2,2.2-5.2,6.2v19.8h-9.6V78.4
		c0-4.5-1.7-6.2-4.8-6.2c-4.5,0-4.9,4.1-4.9,6.9v19.1h-9.6v-33H358.1z"/>
	<path fill="#FFFFFF" d="M410.2,83.6V84c-0.2,4.1,2.9,7.6,7,7.8c0.2,0,0.3,0,0.5,0c3.8,0.1,7.2-2.3,8.5-5.9l7.4,3.8
		c-3.3,5.9-9.6,9.6-16.5,9.5c-8.7,0.6-16.1-6-16.7-14.6c-0.1-0.8,0-1.6,0-2.5c0-8.3,4-18.2,16.9-18.2c12.9,0,16.5,9.9,16.5,19.1
		v0.4L410.2,83.6z M423.6,77.6c0.1-3.5-2.7-6.4-6.2-6.5c0,0,0,0,0,0c-3.6,0.1-6.6,2.9-7,6.5H423.6z"/>
	<path fill="#FFFFFF" d="M446.5,65.1v3.4c1.1-1,2.4-1.9,3.8-2.5c1.8-0.8,3.7-1.2,5.7-1.3v8.6l-3.2,0.5c-5.1,0.8-6.1,2.2-6.1,5.7
		v18.6h-9.7v-33H446.5z"/>
	<path fill="#FFFFFF" d="M458.1,53.5h9.7V61h-9.7V53.5z M458.1,65.2h9.7v33h-9.7V65.2z"/>
	<path fill="#FFFFFF" d="M502.7,90.3c-2.9,5.5-8.5,8.9-14.7,8.9c-8.8,0.3-16.2-6.6-16.5-15.5c0-0.6,0-1.3,0.1-1.9
		c-1-8.8,5.4-16.8,14.3-17.8c0.8-0.1,1.6-0.1,2.3-0.1c5.8,0,11.1,3.1,13.9,8.1l-7.2,4.1c-1.1-2.6-3.6-4.4-6.5-4.5
		c-5.2,0-7,5.9-7,9.9s2,9.9,7.4,9.9c3,0,5.6-2.1,6.4-5L502.7,90.3z"/>
	<path fill="#FFFFFF" d="M525.2,98.1v-3c-2.8,2.4-6.4,3.8-10.1,3.9c-5.5,0.5-10.3-3.6-10.8-9.1c0-0.3,0-0.7,0-1
		c0.2-4.3,2.9-8,7-9.5c4.2-1.4,8.6-2.4,13-3.1v-1.8c0.3-1.9-1-3.7-2.9-3.9c-0.3,0-0.5,0-0.8,0c-4.1,0-4.9,2.4-5.1,3.8h-9.7
		c0-7.3,6.7-10.2,13.9-10.2c5.7,0,14.2,1.5,14.2,9.5V93c-0.3,1.8,0.1,3.6,0.9,5.1L525.2,98.1z M518,84.4c-3.3,1.1-4.1,2.7-4.1,4.1
		c0.1,1.9,1.7,3.5,3.7,3.4c0,0,0,0,0.1,0c4-0.2,7.1-3.7,6.9-7.7c0-0.1,0-0.3,0-0.4v-1.5L518,84.4z"/>
	<path fill="#FFFFFF" d="M560.7,74.5c-2.4-2-5.3-3.2-8.4-3.3c-2.1,0-4.5,0.7-4.5,2.5c0,1.8,1.5,2.1,5.4,2.9l2.3,0.4
		c7.2,1.3,11.9,4.2,11.9,10.3c0,8.3-8.9,11.5-15.6,11.5c-6,0.2-11.8-2.1-16-6.4L542,87c2.5,2.7,6,4.3,9.6,4.5
		c3.2,0,5.9-1.1,5.9-3.2c0-2.1-1.7-2.3-5.3-2.9l-3-0.5c-7.8-1.3-11.1-4.8-11.1-9.8s4.7-11.1,14-11.1c5.3,0,10.5,1.7,14.7,5
		L560.7,74.5z"/>
</g>
</svg>
