<svg xmlns="http://www.w3.org/2000/svg" viewBox="0 0 340 100" width="340" height="100">
<g>
	<path fill="#FFFFFF" d="M89,0.3h56.4L144,18.8h-37l-2.3,18c4.4-3.5,9.9-5.3,15.4-5.1c18.9,0,29.5,14.6,29.5,32.4c0,17.1-10.7,35.9-36.9,35.9
		c-24,0-33.5-15.9-33.5-32.7l23-0.9c0,9.7,3.1,16.1,11.6,16.1c11.4,0,12.1-12.9,12.1-18.2c0-12-5.8-16.9-12.4-16.9
		c-4.8-0.3-9.2,3-10.2,7.7l-20.1-3.3L89,0.3z"/>
	<path fill="#FFFFFF" d="M2,0h69.3v17.6C58.9,31.8,49.6,48.3,44,66.2c-3.5,10.3-5.7,21-6.8,31.8H10.3C16,68.8,29.2,41.5,48.7,18.9H2V0z"/>
	<path fill="#FFFFFF" d="M187.4,44.4h-11.2L161.1,0.3h11.7l9,31.4l9-31.4h11.7L187.4,44.4z"/>
	<path fill="#FFFFFF" d="M219.2,44.4v-3c-2.8,2.4-6.3,3.8-10,3.8c-5.4,0.4-10.2-3.6-10.6-9c0-0.3,0-0.6,0-0.9c0.2-4.2,2.9-7.9,6.9-9.3
		c4.2-1.4,8.5-2.4,12.8-3v-1.8c0.3-1.9-1-3.6-2.9-3.9c-0.3,0-0.5,0-0.8,0c-4,0-4.8,2.4-5.1,3.8h-9.6c0-7.2,6.6-10.1,13.7-10.1
		c5.6,0,14.1,1.5,14.1,9.3v19c-0.3,1.7,0.1,3.5,0.9,5.1H219.2z M212.1,30.9c-3.3,1.1-4.1,2.6-4.1,4.1c0.1,1.9,1.7,3.4,3.5,3.3
		c0,0,0.1,0,0.1,0c4-0.3,6.9-3.8,6.6-7.8c0-0.1,0-0.1,0-0.2v-1.5L212.1,30.9z"/>
	<path fill="#FFFFFF" d="M242.5,11.8v3.4c1.1-1,2.4-1.8,3.8-2.4c1.8-0.8,3.7-1.2,5.6-1.3v8.5l-3,0.5c-5,0.8-6,2.1-6,5.6v18.4h-9.7V11.8H242.5z"/>
	<path fill="#FFFFFF" d="M256.1,7.7V0.3h9.6v7.5H256.1z M256.1,44.4V11.8h9.6v32.6H256.1z"/>
	<path fill="#FFFFFF" d="M300.9,36.7c-2.8,5.3-8.4,8.7-14.5,8.7c-8.7,0.3-16-6.5-16.3-15.2c0-0.6,0-1.3,0-1.9c-0.6-9,6.3-16.8,15.3-17.4
		c6.1-0.4,11.8,2.6,15,7.8l-7.1,4.1c-1-2.7-3.5-4.4-6.4-4.5c-5.1,0-6.9,5.9-6.9,9.8s1.9,9.8,7.2,9.8c3.1,0,5.7-2,6.5-5L300.9,36.7z
		"/>
	<path fill="#FFFFFF" d="M326,44.4l-8.4-14.1l-4.1,4v10.1h-9.4V0.3h9.4v22.7l10.6-11.2h11.5l-11.2,11.6l12.7,21H326z"/>
	<path fill="#FFFFFF" d="M193.3,67.1c-2.9-3.4-7.2-5.4-11.7-5.5c-4.5,0-6.6,2.6-6.6,4.5c0,1.9,1.8,3.5,5.6,4l4.8,0.7c11.5,1.7,16.3,5.1,16.3,12.7
		c0,9.3-7.5,15.4-20.1,15.4c-7.8,0.5-15.3-2.9-20.1-9l8.4-5.3c3.3,3.6,7.9,5.6,12.8,5.5c3.2,0,8.1-1.4,8.1-5.1s-3.7-4-7.7-4.5
		l-5-0.7c-7.8-1.1-14.1-4.5-14.1-12.4c0-8.7,6.4-14.7,18-14.7c7.3,0,14.4,3,19.4,8.4L193.3,67.1z"/>
	<path fill="#FFFFFF" d="M217.1,72.1v15.6c0,2.2,1,2.7,2.5,2.7h3.4v7.5c-2,0.4-4,0.5-6.1,0.5c-5.3,0-9.3-1.6-9.3-9.3V72.1h-4.8v-5.9h4.8V56h9.5
		v10.2h6.4v5.8H217.1z"/>
	<path fill="#FFFFFF" d="M237.2,65.5v3.4c1.1-1.1,2.4-1.9,3.8-2.4c1.8-0.8,3.7-1.2,5.6-1.3v8.5l-3.2,0.5c-5.1,0.8-6,2.1-6,5.6V98h-9.6V65.5H237.2z
		"/>
	<path fill="#FFFFFF" d="M257,83.7v0.4c-0.2,4,2.8,7.5,6.9,7.8c0.2,0,0.4,0,0.6,0c3.7,0,7-2.3,8.3-5.8l7.2,3.8c-3.3,5.9-9.5,9.5-16.2,9.4
		c-8.6,0.6-16-5.9-16.5-14.5c-0.1-0.8,0-1.6,0-2.4c0-8.2,4-18,16.7-18c12.7,0,16.4,9.9,16.4,18.9v0.4H257z M270.5,77.8
		c0.1-3.5-2.6-6.4-6.1-6.5c-0.1,0-0.2,0-0.4,0c-3.6,0.1-6.6,2.9-6.9,6.5H270.5z"/>
	<path fill="#FFFFFF" d="M292.8,83.7v0.4c-0.2,4.1,2.9,7.5,6.9,7.8c0.2,0,0.3,0,0.5,0c3.7,0,7-2.3,8.2-5.8l7.2,3.8c-3.3,5.9-9.5,9.5-16.2,9.4
		c-8.6,0.6-16-5.9-16.5-14.5c-0.1-0.8,0-1.6,0-2.4c0-8.2,4-18,16.7-18c12.8,0,16.6,9.9,16.6,18.9v0.4H292.8z M306.2,77.8
		c0.1-3.5-2.7-6.4-6.2-6.5c-0.1,0-0.2,0-0.3,0c-3.6,0.1-6.5,2.9-6.9,6.5H306.2z"/>
	<path fill="#FFFFFF" d="M331.7,72.1v15.6c0,2.2,1,2.7,2.5,2.7h3.4v7.5c-2,0.4-4,0.5-6.1,0.5c-5.3,0-9.3-1.6-9.3-9.3V72.1h-4.8v-5.9h4.8V56h9.5
		v10.2h6.4v5.8H331.7z"/>
</g>
</svg>
