<svg xmlns="http://www.w3.org/2000/svg" viewBox="0 0 440 100" width="440" height="100">
<g>
	<path fill="#FFFFFF" d="M3.9,29.1C6.1,6,22.1,0,37.6,0C63.5,0,69,16.6,69,25.8c0.4,10-6.2,18.9-15.9,21.4
		C64,48.7,72,58.3,71.4,69.3c0,9.1-6,30.4-36.5,30.4C13.6,99.7,2,86.9,2,67.8v-2.1l22.1-1.9c0,0,0,2.7,0,4.1
		c0,8.8,5.2,14.2,11.8,14.2c7.5,0,12.7-5.2,12.7-14.2c0-10.9-8.2-12.4-14.2-12.4c-1.1,0-3.1,0-3.1,0V39.3c0,0,2.1,0,3.3,0
		c6,0.6,11.4-3.7,12-9.7c0.1-0.5,0.1-1.1,0.1-1.6c0.3-5.6-3.9-10.4-9.6-10.8c-0.3,0-0.6,0-0.9,0c-9.8,0-9.8,9.8-9.8,13.9L3.9,29.1z
		"/>
	<path fill="#FFFFFF" d="M84.1,2h55.4l-1.4,18.2h-36.3l-2.3,17.6c4.3-3.4,9.7-5.2,15.2-5c18.6,0,29,14.3,29,31.8
		c0,16.8-10.5,35.3-36.2,35.3c-23.6,0-33-15.6-33-32.1L97.1,67c0,9.5,3,15.7,11.3,15.7c11.2,0,12-12.6,12-17.9
		c0-11.8-5.7-16.6-12.2-16.6c-4.7-0.3-9,2.9-10.1,7.5l-19.8-3.3L84.1,2z"/>
	<path fill="#FFFFFF" d="M181.8,0c30.9,0,34.1,36.5,34.1,50.2c0,22.1-7.2,49.8-34.9,49.8c-22.8,0.1-33.3-19.8-33.3-50.9
		C147.6,22.1,158.2,0,181.8,0 M181.8,82.4c10.8,0,12.8-16.5,12.8-32s-2.6-32.6-13.2-32.6s-12.7,14.1-12.9,36
		c0,11.1,1.7,28.7,13.2,28.7"/>
	<polygon fill="#FFFFFF" points="253.4,45.9 253.4,27.1 237.3,27.1 237.3,45.9 226.1,45.9 226.1,1.7 237.3,1.7 237.3,17.7 
		253.4,17.7 253.4,1.7 264.5,1.7 264.5,45.9 		"/>
	<path fill="#FFFFFF" d="M290.5,45.9v-3.1c-2.4,2.7-5.9,4.2-9.5,4c-7.2,0-10.3-3.6-10.3-11.6V13.2h9.7v21c-0.2,2.4,1.5,4.6,3.9,4.8
		c0.2,0,0.5,0,0.7,0c2.7,0.3,5.2-1.7,5.5-4.4c0-0.3,0-0.7,0-1V13.2h9.6v32.7H290.5z"/>
	<path fill="#FFFFFF" d="M326.7,45.9v-3.1c-2.2,2.5-5.4,4-8.8,4c-7.7,0-14.2-6-14.2-17c0-9.7,4.8-17.6,13.7-17.6
		c3.3,0,6.4,1.2,8.8,3.4V1.7h9.3v44.1L326.7,45.9z M319.9,39.7c6.3,0,6.5-8.2,6.5-9.8c0-4.1-0.7-10.3-6-10.3
		c-5.3,0-6.7,5.6-6.7,10.2C313.7,32.6,314.3,39.7,319.9,39.7"/>
	<path fill="#FFFFFF" d="M362,22.6c-2.3-2-5.3-3.1-8.3-3.3c-2.1,0-4.4,0.7-4.4,2.5c0,1.9,1.5,2,5.3,2.8l2.3,0.4
		c6.8,1.4,11.7,4.2,11.7,10.2c0,8.1-8.8,11.4-15.4,11.4c-5.9,0.2-11.7-2.1-15.9-6.3l6-5.5c2.5,2.7,5.9,4.2,9.5,4.4
		c3.2,0,5.8-1.1,5.8-3.2s-1.7-2.3-5.2-2.9l-3-0.4c-7.8-1.3-10.9-4.7-10.9-9.7s4.4-10.9,13.9-10.9c5.3,0,10.5,1.7,14.7,4.9L362,22.6
		z"/>
	<path fill="#FFFFFF" d="M387.4,46.9c-9,0.8-16.9-5.8-17.6-14.8c-0.1-1-0.1-1.9,0-2.9c0-9.7,7.9-17.6,17.6-17.6S405,19.5,405,29.2
		c0.7,8.9-6,16.7-14.9,17.4c-0.9,0.1-1.8,0.1-2.7,0 M387,19.6c-3.6,0-7.5,2.7-7.5,9.6c0,5.4,2.3,9.7,7.9,9.7s7.7-4.4,7.7-9.3
		C395.2,22.6,392.3,19.6,387,19.6"/>
	<path fill="#FFFFFF" d="M428.2,45.9V25.8c0-3.1-0.9-5.6-4.7-5.6c-3.8,0-5.1,3.1-5.1,7.5v18.3h-9.7V13.2h9.7v2.9
		c2.4-2.5,5.7-3.9,9.2-3.7c4.8-0.8,9.3,2.5,10.1,7.3c0.1,0.9,0.2,1.8,0,2.7v23.5H428.2z"/>
	<path fill="#FFFFFF" d="M255.3,67c-2.9-3.3-7.1-5.3-11.6-5.3c-4.4,0-6.6,2.6-6.6,4.7c0,2.1,1.9,3.5,5.6,4.1l4.9,0.7
		c11.5,1.6,16.3,5.2,16.3,12.7c0,9.4-7.5,15.4-20.1,15.4c-7.8,0.6-15.3-2.7-20.2-8.8l8.4-5.3c3.3,3.4,7.8,5.3,12.6,5.2
		c3.3,0,8.2-1.4,8.2-5.1s-3.7-4-7.7-4.4l-4.9-0.8c-7.8-1.1-14.1-4.7-14.1-12.4c0-8.8,6.4-14.8,17.6-14.8c7.4,0,14.4,3,19.5,8.4
		L255.3,67z"/>
	<path fill="#FFFFFF" d="M278.3,72.1v15.7c0,2.2,1,2.7,2.5,2.7h3.4v7.5c-2,0.4-4,0.5-6.1,0.5c-5.2,0-9.3-1.6-9.3-9.3V72.1H264v-5.9
		h4.8V56h9.5v10.2h6.4V72L278.3,72.1z"/>
	<path fill="#FFFFFF" d="M296.9,65.4v3.4c1.1-1.1,2.4-1.9,3.8-2.4c1.8-0.8,3.7-1.2,5.6-1.3v8.5l-3.2,0.5c-5.1,0.8-6,2.1-6,5.6v18.4
		h-9.6V65.4H296.9z"/>
	<path fill="#FFFFFF" d="M316.4,83.8v0.4c-0.2,4,2.9,7.5,6.9,7.7c0.2,0,0.5,0,0.7,0c3.7,0,7-2.3,8.2-5.8l7.3,3.7
		c-3.3,5.9-9.5,9.5-16.3,9.5c-8.6,0.5-16-6-16.5-14.6c0-0.8,0-1.6,0-2.3c0-8.2,4-18,16.8-18c12.8,0,16.4,9.8,16.4,18.9v0.5H316.4z
		 M329.7,77.8c0.1-3.5-2.6-6.3-6.1-6.4c-0.1,0-0.3,0-0.4,0c-3.6,0.1-6.5,2.9-6.9,6.4H329.7z"/>
	<path fill="#FFFFFF" d="M351,83.8v0.4c-0.2,4,2.8,7.5,6.9,7.8c0.2,0,0.4,0,0.6,0c3.7,0,7-2.3,8.2-5.8l7.3,3.7
		c-3.3,5.9-9.5,9.5-16.3,9.5c-8.6,0.6-16-5.9-16.6-14.5c-0.1-0.8,0-1.6,0-2.4c0-8.2,4-18,16.8-18s16.4,9.8,16.4,18.9v0.4H351z
		 M364.2,77.8c0.1-3.5-2.7-6.4-6.2-6.4c-0.1,0-0.2,0-0.4,0c-3.6,0.1-6.6,2.9-6.9,6.4H364.2z"/>
	<path fill="#FFFFFF" d="M388.3,72.1v15.7c0,2.2,1,2.7,2.5,2.7h3.4v7.5c-2,0.4-4,0.5-6,0.5c-5.2,0-9.4-1.6-9.4-9.3V72.1h-4.7v-5.9
		h4.7V56h9.5v10.2h6.3V72L388.3,72.1z"/>
</g>
</svg>
