<?xml version="1.0" encoding="UTF-8"?>
<svg width="20px" height="20px" viewBox="0 0 20 20" version="1.1" xmlns="http://www.w3.org/2000/svg" xmlns:xlink="http://www.w3.org/1999/xlink">
    <!-- Generator: Sketch 58 (84663) - https://sketch.com -->
    <title>icon/fb-white</title>
    <desc>Created with Sketch.</desc>
    <g id="Design" stroke="none" stroke-width="1" fill="none" fill-rule="evenodd">
        <g id="ROW-Desktop-Home-1" transform="translate(-80.000000, -1246.000000)" fill="#FFFFFF" fill-rule="nonzero">
            <g id="footer-drawer" transform="translate(0.000000, 960.000000)">
                <g id="visit" transform="translate(44.000000, 64.000000)">
                    <g id="social" transform="translate(0.000000, 222.000000)">
                        <path d="M52.2500009,0 C53.2829908,0 54.1662276,0.366750411 54.89974,1.10025998 C55.6332496,1.83377246 56,2.71700911 56,3.74999908 L56,16.2500009 C56,17.2829915 55.6332496,18.1662289 54.89974,18.8997397 C54.1662276,19.6332502 53.2829908,20 52.2500009,20 L49.8020835,20 L49.8020835,12.2526043 L52.3932297,12.2526043 L52.7838529,9.23177189 L49.8020835,9.23177189 L49.8020835,7.30468652 C49.8020835,6.81857444 49.9040793,6.45399403 50.1080739,6.21093654 C50.3120656,5.96788196 50.7091988,5.84635321 51.2994797,5.84635321 L52.8880217,5.83333321 L52.8880217,3.13802119 C52.3411438,3.05989536 51.5685801,3.02083244 50.5703131,3.02083244 C49.3897514,3.02083244 48.4457489,3.36805284 47.7382822,4.06249949 C47.0308127,4.75694906 46.6770823,5.73784155 46.6770823,7.00520902 L46.6770823,9.23177189 L44.0729161,9.23177189 L44.0729161,12.2526043 L46.6770823,12.2526043 L46.6770823,20 L39.7499991,20 C38.7170085,20 37.8337711,19.6332502 37.1002603,18.8997397 C36.3667498,18.1662289 36,17.2829915 36,16.2500009 L36,3.74999908 C36,2.71700911 36.3667498,1.83377246 37.1002603,1.10025998 C37.8337711,0.366750411 38.7170085,0 39.7499991,0 L52.2500009,0 Z" id="icon/fb-white"></path>
                    </g>
                </g>
            </g>
        </g>
    </g>
</svg>